G04 CAM350 V9.5 (Build 208) Date:  Fri Nov 28 16:59:12 2008 *
G04 Database: (Untitled) *
G04 Layer 2: art002.pho *
%FSLAX35Y35*%
%MOIN*%
%SFA1.000B1.000*%

%MIA0B0*%
%IPPOS*%
%ADD15R,0.06000X0.06000*%
%ADD18C,0.06000*%
%ADD21R,0.05000X0.05000*%
%ADD26C,0.05000*%
%ADD29C,0.01500*%
%ADD31C,0.02000*%
%ADD33C,0.01000*%
%ADD135C,0.01969*%
%ADD152C,0.01800*%
%ADD169O,0.07400X0.02400*%
%ADD189R,0.04370X0.03098*%
%ADD190R,0.03098X0.04370*%
%ADD413C,0.05906*%
%LNart002.pho*%
%LPD*%
G54D15*
X1921417Y1539212D03*
X1932952Y1579999D03*
X2070866Y1649370D03*
G54D18*
X1921417Y1549212D03*
X1931417Y1539212D03*
Y1549212D03*
X1941417Y1539212D03*
Y1549212D03*
X1951417Y1539212D03*
Y1549212D03*
X1961417Y1539212D03*
Y1549212D03*
X1922952Y1579999D03*
X1932952Y1589999D03*
X1922952D03*
X1932952Y1599999D03*
X1922952D03*
X1932952Y1609999D03*
X1922952D03*
X1932952Y1619999D03*
X1922952D03*
X2070866Y1639370D03*
Y1629370D03*
G54D21*
X2082363Y1545933D03*
G54D26*
Y1538059D03*
X2074489Y1545933D03*
Y1538059D03*
X2066615Y1545933D03*
Y1538059D03*
X2058741Y1545933D03*
Y1538059D03*
X2050867Y1545933D03*
Y1538059D03*
X2042993Y1545933D03*
Y1538059D03*
X2035119Y1545933D03*
Y1538059D03*
X2027245Y1545933D03*
Y1538059D03*
X2019371Y1545933D03*
Y1538059D03*
X2011497Y1545933D03*
Y1538059D03*
G54D31*
X1970280Y1655873D03*
G54D33*
X2054530Y1618888D03*
Y1618888D03*
Y1619453D03*
X2040780Y1594545D03*
X2041346D03*
X2040780D03*
X2041063Y1600933D03*
X2040780Y1602451D03*
X2042437Y1659779D03*
X2042154Y1661297D03*
X2048916Y1613933D03*
Y1614498D03*
X2053964Y1619453D03*
X2054530D03*
X2053964D03*
X2054247Y1627979D03*
X2053964Y1629497D03*
X1927293Y1656937D03*
X1938827Y1587999D03*
Y1587999D03*
G54D135*
X2093740Y1591338D03*
Y1608661D03*
G54D152*
X1895535Y1535311D03*
X1912706Y1533403D03*
X1926364Y1532223D03*
X1972143Y1532214D03*
X1968921Y1534604D03*
X1977632Y1534320D03*
X1983292Y1533949D03*
X1989224Y1534605D03*
X1995326Y1532250D03*
X2071163Y1532621D03*
X2078946Y1533697D03*
X1946115Y1543194D03*
X1972135Y1539336D03*
X1969726Y1541584D03*
X1989224D03*
X1998659Y1546222D03*
X2001480Y1545944D03*
X2004215Y1539338D03*
X1894342Y1548508D03*
X1900480Y1553867D03*
X1914932Y1555504D03*
X1941537Y1555597D03*
X1956344Y1554168D03*
X1961084Y1556137D03*
X1974146Y1556251D03*
X1975736Y1547821D03*
X1986214Y1548825D03*
X1980155Y1553651D03*
X1988438Y1553730D03*
X1997106Y1555625D03*
X1989338Y1548858D03*
X1994946Y1553369D03*
X1992746Y1551074D03*
X2019336Y1556730D03*
X2027240Y1554523D03*
X2035066Y1552314D03*
X2040611Y1553885D03*
X2043209Y1549947D03*
X2088369Y1550821D03*
X1894651Y1558609D03*
X1904530Y1558921D03*
X1901142Y1566867D03*
X1912294Y1563042D03*
X1964916Y1566796D03*
X2015606Y1562295D03*
X2009550Y1562924D03*
X2012708Y1565608D03*
X2019274Y1564441D03*
X2027156Y1566393D03*
X2024211Y1566664D03*
X2038719Y1566426D03*
X2042852Y1557589D03*
X2050848Y1561801D03*
X2058803Y1564172D03*
X2105879Y1564505D03*
X2105027Y1558354D03*
X1897314Y1572411D03*
X1907451Y1573558D03*
X1913889Y1569840D03*
X1955920Y1571134D03*
X1956704Y1568074D03*
X1974699Y1573952D03*
X1988031Y1576402D03*
X2014330Y1569174D03*
X2021662Y1569535D03*
X2029584Y1576414D03*
X2034552Y1571811D03*
X2032119Y1573991D03*
X2050255Y1569529D03*
X2062118Y1569519D03*
X2087063Y1575433D03*
X2091334Y1567242D03*
X2096763Y1575433D03*
X2105269Y1571310D03*
X1896107Y1582215D03*
X1902079Y1577997D03*
X1901325Y1584019D03*
X1910081Y1585059D03*
X1942488Y1584856D03*
X1956587Y1583646D03*
X1957160Y1586303D03*
X1964863Y1577795D03*
X1988322Y1579904D03*
X1988195Y1583935D03*
X2009421Y1579187D03*
X2027174Y1579233D03*
X2021681Y1583150D03*
X2019296Y1585248D03*
X2024211Y1581014D03*
X2049863Y1586133D03*
X2055263Y1582533D03*
X2064963Y1581333D03*
X2070779Y1582790D03*
X2095553Y1583252D03*
X1897196Y1592033D03*
X1904946Y1591990D03*
X1942820Y1593941D03*
X1964639Y1595635D03*
X1964409Y1592869D03*
X1988174Y1594516D03*
X2017035Y1588989D03*
X2010557Y1595695D03*
X2014312Y1589366D03*
X2012007Y1587430D03*
X2037270Y1593532D03*
X2041063Y1594262D03*
X2071264Y1592392D03*
X2096819Y1596645D03*
X2102727Y1595526D03*
X1897078Y1605036D03*
X1906714Y1605405D03*
X1901325Y1598434D03*
X1909844Y1598298D03*
X1940878Y1599685D03*
X1952855Y1602713D03*
X1956069Y1600821D03*
X1967247Y1603483D03*
X1964571Y1606127D03*
X1964299Y1602939D03*
X1990524Y1600866D03*
X1995894Y1605508D03*
X1992841Y1603472D03*
X2017263Y1604133D03*
X2026263D03*
X2021763D03*
X2033531Y1597546D03*
X2038512Y1605369D03*
X2041063Y1602733D03*
X2050443Y1597382D03*
X2057036Y1606866D03*
X2055263Y1599733D03*
X2061669Y1598362D03*
X2097858Y1603805D03*
X2101040Y1601899D03*
X2105965Y1599236D03*
X2103332Y1606302D03*
X1901507Y1612301D03*
X1917465Y1613164D03*
X1909726Y1612838D03*
X1941103Y1607416D03*
X1951744Y1611546D03*
X1960307Y1615808D03*
X1972756Y1614461D03*
X1970017Y1612484D03*
X1969926Y1609110D03*
X1976966Y1611421D03*
X1983283Y1614461D03*
X1998540Y1607610D03*
X1993861Y1612174D03*
X2001495Y1609258D03*
X2004700Y1616573D03*
X2017263Y1613133D03*
Y1608633D03*
X2021763Y1613133D03*
X2026263D03*
Y1608633D03*
X2021819Y1608627D03*
X2047663Y1608633D03*
X2042437Y1607933D03*
X2048633Y1614215D03*
X2052478Y1608460D03*
X2055363Y1611533D03*
X2071284Y1608067D03*
X2083717Y1610661D03*
X1896605Y1618394D03*
X1905050Y1619548D03*
X1901325Y1625439D03*
X1909608Y1625132D03*
X1942173Y1623398D03*
X1976961Y1617494D03*
X2012544Y1625807D03*
X2017054Y1625881D03*
X2022460Y1625867D03*
X2034218Y1621025D03*
X2030024Y1625982D03*
X2054247Y1619170D03*
X2062841Y1625990D03*
X2071308Y1621680D03*
X1896487Y1632342D03*
X1905986Y1631091D03*
X1920595Y1630621D03*
X1939171Y1634874D03*
X1976401Y1634880D03*
X1997823Y1635576D03*
X1994095Y1636683D03*
X2038722Y1633493D03*
X2045663Y1629779D03*
X2054247D03*
X2079277Y1629617D03*
X2097532Y1634747D03*
X1901507Y1638394D03*
X1909253Y1638016D03*
X1921944Y1645632D03*
X1922395Y1638592D03*
X1930273Y1638719D03*
X1937898Y1638871D03*
X1942220Y1642229D03*
X1976785Y1642224D03*
X1994968Y1641353D03*
X2022677Y1645849D03*
X2038315Y1638614D03*
X2048615Y1643599D03*
X2057998Y1641648D03*
X2078148Y1638147D03*
X1940477Y1648265D03*
X1954948Y1651948D03*
X1976335Y1649533D03*
X1992602Y1648175D03*
X1991941Y1653117D03*
X2011014Y1652036D03*
X2027142Y1652699D03*
X1918587Y1663474D03*
X1928596Y1663812D03*
X1939546D03*
X1950167Y1664598D03*
X1965096Y1659298D03*
X1976903D03*
X1970271Y1665007D03*
X1982123Y1665008D03*
X1985859Y1664869D03*
X2008738Y1661580D03*
X2008429Y1664528D03*
X2015183Y1658444D03*
X2042437Y1661579D03*
X2051982Y1664528D03*
X2062837Y1658439D03*
X2061388Y1664296D03*
X2072761Y1664538D03*
X2075907Y1659214D03*
X2083409Y1664538D03*
X2103974Y1665462D03*
X1974750Y1667944D03*
X2005557Y1667771D03*
X2015189D03*
X2029465Y1667680D03*
X2039589Y1667861D03*
G54D169*
X1948280Y1561221D03*
Y1566221D03*
Y1571221D03*
Y1576221D03*
Y1581221D03*
Y1586221D03*
Y1591221D03*
Y1596221D03*
X1970280D03*
Y1591221D03*
Y1586221D03*
Y1581221D03*
Y1576221D03*
Y1571221D03*
Y1566221D03*
Y1561221D03*
X1982237D03*
Y1566221D03*
Y1571221D03*
Y1576221D03*
Y1581221D03*
Y1586221D03*
Y1591221D03*
Y1596221D03*
X2004237D03*
Y1591221D03*
Y1586221D03*
Y1581221D03*
Y1576221D03*
Y1571221D03*
Y1566221D03*
Y1561221D03*
X1970280Y1656937D03*
Y1651937D03*
Y1646937D03*
Y1641937D03*
Y1636937D03*
Y1631937D03*
Y1626937D03*
Y1621937D03*
X1948280D03*
Y1626937D03*
Y1631937D03*
Y1636937D03*
Y1641937D03*
Y1646937D03*
Y1651937D03*
Y1656937D03*
X2004237D03*
Y1651937D03*
Y1646937D03*
Y1641937D03*
Y1636937D03*
Y1631937D03*
Y1626937D03*
Y1621937D03*
X1982237D03*
Y1626937D03*
Y1631937D03*
Y1636937D03*
Y1641937D03*
Y1646937D03*
Y1651937D03*
Y1656937D03*
G54D189*
X1960197Y1604026D03*
Y1610022D03*
G54D190*
X1989078Y1664843D03*
X1995074D03*
X1983281Y1610112D03*
X1989277D03*
X1955824Y1664843D03*
X1961820D03*
G54D413*
X1905511Y1542913D03*
X2094487D03*
Y1657086D03*
X1905511D03*
G54D29*
X1928892Y1584060D02*
G01X1930831Y1582121D01*
X1937013Y1584060D02*
G01X1935074Y1582121D01*
X1937013Y1575939D02*
G01X1935074Y1577878D01*
X1928892Y1575939D02*
G01X1930831Y1577878D01*
X1917356Y1535151D02*
G01X1919296Y1537091D01*
X1917356Y1543273D02*
G01X1919296Y1541333D01*
X2085924Y1549494D02*
G01X2084131Y1547701D01*
X2085924Y1542373D02*
G01X2084131Y1544166D01*
G54D31*
X1956344Y1554168D02*
G01Y1559817D01*
Y1559817D02*
G01X1954940Y1561221D01*
Y1561221D02*
G01X1948280D01*
X1980155Y1553651D02*
G01X1984257D01*
Y1553651D02*
G01X1984336Y1553730D01*
Y1553730D02*
G01X1988438D01*
Y1553730D02*
G01X1986670Y1555498D01*
Y1555498D02*
G01Y1556994D01*
Y1556994D02*
G01X1987069Y1557393D01*
Y1557393D02*
G01Y1558889D01*
Y1558889D02*
G01X1984737Y1561221D01*
Y1561221D02*
G01X1982237D01*
X1970280Y1566221D02*
G01Y1571221D01*
X2042852Y1557589D02*
G01Y1561853D01*
Y1561853D02*
G01X2042843Y1561862D01*
Y1561862D02*
G01Y1567514D01*
Y1567514D02*
G01X2037270Y1573087D01*
Y1573087D02*
G01Y1593532D01*
X2087063Y1575433D02*
G01Y1594483D01*
Y1594483D02*
G01X2089225Y1596645D01*
Y1596645D02*
G01X2096819D01*
X1960197Y1602411D02*
G75*
G03X1959333Y1603477I-1089J0D01*
X1961061D02*
G03X1960197Y1602411I226J-1066D01*
X1948280Y1596221D02*
G01X1955542D01*
Y1596221D02*
G01X1960197Y1600876D01*
Y1600876D02*
G01Y1604026D01*
X2017035Y1588989D02*
G01X2024881D01*
Y1588989D02*
G01X2029424Y1593532D01*
Y1593532D02*
G01X2037270D01*
Y1593532D02*
G01Y1603939D01*
Y1603939D02*
G01X2037176Y1604033D01*
Y1604033D02*
G01X2038512Y1605369D01*
X1964299Y1602939D02*
G01X1961284D01*
Y1602939D02*
G01X1960197Y1604026D01*
X2038512Y1605369D02*
G01Y1624517D01*
Y1624517D02*
G01X2037047Y1625982D01*
Y1625982D02*
G01X2030024D01*
X1960307Y1615808D02*
G01Y1644464D01*
Y1644464D02*
G01X1967780Y1651937D01*
Y1651937D02*
G01X1970280D01*
X1959333Y1610572D02*
G03X1960197Y1611638I-225J1066D01*
Y1611638D02*
G03X1961061Y1610572I1090J1D01*
X1960197Y1610022D02*
G01Y1613185D01*
Y1613185D02*
G01X1960307Y1613295D01*
Y1613295D02*
G01Y1615808D01*
X1976966Y1611421D02*
G01Y1614455D01*
Y1614455D02*
G01X1976961Y1614460D01*
Y1614460D02*
G01Y1617494D01*
X1993861Y1612174D02*
G01Y1615773D01*
Y1615773D02*
G01X1994661Y1616573D01*
Y1616573D02*
G01X2004700D01*
X1989827Y1610976D02*
G03X1990893Y1610112I1067J226D01*
Y1610112D02*
G03X1989827Y1609248I0J-1089D01*
X1989277Y1610112D02*
G01X1992427D01*
Y1610112D02*
G01X1993861Y1611546D01*
Y1611546D02*
G01Y1612174D01*
X2022460Y1625867D02*
G01X2019793D01*
Y1625867D02*
G01X2019779Y1625881D01*
Y1625881D02*
G01X2017054D01*
X2022460Y1625867D02*
G01X2026185D01*
Y1625867D02*
G01X2026300Y1625982D01*
Y1625982D02*
G01X2030024D01*
X2062841Y1625990D02*
G01Y1642185D01*
Y1642185D02*
G01X2062837Y1642189D01*
Y1642189D02*
G01Y1658439D01*
X2071308Y1621680D02*
G01X2095488D01*
Y1621680D02*
G01X2097532Y1623724D01*
Y1623724D02*
G01Y1634747D01*
X2004237Y1646937D02*
G01X2013753D01*
Y1646937D02*
G01X2015183Y1648367D01*
Y1648367D02*
G01Y1658444D01*
X1970280Y1651937D02*
G01Y1655873D01*
Y1655873D02*
G01Y1656937D01*
Y1656937D02*
G01Y1661118D01*
Y1661118D02*
G01X1970271Y1661127D01*
Y1661127D02*
G01Y1665007D01*
X2004237Y1656937D02*
G01X2011228D01*
Y1656937D02*
G01X2012638Y1658444D01*
Y1658444D02*
G01X2015183D01*
X1962370Y1665707D02*
G03X1963436Y1664843I1067J226D01*
Y1664843D02*
G03X1962370Y1663979I0J-1089D01*
X1961820Y1664843D02*
G01X1969796D01*
Y1664843D02*
G01X1969949Y1664996D01*
Y1664996D02*
G01X1970271Y1665007D01*
X1995624Y1665974D02*
G03X1996378Y1666147I239J688D01*
Y1666147D02*
G03X1995624Y1664811I2023J-2023D01*
X1995074Y1664843D02*
G01X1998002Y1667771D01*
Y1667771D02*
G01X2005557D01*
X2015183Y1658444D02*
G01Y1663153D01*
Y1663153D02*
G01X2015189Y1663159D01*
Y1663159D02*
G01Y1667771D01*
G54D33*
X2056047Y1619170D02*
G01X2054530Y1619453D01*
Y1619453D02*
G01X2055647Y1619170D01*
Y1619170D02*
G01X2054530Y1618888D01*
Y1618888D02*
G01X2056047Y1619170D01*
X2055530Y1619074D02*
G01Y1619141D01*
Y1619200D02*
G01Y1619267D01*
X2041063Y1596062D02*
G01X2040780Y1594545D01*
Y1594545D02*
G01X2041063Y1595662D01*
Y1595662D02*
G01X2041346Y1594545D01*
Y1594545D02*
G01X2041063Y1596062D01*
X2040967Y1595545D02*
G01X2041034D01*
X2041093D02*
G01X2041160D01*
X2041063Y1600933D02*
G01X2041346Y1602451D01*
Y1602451D02*
G01X2041063Y1601333D01*
Y1601333D02*
G01X2040780Y1602451D01*
Y1602451D02*
G01X2041063Y1600933D01*
X2040877Y1601933D02*
G01X2040911D01*
X2041215D02*
G01X2041250D01*
X2042437Y1659779D02*
G01X2042720Y1661297D01*
Y1661297D02*
G01X2042437Y1660179D01*
Y1660179D02*
G01X2042154Y1661297D01*
Y1661297D02*
G01X2042437Y1659779D01*
X2042251Y1660779D02*
G01X2042285D01*
X2042589D02*
G01X2042624D01*
X2050433Y1614217D02*
G01X2048916Y1614498D01*
Y1614498D02*
G01X2050033Y1614216D01*
Y1614216D02*
G01X2048916Y1613933D01*
Y1613933D02*
G01X2050433Y1614217D01*
X2049916Y1614120D02*
G01Y1614187D01*
Y1614246D02*
G01Y1614313D01*
X2054247Y1620970D02*
G01X2053964Y1619453D01*
Y1619453D02*
G01X2054247Y1620570D01*
Y1620570D02*
G01X2054530Y1619453D01*
Y1619453D02*
G01X2054247Y1620970D01*
X2054151Y1620453D02*
G01X2054218D01*
X2054277D02*
G01X2054344D01*
X2054247Y1627979D02*
G01X2054530Y1629497D01*
Y1629497D02*
G01X2054247Y1628379D01*
Y1628379D02*
G01X2053964Y1629497D01*
Y1629497D02*
G01X2054247Y1627979D01*
X2054061Y1628979D02*
G01X2054095D01*
X2054399D02*
G01X2054434D01*
X1926364Y1533163D02*
G03X1926639Y1532514I905D01*
X1926089D02*
G03X1926364Y1533163I-628J649D01*
X1924670Y1578183D02*
G03X1922953Y1574124I3936J-4058D01*
X1922952D02*
G03X1921235Y1578183I-5653J2D01*
X1923852Y1577667D02*
G03X1922953Y1574124I6525J-3542D01*
X1923239Y1577516D02*
G03X1922952Y1574124I19892J-3391D01*
Y1574124D02*
G03X1922665Y1577516I-20177D01*
X1922952Y1574124D02*
G03X1922052Y1577667I-7424D01*
X1926364Y1532223D02*
G01Y1561417D01*
Y1561417D02*
G01X1922952Y1564829D01*
Y1564829D02*
G01Y1579999D01*
X1972143Y1533154D02*
G03X1972418Y1532505I905D01*
X1971868D02*
G03X1972143Y1533154I-628J649D01*
X1972410Y1539046D02*
G03X1972136Y1538396I630J-649D01*
X1972135D02*
G03X1971859Y1539045I-903D01*
X1972143Y1532214D02*
G01Y1534968D01*
Y1534968D02*
G01X1972135Y1534976D01*
Y1534976D02*
G01Y1539336D01*
X1989224Y1535545D02*
G03X1989499Y1534896I905D01*
X1988949D02*
G03X1989224Y1535545I-628J649D01*
X1989499Y1541294D02*
G03X1989225Y1540644I630J-649D01*
X1989224D02*
G03X1988948Y1541293I-903D01*
X1989224Y1534605D02*
G01Y1541584D01*
X1931487Y1541711D02*
G03X1935571Y1543366I86J5653D01*
Y1543366D02*
G03X1933916Y1539282I3997J-3997D01*
X1932430Y1541498D02*
G03X1935571Y1543366I-2108J7119D01*
X1932970Y1541171D02*
G03X1935571Y1543366I-11666J16464D01*
Y1543366D02*
G03X1933376Y1540765I14268J-14267D01*
X1935571Y1543366D02*
G03X1933703Y1540225I5250J-5249D01*
X1940873Y1554933D02*
G03X1941138Y1555586I-639J639D01*
X1941526Y1555198D02*
G03X1940873Y1554933I-13J-904D01*
X1931417Y1539212D02*
G01X1936417Y1544213D01*
Y1544213D02*
G01Y1550477D01*
Y1550477D02*
G01X1941537Y1555597D01*
X1951487Y1541711D02*
G03X1955571Y1543366I86J5653D01*
Y1543366D02*
G03X1953916Y1539282I3997J-3997D01*
X1952430Y1541498D02*
G03X1955571Y1543366I-2108J7119D01*
X1952970Y1541171D02*
G03X1955571Y1543366I-11666J16464D01*
Y1543366D02*
G03X1953376Y1540765I14268J-14267D01*
X1955571Y1543366D02*
G03X1953703Y1540225I5250J-5249D01*
X1951417Y1539212D02*
G01X1956417Y1544213D01*
Y1544213D02*
G01Y1550641D01*
Y1550641D02*
G01X1961116Y1555340D01*
Y1555340D02*
G01Y1556105D01*
Y1556105D02*
G01X1961084Y1556137D01*
X1972135Y1540276D02*
G03X1972410Y1539627I905D01*
X1971860D02*
G03X1972135Y1540276I-628J649D01*
X1972982Y1560734D02*
G03X1970280Y1557641I419J-3092D01*
Y1557641D02*
G03X1967578Y1560734I-3120J1D01*
X1972082D02*
G03X1970280Y1557641I1753J-3093D01*
X1971181Y1560734D02*
G03X1970280Y1557641I4858J-3092D01*
Y1557641D02*
G01Y1560734D01*
Y1557641D02*
G03X1969380Y1560734I-5759J2D01*
X1970280Y1557641D02*
G03X1968479Y1560734I-3555J1D01*
X1972135Y1539336D02*
G01Y1547121D01*
Y1547121D02*
G01X1970280Y1548976D01*
Y1548976D02*
G01Y1561221D01*
X1969726Y1542524D02*
G03X1970001Y1541875I905D01*
X1969451D02*
G03X1969726Y1542524I-628J649D01*
X1965191Y1566506D02*
G03X1964917Y1565856I630J-649D01*
X1964916D02*
G03X1964640Y1566505I-903D01*
X1969726Y1541584D02*
G01Y1546984D01*
Y1546984D02*
G01X1964916Y1551794D01*
Y1551794D02*
G01Y1566796D01*
X1998659Y1547162D02*
G03X1998934Y1546513I905D01*
X1998384D02*
G03X1998659Y1547162I-628J649D01*
X1997506Y1555614D02*
G03X1997771Y1554961I905J-13D01*
Y1554961D02*
G03X1997117Y1555226I-639J-639D01*
X1998659Y1546222D02*
G01Y1554072D01*
Y1554072D02*
G01X1997106Y1555625D01*
X2001480Y1546884D02*
G03X2001755Y1546235I905D01*
X2001205D02*
G03X2001480Y1546884I-628J649D01*
X2001770Y1608968D02*
G03X2001496Y1608318I630J-649D01*
X2001495D02*
G03X2001219Y1608967I-903D01*
X2001480Y1545944D02*
G01Y1556153D01*
Y1556153D02*
G01X1999237Y1558396D01*
Y1558396D02*
G01Y1601664D01*
Y1601664D02*
G01X2001495Y1603922D01*
Y1603922D02*
G01Y1609258D01*
X2004215Y1540278D02*
G03X2004490Y1539629I905D01*
X2003940D02*
G03X2004215Y1540278I-628J649D01*
X2006939Y1560734D02*
G03X2004237Y1557641I419J-3092D01*
Y1557641D02*
G03X2001535Y1560734I-3120J1D01*
X2006039D02*
G03X2004237Y1557641I1753J-3093D01*
X2005138Y1560734D02*
G03X2004237Y1557641I4858J-3092D01*
Y1557641D02*
G01Y1560734D01*
Y1557641D02*
G03X2003337Y1560734I-5759J2D01*
X2004237Y1557641D02*
G03X2002436Y1560734I-3555J1D01*
X2004215Y1539338D02*
G01Y1549175D01*
Y1549175D02*
G01X2004237Y1549197D01*
Y1549197D02*
G01Y1561221D01*
X2011553Y1540059D02*
G03X2014820Y1541384I69J4522D01*
X2014821Y1541383D02*
G03X2013496Y1538115I3197J-3199D01*
X2012431Y1539828D02*
G03X2014821Y1541383I-2478J6423D01*
Y1541383D02*
G01X2012911Y1539474D01*
X2014821Y1541383D02*
G03X2013266Y1538993I4868J-4868D01*
X2012983Y1565318D02*
G03X2012709Y1564668I630J-649D01*
X2012708D02*
G03X2012432Y1565317I-903D01*
X2011497Y1538059D02*
G01X2015297Y1541859D01*
Y1541859D02*
G01Y1554963D01*
Y1554963D02*
G01X2012708Y1557552D01*
Y1557552D02*
G01Y1565608D01*
X2019427Y1540059D02*
G03X2022694Y1541384I69J4522D01*
X2022695Y1541383D02*
G03X2021370Y1538115I3197J-3199D01*
X2020305Y1539828D02*
G03X2022695Y1541383I-2478J6423D01*
Y1541383D02*
G01X2020785Y1539474D01*
X2022695Y1541383D02*
G03X2021140Y1538993I4868J-4868D01*
X2029859Y1576124D02*
G03X2029585Y1575474I630J-649D01*
X2029584D02*
G03X2029308Y1576123I-903D01*
X2019371Y1538059D02*
G01X2023308Y1541996D01*
Y1541996D02*
G01Y1555845D01*
Y1555845D02*
G01X2029584Y1562121D01*
Y1562121D02*
G01Y1576414D01*
X2019371Y1550633D02*
G03X2020745Y1547387I4523D01*
X2017997D02*
G03X2019371Y1550633I-3148J3246D01*
Y1550633D02*
G03X2019961Y1547844I6886D01*
X2019371Y1550633D02*
G01Y1547933D01*
X2018781Y1547844D02*
G03X2019371Y1550633I-6294J2789D01*
X2019611Y1556440D02*
G03X2019337Y1555790I630J-649D01*
X2019336D02*
G03X2019060Y1556439I-903D01*
X2019371Y1545933D02*
G01Y1553022D01*
Y1553022D02*
G01X2019336Y1553057D01*
Y1553057D02*
G01Y1556730D01*
X2027301Y1540059D02*
G03X2030568Y1541384I69J4522D01*
X2030569Y1541383D02*
G03X2029244Y1538115I3197J-3199D01*
X2028179Y1539828D02*
G03X2030569Y1541383I-2478J6423D01*
Y1541383D02*
G01X2028659Y1539474D01*
X2030569Y1541383D02*
G03X2029014Y1538993I4868J-4868D01*
X2032394Y1573701D02*
G03X2032120Y1573051I630J-649D01*
X2032119D02*
G03X2031843Y1573700I-903D01*
X2027245Y1538059D02*
G01X2031237Y1542051D01*
Y1542051D02*
G01Y1550202D01*
Y1550202D02*
G01X2032119Y1551084D01*
Y1551084D02*
G01Y1573991D01*
X2027245Y1550633D02*
G03X2028619Y1547387I4523D01*
X2025871D02*
G03X2027245Y1550633I-3148J3246D01*
Y1550633D02*
G03X2027835Y1547844I6886D01*
X2027245Y1550633D02*
G01Y1547933D01*
X2026655Y1547844D02*
G03X2027245Y1550633I-6294J2789D01*
X2027515Y1554233D02*
G03X2027241Y1553583I630J-649D01*
X2027240D02*
G03X2026964Y1554232I-903D01*
X2027245Y1545933D02*
G01Y1551740D01*
Y1551740D02*
G01X2027240Y1551745D01*
Y1551745D02*
G01Y1554523D01*
X2035175Y1540059D02*
G03X2038442Y1541384I69J4522D01*
X2038443Y1541383D02*
G03X2037118Y1538115I3197J-3199D01*
X2036053Y1539828D02*
G03X2038443Y1541383I-2478J6423D01*
Y1541383D02*
G01X2036533Y1539474D01*
X2038443Y1541383D02*
G03X2036888Y1538993I4868J-4868D01*
X2034827Y1571521D02*
G03X2034553Y1570871I630J-649D01*
X2034552D02*
G03X2034276Y1571520I-903D01*
X2035119Y1538059D02*
G01X2038919Y1541859D01*
Y1541859D02*
G01Y1551641D01*
Y1551641D02*
G01X2034552Y1556008D01*
Y1556008D02*
G01Y1571811D01*
X2035119Y1550633D02*
G03X2036493Y1547387I4523D01*
X2033745D02*
G03X2035119Y1550633I-3148J3246D01*
Y1550633D02*
G03X2035709Y1547844I6886D01*
X2035119Y1550633D02*
G01Y1547933D01*
X2034529Y1547844D02*
G03X2035119Y1550633I-6294J2789D01*
Y1545933D02*
G01Y1551524D01*
Y1551524D02*
G01X2035066Y1552314D01*
X2043049Y1540059D02*
G03X2046316Y1541384I69J4522D01*
X2046317Y1541383D02*
G03X2044992Y1538115I3197J-3199D01*
X2043927Y1539828D02*
G03X2046317Y1541383I-2478J6423D01*
Y1541383D02*
G01X2044407Y1539474D01*
X2046317Y1541383D02*
G03X2044762Y1538993I4868J-4868D01*
X2042734Y1607665D02*
G03X2042512Y1606996I679J-596D01*
Y1606996D02*
G03X2042187Y1607623I-901J-70D01*
X2042993Y1538059D02*
G01X2046593Y1541659D01*
Y1541659D02*
G01Y1567254D01*
Y1567254D02*
G01X2044563Y1569284D01*
Y1569284D02*
G01Y1603189D01*
Y1603189D02*
G01X2042663Y1605089D01*
Y1605089D02*
G01X2042437Y1607933D01*
X2043484Y1549657D02*
G03X2043210Y1549007I630J-649D01*
X2043209D02*
G03X2042933Y1549656I-903D01*
X2042993Y1545933D02*
G01X2043209Y1546149D01*
Y1546149D02*
G01Y1549947D01*
X2050923Y1540059D02*
G03X2054190Y1541384I69J4522D01*
X2054191Y1541383D02*
G03X2052866Y1538115I3197J-3199D01*
X2051801Y1539828D02*
G03X2054191Y1541383I-2478J6423D01*
Y1541383D02*
G01X2052281Y1539474D01*
X2054191Y1541383D02*
G03X2052636Y1538993I4868J-4868D01*
X2047938Y1608343D02*
G03X2047664Y1607693I630J-649D01*
X2047663D02*
G03X2047387Y1608342I-903D01*
X2050867Y1538059D02*
G01X2054467Y1541659D01*
Y1541659D02*
G01Y1562066D01*
Y1562066D02*
G01X2047663Y1568870D01*
Y1568870D02*
G01Y1608633D01*
X2050867Y1550633D02*
G03X2052241Y1547387I4523D01*
X2049493D02*
G03X2050867Y1550633I-3148J3246D01*
Y1550633D02*
G03X2051457Y1547844I6886D01*
X2050867Y1550633D02*
G01Y1547933D01*
X2050277Y1547844D02*
G03X2050867Y1550633I-6294J2789D01*
X2051124Y1561511D02*
G03X2050852Y1560861I631J-646D01*
X2050851D02*
G03X2050575Y1561511I-904J-1D01*
X2050867Y1545933D02*
G01Y1553835D01*
Y1553835D02*
G01X2050848Y1561801D01*
X2058797Y1540059D02*
G03X2062064Y1541384I69J4522D01*
X2062065Y1541383D02*
G03X2060740Y1538115I3197J-3199D01*
X2059675Y1539828D02*
G03X2062065Y1541383I-2478J6423D01*
Y1541383D02*
G01X2060155Y1539474D01*
X2062065Y1541383D02*
G03X2060510Y1538993I4868J-4868D01*
X2052753Y1608170D02*
G03X2052479Y1607520I630J-649D01*
X2052478D02*
G03X2052202Y1608169I-903D01*
X2058741Y1538059D02*
G01X2062541Y1541859D01*
Y1541859D02*
G01Y1564298D01*
Y1564298D02*
G01X2060011Y1566828D01*
Y1566828D02*
G01X2056138D01*
Y1566828D02*
G01X2052478Y1570488D01*
Y1570488D02*
G01Y1608460D01*
X2059078Y1563882D02*
G03X2058804Y1563232I630J-649D01*
X2058803D02*
G03X2058527Y1563881I-903D01*
X2058741Y1545933D02*
G01X2058803Y1545995D01*
Y1545995D02*
G01Y1564172D01*
X2066615Y1550633D02*
G03X2067989Y1547387I4523D01*
X2065241D02*
G03X2066615Y1550633I-3148J3246D01*
Y1550633D02*
G03X2067205Y1547844I6886D01*
X2066615Y1550633D02*
G01Y1547933D01*
X2066025Y1547844D02*
G03X2066615Y1550633I-6294J2789D01*
X2062409Y1569794D02*
G03X2063058Y1569520I649J630D01*
Y1569519D02*
G03X2062410Y1569244J-903D01*
X2066615Y1545933D02*
G01Y1567773D01*
Y1567773D02*
G01X2064869Y1569519D01*
Y1569519D02*
G01X2062118D01*
X2071166Y1541383D02*
G03X2074433Y1540059I3198J3198D01*
X2072490Y1538115D02*
G03X2071166Y1541383I-4521J70D01*
Y1541383D02*
G03X2073555Y1539828I4869J4868D01*
X2071166Y1541383D02*
G01X2073075Y1539474D01*
X2072721Y1538993D02*
G03X2071166Y1541383I-6423J-2478D01*
X2074489Y1538059D02*
G01X2070663Y1541885D01*
Y1541885D02*
G01Y1554033D01*
Y1554033D02*
G01X2074663Y1558033D01*
Y1558033D02*
G01Y1612233D01*
Y1612233D02*
G01X2072663Y1614233D01*
X2074489Y1550633D02*
G03X2075863Y1547387I4523D01*
X2073115D02*
G03X2074489Y1550633I-3148J3246D01*
Y1550633D02*
G03X2075079Y1547844I6886D01*
X2074489Y1550633D02*
G01Y1547933D01*
X2073899Y1547844D02*
G03X2074489Y1550633I-6294J2789D01*
X2052257Y1664238D02*
G03X2051983Y1663588I630J-649D01*
X2051982D02*
G03X2051706Y1664237I-903D01*
X2074489Y1545933D02*
G01Y1555313D01*
Y1555313D02*
G01X2076463Y1557287D01*
Y1557287D02*
G01Y1612979D01*
Y1612979D02*
G01X2072940Y1616502D01*
Y1616502D02*
G01X2053803D01*
Y1616502D02*
G01X2051911Y1618394D01*
Y1618394D02*
G01X2051982Y1618465D01*
Y1618465D02*
G01Y1664528D01*
X2079040Y1541383D02*
G03X2082307Y1540059I3198J3198D01*
X2080364Y1538115D02*
G03X2079040Y1541383I-4521J70D01*
Y1541383D02*
G03X2081429Y1539828I4869J4868D01*
X2079040Y1541383D02*
G01X2080949Y1539474D01*
X2080595Y1538993D02*
G03X2079040Y1541383I-6423J-2478D01*
X2082363Y1538059D02*
G01X2078463Y1541959D01*
Y1541959D02*
G01Y1618225D01*
Y1618225D02*
G01X2077518Y1619170D01*
Y1619170D02*
G01X2054247D01*
X1985274Y1548825D02*
G03X1985924Y1549100J905D01*
Y1548551D02*
G03X1985274Y1548826I-649J-629D01*
X1986214Y1548825D02*
G01X1979014D01*
Y1548825D02*
G01X1977237Y1550566D01*
Y1550566D02*
G01Y1597331D01*
Y1597331D02*
G01X1986279Y1606373D01*
Y1606373D02*
G01Y1616315D01*
Y1616315D02*
G01X1987237Y1617273D01*
Y1617273D02*
G01Y1649437D01*
Y1649437D02*
G01X1984737Y1651937D01*
Y1651937D02*
G01X1982237D01*
X1997106Y1556565D02*
G03X1997381Y1555916I905D01*
X1996831D02*
G03X1997106Y1556565I-628J649D01*
X1998815Y1607320D02*
G03X1998541Y1606670I630J-649D01*
X1998540D02*
G03X1998264Y1607319I-903D01*
X1997106Y1555625D02*
G01Y1557702D01*
Y1557702D02*
G01X1996877Y1557931D01*
Y1557931D02*
G01Y1601850D01*
Y1601850D02*
G01X1998540Y1603513D01*
Y1603513D02*
G01Y1607610D01*
X1989338Y1549798D02*
G03X1989613Y1549149I905D01*
X1989063D02*
G03X1989338Y1549798I-628J649D01*
Y1548858D02*
G01Y1551377D01*
Y1551377D02*
G01X1990738Y1552777D01*
Y1552777D02*
G01Y1600652D01*
Y1600652D02*
G01X1990524Y1600866D01*
X1996169Y1605218D02*
G03X1995895Y1604568I630J-649D01*
X1995894D02*
G03X1995618Y1605217I-903D01*
X1994946Y1553369D02*
G01X1994906Y1553409D01*
Y1553409D02*
G01Y1602425D01*
Y1602425D02*
G01X1995894Y1603413D01*
Y1603413D02*
G01Y1605508D01*
X1992746Y1552014D02*
G03X1993021Y1551365I905D01*
X1992471D02*
G03X1992746Y1552014I-628J649D01*
X1993116Y1603182D02*
G03X1992842Y1602532I630J-649D01*
X1992841D02*
G03X1992565Y1603181I-903D01*
X1992746Y1551074D02*
G01Y1554305D01*
Y1554305D02*
G01X1992770Y1554329D01*
Y1554329D02*
G01Y1554353D01*
Y1554353D02*
G01X1992794Y1554376D01*
Y1554376D02*
G01Y1554424D01*
X1992841Y1554471*
Y1554471D02*
G01Y1603472D01*
X2039947Y1554550D02*
G03X2040600Y1554286I639J640D01*
X2040211Y1553897D02*
G03X2039947Y1554550I-904J15D01*
X2038994Y1566136D02*
G03X2038720Y1565486I630J-649D01*
X2038719D02*
G03X2038443Y1566135I-903D01*
X2040611Y1553885D02*
G01X2038719Y1555777D01*
Y1555777D02*
G01Y1566426D01*
X1955764Y1568074D02*
G03X1956414Y1568349J905D01*
Y1567800D02*
G03X1955764Y1568075I-649J-629D01*
X1948280Y1566221D02*
G01X1953081D01*
Y1566221D02*
G01X1953086Y1566226D01*
Y1566226D02*
G01Y1566456D01*
Y1566456D02*
G01X1954704Y1568074D01*
Y1568074D02*
G01X1956704D01*
X1964916Y1567736D02*
G03X1965191Y1567087I905D01*
X1964641D02*
G03X1964916Y1567736I-628J649D01*
X1973031Y1614171D02*
G03X1972757Y1613521I630J-649D01*
X1972756D02*
G03X1972480Y1614170I-903D01*
X1964916Y1566796D02*
G01Y1570355D01*
Y1570355D02*
G01X1961960Y1573311D01*
Y1573311D02*
G01Y1596172D01*
Y1596172D02*
G01X1964615Y1598827D01*
X1970844*
X1972756Y1600739*
Y1600739D02*
G01Y1614461D01*
X1982237Y1569801D02*
G03X1984939Y1566709I3121J0D01*
X1979535D02*
G03X1982237Y1569801I-417J3091D01*
Y1569801D02*
G03X1984039Y1566709I3555J1D01*
X1982237Y1569801D02*
G03X1983138Y1566709I5759D01*
X1982237Y1569801D02*
G01Y1566709D01*
X1981337D02*
G03X1982238Y1569801I-4858J3092D01*
X1980436Y1566709D02*
G03X1982237Y1569801I-1753J3092D01*
X1984939Y1570734D02*
G03X1982237Y1567641I419J-3092D01*
Y1567641D02*
G03X1979535Y1570734I-3120J1D01*
X1984039D02*
G03X1982237Y1567641I1753J-3093D01*
X1983138Y1570734D02*
G03X1982237Y1567641I4858J-3092D01*
Y1567641D02*
G01Y1570734D01*
Y1567641D02*
G03X1981337Y1570734I-5759J2D01*
X1982237Y1567641D02*
G03X1980436Y1570734I-3555J1D01*
X1982237Y1566221D02*
G01Y1571221D01*
Y1564801D02*
G03X1984939Y1561709I3121J0D01*
X1979535D02*
G03X1982237Y1564801I-417J3091D01*
Y1564801D02*
G03X1984039Y1561709I3555J1D01*
X1982237Y1564801D02*
G03X1983138Y1561709I5759D01*
X1982237Y1564801D02*
G01Y1561709D01*
X1981337D02*
G03X1982238Y1564801I-4858J3092D01*
X1980436Y1561709D02*
G03X1982237Y1564801I-1753J3092D01*
X1984939Y1565734D02*
G03X1982237Y1562641I419J-3092D01*
Y1562641D02*
G03X1979535Y1565734I-3120J1D01*
X1984039D02*
G03X1982237Y1562641I1753J-3093D01*
X1983138Y1565734D02*
G03X1982237Y1562641I4858J-3092D01*
Y1562641D02*
G01Y1565734D01*
Y1562641D02*
G03X1981337Y1565734I-5759J2D01*
X1982237Y1562641D02*
G03X1980436Y1565734I-3555J1D01*
X1982237Y1561221D02*
G01Y1566221D01*
X2004237Y1569801D02*
G03X2006939Y1566709I3121J0D01*
X2001535D02*
G03X2004237Y1569801I-417J3091D01*
Y1569801D02*
G03X2006039Y1566709I3555J1D01*
X2004237Y1569801D02*
G03X2005138Y1566709I5759D01*
X2004237Y1569801D02*
G01Y1566709D01*
X2003337D02*
G03X2004238Y1569801I-4858J3092D01*
X2002436Y1566709D02*
G03X2004237Y1569801I-1753J3092D01*
X2006939Y1570734D02*
G03X2004237Y1567641I419J-3092D01*
Y1567641D02*
G03X2001535Y1570734I-3120J1D01*
X2006039D02*
G03X2004237Y1567641I1753J-3093D01*
X2005138Y1570734D02*
G03X2004237Y1567641I4858J-3092D01*
Y1567641D02*
G01Y1570734D01*
Y1567641D02*
G03X2003337Y1570734I-5759J2D01*
X2004237Y1567641D02*
G03X2002436Y1570734I-3555J1D01*
X2004237Y1566221D02*
G01Y1571221D01*
X2015606Y1563235D02*
G03X2015881Y1562586I905D01*
X2015331D02*
G03X2015606Y1563235I-628J649D01*
X2014730Y1569163D02*
G03X2014995Y1568510I905J-13D01*
Y1568510D02*
G03X2014341Y1568775I-639J-639D01*
X2015606Y1562295D02*
G01Y1567898D01*
Y1567898D02*
G01X2014330Y1569174D01*
X2011768Y1565608D02*
G03X2012418Y1565883J905D01*
Y1565334D02*
G03X2011768Y1565609I-649J-629D01*
X2012708Y1565608D02*
G01X2009966D01*
Y1565608D02*
G01X2009353Y1566221D01*
Y1566221D02*
G01X2004237D01*
X2019000Y1564732D02*
G03X2019276Y1565381I-628J650D01*
X2019275D02*
G03X2019549Y1564732I905D01*
X2019295Y1584308D02*
G03X2019020Y1584957I-903J1D01*
X2019571D02*
G03X2019295Y1584308I628J-650D01*
X2019274Y1564441D02*
G01X2019296Y1585248D01*
X2027156Y1567333D02*
G03X2027431Y1566684I905D01*
X2026881D02*
G03X2027156Y1567333I-628J649D01*
X2027449Y1578943D02*
G03X2027175Y1578293I630J-649D01*
X2027174D02*
G03X2026898Y1578942I-903D01*
X2027156Y1566393D02*
G01Y1572784D01*
Y1572784D02*
G01X2027174Y1572802D01*
Y1572802D02*
G01Y1579233D01*
X2024211Y1567604D02*
G03X2024486Y1566955I905D01*
X2023936D02*
G03X2024211Y1567604I-628J649D01*
X2024486Y1580724D02*
G03X2024212Y1580074I630J-649D01*
X2024211D02*
G03X2023935Y1580723I-903D01*
X2024211Y1566664D02*
G01Y1581014D01*
X1954360Y1576221D02*
G03X1950917Y1575603J-9902D01*
Y1576839D02*
G03X1954360Y1576221I3443J9285D01*
Y1576221D02*
G01X1950917D01*
X1970201Y1608820D02*
G03X1969927Y1608170I630J-649D01*
X1969926D02*
G03X1969650Y1608819I-903D01*
X1948280Y1576221D02*
G01X1956484D01*
Y1576221D02*
G01X1959760Y1579497D01*
Y1579497D02*
G01Y1596518D01*
Y1596518D02*
G01X1963869Y1600627D01*
Y1600627D02*
G01X1967503D01*
Y1600627D02*
G01X1969926Y1603050D01*
Y1603050D02*
G01Y1609110D01*
X1954360Y1571221D02*
G03X1950917Y1570603J-9902D01*
Y1571839D02*
G03X1954360Y1571221I3443J9285D01*
Y1571221D02*
G01X1950917D01*
X1955920Y1571134D02*
G01X1955866D01*
Y1571134D02*
G01X1955779Y1571221D01*
Y1571221D02*
G01X1948280D01*
X1969247Y1576025D02*
G01X1970084D01*
Y1576025D02*
G01X1970280Y1576221D01*
X1965138Y1577505D02*
G03X1964864Y1576855I630J-649D01*
X1964863D02*
G03X1964587Y1577504I-903D01*
X1969247Y1576025D02*
G01X1969078Y1576194D01*
Y1576194D02*
G01X1965300D01*
Y1576194D02*
G01X1964863Y1576631D01*
Y1576631D02*
G01Y1577795D01*
X1974974Y1573662D02*
G03X1974700Y1573012I630J-649D01*
X1974699D02*
G03X1974423Y1573661I-903D01*
X1970280Y1571221D02*
G01X1973942D01*
Y1571221D02*
G01X1974583Y1571862D01*
Y1571862D02*
G01X1974699Y1571978D01*
Y1571978D02*
G01Y1573952D01*
X1982237Y1576221D02*
G01X1987850D01*
Y1576221D02*
G01X1988031Y1576402D01*
X2012282Y1587140D02*
G03X2012008Y1586490I630J-649D01*
X2012007D02*
G03X2011731Y1587139I-903D01*
X2004237Y1576221D02*
G01X2010228D01*
Y1576221D02*
G01X2012007Y1578000D01*
Y1578000D02*
G01Y1587430D01*
X2014330Y1570114D02*
G03X2014605Y1569465I905D01*
X2014055D02*
G03X2014330Y1570114I-628J649D01*
X2014587Y1589076D02*
G03X2014313Y1588426I630J-649D01*
X2014312D02*
G03X2014036Y1589075I-903D01*
X2014330Y1569174D02*
G01Y1579261D01*
Y1579261D02*
G01X2014312Y1579279D01*
Y1579279D02*
G01Y1589366D01*
X2021662Y1570475D02*
G03X2021937Y1569826I905D01*
X2021387D02*
G03X2021662Y1570475I-628J649D01*
X2021956Y1582860D02*
G03X2021682Y1582210I630J-649D01*
X2021681D02*
G03X2021405Y1582859I-903D01*
X2021662Y1569535D02*
G01Y1575998D01*
Y1575998D02*
G01X2021681Y1576017D01*
Y1576017D02*
G01Y1583150D01*
X2050255Y1570469D02*
G03X2050530Y1569820I905D01*
X2049980D02*
G03X2050255Y1570469I-629J649D01*
X2050138Y1585843D02*
G03X2049864Y1585193I630J-649D01*
X2049863D02*
G03X2049588Y1585843I-904D01*
X2050255Y1569529D02*
G01Y1570939D01*
Y1570939D02*
G01X2049863Y1571331D01*
Y1571331D02*
G01Y1586133D01*
X1917077Y1579999D02*
G03X1921136Y1581717J5654D01*
Y1578282D02*
G03X1917077Y1580000I-4058J-3935D01*
Y1579999D02*
G03X1920620Y1580899J7425D01*
X1917077Y1579999D02*
G03X1920469Y1580286J20179D01*
Y1579712D02*
G03X1917077Y1579999I-3391J-19890D01*
X1920620Y1579100D02*
G03X1917077Y1579999I-3542J-6525D01*
X1942200Y1656937D02*
G03X1945643Y1657555J9903D01*
Y1656320D02*
G03X1942200Y1656937I-3442J-9285D01*
Y1656937D02*
G01X1945643D01*
X1922952Y1579999D02*
G01X1916101D01*
Y1579999D02*
G01X1914596Y1581504D01*
Y1581504D02*
G01Y1645052D01*
Y1645052D02*
G01X1926482Y1656937D01*
Y1656937D02*
G01X1927293D01*
Y1656937D02*
G01X1948280D01*
X1956220Y1586303D02*
G03X1956870Y1586578J905D01*
Y1586029D02*
G03X1956220Y1586304I-649J-629D01*
X1948280Y1586221D02*
G01X1954080D01*
Y1586221D02*
G01X1954162Y1586303D01*
Y1586303D02*
G01X1957160D01*
X1964684Y1592579D02*
G03X1964410Y1591929I630J-649D01*
X1964409D02*
G03X1964133Y1592578I-903D01*
X1970280Y1586221D02*
G01X1965291D01*
Y1586221D02*
G01X1964409Y1587103D01*
Y1587103D02*
G01Y1592869D01*
X1987658Y1580569D02*
G03X1988311Y1580305I639J640D01*
X1987922Y1579916D02*
G03X1987658Y1580569I-904J15D01*
X1988322Y1579904D02*
G01X1987005Y1581221D01*
Y1581221D02*
G01X1982237D01*
X1988195Y1584875D02*
G03X1988470Y1584226I905D01*
X1987920D02*
G03X1988195Y1584875I-628J649D01*
Y1583935D02*
G01Y1585224D01*
Y1585224D02*
G01X1987198Y1586221D01*
Y1586221D02*
G01X1982237D01*
X2010832Y1595405D02*
G03X2010558Y1594755I630J-649D01*
X2010557D02*
G03X2010281Y1595404I-903D01*
X2004237Y1586221D02*
G01X2009037D01*
Y1586221D02*
G01X2009612Y1586796D01*
Y1586796D02*
G01Y1590448D01*
Y1590448D02*
G01X2010557Y1591393D01*
Y1591393D02*
G01Y1595695D01*
X2009421Y1580127D02*
G03X2009696Y1579478I905D01*
X2009146D02*
G03X2009421Y1580127I-628J649D01*
Y1579187D02*
G01Y1580837D01*
Y1580837D02*
G01X2009037Y1581221D01*
Y1581221D02*
G01X2004237D01*
X2055263Y1583473D02*
G03X2055538Y1582824I905D01*
X2054988D02*
G03X2055263Y1583473I-628J649D01*
X2055538Y1599443D02*
G03X2055264Y1598793I630J-649D01*
X2055263D02*
G03X2054987Y1599442I-903D01*
X2055263Y1582533D02*
G01Y1599733D01*
X2064963Y1582273D02*
G03X2065238Y1581624I905D01*
X2064688D02*
G03X2064963Y1582273I-628J649D01*
X2055654Y1611808D02*
G03X2056303Y1611534I649J630D01*
Y1611533D02*
G03X2055655Y1611258J-903D01*
X2064963Y1581333D02*
G01Y1609833D01*
Y1609833D02*
G01X2063263Y1611533D01*
Y1611533D02*
G01X2055363D01*
X1934769Y1591717D02*
G03X1938827Y1590000I4058J3936D01*
Y1589999D02*
G03X1934769Y1588282J-5652D01*
X1935285Y1590899D02*
G03X1938827Y1590000I3542J6526D01*
X1935436Y1590286D02*
G03X1938827Y1589999I3391J19898D01*
Y1589999D02*
G03X1935436Y1589712I1J-20177D01*
X1938827Y1589999D02*
G03X1935285Y1589100J-7424D01*
X1942156Y1593277D02*
G03X1942421Y1593930I-639J639D01*
X1942809Y1593542D02*
G03X1942156Y1593277I-13J-904D01*
X1932952Y1589999D02*
G01X1938878Y1590000D01*
Y1590000D02*
G01X1942820Y1593941D01*
X1964930Y1595910D02*
G03X1965579Y1595636I649J630D01*
Y1595635D02*
G03X1964931Y1595360J-903D01*
X1964639Y1595635D02*
G01X1969694D01*
Y1595635D02*
G01X1970280Y1596221D01*
X2041063Y1594262D02*
G01Y1602733D01*
X1952866Y1603113D02*
G03X1953520Y1603378I14J905D01*
Y1603378D02*
G03X1953256Y1602725I640J-639D01*
X1952855Y1602713D02*
G01X1954269Y1604127D01*
Y1604127D02*
G01Y1616264D01*
Y1616264D02*
G01X1956126Y1618121D01*
Y1618121D02*
G01Y1628891D01*
Y1628891D02*
G01X1953080Y1631937D01*
Y1631937D02*
G01X1948280D01*
X1956069Y1601761D02*
G03X1956344Y1601112I905D01*
X1955794D02*
G03X1956069Y1601761I-628J649D01*
X1950917Y1647555D02*
G03X1954360Y1646937I3443J9285D01*
Y1646937D02*
G03X1950917Y1646319J-9902D01*
X1954360Y1646937D02*
G01X1950917D01*
X1956069Y1600821D02*
G01Y1614666D01*
Y1614666D02*
G01X1957926Y1616523D01*
Y1616523D02*
G01Y1637040D01*
Y1637040D02*
G01X1957931Y1637045D01*
Y1637045D02*
G01Y1645166D01*
Y1645166D02*
G01X1956160Y1646937D01*
Y1646937D02*
G01X1948280D01*
X1967247Y1604423D02*
G03X1967522Y1603774I905D01*
X1966972D02*
G03X1967247Y1604423I-628J649D01*
Y1603483D02*
G01Y1616990D01*
Y1616990D02*
G01X1965280Y1618957D01*
Y1618957D02*
G01Y1631037D01*
Y1631037D02*
G01X1966157Y1631914D01*
Y1631914D02*
G01X1967757D01*
Y1631914D02*
G01X1967780Y1631937D01*
Y1631937D02*
G01X1970280D01*
X1964571Y1607067D02*
G03X1964846Y1606418I905D01*
X1964296D02*
G03X1964571Y1607067I-628J649D01*
Y1606127D02*
G01Y1616398D01*
Y1616398D02*
G01X1963480Y1617489D01*
Y1617489D02*
G01Y1640359D01*
Y1640359D02*
G01X1963555D01*
Y1640359D02*
G01X1965133Y1641937D01*
Y1641937D02*
G01X1970280D01*
X1939446Y1634584D02*
G03X1939172Y1633934I630J-649D01*
X1939171D02*
G03X1938895Y1634583I-903D01*
X1932952Y1609999D02*
G01X1937132D01*
Y1609999D02*
G01X1939171Y1612038D01*
Y1612038D02*
G01Y1634874D01*
X2042437Y1608873D02*
G03X2042712Y1608224I905D01*
X2042162D02*
G03X2042437Y1608873I-628J649D01*
Y1607933D02*
G01Y1661579D01*
X2048633Y1614215D02*
G01X2072663Y1614233D01*
X2048633Y1615155D02*
G03X2048908Y1614506I905D01*
X2048358D02*
G03X2048633Y1615155I-628J649D01*
X2048890Y1643309D02*
G03X2048616Y1642659I630J-649D01*
X2048615D02*
G03X2048339Y1643308I-903D01*
X2048633Y1614215D02*
G01Y1628898D01*
Y1628898D02*
G01X2048615Y1628916D01*
Y1628916D02*
G01Y1643599D01*
X1942173Y1624338D02*
G03X1942448Y1623689I905D01*
X1941898D02*
G03X1942173Y1624338I-628J649D01*
X1942495Y1641939D02*
G03X1942221Y1641289I630J-649D01*
X1942220D02*
G03X1941944Y1641938I-903D01*
X1942173Y1623398D02*
G01Y1632712D01*
Y1632712D02*
G01X1942220Y1632759D01*
Y1632759D02*
G01Y1642229D01*
X2054247Y1619170D02*
G01Y1629779D01*
X1976676Y1634590D02*
G03X1976402Y1633940I630J-649D01*
X1976401D02*
G03X1976125Y1634589I-903D01*
X1982237Y1631937D02*
G01X1977437D01*
Y1631937D02*
G01X1976401Y1632973D01*
Y1632973D02*
G01Y1634880D01*
X1998157Y1631937D02*
G03X2001600Y1632555J9903D01*
Y1631320D02*
G03X1998157Y1631937I-3442J-9285D01*
Y1631937D02*
G01X2001600D01*
X1991277Y1652453D02*
G03X1991542Y1653106I-639J639D01*
X1991930Y1652718D02*
G03X1991277Y1652453I-13J-904D01*
X2004237Y1631937D02*
G01X1991674D01*
Y1631937D02*
G01X1989973Y1633638D01*
Y1633638D02*
G01Y1651149D01*
Y1651149D02*
G01X1991941Y1653117D01*
X1945578Y1647425D02*
G03X1948280Y1650517I-417J3091D01*
Y1650517D02*
G03X1950982Y1647425I3121J0D01*
X1946479D02*
G03X1948280Y1650517I-1753J3092D01*
X1947380Y1647425D02*
G03X1948281Y1650517I-4858J3092D01*
X1948280D02*
G01Y1647425D01*
Y1650517D02*
G03X1949181Y1647425I5759D01*
X1948280Y1650517D02*
G03X1950082Y1647425I3555J1D01*
X1948280Y1648357D02*
G03X1945578Y1651450I-3120J1D01*
X1950982D02*
G03X1948280Y1648357I419J-3092D01*
Y1648357D02*
G03X1946479Y1651450I-3555J1D01*
X1948280Y1648357D02*
G03X1947380Y1651450I-5759J2D01*
X1948280Y1648357D02*
G01Y1651450D01*
X1949181D02*
G03X1948280Y1648357I4858J-3092D01*
X1950082Y1651450D02*
G03X1948280Y1648357I1753J-3093D01*
Y1646937D02*
G01Y1651937D01*
Y1641937D02*
G01X1942512D01*
Y1641937D02*
G01X1942220Y1642229D01*
X1981773Y1641815D02*
G01X1981553Y1642034D01*
Y1642034D02*
G01X1976975D01*
Y1642034D02*
G01X1976785Y1642224D01*
X1981773Y1641815D02*
G01X1982237Y1641937D01*
X1994968Y1642293D02*
G03X1995243Y1641644I905D01*
X1994693D02*
G03X1994968Y1642293I-628J649D01*
X2007489Y1664528D02*
G03X2008139Y1664803J905D01*
Y1664254D02*
G03X2007489Y1664529I-649J-629D01*
X1994968Y1641353D02*
G01Y1659086D01*
Y1659086D02*
G01X2000410Y1664528D01*
Y1664528D02*
G01X2008429D01*
X2007798Y1661580D02*
G03X2008448Y1661855J905D01*
Y1661306D02*
G03X2007798Y1661581I-649J-629D01*
X2004237Y1641937D02*
G01X1999116D01*
Y1641937D02*
G01X1998239Y1642814D01*
Y1642814D02*
G01Y1659190D01*
Y1659190D02*
G01X2000629Y1661580D01*
Y1661580D02*
G01X2008738D01*
X1950917Y1657555D02*
G03X1954360Y1656937I3443J9285D01*
Y1656937D02*
G03X1950917Y1656319J-9902D01*
X1954360Y1656937D02*
G01X1950917D01*
X1964156Y1659298D02*
G03X1964806Y1659573J905D01*
Y1659024D02*
G03X1964156Y1659299I-649J-629D01*
X1948280Y1656937D02*
G01X1956907D01*
Y1656937D02*
G01X1959268Y1659298D01*
Y1659298D02*
G01X1965096D01*
X1950917Y1652555D02*
G03X1954360Y1651937I3443J9285D01*
Y1651937D02*
G03X1950917Y1651319J-9902D01*
X1954360Y1651937D02*
G01X1950917D01*
X1948280D02*
G01X1954937D01*
Y1651937D02*
G01X1954948Y1651948D01*
X1977178Y1659008D02*
G03X1976904Y1658358I630J-649D01*
X1976903D02*
G03X1976627Y1659007I-903D01*
X1982237Y1656937D02*
G01X1982014Y1657161D01*
X1977573*
X1976903Y1657830*
Y1657830D02*
G01Y1659298D01*
X2096640Y1608661D02*
G03X2096640Y1608661I-2899D01*
X2102198Y1657086D02*
G03X2102198Y1657086I-7710D01*
X1984523Y1665008D02*
G03X1984523Y1665008I-2399D01*
X1913222Y1542913D02*
G03X1913222Y1542913I-7710D01*
X2092611Y1534541D02*
G03X2092499Y1535463I-240J439D01*
X2086818Y1542115D02*
G03X2092499Y1535463I7669J798D01*
X2086818Y1542115D02*
G03X2085956Y1542406I-497J-51D01*
X2085182Y1541968D02*
G03X2085956Y1542406I-318J1465D01*
X2085182Y1541968D02*
G03X2084963Y1541099I106J-489D01*
X2078864Y1536122D02*
G03X2084963Y1541099I3499J1937D01*
X2078864Y1536122D02*
G03X2077989Y1536122I-438J-241D01*
X2070990D02*
G03X2077989Y1536122I3499J1937D01*
X2070990D02*
G03X2070115Y1536122I-438J-241D01*
X2063116D02*
G03X2070115Y1536122I3499J1937D01*
X2063116D02*
G03X2062241Y1536122I-438J-241D01*
X2055242D02*
G03X2062241Y1536122I3499J1937D01*
X2055242D02*
G03X2054367Y1536122I-438J-241D01*
X2047368D02*
G03X2054367Y1536122I3499J1937D01*
X2047368D02*
G03X2046493Y1536122I-438J-241D01*
X2039494D02*
G03X2046493Y1536122I3499J1937D01*
X2039494D02*
G03X2038619Y1536122I-438J-241D01*
X2031620D02*
G03X2038619Y1536122I3499J1937D01*
X2031620D02*
G03X2030745Y1536122I-438J-241D01*
X2023746D02*
G03X2030745Y1536122I3499J1937D01*
X2023746D02*
G03X2022871Y1536122I-438J-241D01*
X2015872D02*
G03X2022871Y1536122I3499J1937D01*
X2015872D02*
G03X2014997Y1536122I-438J-241D01*
X2007536Y1538616D02*
G03X2014997Y1536122I3961J-556D01*
X2007536Y1538616D02*
G03X2007536Y1538755I-494J70D01*
Y1538755D02*
G03X2007583Y1538886I-441J234D01*
X2009560Y1541559D02*
G03X2007584Y1538886I1937J-3499D01*
X2009560Y1541559D02*
G03X2009560Y1542434I-241J437D01*
X2012653Y1549763D02*
G03X2009560Y1542434I-1155J-3830D01*
X2012653Y1549763D02*
G03X2013297Y1550241I144J478D01*
Y1550241D02*
G01Y1553928D01*
Y1553928D02*
G03X2013151Y1554281I-499D01*
Y1554281D02*
G01X2011294Y1556138D01*
X2010708Y1557552D02*
G03X2011294Y1556138I2000D01*
X2010708Y1557552D02*
G01Y1563108D01*
Y1563108D02*
G03X2010208Y1563608I-500J0D01*
Y1563608D02*
G01X2009966D01*
X2009385Y1563695D02*
G03X2009966Y1563609I581J1913D01*
X2009385Y1563695D02*
G03X2008848Y1562905I-145J-479D01*
X2006849Y1558524D02*
G03X2008848Y1562905I-111J2697D01*
X2006849Y1558524D02*
G03X2006475Y1558332I20J-499D01*
X2006476D02*
G03X2006237Y1557641I881J-692D01*
Y1557641D02*
G01Y1549197D01*
X2006220Y1548933D02*
G03X2006238Y1549197I-1982J264D01*
X2006220Y1548933D02*
G03X2006216Y1548866I495J-66D01*
X2006215D02*
G01Y1540808D01*
Y1540808D02*
G03X2006284Y1540555I500D01*
X2006598Y1539049D02*
G03X2006284Y1540555I-2382J289D01*
X2006598Y1539049D02*
G03X2006599Y1538920I496J-59D01*
Y1538920D02*
G03X2006554Y1538798I442J-233D01*
X2002146Y1540555D02*
G03X2006554Y1538798I2069J-1216D01*
X2002146Y1540555D02*
G03X2002215Y1540808I-430J253D01*
Y1540808D02*
G01Y1543054D01*
Y1543054D02*
G03X2001675Y1543552I-499J0D01*
X2000108Y1543976D02*
G03X2001675Y1543553I1372J1968D01*
X2000108Y1543976D02*
G03X1999621Y1544024I-286J-410D01*
X1996590Y1547439D02*
G03X1999621Y1544024I2069J-1216D01*
X1996590Y1547439D02*
G03X1996659Y1547692I-430J253D01*
Y1547692D02*
G01Y1550735D01*
Y1550735D02*
G03X1995950Y1551189I-500J0D01*
X1995485Y1551031D02*
G03X1995950Y1551190I-538J2338D01*
X1995485Y1551031D02*
G03X1995106Y1550635I112J-487D01*
X1992269Y1548722D02*
G03X1995106Y1550635I477J2352D01*
X1992269Y1548722D02*
G03X1991682Y1548340I-99J-490D01*
X1988067Y1546823D02*
G03X1991682Y1548340I1272J2035D01*
X1988067Y1546823D02*
G03X1987528Y1546817I-265J-423D01*
X1984998Y1546756D02*
G03X1987528Y1546817I1216J2069D01*
X1984998Y1546756D02*
G03X1984745Y1546824I-252J-430D01*
Y1546825D02*
G01X1979014D01*
X1977615Y1547397D02*
G03X1979014Y1546826I1399J1428D01*
X1977615Y1547397D02*
G01X1975838Y1549138D01*
X1975237Y1550566D02*
G03X1975837Y1549137I2000D01*
X1975237Y1550566D02*
G01Y1558689D01*
Y1558689D02*
G03X1974431Y1559085I-500J1D01*
X1972892Y1558524D02*
G03X1974431Y1559085I-111J2697D01*
X1972892Y1558524D02*
G03X1972518Y1558332I20J-499D01*
X1972519D02*
G03X1972280Y1557641I881J-692D01*
Y1557641D02*
G01Y1550012D01*
Y1550012D02*
G03X1972427Y1549658I500D01*
Y1549658D02*
G01X1973550Y1548536D01*
X1974135Y1547121D02*
G03X1973550Y1548536I-2000J2D01*
X1974135Y1547121D02*
G01Y1540806D01*
Y1540806D02*
G03X1974204Y1540553I500D01*
Y1538120D02*
G03X1974204Y1540553I-2068J1216D01*
Y1538120D02*
G03X1974136Y1537867I431J-252D01*
X1974135D02*
G01Y1535168D01*
Y1535168D02*
G03X1974137Y1535128I500D01*
X1974143Y1534968D02*
G03X1974137Y1535128I-1999D01*
X1974143Y1534968D02*
G01Y1533684D01*
Y1533684D02*
G03X1974212Y1533431I500D01*
X1974402Y1531403D02*
G03X1974212Y1533431I-2258J811D01*
X1974402Y1531403D02*
G03X1974872Y1530733I471J-170D01*
Y1530733D02*
G01X2077755D01*
Y1530733D02*
G03X2092611Y1534541J30881D01*
X2108636Y1561614D02*
G01Y1665944D01*
Y1665944D02*
G03X2105314Y1669266I-3322J0D01*
Y1669266D02*
G01X2018020D01*
Y1669266D02*
G03X2017548Y1668600I-1J-500D01*
X2017689Y1667771D02*
G03X2017548Y1668600I-2499D01*
X2017689Y1667771D02*
G01Y1663159D01*
X2017684Y1663001D02*
G03X2017689Y1663159I-2494J158D01*
X2017684Y1663001D02*
G03X2017683Y1662970I499J-30D01*
Y1662970D02*
G01Y1658444D01*
Y1658444D02*
G01Y1648367D01*
X2016951Y1646600D02*
G03X2017683Y1648367I-1767J1767D01*
X2016951Y1646600D02*
G01X2015521Y1645170D01*
X2013753Y1644437D02*
G03X2015521Y1645170J2500D01*
X2013753Y1644437D02*
G01X2009235D01*
Y1644437D02*
G03X2008845Y1643625I0J-500D01*
X2008423Y1639828D02*
G03X2008845Y1643625I-1685J2109D01*
X2008423Y1639828D02*
G03X2008423Y1639047I312J-391D01*
Y1634828D02*
G03X2008423Y1639047I-1685J2109D01*
Y1634828D02*
G03X2008423Y1634047I312J-391D01*
Y1629828D02*
G03X2008423Y1634047I-1685J2109D01*
Y1629828D02*
G03X2008423Y1629047I312J-391D01*
Y1624828D02*
G03X2008423Y1629047I-1685J2109D01*
Y1624828D02*
G03X2008423Y1624047I312J-391D01*
X2006771Y1619238D02*
G03X2008423Y1624047I-33J2700D01*
X2006771Y1619238D02*
G03X2006432Y1618377I7J-500D01*
X2004700Y1614073D02*
G03X2006432Y1618377I0J2500D01*
X2004700Y1614073D02*
G01X1996861D01*
Y1614073D02*
G03X1996361Y1613573I0J-500D01*
Y1613573D02*
G01Y1612174D01*
Y1612174D02*
G01Y1611546D01*
X1995629Y1609779D02*
G03X1996361Y1611546I-1767J1767D01*
X1995629Y1609779D02*
G01X1994362Y1608512D01*
Y1608512D02*
G03X1994919Y1607701I354J-353D01*
X1995776Y1607905D02*
G03X1994919Y1607701I118J-2396D01*
X1995776Y1607905D02*
G03X1996232Y1608268I-25J499D01*
X1998814Y1609995D02*
G03X1996232Y1608268I-274J-2384D01*
X1998814Y1609995D02*
G03X1999323Y1610279I57J497D01*
X2003564Y1608042D02*
G03X1999323Y1610279I-2069J1216D01*
X2003564Y1608042D02*
G03X2003496Y1607789I431J-252D01*
X2003495D02*
G01Y1603922D01*
X2002910Y1602508D02*
G03X2003496Y1603922I-1414J1414D01*
X2002910Y1602508D02*
G01X2001384Y1600982D01*
Y1600982D02*
G03X2001237Y1600629I352J-354D01*
Y1600629D02*
G01Y1599421D01*
Y1599421D02*
G03X2001737Y1598921I500D01*
Y1598921D02*
G01X2006737D01*
X2008818Y1597942D02*
G03X2006737Y1598921I-2080J-1720D01*
X2008818Y1597942D02*
G03X2009437Y1597818I386J318D01*
X2012626Y1594479D02*
G03X2009437Y1597818I-2069J1217D01*
X2012626Y1594479D02*
G03X2012558Y1594226I431J-252D01*
X2012557D02*
G01Y1591981D01*
Y1591981D02*
G03X2013274Y1591530I500J0D01*
X2015647Y1591361D02*
G03X2013274Y1591530I-1334J-1994D01*
X2015647Y1591361D02*
G03X2016110Y1591312I278J415D01*
X2017035Y1591489D02*
G03X2016110Y1591312J-2499D01*
X2017035Y1591489D02*
G01X2023639D01*
Y1591489D02*
G03X2023993Y1591635J500D01*
X2023992Y1591636D02*
G01X2027656Y1595300D01*
X2029424Y1596032D02*
G03X2027657Y1595300J-2499D01*
X2029424Y1596032D02*
G01X2034270D01*
Y1596032D02*
G03X2034770Y1596532J500D01*
Y1596532D02*
G01Y1603288D01*
Y1603288D02*
G03X2034754Y1603412I-499D01*
X2035409Y1605801D02*
G03X2034756Y1603412I1767J-1767D01*
X2035408Y1605801D02*
G01X2035866Y1606258D01*
Y1606258D02*
G03X2036013Y1606612I-353J354D01*
X2036012D02*
G01Y1622982D01*
Y1622982D02*
G03X2035512Y1623482I-500J0D01*
Y1623482D02*
G01X2030024D01*
Y1623482D02*
G01X2027008D01*
Y1623482D02*
G03X2026871Y1623463J-499D01*
X2026185Y1623367D02*
G03X2026871Y1623463J2500D01*
X2026185Y1623367D02*
G01X2022460D01*
Y1623367D02*
G01X2019793D01*
X2019552Y1623379D02*
G03X2019793Y1623367I241J2488D01*
X2019552Y1623379D02*
G03X2019504Y1623381I-47J-497D01*
Y1623381D02*
G01X2017054D01*
Y1628381D02*
G03X2017054Y1623381J-2500D01*
Y1628381D02*
G01X2019779D01*
X2020021Y1628370D02*
G03X2019779Y1628382I-241J-2488D01*
X2020021Y1628370D02*
G03X2020069Y1628368I48J497D01*
Y1628367D02*
G01X2022460D01*
Y1628367D02*
G01X2025478D01*
Y1628367D02*
G03X2025615Y1628386J500D01*
X2026300Y1628482D02*
G03X2025615Y1628386J-2499D01*
X2026300Y1628482D02*
G01X2030024D01*
Y1628482D02*
G01X2037047D01*
X2038815Y1627750D02*
G03X2037047Y1628482I-1767J-1767D01*
X2038815Y1627750D02*
G01X2039584Y1626981D01*
Y1626982D02*
G03X2040437Y1627335I353J353D01*
Y1627335D02*
G01Y1659548D01*
Y1659548D02*
G03X2040428Y1659640I-499D01*
X2040429D02*
G01X2040263Y1660529D01*
Y1660529D02*
G03X2040231Y1660634I-491J-90D01*
X2044643D02*
G03X2040231Y1660634I-2206J945D01*
X2044643D02*
G03X2044612Y1660529I460J-195D01*
Y1660529D02*
G01X2044446Y1659640D01*
Y1659640D02*
G03X2044438Y1659548I491J-91D01*
X2044437D02*
G01Y1632587D01*
Y1632587D02*
G03X2045062Y1632103I500J0D01*
X2046037Y1632150D02*
G03X2045062Y1632102I-373J-2370D01*
X2046037Y1632150D02*
G03X2046615Y1632644I78J494D01*
Y1632644D02*
G01Y1642130D01*
Y1642130D02*
G03X2046546Y1642383I-499D01*
X2049333Y1645890D02*
G03X2046546Y1642383I-718J-2291D01*
X2049333Y1645890D02*
G03X2049982Y1646367I149J477D01*
Y1646367D02*
G01Y1663059D01*
Y1663059D02*
G03X2049913Y1663312I-499D01*
X2054051D02*
G03X2049913Y1663312I-2069J1216D01*
X2054051D02*
G03X2053983Y1663059I431J-252D01*
X2053982D02*
G01Y1632670D01*
Y1632670D02*
G03X2054442Y1632171I500J0D01*
X2056453Y1628834D02*
G03X2054442Y1632171I-2205J945D01*
X2056453Y1628834D02*
G03X2056422Y1628729I460J-195D01*
Y1628729D02*
G01X2056256Y1627840D01*
Y1627840D02*
G03X2056248Y1627748I491J-91D01*
X2056247D02*
G01Y1621670D01*
Y1621670D02*
G03X2056747Y1621170I500D01*
Y1621170D02*
G01X2068308D01*
Y1621170D02*
G03X2068808Y1621670J500D01*
Y1621670D02*
G01Y1621672D01*
X2070305Y1623970D02*
G03X2068808Y1621672I1003J-2290D01*
X2070305Y1623970D02*
G03X2070180Y1624922I-200J458D01*
X2072428Y1625149D02*
G03X2070180Y1624922I-1561J4221D01*
X2072428Y1625149D02*
G03X2072601Y1624180I173J-469D01*
Y1624180D02*
G01X2094246D01*
Y1624180D02*
G03X2094600Y1624326J500D01*
X2094599Y1624327D02*
G01X2094886Y1624613D01*
Y1624613D02*
G03X2095033Y1624967I-353J354D01*
X2095032D02*
G01Y1634747D01*
X2100032D02*
G03X2095032Y1634747I-2500D01*
X2100032D02*
G01Y1623724D01*
X2099300Y1621957D02*
G03X2100032Y1623724I-1767J1767D01*
X2099300Y1621957D02*
G01X2097256Y1619913D01*
X2095488Y1619180D02*
G03X2097256Y1619913J2500D01*
X2095488Y1619180D02*
G01X2080922D01*
Y1619180D02*
G03X2080430Y1618589I-1J-500D01*
X2080463Y1618225D02*
G03X2080430Y1618589I-1999D01*
X2080463Y1618225D02*
G01Y1550433D01*
Y1550433D02*
G03X2080963Y1549933I500D01*
Y1549933D02*
G01X2084863D01*
X2086363Y1548433D02*
G03X2084863Y1549933I-1500J0D01*
X2086363Y1548433D02*
G01Y1545963D01*
Y1545963D02*
G03X2087328Y1545777I500J0D01*
X2102112Y1544064D02*
G03X2087328Y1545777I-7624J-1150D01*
X2102112Y1544064D02*
G03X2103016Y1543851I495J74D01*
Y1543851D02*
G03X2108636Y1561614I-25260J17763D01*
X2012683Y1649937D02*
G01Y1654093D01*
Y1654093D02*
G03X2012024Y1654567I-500J0D01*
X2011228Y1654437D02*
G03X2012024Y1654567J2500D01*
X2011228Y1654437D02*
G01X2009235D01*
Y1654437D02*
G03X2008845Y1653625I0J-500D01*
Y1650250D02*
G03X2008845Y1653625I-2107J1687D01*
Y1650250D02*
G03X2009235Y1649437I390J-313D01*
Y1649437D02*
G01X2012183D01*
Y1649437D02*
G03X2012683Y1649937J500D01*
X1994068Y1607065D02*
G03X1993477Y1607844I-380J325D01*
X1992619Y1607620D02*
G03X1993477Y1607844I-191J2492D01*
X1992619Y1607620D02*
G03X1992199Y1607323I37J-498D01*
X1991551Y1606614D02*
G03X1992200Y1607323I-723J1313D01*
X1991551Y1606614D02*
G03X1991453Y1606543I242J-437D01*
Y1606543D02*
G03X1991334Y1606516I50J-497D01*
X1990827Y1606427D02*
G03X1991334Y1606515J1500D01*
X1990827Y1606427D02*
G01X1988739D01*
Y1606427D02*
G03X1988247Y1606017I-1J-499D01*
X1987694Y1604959D02*
G03X1988248Y1606017I-1414J1414D01*
X1987694Y1604959D02*
G01X1982509Y1599775D01*
Y1599775D02*
G03X1982863Y1598921I354J-354D01*
Y1598921D02*
G01X1984737D01*
X1986423Y1594112D02*
G03X1984737Y1598921I-1685J2109D01*
X1986423Y1594112D02*
G03X1986423Y1593331I312J-391D01*
Y1589112D02*
G03X1986423Y1593331I-1685J2109D01*
Y1589112D02*
G03X1986735Y1588221I312J-391D01*
Y1588221D02*
G01X1987198D01*
X1988030Y1588040D02*
G03X1987198Y1588221I-831J-1818D01*
X1988030Y1588040D02*
G03X1988738Y1588495I208J455D01*
Y1588495D02*
G01Y1599082D01*
Y1599082D02*
G03X1988632Y1599390I-499D01*
X1990050Y1603219D02*
G03X1988632Y1599390I474J-2353D01*
X1990050Y1603219D02*
G03X1990449Y1603668I-99J489D01*
X1991734Y1605602D02*
G03X1990449Y1603668I1107J-2129D01*
X1991734Y1605602D02*
G03X1991843Y1605679I-230J443D01*
Y1605679D02*
G03X1991974Y1605710I-49J497D01*
X1993073Y1605861D02*
G03X1991974Y1605710I-231J-2388D01*
X1993073Y1605861D02*
G03X1993600Y1606212I49J498D01*
X1994068Y1607065D02*
G03X1993600Y1606212I1826J-1556D01*
X2000052Y1624047D02*
G03X2000052Y1624828I-311J390D01*
X1999916Y1628931D02*
G03X2000052Y1624828I1821J-1993D01*
X1999916Y1628931D02*
G03X1999675Y1629790I-336J369D01*
Y1629790D02*
G03X1998157Y1629937I-1517J-7755D01*
Y1629937D02*
G01X1991674D01*
X1990260Y1630523D02*
G03X1991674Y1629937I1414J1414D01*
X1990260Y1630523D02*
G01X1990091Y1630692D01*
Y1630692D02*
G03X1989237Y1630339I-354J-353D01*
Y1630339D02*
G01Y1617273D01*
X1988652Y1615859D02*
G03X1989238Y1617273I-1414J1414D01*
X1988652Y1615859D02*
G01X1988426Y1615633D01*
Y1615633D02*
G03X1988279Y1615280I352J-354D01*
Y1615280D02*
G01Y1614297D01*
Y1614297D02*
G03X1988779Y1613797I500D01*
Y1613797D02*
G01X1990827D01*
X1990853D02*
G03X1990827Y1613797I-25J-1499D01*
X1990853D02*
G03X1991361Y1614297I8J500D01*
Y1614297D02*
G01Y1615773D01*
X1992094Y1617541D02*
G03X1991361Y1615773I1766J-1768D01*
X1992093Y1617541D02*
G01X1992893Y1618341D01*
X1994661Y1619073D02*
G03X1992894Y1618341J-2499D01*
X1994661Y1619073D02*
G01X1999580D01*
Y1619073D02*
G03X1999917Y1619943I0J500D01*
X2000052Y1624047D02*
G03X1999917Y1619943I1685J-2110D01*
X2000052Y1639047D02*
G03X1999740Y1639937I-311J391D01*
Y1639937D02*
G01X1999116D01*
X1997851Y1640389D02*
G03X1999116Y1639938I1265J1548D01*
X1997850Y1640389D02*
G03X1997092Y1640235I-316J-386D01*
X1992903Y1640130D02*
G03X1997092Y1640235I2065J1223D01*
X1992903Y1640130D02*
G03X1991973Y1639875I-430J-254D01*
Y1639875D02*
G01Y1634674D01*
Y1634674D02*
G03X1992120Y1634320I500D01*
Y1634320D02*
G01X1992356Y1634084D01*
Y1634084D02*
G03X1992710Y1633937I354J353D01*
Y1633937D02*
G01X1998157D01*
Y1633937D02*
G03X1999675Y1634084J7903D01*
Y1634084D02*
G03X1999916Y1634944I-95J490D01*
X2000052Y1639047D02*
G03X1999916Y1634944I1685J-2110D01*
X1993448Y1660386D02*
G03X1993182Y1661198I-379J325D01*
X1992438Y1661624D02*
G03X1993182Y1661198I1087J1034D01*
X1992438Y1661624D02*
G03X1991714Y1661624I-362J-343D01*
X1990627Y1661158D02*
G03X1991714Y1661624J1500D01*
X1990627Y1661158D02*
G01X1987529D01*
X1986029Y1662658D02*
G03X1987529Y1661158I1500D01*
X1986029Y1662658D02*
G01Y1667028D01*
X1986786Y1668331D02*
G03X1986029Y1667028I743J-1303D01*
X1986786Y1668331D02*
G03X1986538Y1669266I-247J435D01*
Y1669266D02*
G01X1964361D01*
Y1669266D02*
G03X1964113Y1668331I0J-500D01*
X1964739Y1667640D02*
G03X1964113Y1668331I-1368J-611D01*
X1964739Y1667640D02*
G03X1965196Y1667343I457J203D01*
Y1667343D02*
G01X1969003D01*
Y1667343D02*
G03X1969160Y1667368J500D01*
X1969863Y1667495D02*
G03X1969160Y1667369I86J-2498D01*
X1969863Y1667495D02*
G01X1970186Y1667506D01*
X1972771Y1665007D02*
G03X1970186Y1667506I-2500J1D01*
X1972771Y1665007D02*
G01Y1661351D01*
Y1661351D02*
G03X1972773Y1661312I500D01*
X1972780Y1661118D02*
G03X1972772Y1661312I-2499D01*
X1972780Y1661118D02*
G01Y1660098D01*
Y1660098D02*
G03X1973202Y1659604I500J0D01*
X1973860Y1659412D02*
G03X1973202Y1659604I-1079J-2474D01*
X1973860Y1659412D02*
G03X1974550Y1659772I200J458D01*
X1979201Y1659992D02*
G03X1974550Y1659772I-2298J-693D01*
X1979201Y1659992D02*
G03X1979688Y1659637I478J145D01*
X1979737D02*
G03X1979688Y1659637J-2699D01*
X1979737D02*
G01X1984737D01*
X1986423Y1654828D02*
G03X1984737Y1659637I-1685J2109D01*
X1986423Y1654828D02*
G03X1986423Y1654047I312J-391D01*
X1987392Y1652430D02*
G03X1986423Y1654047I-2654J-492D01*
X1987392Y1652430D02*
G03X1988301Y1652247I491J92D01*
X1988559Y1652564D02*
G03X1988301Y1652247I1414J-1414D01*
X1988559Y1652564D02*
G01X1989488Y1653492D01*
Y1653492D02*
G03X1989619Y1653720I-353J354D01*
X1992377Y1655477D02*
G03X1989618Y1653720I-436J-2360D01*
X1992377Y1655477D02*
G03X1992968Y1655969I91J492D01*
Y1655969D02*
G01Y1659086D01*
X1993448Y1660386D02*
G03X1992969Y1659086I1520J-1299D01*
X1992782Y1668331D02*
G03X1992534Y1669266I-247J435D01*
Y1669266D02*
G01X1991618D01*
Y1669266D02*
G03X1991371Y1668331I0J-500D01*
X1991714Y1668062D02*
G03X1991371Y1668331I-1086J-1033D01*
X1991714Y1668062D02*
G03X1992438Y1668062I362J345D01*
X1992782Y1668331D02*
G03X1992438Y1668062I743J-1302D01*
X1959528Y1668331D02*
G03X1959280Y1669266I-247J435D01*
Y1669266D02*
G01X1958364D01*
Y1669266D02*
G03X1958117Y1668331I0J-500D01*
X1958460Y1668062D02*
G03X1958117Y1668331I-1086J-1033D01*
X1958460Y1668062D02*
G03X1959184Y1668062I362J345D01*
X1959528Y1668331D02*
G03X1959184Y1668062I743J-1302D01*
X1957446Y1660305D02*
G03X1957093Y1661158I-352J354D01*
Y1661158D02*
G01X1954275D01*
X1952775Y1662658D02*
G03X1954275Y1661158I1500D01*
X1952775Y1662658D02*
G01Y1667028D01*
X1953532Y1668331D02*
G03X1952775Y1667028I743J-1303D01*
X1953532Y1668331D02*
G03X1953284Y1669266I-247J435D01*
Y1669266D02*
G01X1922244D01*
Y1669266D02*
G03X1907389Y1665458J-30880D01*
Y1665458D02*
G03X1907500Y1664537I240J-438D01*
X1897887Y1655935D02*
G03X1907500Y1664537I7625J1152D01*
X1897887Y1655935D02*
G03X1896983Y1656148I-494J-74D01*
Y1656148D02*
G03X1891363Y1638385I25261J-17762D01*
Y1638385D02*
G01Y1534055D01*
Y1534055D02*
G03X1894685Y1530733I3322D01*
Y1530733D02*
G01X1923638D01*
Y1530733D02*
G03X1924108Y1531404I0J500D01*
X1924295Y1533440D02*
G03X1924108Y1531404I2069J-1216D01*
X1924295Y1533440D02*
G03X1924364Y1533693I-430J253D01*
Y1533693D02*
G01Y1534212D01*
Y1534212D02*
G03X1923864Y1534712I-500J0D01*
Y1534712D02*
G01X1918417D01*
X1916917Y1536212D02*
G03X1918417Y1534712I1500D01*
X1916917Y1536212D02*
G01Y1542212D01*
X1918417Y1543712D02*
G03X1916917Y1542212I0J-1500D01*
X1918417Y1543712D02*
G01X1921396D01*
Y1543712D02*
G03X1921417Y1543712J500D01*
Y1543713D02*
G03X1921437Y1543713I20J499D01*
Y1543712D02*
G01X1923864D01*
Y1543712D02*
G03X1924364Y1544212J500D01*
Y1544212D02*
G01Y1544852D01*
Y1544852D02*
G03X1923620Y1545288I-500J0D01*
X1921435Y1544712D02*
G03X1923620Y1545288I-17J4500D01*
X1921435Y1544712D02*
G03X1921417Y1544712I2J-499D01*
Y1544712D02*
G03X1921398Y1544712I-20J-499D01*
X1923620Y1553136D02*
G03X1921398Y1544712I-2202J-3924D01*
X1923620Y1553136D02*
G03X1924364Y1553572I244J436D01*
Y1553572D02*
G01Y1560382D01*
Y1560382D02*
G03X1924218Y1560735I-499D01*
Y1560735D02*
G01X1921538Y1563415D01*
X1920952Y1564829D02*
G03X1921538Y1563415I2000D01*
X1920952Y1564829D02*
G01Y1574124D01*
Y1574124D02*
G03X1919852Y1576738I-3653J1D01*
Y1576738D02*
G03X1919847Y1576742I-349J-357D01*
X1919695Y1576894D02*
G03X1919847Y1576742I3257J3105D01*
X1919695Y1576894D02*
G03X1919691Y1576899I-361J-344D01*
Y1576899D02*
G03X1917077Y1577999I-2613J-2552D01*
Y1577999D02*
G01X1916101D01*
X1914687Y1578585D02*
G03X1916101Y1577999I1414J1414D01*
X1914687Y1578585D02*
G01X1913182Y1580090D01*
X1912596Y1581504D02*
G03X1913182Y1580090I2000D01*
X1912596Y1581504D02*
G01Y1645052D01*
X1913182Y1646466D02*
G03X1912596Y1645052I1413J-1414D01*
X1913182Y1646466D02*
G01X1925068Y1658352D01*
X1926482Y1658937D02*
G03X1925068Y1658352J-1999D01*
X1926482Y1658937D02*
G01X1927293D01*
Y1658937D02*
G01X1942200D01*
Y1658937D02*
G03X1944308Y1659223J7903D01*
Y1659224D02*
G03X1944426Y1659273I-132J482D01*
X1945780Y1659637D02*
G03X1944426Y1659273J-2699D01*
X1945780Y1659637D02*
G01X1950780D01*
X1952135Y1659273D02*
G03X1950780Y1659637I-1354J-2335D01*
X1952135Y1659273D02*
G03X1952252Y1659224I251J433D01*
Y1659224D02*
G03X1954360Y1658938I2108J7616D01*
Y1658937D02*
G01X1955872D01*
Y1658937D02*
G03X1956226Y1659083J500D01*
X1956225Y1659084D02*
G01X1957446Y1660305D01*
X1965783Y1643937D02*
G03X1966095Y1644828I0J500D01*
X1965579Y1645375D02*
G03X1966095Y1644828I2201J1562D01*
X1965578Y1645375D02*
G03X1964817Y1645439I-407J-289D01*
Y1645439D02*
G01X1964065Y1644687D01*
Y1644687D02*
G03X1964562Y1643854I354J-353D01*
X1965133Y1643937D02*
G03X1964562Y1643854J-1999D01*
X1965133Y1643937D02*
G01X1965783D01*
X1957760Y1580533D02*
G01Y1583405D01*
Y1583405D02*
G03X1957243Y1583905I-500J1D01*
X1955944Y1584234D02*
G03X1957243Y1583905I1216J2069D01*
X1955944Y1584234D02*
G03X1955691Y1584302I-252J-430D01*
Y1584303D02*
G01X1954716D01*
Y1584303D02*
G03X1954588Y1584286J-499D01*
X1954080Y1584221D02*
G03X1954588Y1584287J2000D01*
X1954080Y1584221D02*
G01X1952778D01*
Y1584221D02*
G03X1952466Y1583331I0J-500D01*
X1952602Y1579228D02*
G03X1952466Y1583331I-1821J1993D01*
X1952602Y1579228D02*
G03X1952843Y1578368I337J-369D01*
Y1578368D02*
G03X1954360Y1578221I1517J7756D01*
Y1578221D02*
G01X1955449D01*
Y1578221D02*
G03X1955803Y1578367J500D01*
X1955802Y1578368D02*
G01X1957614Y1580179D01*
Y1580179D02*
G03X1957761Y1580533I-353J354D01*
X1954126Y1623400D02*
G01Y1625474D01*
Y1625474D02*
G03X1953182Y1625703I-500J0D01*
X1952466Y1624828D02*
G03X1953182Y1625703I-1685J2109D01*
X1952466Y1624828D02*
G03X1952466Y1624047I312J-391D01*
X1953182Y1623172D02*
G03X1952466Y1624047I-2401J-1234D01*
X1953182Y1623172D02*
G03X1954126Y1623400I444J228D01*
X1982651Y1605574D02*
G03X1982298Y1606427I-352J354D01*
Y1606427D02*
G01X1981732D01*
X1980232Y1607927D02*
G03X1981732Y1606427I1500D01*
X1980232Y1607927D02*
G01Y1610259D01*
Y1610259D02*
G03X1979271Y1610453I-500J0D01*
X1975541Y1609367D02*
G03X1979271Y1610453I1425J2054D01*
X1975541Y1609367D02*
G03X1974756Y1608956I-285J-411D01*
Y1608956D02*
G01Y1600739D01*
X1974171Y1599325D02*
G03X1974757Y1600739I-1414J1414D01*
X1974171Y1599325D02*
G01X1974130Y1599284D01*
Y1599284D02*
G03X1974217Y1598507I353J-354D01*
X1974676Y1598144D02*
G03X1974217Y1598507I-1895J-1922D01*
X1974676Y1598144D02*
G03X1975469Y1598266I351J356D01*
X1975823Y1598746D02*
G03X1975469Y1598266I1414J-1414D01*
X1975823Y1598746D02*
G01X1982651Y1605574D01*
X1985237Y1618309D02*
G01Y1618737D01*
Y1618737D02*
G03X1984737Y1619237I-500J0D01*
Y1619237D02*
G01X1979737D01*
X1979699Y1619238D02*
G03X1979737Y1619238I38J2699D01*
X1979699D02*
G03X1979237Y1618530I-7J-500D01*
X1979461Y1617494D02*
G03X1979236Y1618530I-2499D01*
X1979461Y1617494D02*
G01Y1614628D01*
Y1614628D02*
G03X1979462Y1614600I500D01*
X1979466Y1614455D02*
G03X1979462Y1614600I-2499D01*
X1979466Y1614455D02*
G01Y1613237D01*
Y1613237D02*
G03X1980408Y1613002I500J0D01*
X1980772Y1613450D02*
G03X1980408Y1613002I960J-1152D01*
X1980772Y1613450D02*
G03X1980940Y1613942I-319J384D01*
X1983853Y1616793D02*
G03X1980940Y1613942I-570J-2332D01*
X1983853Y1616793D02*
G03X1984434Y1617086I120J485D01*
X1984865Y1617730D02*
G03X1984434Y1617086I1414J-1414D01*
X1984865Y1617730D02*
G01X1985091Y1617955D01*
Y1617955D02*
G03X1985238Y1618309I-353J354D01*
X1970143Y1533684D02*
G01Y1534777D01*
Y1534777D02*
G03X1970141Y1534816I-499D01*
X1970135Y1534976D02*
G03X1970141Y1534816I2000D01*
X1970135Y1534976D02*
G01Y1537867D01*
Y1537867D02*
G03X1970066Y1538120I-499D01*
X1969791Y1538823D02*
G03X1970066Y1538120I2344J513D01*
X1969791Y1538823D02*
G03X1969376Y1539210I-487J-107D01*
X1967657Y1542801D02*
G03X1969376Y1539210I2069J-1216D01*
X1967657Y1542801D02*
G03X1967726Y1543054I-430J253D01*
Y1543054D02*
G01Y1545949D01*
Y1545949D02*
G03X1967580Y1546302I-499D01*
Y1546302D02*
G01X1966342Y1547540D01*
Y1547540D02*
G03X1965531Y1547389I-354J-352D01*
X1961430Y1544712D02*
G03X1965531Y1547389I-13J4499D01*
X1961430Y1544712D02*
G03X1961417Y1544712I1J-499D01*
Y1544712D02*
G03X1961404Y1544712I-14J-499D01*
X1959167Y1545315D02*
G03X1961404Y1544712I2250J3897D01*
X1959167Y1545315D02*
G03X1958417Y1544882I-250J-433D01*
Y1544882D02*
G01Y1544213D01*
X1958329Y1543624D02*
G03X1958418Y1544213I-1911J589D01*
X1958329Y1543624D02*
G03X1959068Y1543050I479J-146D01*
X1961404Y1543712D02*
G03X1959068Y1543050I13J-4499D01*
X1961404Y1543712D02*
G03X1961417Y1543712I-1J500D01*
Y1543712D02*
G03X1961430Y1543712I14J500D01*
X1956917Y1539199D02*
G03X1961430Y1543712I4500J13D01*
X1956917Y1539199D02*
G03X1956917Y1539212I-499D01*
Y1539212D02*
G03X1956917Y1539225I-499J15D01*
X1956974Y1539926D02*
G03X1956917Y1539225I4443J-713D01*
X1956974Y1539926D02*
G03X1955990Y1540106I-494J79D01*
Y1540106D02*
G03X1955915Y1539326I3579J-736D01*
Y1539326D02*
G03X1955915Y1539320I500J6D01*
X1955917Y1539225D02*
G03X1955916Y1539320I-4499J-12D01*
X1955917Y1539225D02*
G03X1955917Y1539212I500J2D01*
Y1539212D02*
G03X1955917Y1539199I500J-13D01*
X1946917D02*
G03X1955917Y1539199I4500J13D01*
X1946917D02*
G03X1946917Y1539212I-499D01*
Y1539212D02*
G03X1946917Y1539225I-499J15D01*
X1951404Y1543712D02*
G03X1946917Y1539225I13J-4500D01*
X1951404Y1543712D02*
G03X1951417Y1543712I-1J500D01*
Y1543712D02*
G03X1951430Y1543712I14J500D01*
X1951524Y1543711D02*
G03X1951430Y1543712I-106J-4498D01*
X1951524Y1543711D02*
G03X1951530Y1543711I12J500D01*
Y1543711D02*
G03X1952311Y1543786I43J3653D01*
Y1543786D02*
G03X1952131Y1544769I-100J490D01*
X1951430Y1544712D02*
G03X1952131Y1544769I-12J4500D01*
X1951430Y1544712D02*
G03X1951417Y1544712I1J-499D01*
Y1544712D02*
G03X1951404Y1544712I-14J-499D01*
X1946917Y1549199D02*
G03X1951404Y1544712I4500J13D01*
X1946917Y1549199D02*
G03X1946917Y1549212I-499D01*
Y1549212D02*
G03X1946917Y1549225I-499J15D01*
X1953170Y1553357D02*
G03X1946917Y1549225I-1753J-4145D01*
X1953170Y1553357D02*
G03X1953861Y1553876I195J460D01*
X1953844Y1554168D02*
G03X1953861Y1553876I2500D01*
X1953844Y1554168D02*
G01Y1558221D01*
Y1558221D02*
G03X1953344Y1558721I-500J0D01*
Y1558721D02*
G01X1951894D01*
Y1558721D02*
G03X1951720Y1558690J-499D01*
X1950780Y1558521D02*
G03X1951720Y1558690J2700D01*
X1950780Y1558521D02*
G01X1945780D01*
X1944095Y1563331D02*
G03X1945780Y1558521I1685J-2110D01*
X1944095Y1563331D02*
G03X1944095Y1564112I-311J390D01*
Y1568331D02*
G03X1944095Y1564112I1685J-2110D01*
Y1568331D02*
G03X1944095Y1569112I-311J390D01*
Y1573331D02*
G03X1944095Y1569112I1685J-2110D01*
Y1573331D02*
G03X1944095Y1574112I-311J390D01*
Y1578331D02*
G03X1944095Y1574112I1685J-2110D01*
Y1578331D02*
G03X1944095Y1579112I-311J390D01*
Y1583331D02*
G03X1944095Y1579112I1685J-2110D01*
Y1583331D02*
G03X1944095Y1584112I-311J390D01*
Y1588331D02*
G03X1944095Y1584112I1685J-2110D01*
Y1588331D02*
G03X1944095Y1589112I-311J390D01*
X1943194Y1590445D02*
G03X1944095Y1589112I2586J776D01*
X1943194Y1590445D02*
G03X1942362Y1590655I-479J-143D01*
Y1590655D02*
G01X1940293Y1588585D01*
X1938878Y1587999D02*
G03X1940293Y1588585J2001D01*
X1938878Y1587999D02*
G01X1938827D01*
Y1587999D02*
G03X1936214Y1586899J-3652D01*
Y1586899D02*
G03X1936209Y1586894I357J-349D01*
X1932971Y1585499D02*
G03X1936210Y1586893I-18J4500D01*
X1932971Y1585499D02*
G03X1932952Y1585499I2J-499D01*
Y1585499D02*
G03X1932934Y1585499I-19J-499D01*
X1928452Y1589986D02*
G03X1932934Y1585499I4500J13D01*
X1928452Y1589986D02*
G03X1928452Y1589999I-499D01*
Y1589999D02*
G03X1928452Y1590012I-499J15D01*
X1932939Y1594499D02*
G03X1928452Y1590012I13J-4500D01*
X1932939Y1594499D02*
G03X1932952Y1594499J500D01*
Y1594500D02*
G03X1932965Y1594500I15J499D01*
X1936209Y1593105D02*
G03X1932965Y1594499I-3256J-3105D01*
X1936209Y1593105D02*
G03X1936213Y1593100I362J345D01*
Y1593100D02*
G03X1937827Y1592139I2614J2553D01*
Y1592139D02*
G03X1938317Y1592267I136J481D01*
Y1592267D02*
G01X1940367Y1594316D01*
Y1594316D02*
G03X1940498Y1594544I-353J354D01*
X1942671Y1596337D02*
G03X1940497Y1594544I149J-2395D01*
X1942671Y1596337D02*
G03X1943131Y1596740I-30J499D01*
X1945780Y1598921D02*
G03X1943131Y1596740I0J-2699D01*
X1945780Y1598921D02*
G01X1950780D01*
X1952466Y1594112D02*
G03X1950780Y1598921I-1685J2109D01*
X1952466Y1594112D02*
G03X1952466Y1593331I312J-391D01*
Y1589112D02*
G03X1952466Y1593331I-1685J2109D01*
Y1589112D02*
G03X1952778Y1588221I312J-391D01*
Y1588221D02*
G01X1953527D01*
Y1588221D02*
G03X1953654Y1588237J500D01*
X1954162Y1588303D02*
G03X1953654Y1588237J-1999D01*
X1954162Y1588303D02*
G01X1955691D01*
Y1588303D02*
G03X1955944Y1588372J500D01*
X1957243Y1588702D02*
G03X1955944Y1588372I-82J-2398D01*
X1957243Y1588702D02*
G03X1957760Y1589202I17J500D01*
Y1589202D02*
G01Y1596518D01*
X1958346Y1597933D02*
G03X1957760Y1596518I1414J-1414D01*
X1958346Y1597933D02*
G01X1960537Y1600124D01*
Y1600124D02*
G03X1960183Y1600977I-353J353D01*
Y1600977D02*
G01X1958949D01*
Y1600977D02*
G03X1958452Y1600536I-1J-500D01*
X1953807Y1600020D02*
G03X1958452Y1600536I2262J801D01*
X1953807Y1600020D02*
G03X1953253Y1600346I-470J-166D01*
X1951957Y1604939D02*
G03X1953253Y1600346I898J-2226D01*
X1951957Y1604939D02*
G03X1952269Y1605402I-187J463D01*
Y1605402D02*
G01Y1616264D01*
X1952855Y1617679D02*
G03X1952269Y1616264I1414J-1414D01*
X1952855Y1617679D02*
G01X1953980Y1618803D01*
Y1618803D02*
G03X1954127Y1619157I-353J354D01*
X1954126D02*
G01Y1620474D01*
Y1620474D02*
G03X1953182Y1620703I-500J0D01*
X1950780Y1619237D02*
G03X1953182Y1620703I0J2700D01*
X1950780Y1619237D02*
G01X1945780D01*
X1943333Y1620797D02*
G03X1945780Y1619237I2447J1140D01*
X1943333Y1620797D02*
G03X1942758Y1621071I-453J-210D01*
X1941758Y1621035D02*
G03X1942758Y1621071I415J2363D01*
X1941758Y1621035D02*
G03X1941171Y1620542I-87J-493D01*
Y1620542D02*
G01Y1612038D01*
X1940586Y1610624D02*
G03X1941172Y1612038I-1414J1414D01*
X1940586Y1610624D02*
G01X1938547Y1608585D01*
X1937255Y1608003D02*
G03X1938547Y1608585I-122J1996D01*
X1937255Y1608003D02*
G03X1936853Y1607754I30J-498D01*
X1932965Y1605499D02*
G03X1936852Y1607754I-13J4500D01*
X1932965Y1605499D02*
G03X1932952Y1605499I2J-499D01*
Y1605499D02*
G03X1932939Y1605499I-13J-499D01*
X1928452Y1609986D02*
G03X1932939Y1605499I4500J13D01*
X1928452Y1609986D02*
G03X1928452Y1609999I-499D01*
Y1609999D02*
G03X1928452Y1610012I-499J15D01*
X1932939Y1614499D02*
G03X1928452Y1610012I13J-4500D01*
X1932939Y1614499D02*
G03X1932952Y1614499J500D01*
Y1614500D02*
G03X1932965Y1614500I15J499D01*
X1936299Y1613007D02*
G03X1932965Y1614499I-3346J-3007D01*
X1936299Y1613007D02*
G03X1937171Y1613341I372J334D01*
Y1613341D02*
G01Y1616657D01*
Y1616657D02*
G03X1936299Y1616991I-500J0D01*
X1932965Y1615499D02*
G03X1936299Y1616992I-14J4499D01*
X1932965Y1615499D02*
G03X1932952Y1615499I2J-499D01*
Y1615499D02*
G03X1932939Y1615499I-13J-499D01*
X1928452Y1619986D02*
G03X1932939Y1615499I4500J13D01*
X1928452Y1619986D02*
G03X1928452Y1619999I-499D01*
Y1619999D02*
G03X1928452Y1620012I-499J15D01*
X1936299Y1623007D02*
G03X1928452Y1620012I-3347J-3007D01*
X1936299Y1623007D02*
G03X1937171Y1623341I372J334D01*
Y1623341D02*
G01Y1633405D01*
Y1633405D02*
G03X1937102Y1633658I-499D01*
X1939626Y1637231D02*
G03X1937102Y1633658I-455J-2357D01*
X1939626Y1637231D02*
G03X1940220Y1637722I94J491D01*
Y1637722D02*
G01Y1640760D01*
Y1640760D02*
G03X1940151Y1641013I-499D01*
X1943108Y1644459D02*
G03X1940151Y1641013I-888J-2230D01*
X1943108Y1644459D02*
G03X1943682Y1645238I185J465D01*
X1944095Y1649047D02*
G03X1943682Y1645238I1685J-2110D01*
X1944095Y1649047D02*
G03X1944095Y1649828I-311J390D01*
X1943959Y1653931D02*
G03X1944095Y1649828I1821J-1993D01*
X1943959Y1653931D02*
G03X1943718Y1654790I-336J369D01*
Y1654790D02*
G03X1942200Y1654937I-1517J-7755D01*
Y1654937D02*
G01X1927517D01*
Y1654937D02*
G03X1927164Y1654791J-499D01*
Y1654791D02*
G01X1916743Y1644370D01*
Y1644370D02*
G03X1916597Y1644016I353J-353D01*
X1916596D02*
G01Y1582540D01*
Y1582540D02*
G03X1916743Y1582186I500D01*
Y1582186D02*
G01X1916783Y1582146D01*
Y1582146D02*
G03X1917146Y1582000I353J354D01*
Y1582000D02*
G03X1919691Y1583100I-68J3653D01*
Y1583100D02*
G03X1919695Y1583104I-357J349D01*
X1922939Y1584499D02*
G03X1919695Y1583104I13J-4499D01*
X1922939Y1584499D02*
G03X1922952Y1584499J500D01*
Y1584500D02*
G03X1922965Y1584500I15J499D01*
X1927452Y1580018D02*
G03X1922965Y1584499I-4499J-18D01*
X1927452Y1580018D02*
G03X1927452Y1579999I500J2D01*
X1927453D02*
G03X1927453Y1579981I499J-19D01*
X1926057Y1576742D02*
G03X1927452Y1579981I-3104J3257D01*
X1926057Y1576742D02*
G03X1926053Y1576738I345J-361D01*
Y1576738D02*
G03X1924953Y1574124I2553J-2613D01*
X1924952D02*
G01Y1565865D01*
Y1565865D02*
G03X1925099Y1565511I500D01*
Y1565511D02*
G01X1927779Y1562832D01*
X1928364Y1561417D02*
G03X1927779Y1562832I-2000J2D01*
X1928364Y1561417D02*
G01Y1553511D01*
Y1553511D02*
G03X1929120Y1553082I500J0D01*
X1934687Y1552303D02*
G03X1929120Y1553082I-3270J-3090D01*
X1934687Y1552303D02*
G03X1935404Y1552293I363J343D01*
Y1552293D02*
G01X1939084Y1555972D01*
Y1555972D02*
G03X1939215Y1556200I-353J354D01*
X1943325Y1553996D02*
G03X1939214Y1556200I-1788J1601D01*
X1943325Y1553996D02*
G03X1943469Y1553217I372J-334D01*
X1945917Y1549225D02*
G03X1943469Y1553217I-4499J-12D01*
X1945917Y1549225D02*
G03X1945917Y1549212I500J2D01*
Y1549212D02*
G03X1945917Y1549199I500J-13D01*
X1941430Y1544712D02*
G03X1945917Y1549199I-13J4500D01*
X1941430Y1544712D02*
G03X1941417Y1544712I1J-499D01*
Y1544712D02*
G03X1941404Y1544712I-14J-499D01*
X1939167Y1545315D02*
G03X1941404Y1544712I2250J3897D01*
X1939167Y1545315D02*
G03X1938417Y1544882I-250J-433D01*
Y1544882D02*
G01Y1544213D01*
X1938329Y1543624D02*
G03X1938418Y1544213I-1911J589D01*
X1938329Y1543624D02*
G03X1939068Y1543050I479J-146D01*
X1941404Y1543712D02*
G03X1939068Y1543050I13J-4499D01*
X1941404Y1543712D02*
G03X1941417Y1543712I-1J500D01*
Y1543712D02*
G03X1941430Y1543712I14J500D01*
X1945917Y1539225D02*
G03X1941430Y1543712I-4499J-12D01*
X1945917Y1539225D02*
G03X1945917Y1539212I500J2D01*
Y1539212D02*
G03X1945917Y1539199I500J-13D01*
X1936917D02*
G03X1945917Y1539199I4500J13D01*
X1936917D02*
G03X1936917Y1539212I-499D01*
Y1539212D02*
G03X1936917Y1539225I-499J15D01*
X1936974Y1539926D02*
G03X1936917Y1539225I4443J-713D01*
X1936974Y1539926D02*
G03X1935990Y1540106I-494J79D01*
Y1540106D02*
G03X1935915Y1539326I3579J-736D01*
Y1539326D02*
G03X1935915Y1539320I500J6D01*
X1935917Y1539225D02*
G03X1935916Y1539320I-4499J-12D01*
X1935917Y1539225D02*
G03X1935917Y1539212I500J2D01*
Y1539212D02*
G03X1935917Y1539199I500J-13D01*
X1929120Y1535343D02*
G03X1935917Y1539199I2297J3869D01*
X1929120Y1535343D02*
G03X1928364Y1534913I-256J-430D01*
Y1534913D02*
G01Y1533693D01*
Y1533693D02*
G03X1928433Y1533440I500D01*
X1928620Y1531404D02*
G03X1928433Y1533440I-2255J819D01*
X1928620Y1531404D02*
G03X1929090Y1530733I470J-171D01*
Y1530733D02*
G01X1969414D01*
Y1530733D02*
G03X1969885Y1531403I0J500D01*
X1970074Y1533431D02*
G03X1969885Y1531403I2069J-1216D01*
X1970074Y1533431D02*
G03X1970143Y1533684I-430J253D01*
X1974942Y1618969D02*
G03X1974264Y1619681I-403J296D01*
X1972780Y1619237D02*
G03X1974264Y1619681J2700D01*
X1972780Y1619237D02*
G01X1969036D01*
Y1619237D02*
G03X1968678Y1618388I0J-500D01*
X1969247Y1616990D02*
G03X1968677Y1618387I-1999D01*
X1969247Y1616990D02*
G01Y1612005D01*
Y1612005D02*
G03X1969778Y1611506I500J0D01*
X1970199Y1611495D02*
G03X1969778Y1611506I-272J-2384D01*
X1970199Y1611495D02*
G03X1970756Y1611992I57J497D01*
Y1611992D02*
G01Y1612992D01*
Y1612992D02*
G03X1970687Y1613245I-499D01*
X1973754Y1616644D02*
G03X1970687Y1613245I-998J-2183D01*
X1973754Y1616644D02*
G03X1974461Y1617099I207J455D01*
Y1617099D02*
G01Y1617494D01*
X1974942Y1618969D02*
G03X1974461Y1617494I2019J-1474D01*
X1978052Y1624047D02*
G03X1978052Y1624828I-311J390D01*
Y1629047D02*
G03X1978052Y1624828I1685J-2110D01*
Y1629047D02*
G03X1977740Y1629937I-311J391D01*
Y1629937D02*
G01X1977437D01*
X1976023Y1630523D02*
G03X1977437Y1629937I1414J1414D01*
X1976023Y1630523D02*
G01X1975887Y1630659D01*
Y1630659D02*
G03X1975103Y1630561I-354J-352D01*
X1974466Y1629828D02*
G03X1975103Y1630561I-1685J2109D01*
X1974466Y1629828D02*
G03X1974466Y1629047I312J-391D01*
Y1624828D02*
G03X1974466Y1629047I-1685J2109D01*
Y1624828D02*
G03X1974466Y1624047I312J-391D01*
X1974942Y1620320D02*
G03X1974466Y1624047I-2161J1618D01*
X1974942Y1620320D02*
G03X1975612Y1619599I401J-300D01*
X1976895Y1619993D02*
G03X1975612Y1619599I66J-2498D01*
X1976895Y1619994D02*
G03X1977328Y1620719I-12J499D01*
X1978052Y1624047D02*
G03X1977328Y1620719I1685J-2109D01*
X1978052Y1654047D02*
G03X1978052Y1654828I-311J390D01*
X1977839Y1655018D02*
G03X1978052Y1654828I1898J1919D01*
X1977839Y1655018D02*
G03X1977504Y1655162I-351J-355D01*
X1976159Y1655746D02*
G03X1977504Y1655162I1414J1415D01*
X1976159Y1655746D02*
G01X1976012Y1655893D01*
Y1655893D02*
G03X1975209Y1655758I-353J-353D01*
X1974466Y1654828D02*
G03X1975209Y1655758I-1685J2109D01*
X1974466Y1654828D02*
G03X1974466Y1654047I312J-391D01*
Y1649828D02*
G03X1974466Y1654047I-1685J2109D01*
Y1649828D02*
G03X1974466Y1649047I312J-391D01*
Y1644828D02*
G03X1974466Y1649047I-1685J2109D01*
Y1644828D02*
G03X1974466Y1644047I312J-391D01*
X1974524Y1643999D02*
G03X1974466Y1644047I-1743J-2061D01*
X1974524Y1643999D02*
G03X1975181Y1644009I323J382D01*
X1977057Y1644609D02*
G03X1975181Y1644009I-271J-2384D01*
X1977057Y1644609D02*
G03X1977523Y1645392I56J497D01*
X1978052Y1649047D02*
G03X1977523Y1645392I1685J-2110D01*
X1978052Y1649047D02*
G03X1978052Y1649828I-311J390D01*
Y1654047D02*
G03X1978052Y1649828I1685J-2110D01*
X2072663Y1559069D02*
G01Y1611198D01*
Y1611198D02*
G03X2072517Y1611551I-499D01*
Y1611551D02*
G01X2071982Y1612086D01*
Y1612086D02*
G03X2071628Y1612233I-353J-351D01*
Y1612233D02*
G01X2066603Y1612229D01*
Y1612229D02*
G03X2066250Y1611375I0J-500D01*
Y1611375D02*
G01X2066378Y1611248D01*
X2066963Y1609833D02*
G03X2066378Y1611248I-2000J2D01*
X2066963Y1609833D02*
G01Y1582803D01*
Y1582803D02*
G03X2067032Y1582550I500D01*
X2062894D02*
G03X2067032Y1582550I2069J-1216D01*
X2062894D02*
G03X2062963Y1582803I-430J253D01*
Y1582803D02*
G01Y1608798D01*
Y1608798D02*
G03X2062817Y1609151I-499D01*
Y1609151D02*
G01X2062581Y1609387D01*
Y1609387D02*
G03X2062228Y1609533I-352J-353D01*
Y1609533D02*
G01X2056833D01*
Y1609533D02*
G03X2056580Y1609464J-499D01*
X2055371Y1609133D02*
G03X2056580Y1609464I-7J2400D01*
X2055371Y1609133D02*
G03X2054874Y1608604I2J-499D01*
X2054547Y1607244D02*
G03X2054874Y1608604I-2068J1216D01*
X2054547Y1607244D02*
G03X2054479Y1606991I431J-252D01*
X2054478D02*
G01Y1602619D01*
Y1602619D02*
G03X2055027Y1602122I500J0D01*
X2057332Y1598517D02*
G03X2055027Y1602122I-2069J1217D01*
X2057332Y1598517D02*
G03X2057264Y1598264I431J-252D01*
X2057263D02*
G01Y1584003D01*
Y1584003D02*
G03X2057332Y1583750I500D01*
X2055027Y1580145D02*
G03X2057332Y1583750I236J2388D01*
X2055027Y1580145D02*
G03X2054478Y1579647I-49J-498D01*
Y1579647D02*
G01Y1571524D01*
Y1571524D02*
G03X2054625Y1571170I500D01*
Y1571170D02*
G01X2056820Y1568975D01*
Y1568975D02*
G03X2057174Y1568828I354J353D01*
Y1568828D02*
G01X2059225D01*
Y1568828D02*
G03X2059723Y1569361I0J500D01*
X2063335Y1571588D02*
G03X2059723Y1569361I-1217J-2069D01*
X2063335Y1571588D02*
G03X2063588Y1571519I253J431D01*
Y1571519D02*
G01X2064869D01*
X2066284Y1570934D02*
G03X2064869Y1571520I-1414J-1414D01*
X2066284Y1570934D02*
G01X2068029Y1569188D01*
X2068615Y1567773D02*
G03X2068029Y1569188I-1999D01*
X2068615Y1567773D02*
G01Y1556021D01*
Y1556021D02*
G03X2069469Y1555667I500J0D01*
Y1555667D02*
G01X2072517Y1558715D01*
Y1558715D02*
G03X2072664Y1559069I-353J354D01*
X1991293Y1540368D02*
G03X1987155Y1540368I-2069J1216D01*
X1991293D02*
G03X1991225Y1540115I431J-252D01*
X1991224D02*
G01Y1536075D01*
Y1536075D02*
G03X1991293Y1535822I500D01*
X1987155D02*
G03X1991293Y1535822I2069J-1216D01*
X1987155D02*
G03X1987224Y1536075I-430J253D01*
Y1536075D02*
G01Y1540115D01*
Y1540115D02*
G03X1987155Y1540368I-499D01*
X2096819Y1594145D02*
G03X2096819Y1599145J2500D01*
Y1594145D02*
G01X2096237D01*
Y1594145D02*
G03X2095870Y1593306I0J-500D01*
X2091610D02*
G03X2095870Y1593306I2130J-1967D01*
X2091610D02*
G03X2091242Y1594145I-367J339D01*
Y1594145D02*
G01X2090468D01*
Y1594145D02*
G03X2090115Y1593999J-499D01*
Y1593999D02*
G01X2089710Y1593594D01*
Y1593594D02*
G03X2089563Y1593241I352J-354D01*
Y1593241D02*
G01Y1575433D01*
X2084563D02*
G03X2089563Y1575433I2500D01*
X2084563D02*
G01Y1594483D01*
X2085296Y1596251D02*
G03X2084563Y1594483I1766J-1768D01*
X2085295Y1596251D02*
G01X2087458Y1598413D01*
X2089225Y1599145D02*
G03X2087458Y1598413J-2499D01*
X2089225Y1599145D02*
G01X2096819D01*
X2096640Y1608661D02*
G03X2096640Y1608661I-2899D01*
X2102198Y1657086D02*
G03X2102198Y1657086I-7710D01*
X2075366Y1652370D02*
G01Y1646370D01*
X2073866Y1644870D02*
G03X2075366Y1646370J1500D01*
X2073866Y1644870D02*
G01X2067866D01*
X2066366Y1646370D02*
G03X2067866Y1644870I1500D01*
X2066366Y1646370D02*
G01Y1652370D01*
X2067866Y1653870D02*
G03X2066366Y1652370I0J-1500D01*
X2067866Y1653870D02*
G01X2073866D01*
X2075366Y1652370D02*
G03X2073866Y1653870I-1500J0D01*
X2065341Y1642185D02*
G01Y1625990D01*
X2060341D02*
G03X2065341Y1625990I2500D01*
X2060341D02*
G01Y1642034D01*
Y1642034D02*
G03X2060340Y1642060I-499D01*
X2060337Y1642189D02*
G03X2060340Y1642060I2500D01*
X2060337Y1642189D02*
G01Y1658439D01*
X2065337D02*
G03X2060337Y1658439I-2500D01*
X2065337D02*
G01Y1642340D01*
Y1642340D02*
G03X2065338Y1642314I500D01*
X2065341Y1642185D02*
G03X2065338Y1642314I-2499D01*
X1984523Y1665008D02*
G03X1984523Y1665008I-2399D01*
X1913222Y1542913D02*
G03X1913222Y1542913I-7710D01*
X1932965Y1595499D02*
G03X1932965Y1604499I-12J4500D01*
Y1595499D02*
G03X1932952Y1595499I2J-499D01*
Y1595499D02*
G03X1932939Y1595499I-13J-499D01*
X1928452Y1599986D02*
G03X1932939Y1595499I4500J13D01*
X1928452Y1599986D02*
G03X1928452Y1599999I-499D01*
Y1599999D02*
G03X1928452Y1600012I-499J15D01*
X1932939Y1604499D02*
G03X1928452Y1600012I13J-4500D01*
X1932939Y1604499D02*
G03X1932952Y1604499J500D01*
Y1604500D02*
G03X1932965Y1604500I15J499D01*
X1927452Y1589999D02*
G03X1927452Y1589986I500J-13D01*
X1922965Y1585499D02*
G03X1927452Y1589986I-13J4500D01*
X1922965Y1585499D02*
G03X1922952Y1585499I2J-499D01*
Y1585499D02*
G03X1922939Y1585499I-13J-499D01*
Y1594499D02*
G03X1922939Y1585499I13J-4500D01*
Y1594499D02*
G03X1922952Y1594499J500D01*
Y1594500D02*
G03X1922965Y1594500I15J499D01*
X1927452Y1590012D02*
G03X1922965Y1594499I-4499J-12D01*
X1927452Y1590012D02*
G03X1927452Y1589999I500J2D01*
Y1599999D02*
G03X1927452Y1599986I500J-13D01*
X1922965Y1595499D02*
G03X1927452Y1599986I-13J4500D01*
X1922965Y1595499D02*
G03X1922952Y1595499I2J-499D01*
Y1595499D02*
G03X1922939Y1595499I-13J-499D01*
Y1604499D02*
G03X1922939Y1595499I13J-4500D01*
Y1604499D02*
G03X1922952Y1604499J500D01*
Y1604500D02*
G03X1922965Y1604500I15J499D01*
X1927452Y1600012D02*
G03X1922965Y1604499I-4499J-12D01*
X1927452Y1600012D02*
G03X1927452Y1599999I500J2D01*
Y1609999D02*
G03X1927452Y1609986I500J-13D01*
X1922965Y1605499D02*
G03X1927452Y1609986I-13J4500D01*
X1922965Y1605499D02*
G03X1922952Y1605499I2J-499D01*
Y1605499D02*
G03X1922939Y1605499I-13J-499D01*
Y1614499D02*
G03X1922939Y1605499I13J-4500D01*
Y1614499D02*
G03X1922952Y1614499J500D01*
Y1614500D02*
G03X1922965Y1614500I15J499D01*
X1927452Y1610012D02*
G03X1922965Y1614499I-4499J-12D01*
X1927452Y1610012D02*
G03X1927452Y1609999I500J2D01*
Y1619999D02*
G03X1927452Y1619986I500J-13D01*
X1922965Y1615499D02*
G03X1927452Y1619986I-13J4500D01*
X1922965Y1615499D02*
G03X1922952Y1615499I2J-499D01*
Y1615499D02*
G03X1922939Y1615499I-13J-499D01*
X1927452Y1620012D02*
G03X1922939Y1615499I-4500J-13D01*
X1927452Y1620012D02*
G03X1927452Y1619999I500J2D01*
X1937452Y1582999D02*
G01Y1576999D01*
X1935952Y1575499D02*
G03X1937452Y1576999J1500D01*
X1935952Y1575499D02*
G01X1929952D01*
X1928452Y1576999D02*
G03X1929952Y1575499I1500D01*
X1928452Y1576999D02*
G01Y1579979D01*
Y1579979D02*
G03X1928452Y1579999I-499D01*
Y1579999D02*
G03X1928452Y1580020I-499J21D01*
Y1580020D02*
G01Y1582999D01*
X1929952Y1584499D02*
G03X1928452Y1582999I0J-1500D01*
X1929952Y1584499D02*
G01X1932932D01*
Y1584499D02*
G03X1932952Y1584499J500D01*
Y1584500D02*
G03X1932973Y1584500I21J499D01*
Y1584499D02*
G01X1935952D01*
X1937452Y1582999D02*
G03X1935952Y1584499I-1500J0D01*
X2085193Y1535232D02*
G01X2092802D01*
X2083815Y1534332D02*
G01X2092223D01*
X2085868Y1536132D02*
G01X2090816D01*
X1991318Y1533432D02*
G01X2090380D01*
X2086229Y1537032D02*
G01X2089500D01*
X2086361Y1537932D02*
G01X2088601D01*
X1990433Y1532532D02*
G01X2088141D01*
X2086288Y1538832D02*
G01X2087945D01*
X2085997Y1539732D02*
G01X2087463D01*
X2085426Y1540632D02*
G01X2087121D01*
X2084791Y1541532D02*
G01X2086901D01*
X2085983Y1542432D02*
G01X2086658D01*
X1974472Y1531632D02*
G01X2085151D01*
X2075941Y1534332D02*
G01X2080912D01*
X2077319Y1535232D02*
G01X2079534D01*
X2077995Y1536132D02*
G01X2078858D01*
X2068067Y1534332D02*
G01X2073038D01*
X2069445Y1535232D02*
G01X2071660D01*
X2070121Y1536132D02*
G01X2070984D01*
X2060193Y1534332D02*
G01X2065163D01*
X2061571Y1535232D02*
G01X2063786D01*
X2062247Y1536132D02*
G01X2063110D01*
X2052319Y1534332D02*
G01X2057289D01*
X2053697Y1535232D02*
G01X2055912D01*
X2054372Y1536132D02*
G01X2055236D01*
X2044445Y1534332D02*
G01X2049415D01*
X2045823Y1535232D02*
G01X2048038D01*
X2046498Y1536132D02*
G01X2047362D01*
X2036571Y1534332D02*
G01X2041541D01*
X2037949Y1535232D02*
G01X2040164D01*
X2038624Y1536132D02*
G01X2039488D01*
X2028697Y1534332D02*
G01X2033667D01*
X2030075Y1535232D02*
G01X2032290D01*
X2030750Y1536132D02*
G01X2031614D01*
X2020823Y1534332D02*
G01X2025793D01*
X2022201Y1535232D02*
G01X2024416D01*
X2022876Y1536132D02*
G01X2023740D01*
X2012949Y1534332D02*
G01X2017919D01*
X2014327Y1535232D02*
G01X2016542D01*
X2015002Y1536132D02*
G01X2015866D01*
X2006237Y1553232D02*
G01X2013297D01*
X2006237Y1552332D02*
G01X2013297D01*
X2006237Y1551432D02*
G01X2013297D01*
X2006237Y1550532D02*
G01X2013297D01*
X2006237Y1554132D02*
G01X2013254D01*
X2006237Y1555032D02*
G01X2012400D01*
X2006237Y1555932D02*
G01X2011500D01*
X2006237Y1556832D02*
G01X2010842D01*
X2009241Y1562232D02*
G01X2010708D01*
X2009435Y1561332D02*
G01X2010708D01*
X2009319Y1560432D02*
G01X2010708D01*
X2008844Y1559532D02*
G01X2010708D01*
X2007503Y1558632D02*
G01X2010708D01*
X2006241Y1557732D02*
G01X2010708D01*
X2008746Y1563132D02*
G01X2010708D01*
X1991609Y1534332D02*
G01X2010045D01*
X2006237Y1549632D02*
G01X2009974D01*
X2006215Y1542432D02*
G01X2009563D01*
X2006215Y1541532D02*
G01X2009512D01*
X1991541Y1535232D02*
G01X2008668D01*
X2006215Y1548732D02*
G01X2008639D01*
X2006215Y1543332D02*
G01X2008458D01*
X2006247Y1540632D02*
G01X2008434D01*
X1991224Y1536132D02*
G01X2007992D01*
X2006215Y1547832D02*
G01X2007976D01*
X2006215Y1544232D02*
G01X2007877D01*
X2006583Y1539732D02*
G01X2007864D01*
X2004879Y1537032D02*
G01X2007631D01*
X2006215Y1546932D02*
G01X2007624D01*
X2006215Y1545132D02*
G01X2007578D01*
X2006563Y1538832D02*
G01X2007569D01*
X2006160Y1537932D02*
G01X2007499D01*
X2006215Y1546032D02*
G01X2007498D01*
X1991224Y1537032D02*
G01X2003551D01*
X1991224Y1537932D02*
G01X2002270D01*
X1991470Y1542432D02*
G01X2002215D01*
X1991624Y1541532D02*
G01X2002215D01*
X1991427Y1540632D02*
G01X2002183D01*
X1990869Y1543332D02*
G01X2002131D01*
X1991224Y1538832D02*
G01X2001869D01*
X1991224Y1539732D02*
G01X2001848D01*
X1974135Y1544232D02*
G01X1997318D01*
X1995084Y1550532D02*
G01X1996659D01*
X1994665Y1549632D02*
G01X1996659D01*
X1993270Y1548732D02*
G01X1996659D01*
X1991508Y1547832D02*
G01X1996659D01*
X1974135Y1545132D02*
G01X1996521D01*
X1990770Y1546932D02*
G01X1996367D01*
X1974135Y1546032D02*
G01X1996267D01*
X1992159Y1548732D02*
G01X1992181D01*
X1974522Y1532532D02*
G01X1988015D01*
X1974135Y1543332D02*
G01X1987579D01*
X1974502Y1539732D02*
G01X1987224D01*
X1974482Y1538832D02*
G01X1987224D01*
X1974140Y1537932D02*
G01X1987224D01*
X1974135Y1537032D02*
G01X1987224D01*
X1974135Y1536132D02*
G01X1987224D01*
X1974211Y1533432D02*
G01X1987131D01*
X1974167Y1540632D02*
G01X1987021D01*
X1974135Y1542432D02*
G01X1986979D01*
X1974135Y1535232D02*
G01X1986908D01*
X1974143Y1534332D02*
G01X1986840D01*
X1974135Y1541532D02*
G01X1986825D01*
X1974135Y1546932D02*
G01X1978370D01*
X1974005Y1547832D02*
G01X1977170D01*
X1973353Y1548732D02*
G01X1976252D01*
X1972453Y1549632D02*
G01X1975469D01*
X1972280Y1550532D02*
G01X1975238D01*
X1973546Y1558632D02*
G01X1975237D01*
X1972284Y1557732D02*
G01X1975237D01*
X1972280Y1556832D02*
G01X1975237D01*
X1972280Y1555932D02*
G01X1975237D01*
X1972280Y1555032D02*
G01X1975237D01*
X1972280Y1554132D02*
G01X1975237D01*
X1972280Y1553232D02*
G01X1975237D01*
X1972280Y1552332D02*
G01X1975237D01*
X1972280Y1551432D02*
G01X1975237D01*
X2054304Y1665137D02*
G01X2108636D01*
X2097373Y1664237D02*
G01X2108636D01*
X2099003Y1663337D02*
G01X2108636D01*
X2100040Y1662437D02*
G01X2108636D01*
X2100784Y1661537D02*
G01X2108636D01*
X2101332Y1660637D02*
G01X2108636D01*
X2101728Y1659737D02*
G01X2108636D01*
X2101997Y1658837D02*
G01X2108636D01*
X2102151Y1657937D02*
G01X2108636D01*
X2102198Y1657037D02*
G01X2108636D01*
X2102140Y1656137D02*
G01X2108636D01*
X2101973Y1655237D02*
G01X2108636D01*
X2101692Y1654337D02*
G01X2108636D01*
X2101280Y1653437D02*
G01X2108636D01*
X2100713Y1652537D02*
G01X2108636D01*
X2099943Y1651637D02*
G01X2108636D01*
X2098863Y1650737D02*
G01X2108636D01*
X2097116Y1649837D02*
G01X2108636D01*
X2075366Y1648937D02*
G01X2108636D01*
X2075366Y1648037D02*
G01X2108636D01*
X2075366Y1647137D02*
G01X2108636D01*
X2075360Y1646237D02*
G01X2108636D01*
X2074954Y1645337D02*
G01X2108636D01*
X2065337Y1644437D02*
G01X2108636D01*
X2065337Y1643537D02*
G01X2108636D01*
X2065337Y1642637D02*
G01X2108636D01*
X2065341Y1641737D02*
G01X2108636D01*
X2065341Y1640837D02*
G01X2108636D01*
X2065341Y1639937D02*
G01X2108636D01*
X2065341Y1639037D02*
G01X2108636D01*
X2065341Y1638137D02*
G01X2108636D01*
X2097759Y1637237D02*
G01X2108636D01*
X2099462Y1636337D02*
G01X2108636D01*
X2099935Y1635437D02*
G01X2108636D01*
X2100032Y1634537D02*
G01X2108636D01*
X2100032Y1633637D02*
G01X2108636D01*
X2100032Y1632737D02*
G01X2108636D01*
X2100032Y1631837D02*
G01X2108636D01*
X2100032Y1630937D02*
G01X2108636D01*
X2100032Y1630037D02*
G01X2108636D01*
X2100032Y1629137D02*
G01X2108636D01*
X2100032Y1628237D02*
G01X2108636D01*
X2100032Y1627337D02*
G01X2108636D01*
X2100032Y1626437D02*
G01X2108636D01*
X2100032Y1625537D02*
G01X2108636D01*
X2100032Y1624637D02*
G01X2108636D01*
X2100032Y1623737D02*
G01X2108636D01*
X2099870Y1622837D02*
G01X2108636D01*
X2099281Y1621937D02*
G01X2108636D01*
X2098381Y1621037D02*
G01X2108636D01*
X2097481Y1620137D02*
G01X2108636D01*
X2096018Y1619237D02*
G01X2108636D01*
X2080460Y1618337D02*
G01X2108636D01*
X2080463Y1617437D02*
G01X2108636D01*
X2080463Y1616537D02*
G01X2108636D01*
X2080463Y1615637D02*
G01X2108636D01*
X2080463Y1614737D02*
G01X2108636D01*
X2080463Y1613837D02*
G01X2108636D01*
X2080463Y1612937D02*
G01X2108636D01*
X2080463Y1612037D02*
G01X2108636D01*
X2095249Y1611137D02*
G01X2108636D01*
X2096174Y1610237D02*
G01X2108636D01*
X2096560Y1609337D02*
G01X2108636D01*
X2096631Y1608437D02*
G01X2108636D01*
X2096413Y1607537D02*
G01X2108636D01*
X2095817Y1606637D02*
G01X2108636D01*
X2080463Y1605737D02*
G01X2108636D01*
X2080463Y1604837D02*
G01X2108636D01*
X2080463Y1603937D02*
G01X2108636D01*
X2080463Y1603037D02*
G01X2108636D01*
X2080463Y1602137D02*
G01X2108636D01*
X2080463Y1601237D02*
G01X2108636D01*
X2080463Y1600337D02*
G01X2108636D01*
X2080463Y1599437D02*
G01X2108636D01*
X2098454Y1598537D02*
G01X2108636D01*
X2099114Y1597637D02*
G01X2108636D01*
X2099318Y1596737D02*
G01X2108636D01*
X2099185Y1595837D02*
G01X2108636D01*
X2098645Y1594937D02*
G01X2108636D01*
X2095926Y1594037D02*
G01X2108636D01*
X2096014Y1593137D02*
G01X2108636D01*
X2096497Y1592237D02*
G01X2108636D01*
X2096640Y1591337D02*
G01X2108636D01*
X2096496Y1590437D02*
G01X2108636D01*
X2096013Y1589537D02*
G01X2108636D01*
X2094795Y1588637D02*
G01X2108636D01*
X2089563Y1587737D02*
G01X2108636D01*
X2089563Y1586837D02*
G01X2108636D01*
X2089563Y1585937D02*
G01X2108636D01*
X2089563Y1585037D02*
G01X2108636D01*
X2089563Y1584137D02*
G01X2108636D01*
X2089563Y1583237D02*
G01X2108636D01*
X2089563Y1582337D02*
G01X2108636D01*
X2089563Y1581437D02*
G01X2108636D01*
X2089563Y1580537D02*
G01X2108636D01*
X2089563Y1579637D02*
G01X2108636D01*
X2089563Y1578737D02*
G01X2108636D01*
X2089563Y1577837D02*
G01X2108636D01*
X2089563Y1576937D02*
G01X2108636D01*
X2089563Y1576037D02*
G01X2108636D01*
X2089546Y1575137D02*
G01X2108636D01*
X2089259Y1574237D02*
G01X2108636D01*
X2088426Y1573337D02*
G01X2108636D01*
X2080463Y1572437D02*
G01X2108636D01*
X2080463Y1571537D02*
G01X2108636D01*
X2080463Y1570637D02*
G01X2108636D01*
X2080463Y1569737D02*
G01X2108636D01*
X2080463Y1568837D02*
G01X2108636D01*
X2080463Y1567937D02*
G01X2108636D01*
X2080463Y1567037D02*
G01X2108636D01*
X2080463Y1566137D02*
G01X2108636D01*
X2080463Y1565237D02*
G01X2108636D01*
X2080463Y1564337D02*
G01X2108636D01*
X2080463Y1563437D02*
G01X2108636D01*
X2080463Y1562537D02*
G01X2108636D01*
X2080463Y1561637D02*
G01X2108636D01*
X2053849Y1666037D02*
G01X2108634D01*
X2080463Y1560737D02*
G01X2108623D01*
X2080463Y1559837D02*
G01X2108585D01*
X2080463Y1558937D02*
G01X2108519D01*
X2017689Y1666937D02*
G01X2108484D01*
X2080463Y1558037D02*
G01X2108428D01*
X2080463Y1557137D02*
G01X2108310D01*
X2080463Y1556237D02*
G01X2108164D01*
X2017688Y1667837D02*
G01X2108044D01*
X2080463Y1555337D02*
G01X2107991D01*
X2080463Y1554437D02*
G01X2107790D01*
X2080463Y1553537D02*
G01X2107561D01*
X2080463Y1552637D02*
G01X2107302D01*
X2017521Y1668737D02*
G01X2107112D01*
X2080463Y1551737D02*
G01X2107014D01*
X2080463Y1550837D02*
G01X2106694D01*
X2097670Y1549937D02*
G01X2106343D01*
X2099174Y1549037D02*
G01X2105959D01*
X2100160Y1548137D02*
G01X2105540D01*
X2100872Y1547237D02*
G01X2105085D01*
X2101397Y1546337D02*
G01X2104592D01*
X2101774Y1545437D02*
G01X2104060D01*
X2102026Y1544537D02*
G01X2103484D01*
X2065341Y1637237D02*
G01X2097306D01*
X2065341Y1636337D02*
G01X2095603D01*
X2065341Y1635437D02*
G01X2095129D01*
X2065341Y1634537D02*
G01X2095032D01*
X2072293Y1633637D02*
G01X2095032D01*
X2073851Y1632737D02*
G01X2095032D01*
X2074629Y1631837D02*
G01X2095032D01*
X2075084Y1630937D02*
G01X2095032D01*
X2075316Y1630037D02*
G01X2095032D01*
X2075360Y1629137D02*
G01X2095032D01*
X2075221Y1628237D02*
G01X2095032D01*
X2074881Y1627337D02*
G01X2095032D01*
X2074279Y1626437D02*
G01X2095032D01*
X2073224Y1625537D02*
G01X2095032D01*
X2072103Y1624637D02*
G01X2094908D01*
X2089563Y1588637D02*
G01X2092684D01*
X2080463Y1611137D02*
G01X2092230D01*
X2075366Y1649837D02*
G01X2091859D01*
X2080463Y1606637D02*
G01X2091663D01*
X2054365Y1664237D02*
G01X2091601D01*
X2090157Y1594037D02*
G01X2091553D01*
X2089563Y1589537D02*
G01X2091467D01*
X2089563Y1593137D02*
G01X2091465D01*
X2080463Y1610237D02*
G01X2091305D01*
X2080903Y1549937D02*
G01X2091305D01*
X2080463Y1607537D02*
G01X2091066D01*
X2089563Y1590437D02*
G01X2090983D01*
X2089563Y1592237D02*
G01X2090983D01*
X2080463Y1609337D02*
G01X2090920D01*
X2080463Y1608437D02*
G01X2090848D01*
X2089563Y1591337D02*
G01X2090840D01*
X2075366Y1650737D02*
G01X2090111D01*
X2054066Y1663337D02*
G01X2089972D01*
X2086236Y1549037D02*
G01X2089801D01*
X2075366Y1651637D02*
G01X2089031D01*
X2053982Y1662437D02*
G01X2088935D01*
X2086363Y1548137D02*
G01X2088815D01*
X2075356Y1652537D02*
G01X2088261D01*
X2053982Y1661537D02*
G01X2088190D01*
X2086363Y1547237D02*
G01X2088102D01*
X2074919Y1653437D02*
G01X2087694D01*
X2064029Y1660637D02*
G01X2087642D01*
X2080463Y1598537D02*
G01X2087591D01*
X2086363Y1546337D02*
G01X2087578D01*
X2065337Y1654337D02*
G01X2087283D01*
X2064974Y1659737D02*
G01X2087246D01*
X2065337Y1655237D02*
G01X2087001D01*
X2065305Y1658837D02*
G01X2086978D01*
X2065337Y1656137D02*
G01X2086835D01*
X2065337Y1657937D02*
G01X2086823D01*
X2065337Y1657037D02*
G01X2086776D01*
X2080463Y1597637D02*
G01X2086682D01*
X2080463Y1596737D02*
G01X2085782D01*
X2080463Y1573337D02*
G01X2085701D01*
X2080463Y1595837D02*
G01X2084962D01*
X2080463Y1574237D02*
G01X2084868D01*
X2080463Y1594937D02*
G01X2084605D01*
X2080463Y1575137D02*
G01X2084581D01*
X2080463Y1594037D02*
G01X2084563D01*
X2080463Y1593137D02*
G01X2084563D01*
X2080463Y1592237D02*
G01X2084563D01*
X2080463Y1591337D02*
G01X2084563D01*
X2080463Y1590437D02*
G01X2084563D01*
X2080463Y1589537D02*
G01X2084563D01*
X2080463Y1588637D02*
G01X2084563D01*
X2080463Y1587737D02*
G01X2084563D01*
X2080463Y1586837D02*
G01X2084563D01*
X2080463Y1585937D02*
G01X2084563D01*
X2080463Y1585037D02*
G01X2084563D01*
X2080463Y1584137D02*
G01X2084563D01*
X2080463Y1583237D02*
G01X2084563D01*
X2080463Y1582337D02*
G01X2084563D01*
X2080463Y1581437D02*
G01X2084563D01*
X2080463Y1580537D02*
G01X2084563D01*
X2080463Y1579637D02*
G01X2084563D01*
X2080463Y1578737D02*
G01X2084563D01*
X2080463Y1577837D02*
G01X2084563D01*
X2080463Y1576937D02*
G01X2084563D01*
X2080463Y1576037D02*
G01X2084563D01*
X2064943Y1624637D02*
G01X2070558D01*
X2063924Y1623737D02*
G01X2069887D01*
X2065341Y1633637D02*
G01X2069438D01*
X2056247Y1622837D02*
G01X2069092D01*
X2056247Y1621937D02*
G01X2068821D01*
X2065300Y1625537D02*
G01X2068507D01*
X2065341Y1632737D02*
G01X2067881D01*
X2065341Y1626437D02*
G01X2067452D01*
X2065341Y1631837D02*
G01X2067102D01*
X2065341Y1627337D02*
G01X2066851D01*
X2065337Y1653437D02*
G01X2066812D01*
X2065337Y1645337D02*
G01X2066778D01*
X2065341Y1630937D02*
G01X2066647D01*
X2065341Y1628237D02*
G01X2066510D01*
X2065341Y1630037D02*
G01X2066415D01*
X2065337Y1652537D02*
G01X2066375D01*
X2065341Y1629137D02*
G01X2066372D01*
X2065337Y1646237D02*
G01X2066371D01*
X2065337Y1651637D02*
G01X2066366D01*
X2065337Y1650737D02*
G01X2066366D01*
X2065337Y1649837D02*
G01X2066366D01*
X2065337Y1648937D02*
G01X2066366D01*
X2065337Y1648037D02*
G01X2066366D01*
X2065337Y1647137D02*
G01X2066366D01*
X2056247Y1623737D02*
G01X2061758D01*
X2053982Y1660637D02*
G01X2061646D01*
X2056247Y1624637D02*
G01X2060739D01*
X2053982Y1659737D02*
G01X2060700D01*
X2056247Y1625537D02*
G01X2060383D01*
X2053982Y1658837D02*
G01X2060369D01*
X2053982Y1641737D02*
G01X2060341D01*
X2053982Y1640837D02*
G01X2060341D01*
X2053982Y1639937D02*
G01X2060341D01*
X2053982Y1639037D02*
G01X2060341D01*
X2053982Y1638137D02*
G01X2060341D01*
X2053982Y1637237D02*
G01X2060341D01*
X2053982Y1636337D02*
G01X2060341D01*
X2053982Y1635437D02*
G01X2060341D01*
X2053982Y1634537D02*
G01X2060341D01*
X2053982Y1633637D02*
G01X2060341D01*
X2053982Y1632737D02*
G01X2060341D01*
X2055483Y1631837D02*
G01X2060341D01*
X2056350Y1630937D02*
G01X2060341D01*
X2056633Y1630037D02*
G01X2060341D01*
X2056560Y1629137D02*
G01X2060341D01*
X2056330Y1628237D02*
G01X2060341D01*
X2056247Y1627337D02*
G01X2060341D01*
X2056247Y1626437D02*
G01X2060341D01*
X2053982Y1657937D02*
G01X2060337D01*
X2053982Y1657037D02*
G01X2060337D01*
X2053982Y1656137D02*
G01X2060337D01*
X2053982Y1655237D02*
G01X2060337D01*
X2053982Y1654337D02*
G01X2060337D01*
X2053982Y1653437D02*
G01X2060337D01*
X2053982Y1652537D02*
G01X2060337D01*
X2053982Y1651637D02*
G01X2060337D01*
X2053982Y1650737D02*
G01X2060337D01*
X2053982Y1649837D02*
G01X2060337D01*
X2053982Y1648937D02*
G01X2060337D01*
X2053982Y1648037D02*
G01X2060337D01*
X2053982Y1647137D02*
G01X2060337D01*
X2053982Y1646237D02*
G01X2060337D01*
X2053982Y1645337D02*
G01X2060337D01*
X2053982Y1644437D02*
G01X2060337D01*
X2053982Y1643537D02*
G01X2060337D01*
X2053982Y1642637D02*
G01X2060337D01*
X2017689Y1666037D02*
G01X2050116D01*
X2044679Y1662437D02*
G01X2049982D01*
X2044837Y1661537D02*
G01X2049982D01*
X2044645Y1660637D02*
G01X2049982D01*
X2044464Y1659737D02*
G01X2049982D01*
X2044437Y1658837D02*
G01X2049982D01*
X2044437Y1657937D02*
G01X2049982D01*
X2044437Y1657037D02*
G01X2049982D01*
X2044437Y1656137D02*
G01X2049982D01*
X2044437Y1655237D02*
G01X2049982D01*
X2044437Y1654337D02*
G01X2049982D01*
X2044437Y1653437D02*
G01X2049982D01*
X2044437Y1652537D02*
G01X2049982D01*
X2044437Y1651637D02*
G01X2049982D01*
X2044437Y1650737D02*
G01X2049982D01*
X2044437Y1649837D02*
G01X2049982D01*
X2044437Y1648937D02*
G01X2049982D01*
X2044437Y1648037D02*
G01X2049982D01*
X2044437Y1647137D02*
G01X2049982D01*
X2044437Y1646237D02*
G01X2049965D01*
X2044071Y1663337D02*
G01X2049899D01*
X2017689Y1665137D02*
G01X2049661D01*
X2017689Y1664237D02*
G01X2049600D01*
X2044437Y1645337D02*
G01X2046960D01*
X2044437Y1641737D02*
G01X2046615D01*
X2044437Y1640837D02*
G01X2046615D01*
X2044437Y1639937D02*
G01X2046615D01*
X2044437Y1639037D02*
G01X2046615D01*
X2044437Y1638137D02*
G01X2046615D01*
X2044437Y1637237D02*
G01X2046615D01*
X2044437Y1636337D02*
G01X2046615D01*
X2044437Y1635437D02*
G01X2046615D01*
X2044437Y1634537D02*
G01X2046615D01*
X2044437Y1633637D02*
G01X2046615D01*
X2044437Y1632737D02*
G01X2046615D01*
X2044437Y1642637D02*
G01X2046417D01*
X2044437Y1644437D02*
G01X2046366D01*
X2044437Y1643537D02*
G01X2046216D01*
X2017689Y1663337D02*
G01X2040803D01*
X2017683Y1658837D02*
G01X2040437D01*
X2017683Y1657937D02*
G01X2040437D01*
X2017683Y1657037D02*
G01X2040437D01*
X2017683Y1656137D02*
G01X2040437D01*
X2017683Y1655237D02*
G01X2040437D01*
X2017683Y1654337D02*
G01X2040437D01*
X2017683Y1653437D02*
G01X2040437D01*
X2017683Y1652537D02*
G01X2040437D01*
X2017683Y1651637D02*
G01X2040437D01*
X2017683Y1650737D02*
G01X2040437D01*
X2017683Y1649837D02*
G01X2040437D01*
X2017683Y1648937D02*
G01X2040437D01*
X2017661Y1648037D02*
G01X2040437D01*
X2017360Y1647137D02*
G01X2040437D01*
X2016589Y1646237D02*
G01X2040437D01*
X2015689Y1645337D02*
G01X2040437D01*
X2009220Y1644437D02*
G01X2040437D01*
X2008912Y1643537D02*
G01X2040437D01*
X2009345Y1642637D02*
G01X2040437D01*
X2009430Y1641737D02*
G01X2040437D01*
X2009203Y1640837D02*
G01X2040437D01*
X2008551Y1639937D02*
G01X2040437D01*
X2008435Y1639037D02*
G01X2040437D01*
X2009156Y1638137D02*
G01X2040437D01*
X2009421Y1637237D02*
G01X2040437D01*
X2009370Y1636337D02*
G01X2040437D01*
X2008982Y1635437D02*
G01X2040437D01*
X2008245Y1634537D02*
G01X2040437D01*
X2008835Y1633637D02*
G01X2040437D01*
X2009316Y1632737D02*
G01X2040437D01*
X2009435Y1631837D02*
G01X2040437D01*
X2009245Y1630937D02*
G01X2040437D01*
X2008655Y1630037D02*
G01X2040437D01*
X2008335Y1629137D02*
G01X2040437D01*
X2038127Y1628237D02*
G01X2040437D01*
X2039228Y1627337D02*
G01X2040437D01*
X2017683Y1659737D02*
G01X2040411D01*
X2017683Y1660637D02*
G01X2040230D01*
X2017683Y1662437D02*
G01X2040196D01*
X2017683Y1661537D02*
G01X2040038D01*
X2009283Y1622837D02*
G01X2036012D01*
X2009437Y1621937D02*
G01X2036012D01*
X2009283Y1621037D02*
G01X2036012D01*
X2008750Y1620137D02*
G01X2036012D01*
X2006755Y1619237D02*
G01X2036012D01*
X2006472Y1618337D02*
G01X2036012D01*
X2007046Y1617437D02*
G01X2036012D01*
X2007200Y1616537D02*
G01X2036012D01*
X2007018Y1615637D02*
G01X2036012D01*
X2006397Y1614737D02*
G01X2036012D01*
X1996437Y1613837D02*
G01X2036012D01*
X1996361Y1612937D02*
G01X2036012D01*
X1996361Y1612037D02*
G01X2036012D01*
X2002989Y1611137D02*
G01X2036012D01*
X2003687Y1610237D02*
G01X2036012D01*
X2003894Y1609337D02*
G01X2036012D01*
X2003750Y1608437D02*
G01X2036012D01*
X2003495Y1607537D02*
G01X2036012D01*
X2003495Y1606637D02*
G01X2036012D01*
X2003495Y1605737D02*
G01X2035347D01*
X2003495Y1604837D02*
G01X2034809D01*
X2003289Y1603037D02*
G01X2034770D01*
X2002538Y1602137D02*
G01X2034770D01*
X2001638Y1601237D02*
G01X2034770D01*
X2001237Y1600337D02*
G01X2034770D01*
X2001237Y1599437D02*
G01X2034770D01*
X2008126Y1598537D02*
G01X2034770D01*
X2011968Y1597637D02*
G01X2034770D01*
X2012719Y1596737D02*
G01X2034770D01*
X2003495Y1603937D02*
G01X2034678D01*
X2012953Y1595837D02*
G01X2028456D01*
X2012834Y1594937D02*
G01X2027293D01*
X2012557Y1594037D02*
G01X2026393D01*
X2012557Y1593137D02*
G01X2025493D01*
X2012557Y1592237D02*
G01X2024593D01*
X2009104Y1628237D02*
G01X2016217D01*
X2015687Y1591337D02*
G01X2016176D01*
X2008750Y1623737D02*
G01X2015769D01*
X2009408Y1627337D02*
G01X2015022D01*
X2008276Y1624637D02*
G01X2014886D01*
X2009391Y1626437D02*
G01X2014617D01*
X2009046Y1625537D02*
G01X2014578D01*
X1996328Y1611137D02*
G01X2000002D01*
X1995991Y1610237D02*
G01X1999301D01*
X1995188Y1609337D02*
G01X1996873D01*
X1994301Y1608437D02*
G01X1996287D01*
X2008735Y1653936D02*
G01X2012683D01*
X2009204Y1653036D02*
G01X2012683D01*
X2009430Y1652136D02*
G01X2012683D01*
X2009345Y1651236D02*
G01X2012683D01*
X2008911Y1650336D02*
G01X2012683D01*
X1993362Y1607793D02*
G01X1993983D01*
X1991913Y1606893D02*
G01X1993934D01*
X1988243Y1605993D02*
G01X1993463D01*
X1987816Y1605093D02*
G01X1991072D01*
X1986928Y1604193D02*
G01X1990552D01*
X1986028Y1603293D02*
G01X1990229D01*
X1985558Y1598793D02*
G01X1988738D01*
X1986857Y1597893D02*
G01X1988738D01*
X1987325Y1596993D02*
G01X1988738D01*
X1987434Y1596093D02*
G01X1988738D01*
X1987234Y1595193D02*
G01X1988738D01*
X1986628Y1594293D02*
G01X1988738D01*
X1986357Y1593393D02*
G01X1988738D01*
X1987119Y1592493D02*
G01X1988738D01*
X1987412Y1591593D02*
G01X1988738D01*
X1987385Y1590693D02*
G01X1988738D01*
X1987029Y1589793D02*
G01X1988738D01*
X1986265Y1588893D02*
G01X1988738D01*
X1985128Y1602393D02*
G01X1988673D01*
X1982443Y1599693D02*
G01X1988430D01*
X1984228Y1601493D02*
G01X1988208D01*
X1983328Y1600593D02*
G01X1988140D01*
X1989237Y1624596D02*
G01X2000214D01*
X1989237Y1629096D02*
G01X2000035D01*
X1989237Y1619196D02*
G01X1999908D01*
X1989237Y1620096D02*
G01X1999763D01*
X1989237Y1623696D02*
G01X1999688D01*
X1989237Y1625496D02*
G01X1999454D01*
X1989237Y1628196D02*
G01X1999348D01*
X1989237Y1620996D02*
G01X1999207D01*
X1989237Y1622796D02*
G01X1999177D01*
X1989237Y1626396D02*
G01X1999092D01*
X1989237Y1627296D02*
G01X1999061D01*
X1989237Y1621896D02*
G01X1999038D01*
X1989237Y1618296D02*
G01X1992848D01*
X1989237Y1617396D02*
G01X1991959D01*
X1989080Y1616496D02*
G01X1991468D01*
X1988392Y1615596D02*
G01X1991361D01*
X1988279Y1614696D02*
G01X1991361D01*
X1989237Y1629996D02*
G01X1991194D01*
X1996269Y1639336D02*
G01X2000229D01*
X1991973Y1634836D02*
G01X2000005D01*
X1991973Y1638436D02*
G01X1999491D01*
X1991973Y1635736D02*
G01X1999319D01*
X1991973Y1637536D02*
G01X1999104D01*
X1991973Y1636636D02*
G01X1999054D01*
X1997092Y1640236D02*
G01X1998065D01*
X1991973Y1639336D02*
G01X1993668D01*
X1992127Y1640236D02*
G01X1992819D01*
X1978575Y1661020D02*
G01X1993461D01*
X1979158Y1660120D02*
G01X1993256D01*
X1986179Y1659220D02*
G01X1992973D01*
X1987056Y1658320D02*
G01X1992968D01*
X1987394Y1657420D02*
G01X1992968D01*
X1987405Y1656520D02*
G01X1992968D01*
X1987094Y1655620D02*
G01X1992826D01*
X1986323Y1654720D02*
G01X1990155D01*
X1986672Y1653820D02*
G01X1989646D01*
X1987252Y1652920D02*
G01X1988916D01*
X1964008Y1669120D02*
G01X1986890D01*
X1964280Y1668220D02*
G01X1986618D01*
X1972771Y1661920D02*
G01X1986223D01*
X1982768Y1667320D02*
G01X1986058D01*
X1984064Y1666420D02*
G01X1986029D01*
X1984468Y1665520D02*
G01X1986029D01*
X1984492Y1664620D02*
G01X1986029D01*
X1984148Y1663720D02*
G01X1986029D01*
X1983109Y1662820D02*
G01X1986029D01*
X1971220Y1667320D02*
G01X1981479D01*
X1972771Y1662820D02*
G01X1981137D01*
X1972334Y1666420D02*
G01X1980183D01*
X1972771Y1663720D02*
G01X1980098D01*
X1972718Y1665520D02*
G01X1979778D01*
X1972771Y1664620D02*
G01X1979755D01*
X1972780Y1661020D02*
G01X1975231D01*
X1972780Y1660120D02*
G01X1974648D01*
X1991120Y1668806D02*
G01X1993032D01*
X1957866D02*
G01X1959778D01*
X1912506Y1660332D02*
G01X1957472D01*
X1951813Y1659432D02*
G01X1956574D01*
X1912013Y1661232D02*
G01X1953810D01*
X1915117Y1668432D02*
G01X1953656D01*
X1911342Y1662132D02*
G01X1952870D01*
X1912043Y1667532D02*
G01X1952862D01*
X1909765Y1666632D02*
G01X1952775D01*
X1907900Y1665732D02*
G01X1952775D01*
X1907166Y1664832D02*
G01X1952775D01*
X1909061Y1663932D02*
G01X1952775D01*
X1910421Y1663032D02*
G01X1952775D01*
X1912857Y1659432D02*
G01X1944748D01*
X1913086Y1658532D02*
G01X1925275D01*
X1891363Y1559532D02*
G01X1924364D01*
X1891363Y1558632D02*
G01X1924364D01*
X1891363Y1557732D02*
G01X1924364D01*
X1891363Y1556832D02*
G01X1924364D01*
X1891363Y1555932D02*
G01X1924364D01*
X1891363Y1555032D02*
G01X1924364D01*
X1891363Y1554132D02*
G01X1924364D01*
X1913109Y1544232D02*
G01X1924364D01*
X1891363Y1560432D02*
G01X1924362D01*
X1891363Y1534332D02*
G01X1924350D01*
X1913203Y1657632D02*
G01X1924348D01*
X1891422Y1533432D02*
G01X1924291D01*
X1923315Y1545132D02*
G01X1924278D01*
X1923439Y1553232D02*
G01X1924231D01*
X1892413Y1531632D02*
G01X1924038D01*
X1891733Y1532532D02*
G01X1923984D01*
X1891363Y1561332D02*
G01X1923621D01*
X1913214Y1656732D02*
G01X1923448D01*
X1891363Y1562232D02*
G01X1922721D01*
X1913120Y1655832D02*
G01X1922548D01*
X1891363Y1563132D02*
G01X1921821D01*
X1912915Y1654932D02*
G01X1921648D01*
X1891363Y1564032D02*
G01X1921118D01*
X1891363Y1573932D02*
G01X1920952D01*
X1891363Y1573032D02*
G01X1920952D01*
X1891363Y1572132D02*
G01X1920952D01*
X1891363Y1571232D02*
G01X1920952D01*
X1891363Y1570332D02*
G01X1920952D01*
X1891363Y1569432D02*
G01X1920952D01*
X1891363Y1568532D02*
G01X1920952D01*
X1891363Y1567632D02*
G01X1920952D01*
X1891363Y1566732D02*
G01X1920952D01*
X1891363Y1565832D02*
G01X1920952D01*
X1891363Y1564932D02*
G01X1920952D01*
X1891363Y1574832D02*
G01X1920883D01*
X1912592Y1654032D02*
G01X1920748D01*
X1891363Y1575732D02*
G01X1920580D01*
X1891363Y1576632D02*
G01X1919956D01*
X1912131Y1653132D02*
G01X1919848D01*
X1912896Y1545132D02*
G01X1919519D01*
X1891363Y1553232D02*
G01X1919394D01*
X1911503Y1652232D02*
G01X1918948D01*
X1891363Y1577532D02*
G01X1918865D01*
X1912564Y1546032D02*
G01X1918233D01*
X1891363Y1552332D02*
G01X1918174D01*
X1910644Y1651332D02*
G01X1918048D01*
X1912092Y1546932D02*
G01X1917537D01*
X1891363Y1551432D02*
G01X1917503D01*
X1913211Y1543332D02*
G01X1917419D01*
X1906189Y1535232D02*
G01X1917281D01*
X1909408Y1650432D02*
G01X1917148D01*
X1911450Y1547832D02*
G01X1917134D01*
X1906702Y1550532D02*
G01X1917115D01*
X1910571Y1548732D02*
G01X1916942D01*
X1909296Y1549632D02*
G01X1916936D01*
X1913207Y1542432D02*
G01X1916933D01*
X1909182Y1536132D02*
G01X1916919D01*
X1913098Y1541532D02*
G01X1916917D01*
X1912877Y1540632D02*
G01X1916917D01*
X1912536Y1539732D02*
G01X1916917D01*
X1912054Y1538832D02*
G01X1916917D01*
X1911398Y1537932D02*
G01X1916917D01*
X1910498Y1537032D02*
G01X1916917D01*
X1907059Y1649532D02*
G01X1916248D01*
X1893113Y1648632D02*
G01X1915348D01*
X1891363Y1578432D02*
G01X1914859D01*
X1892812Y1647732D02*
G01X1914448D01*
X1891363Y1579332D02*
G01X1913940D01*
X1892541Y1646832D02*
G01X1913548D01*
X1891363Y1580232D02*
G01X1913053D01*
X1892300Y1645932D02*
G01X1912800D01*
X1891363Y1581132D02*
G01X1912631D01*
X1892087Y1645032D02*
G01X1912596D01*
X1891903Y1644132D02*
G01X1912596D01*
X1891746Y1643232D02*
G01X1912596D01*
X1891617Y1642332D02*
G01X1912596D01*
X1891514Y1641432D02*
G01X1912596D01*
X1891438Y1640532D02*
G01X1912596D01*
X1891388Y1639632D02*
G01X1912596D01*
X1891365Y1638732D02*
G01X1912596D01*
X1891363Y1637832D02*
G01X1912596D01*
X1891363Y1636932D02*
G01X1912596D01*
X1891363Y1636032D02*
G01X1912596D01*
X1891363Y1635132D02*
G01X1912596D01*
X1891363Y1634232D02*
G01X1912596D01*
X1891363Y1633332D02*
G01X1912596D01*
X1891363Y1632432D02*
G01X1912596D01*
X1891363Y1631532D02*
G01X1912596D01*
X1891363Y1630632D02*
G01X1912596D01*
X1891363Y1629732D02*
G01X1912596D01*
X1891363Y1628832D02*
G01X1912596D01*
X1891363Y1627932D02*
G01X1912596D01*
X1891363Y1627032D02*
G01X1912596D01*
X1891363Y1626132D02*
G01X1912596D01*
X1891363Y1625232D02*
G01X1912596D01*
X1891363Y1624332D02*
G01X1912596D01*
X1891363Y1623432D02*
G01X1912596D01*
X1891363Y1622532D02*
G01X1912596D01*
X1891363Y1621632D02*
G01X1912596D01*
X1891363Y1620732D02*
G01X1912596D01*
X1891363Y1619832D02*
G01X1912596D01*
X1891363Y1618932D02*
G01X1912596D01*
X1891363Y1618032D02*
G01X1912596D01*
X1891363Y1617132D02*
G01X1912596D01*
X1891363Y1616232D02*
G01X1912596D01*
X1891363Y1615332D02*
G01X1912596D01*
X1891363Y1614432D02*
G01X1912596D01*
X1891363Y1613532D02*
G01X1912596D01*
X1891363Y1612632D02*
G01X1912596D01*
X1891363Y1611732D02*
G01X1912596D01*
X1891363Y1610832D02*
G01X1912596D01*
X1891363Y1609932D02*
G01X1912596D01*
X1891363Y1609032D02*
G01X1912596D01*
X1891363Y1608132D02*
G01X1912596D01*
X1891363Y1607232D02*
G01X1912596D01*
X1891363Y1606332D02*
G01X1912596D01*
X1891363Y1605432D02*
G01X1912596D01*
X1891363Y1604532D02*
G01X1912596D01*
X1891363Y1603632D02*
G01X1912596D01*
X1891363Y1602732D02*
G01X1912596D01*
X1891363Y1601832D02*
G01X1912596D01*
X1891363Y1600932D02*
G01X1912596D01*
X1891363Y1600032D02*
G01X1912596D01*
X1891363Y1599132D02*
G01X1912596D01*
X1891363Y1598232D02*
G01X1912596D01*
X1891363Y1597332D02*
G01X1912596D01*
X1891363Y1596432D02*
G01X1912596D01*
X1891363Y1595532D02*
G01X1912596D01*
X1891363Y1594632D02*
G01X1912596D01*
X1891363Y1593732D02*
G01X1912596D01*
X1891363Y1592832D02*
G01X1912596D01*
X1891363Y1591932D02*
G01X1912596D01*
X1891363Y1591032D02*
G01X1912596D01*
X1891363Y1590132D02*
G01X1912596D01*
X1891363Y1589232D02*
G01X1912596D01*
X1891363Y1588332D02*
G01X1912596D01*
X1891363Y1587432D02*
G01X1912596D01*
X1891363Y1586532D02*
G01X1912596D01*
X1891363Y1585632D02*
G01X1912596D01*
X1891363Y1584732D02*
G01X1912596D01*
X1891363Y1583832D02*
G01X1912596D01*
X1891363Y1582932D02*
G01X1912596D01*
X1891363Y1582032D02*
G01X1912596D01*
X1891363Y1535232D02*
G01X1904834D01*
X1891363Y1550532D02*
G01X1904321D01*
X1893445Y1649532D02*
G01X1903964D01*
X1891363Y1536132D02*
G01X1901840D01*
X1891363Y1549632D02*
G01X1901727D01*
X1893810Y1650432D02*
G01X1901615D01*
X1891363Y1537032D02*
G01X1900524D01*
X1891363Y1548732D02*
G01X1900451D01*
X1894208Y1651332D02*
G01X1900378D01*
X1891363Y1537932D02*
G01X1899625D01*
X1891363Y1547832D02*
G01X1899573D01*
X1894642Y1652232D02*
G01X1899520D01*
X1891363Y1538832D02*
G01X1898969D01*
X1891363Y1546932D02*
G01X1898930D01*
X1895112Y1653132D02*
G01X1898891D01*
X1891363Y1539732D02*
G01X1898487D01*
X1891363Y1546032D02*
G01X1898459D01*
X1895621Y1654032D02*
G01X1898431D01*
X1891363Y1540632D02*
G01X1898145D01*
X1891363Y1545132D02*
G01X1898126D01*
X1896171Y1654932D02*
G01X1898107D01*
X1891363Y1541532D02*
G01X1897925D01*
X1891363Y1544232D02*
G01X1897914D01*
X1896764Y1655832D02*
G01X1897903D01*
X1891363Y1542432D02*
G01X1897815D01*
X1891363Y1543332D02*
G01X1897812D01*
X1964110Y1644732D02*
G01X1966187D01*
X1953026Y1582720D02*
G01X1957760D01*
X1953413Y1581820D02*
G01X1957760D01*
X1953463Y1580920D02*
G01X1957760D01*
X1952288Y1583620D02*
G01X1957712D01*
X1953198Y1580020D02*
G01X1957454D01*
X1952513Y1579120D02*
G01X1956554D01*
X1952352Y1624699D02*
G01X1954126D01*
X1952736Y1623799D02*
G01X1954126D01*
X1953125Y1625599D02*
G01X1954110D01*
X1974756Y1606099D02*
G01X1982767D01*
X1974756Y1605199D02*
G01X1982276D01*
X1974756Y1604299D02*
G01X1981376D01*
X1974756Y1606999D02*
G01X1980554D01*
X1974756Y1603399D02*
G01X1980476D01*
X1974756Y1607899D02*
G01X1980232D01*
X1978778Y1609699D02*
G01X1980232D01*
X1974756Y1608799D02*
G01X1980232D01*
X1979365Y1610599D02*
G01X1980099D01*
X1974756Y1602499D02*
G01X1979576D01*
X1974756Y1601599D02*
G01X1978676D01*
X1974756Y1600699D02*
G01X1977776D01*
X1974521Y1599799D02*
G01X1976876D01*
X1973984Y1598899D02*
G01X1975976D01*
X1979378Y1618135D02*
G01X1985206D01*
X1979290Y1619035D02*
G01X1985139D01*
X1979461Y1617235D02*
G01X1984503D01*
X1979461Y1616335D02*
G01X1981784D01*
X1979461Y1615435D02*
G01X1981090D01*
X1979466Y1613635D02*
G01X1980911D01*
X1979465Y1614535D02*
G01X1980884D01*
X1928364Y1534332D02*
G01X1970143D01*
X1965354Y1537032D02*
G01X1970135D01*
X1964698Y1536132D02*
G01X1970135D01*
X1963517Y1535232D02*
G01X1970135D01*
X1965731Y1537932D02*
G01X1970131D01*
X1928438Y1533432D02*
G01X1970075D01*
X1928690Y1531632D02*
G01X1969815D01*
X1965901Y1538832D02*
G01X1969789D01*
X1928744Y1532532D02*
G01X1969764D01*
X1965887Y1539732D02*
G01X1968200D01*
X1963315Y1545132D02*
G01X1967726D01*
X1958417Y1544232D02*
G01X1967726D01*
X1963227Y1543332D02*
G01X1967726D01*
X1964601Y1546032D02*
G01X1967719D01*
X1965687Y1540632D02*
G01X1967523D01*
X1964560Y1542432D02*
G01X1967481D01*
X1965273Y1541532D02*
G01X1967327D01*
X1965296Y1546932D02*
G01X1966950D01*
X1958336Y1600032D02*
G01X1960446D01*
X1958741Y1600932D02*
G01X1960391D01*
X1958328Y1543332D02*
G01X1959607D01*
X1957774Y1599132D02*
G01X1959546D01*
X1958485Y1545132D02*
G01X1959519D01*
X1953517Y1535232D02*
G01X1959317D01*
X1952582Y1598232D02*
G01X1958646D01*
X1954698Y1536132D02*
G01X1958136D01*
X1953241Y1597332D02*
G01X1957933D01*
X1953472Y1596432D02*
G01X1957760D01*
X1953391Y1595532D02*
G01X1957760D01*
X1952963Y1594632D02*
G01X1957760D01*
X1952278Y1593732D02*
G01X1957760D01*
X1952947Y1592832D02*
G01X1957760D01*
X1953385Y1591932D02*
G01X1957760D01*
X1953474Y1591032D02*
G01X1957760D01*
X1953251Y1590132D02*
G01X1957760D01*
X1952606Y1589232D02*
G01X1957760D01*
X1955354Y1537032D02*
G01X1957480D01*
X1955731Y1537932D02*
G01X1957103D01*
X1955933Y1539732D02*
G01X1956947D01*
X1955901Y1538832D02*
G01X1956933D01*
X1952464Y1588332D02*
G01X1955858D01*
X1937368Y1599132D02*
G01X1954364D01*
X1952471Y1619832D02*
G01X1954126D01*
X1941171Y1618932D02*
G01X1954073D01*
X1953198Y1620732D02*
G01X1954055D01*
X1943438Y1554132D02*
G01X1953845D01*
X1942634Y1557732D02*
G01X1953844D01*
X1943595Y1556832D02*
G01X1953844D01*
X1943914Y1555932D02*
G01X1953844D01*
X1943870Y1555032D02*
G01X1953844D01*
X1937452Y1600032D02*
G01X1953803D01*
X1951546Y1558632D02*
G01X1953629D01*
X1941171Y1618032D02*
G01X1953209D01*
X1938417Y1544232D02*
G01X1952708D01*
X1941171Y1617132D02*
G01X1952467D01*
X1941171Y1616232D02*
G01X1952269D01*
X1941171Y1615332D02*
G01X1952269D01*
X1941171Y1614432D02*
G01X1952269D01*
X1941171Y1613532D02*
G01X1952269D01*
X1941171Y1612632D02*
G01X1952269D01*
X1941148Y1611732D02*
G01X1952269D01*
X1940767Y1610832D02*
G01X1952269D01*
X1939893Y1609932D02*
G01X1952269D01*
X1938993Y1609032D02*
G01X1952269D01*
X1937849Y1608132D02*
G01X1952269D01*
X1936501Y1607232D02*
G01X1952269D01*
X1935560Y1606332D02*
G01X1952269D01*
X1916596Y1605432D02*
G01X1952269D01*
X1916596Y1604532D02*
G01X1951289D01*
X1937355Y1600932D02*
G01X1951247D01*
X1935608Y1603632D02*
G01X1950638D01*
X1937062Y1601832D02*
G01X1950623D01*
X1936528Y1602732D02*
G01X1950455D01*
X1943227Y1543332D02*
G01X1949607D01*
X1943315Y1545132D02*
G01X1949519D01*
X1943442Y1553232D02*
G01X1949394D01*
X1943517Y1535232D02*
G01X1949317D01*
X1944560Y1542432D02*
G01X1948273D01*
X1944601Y1546032D02*
G01X1948233D01*
X1944660Y1552332D02*
G01X1948174D01*
X1944698Y1536132D02*
G01X1948136D01*
X1945273Y1541532D02*
G01X1947561D01*
X1945296Y1546932D02*
G01X1947537D01*
X1945331Y1551432D02*
G01X1947503D01*
X1945354Y1537032D02*
G01X1947480D01*
X1945687Y1540632D02*
G01X1947147D01*
X1945700Y1547832D02*
G01X1947134D01*
X1945719Y1550532D02*
G01X1947115D01*
X1945731Y1537932D02*
G01X1947103D01*
X1945887Y1539732D02*
G01X1946947D01*
X1945891Y1548732D02*
G01X1946942D01*
X1945897Y1549632D02*
G01X1946936D01*
X1945901Y1538832D02*
G01X1946933D01*
X1928364Y1558632D02*
G01X1945015D01*
X1921905Y1649532D02*
G01X1944274D01*
X1937200Y1583832D02*
G01X1944270D01*
X1924952Y1568532D02*
G01X1944246D01*
X1924952Y1573932D02*
G01X1944236D01*
X1937452Y1578432D02*
G01X1944191D01*
X1926578Y1564032D02*
G01X1944174D01*
X1939983Y1588332D02*
G01X1944097D01*
X1941171Y1619832D02*
G01X1944090D01*
X1926405Y1654032D02*
G01X1944044D01*
X1937091Y1598232D02*
G01X1943978D01*
X1940939Y1589232D02*
G01X1943955D01*
X1927478Y1563132D02*
G01X1943873D01*
X1937452Y1579332D02*
G01X1943851D01*
X1917405Y1645032D02*
G01X1943781D01*
X1924952Y1573032D02*
G01X1943778D01*
X1924952Y1569432D02*
G01X1943758D01*
X1937452Y1582932D02*
G01X1943691D01*
X1921005Y1648632D02*
G01X1943678D01*
X1928364Y1559532D02*
G01X1943674D01*
X1922805Y1650432D02*
G01X1943539D01*
X1916596Y1584732D02*
G01X1943528D01*
X1924952Y1567632D02*
G01X1943478D01*
X1925022Y1574832D02*
G01X1943465D01*
X1937452Y1577532D02*
G01X1943420D01*
X1925678Y1564932D02*
G01X1943408D01*
X1936872Y1587432D02*
G01X1943367D01*
X1941209Y1620732D02*
G01X1943364D01*
X1925505Y1653132D02*
G01X1943359D01*
X1936577Y1597332D02*
G01X1943319D01*
X1941839Y1590132D02*
G01X1943310D01*
X1928191Y1562232D02*
G01X1943277D01*
X1918305Y1645932D02*
G01X1943274D01*
X1937452Y1580232D02*
G01X1943268D01*
X1924952Y1572132D02*
G01X1943239D01*
X1924952Y1570332D02*
G01X1943231D01*
X1937452Y1582032D02*
G01X1943205D01*
X1920105Y1647732D02*
G01X1943200D01*
X1928364Y1560432D02*
G01X1943198D01*
X1923705Y1651332D02*
G01X1943149D01*
X1934037Y1585632D02*
G01X1943145D01*
X1924952Y1566732D02*
G01X1943129D01*
X1936755Y1575732D02*
G01X1943125D01*
X1937407Y1576632D02*
G01X1943112D01*
X1924953Y1565832D02*
G01X1943109D01*
X1935821Y1586532D02*
G01X1943098D01*
X1924605Y1652232D02*
G01X1943096D01*
X1928364Y1561332D02*
G01X1943083D01*
X1919205Y1646832D02*
G01X1943082D01*
X1937452Y1581132D02*
G01X1943082D01*
X1924952Y1571232D02*
G01X1943080D01*
X1935695Y1596432D02*
G01X1942935D01*
X1927445Y1654932D02*
G01X1942489D01*
X1933494Y1595532D02*
G01X1941023D01*
X1916610Y1644132D02*
G01X1940757D01*
X1916596Y1594632D02*
G01X1940522D01*
X1928364Y1557732D02*
G01X1940440D01*
X1916596Y1640532D02*
G01X1940220D01*
X1916596Y1639632D02*
G01X1940220D01*
X1916596Y1638732D02*
G01X1940220D01*
X1916596Y1637832D02*
G01X1940220D01*
X1916596Y1643232D02*
G01X1940040D01*
X1916596Y1641432D02*
G01X1939957D01*
X1916596Y1642332D02*
G01X1939822D01*
X1935466Y1593732D02*
G01X1939783D01*
X1938328Y1543332D02*
G01X1939607D01*
X1938485Y1545132D02*
G01X1939519D01*
X1928364Y1556832D02*
G01X1939479D01*
X1933517Y1535232D02*
G01X1939317D01*
X1928364Y1555932D02*
G01X1939044D01*
X1936505Y1592832D02*
G01X1938883D01*
X1928364Y1555032D02*
G01X1938144D01*
X1934698Y1536132D02*
G01X1938136D01*
X1916596Y1636932D02*
G01X1937936D01*
X1935354Y1537032D02*
G01X1937480D01*
X1928364Y1554132D02*
G01X1937244D01*
X1916596Y1633332D02*
G01X1937171D01*
X1916596Y1632432D02*
G01X1937171D01*
X1916596Y1631532D02*
G01X1937171D01*
X1916596Y1630632D02*
G01X1937171D01*
X1916596Y1629732D02*
G01X1937171D01*
X1916596Y1628832D02*
G01X1937171D01*
X1916596Y1627932D02*
G01X1937171D01*
X1916596Y1627032D02*
G01X1937171D01*
X1916596Y1626132D02*
G01X1937171D01*
X1916596Y1625232D02*
G01X1937171D01*
X1934168Y1624332D02*
G01X1937171D01*
X1935862Y1623432D02*
G01X1937171D01*
X1935414Y1616232D02*
G01X1937171D01*
X1916596Y1615332D02*
G01X1937171D01*
X1933728Y1614432D02*
G01X1937171D01*
X1935740Y1613532D02*
G01X1937171D01*
X1935731Y1537932D02*
G01X1937103D01*
X1916596Y1636032D02*
G01X1937069D01*
X1935933Y1539732D02*
G01X1936947D01*
X1935901Y1538832D02*
G01X1936933D01*
X1916596Y1634232D02*
G01X1936859D01*
X1936514Y1617132D02*
G01X1936828D01*
X1916596Y1635132D02*
G01X1936785D01*
X1933439Y1553232D02*
G01X1936344D01*
X1934660Y1552332D02*
G01X1935444D01*
X1923494Y1595532D02*
G01X1932411D01*
X1923728Y1614432D02*
G01X1932177D01*
X1924037Y1585632D02*
G01X1931867D01*
X1924168Y1624332D02*
G01X1931737D01*
X1925414Y1616232D02*
G01X1930491D01*
X1925466Y1593732D02*
G01X1930439D01*
X1925560Y1606332D02*
G01X1930344D01*
X1925608Y1603632D02*
G01X1930296D01*
X1925695Y1596432D02*
G01X1930209D01*
X1925740Y1613532D02*
G01X1930165D01*
X1925821Y1586532D02*
G01X1930084D01*
X1925862Y1623432D02*
G01X1930043D01*
X1926421Y1617132D02*
G01X1929484D01*
X1926449Y1592832D02*
G01X1929456D01*
X1926501Y1607232D02*
G01X1929404D01*
X1928450Y1553232D02*
G01X1929394D01*
X1926528Y1602732D02*
G01X1929377D01*
X1926577Y1597332D02*
G01X1929328D01*
X1928480Y1535232D02*
G01X1929317D01*
X1926602Y1612632D02*
G01X1929303D01*
X1926648Y1587432D02*
G01X1929256D01*
X1926672Y1622532D02*
G01X1929233D01*
X1925325Y1575732D02*
G01X1929150D01*
X1926999Y1618032D02*
G01X1928905D01*
X1927016Y1591932D02*
G01X1928888D01*
X1927047Y1608132D02*
G01X1928858D01*
X1927062Y1601832D02*
G01X1928842D01*
X1927091Y1598232D02*
G01X1928814D01*
X1927105Y1611732D02*
G01X1928799D01*
X1927132Y1588332D02*
G01X1928773D01*
X1927146Y1621632D02*
G01X1928759D01*
X1925310Y1583832D02*
G01X1928705D01*
X1927324Y1618932D02*
G01X1928581D01*
X1927332Y1591032D02*
G01X1928572D01*
X1927347Y1609032D02*
G01X1928557D01*
X1927355Y1600932D02*
G01X1928550D01*
X1927368Y1599132D02*
G01X1928537D01*
X1927375Y1610832D02*
G01X1928530D01*
X1927386Y1589232D02*
G01X1928518D01*
X1927392Y1620732D02*
G01X1928512D01*
X1925949Y1576632D02*
G01X1928498D01*
X1927449Y1619832D02*
G01X1928455D01*
X1927450Y1590132D02*
G01X1928454D01*
X1927452Y1609932D02*
G01X1928453D01*
X1927452Y1600032D02*
G01X1928452D01*
X1926365Y1582932D02*
G01X1928452D01*
X1926967Y1582032D02*
G01X1928452D01*
X1927307Y1581132D02*
G01X1928452D01*
X1927446Y1580232D02*
G01X1928452D01*
X1927403Y1579332D02*
G01X1928452D01*
X1927171Y1578432D02*
G01X1928452D01*
X1926716Y1577532D02*
G01X1928452D01*
X1916596Y1595532D02*
G01X1922411D01*
X1916596Y1614432D02*
G01X1922177D01*
X1916596Y1585632D02*
G01X1921867D01*
X1916596Y1624332D02*
G01X1921737D01*
X1916596Y1583832D02*
G01X1920594D01*
X1916596Y1616232D02*
G01X1920491D01*
X1916596Y1593732D02*
G01X1920439D01*
X1916596Y1606332D02*
G01X1920344D01*
X1916596Y1603632D02*
G01X1920296D01*
X1916596Y1596432D02*
G01X1920209D01*
X1916596Y1613532D02*
G01X1920165D01*
X1916596Y1586532D02*
G01X1920084D01*
X1916596Y1623432D02*
G01X1920043D01*
X1916596Y1582932D02*
G01X1919516D01*
X1916596Y1617132D02*
G01X1919484D01*
X1916596Y1592832D02*
G01X1919456D01*
X1916596Y1607232D02*
G01X1919404D01*
X1916596Y1602732D02*
G01X1919377D01*
X1916596Y1597332D02*
G01X1919328D01*
X1916596Y1612632D02*
G01X1919303D01*
X1916596Y1587432D02*
G01X1919256D01*
X1916596Y1622532D02*
G01X1919233D01*
X1916596Y1618032D02*
G01X1918905D01*
X1916596Y1591932D02*
G01X1918888D01*
X1916596Y1608132D02*
G01X1918858D01*
X1916596Y1601832D02*
G01X1918842D01*
X1916596Y1598232D02*
G01X1918814D01*
X1916596Y1611732D02*
G01X1918799D01*
X1916596Y1588332D02*
G01X1918773D01*
X1916596Y1621632D02*
G01X1918759D01*
X1916596Y1618932D02*
G01X1918581D01*
X1916596Y1591032D02*
G01X1918572D01*
X1916596Y1609032D02*
G01X1918557D01*
X1916596Y1600932D02*
G01X1918550D01*
X1916596Y1599132D02*
G01X1918537D01*
X1916596Y1610832D02*
G01X1918530D01*
X1916596Y1589232D02*
G01X1918518D01*
X1916596Y1620732D02*
G01X1918512D01*
X1916596Y1619832D02*
G01X1918455D01*
X1916596Y1590132D02*
G01X1918454D01*
X1916596Y1609932D02*
G01X1918453D01*
X1916596Y1600032D02*
G01X1918452D01*
X1916960Y1582032D02*
G01X1917565D01*
X1974115Y1619590D02*
G01X1974917D01*
X1968538Y1618690D02*
G01X1974766D01*
X1969080Y1617790D02*
G01X1974479D01*
X1969247Y1616890D02*
G01X1974416D01*
X1969247Y1615990D02*
G01X1970906D01*
X1969247Y1612390D02*
G01X1970756D01*
X1969247Y1613290D02*
G01X1970661D01*
X1969247Y1615090D02*
G01X1970440D01*
X1969247Y1614190D02*
G01X1970372D01*
X1974278Y1629419D02*
G01X1978239D01*
X1974500Y1624019D02*
G01X1978017D01*
X1974573Y1624919D02*
G01X1977944D01*
X1974969Y1628519D02*
G01X1977549D01*
X1975013Y1620419D02*
G01X1977376D01*
X1975208Y1623119D02*
G01X1977309D01*
X1975238Y1625819D02*
G01X1977280D01*
X1975393Y1627619D02*
G01X1977125D01*
X1975408Y1621319D02*
G01X1977109D01*
X1975466Y1622219D02*
G01X1977052D01*
X1975471Y1626719D02*
G01X1977046D01*
X1974941Y1630319D02*
G01X1976262D01*
X1974303Y1649280D02*
G01X1978214D01*
X1974340Y1654680D02*
G01X1978177D01*
X1974754Y1653780D02*
G01X1977763D01*
X1974830Y1650180D02*
G01X1977688D01*
X1974413Y1644780D02*
G01X1977492D01*
X1975063Y1648380D02*
G01X1977455D01*
X1975169Y1645680D02*
G01X1977348D01*
X1975311Y1652880D02*
G01X1977207D01*
X1975340Y1651080D02*
G01X1977177D01*
X1975425Y1647480D02*
G01X1977092D01*
X1975457Y1646580D02*
G01X1977061D01*
X1975480Y1651980D02*
G01X1977038D01*
X1975114Y1655580D02*
G01X1976348D01*
X2066875Y1610420D02*
G01X2072663D01*
X2066963Y1609520D02*
G01X2072663D01*
X2066963Y1608620D02*
G01X2072663D01*
X2066963Y1607720D02*
G01X2072663D01*
X2066963Y1606820D02*
G01X2072663D01*
X2066963Y1605920D02*
G01X2072663D01*
X2066963Y1605020D02*
G01X2072663D01*
X2066963Y1604120D02*
G01X2072663D01*
X2066963Y1603220D02*
G01X2072663D01*
X2066963Y1602320D02*
G01X2072663D01*
X2066963Y1601420D02*
G01X2072663D01*
X2066963Y1600520D02*
G01X2072663D01*
X2066963Y1599620D02*
G01X2072663D01*
X2066963Y1598720D02*
G01X2072663D01*
X2066963Y1597820D02*
G01X2072663D01*
X2066963Y1596920D02*
G01X2072663D01*
X2066963Y1596020D02*
G01X2072663D01*
X2066963Y1595120D02*
G01X2072663D01*
X2066963Y1594220D02*
G01X2072663D01*
X2066963Y1593320D02*
G01X2072663D01*
X2066963Y1592420D02*
G01X2072663D01*
X2066963Y1591520D02*
G01X2072663D01*
X2066963Y1590620D02*
G01X2072663D01*
X2066963Y1589720D02*
G01X2072663D01*
X2066963Y1588820D02*
G01X2072663D01*
X2066963Y1587920D02*
G01X2072663D01*
X2066963Y1587020D02*
G01X2072663D01*
X2066963Y1586120D02*
G01X2072663D01*
X2066963Y1585220D02*
G01X2072663D01*
X2066963Y1584320D02*
G01X2072663D01*
X2066963Y1583420D02*
G01X2072663D01*
X2067050Y1582520D02*
G01X2072663D01*
X2067346Y1581620D02*
G01X2072663D01*
X2067283Y1580720D02*
G01X2072663D01*
X2066826Y1579820D02*
G01X2072663D01*
X2054478Y1578920D02*
G01X2072663D01*
X2054478Y1578020D02*
G01X2072663D01*
X2054478Y1577120D02*
G01X2072663D01*
X2054478Y1576220D02*
G01X2072663D01*
X2054478Y1575320D02*
G01X2072663D01*
X2054478Y1574420D02*
G01X2072663D01*
X2054478Y1573520D02*
G01X2072663D01*
X2054478Y1572620D02*
G01X2072663D01*
X2063077Y1571720D02*
G01X2072663D01*
X2066397Y1570820D02*
G01X2072663D01*
X2067297Y1569920D02*
G01X2072663D01*
X2068180Y1569020D02*
G01X2072663D01*
X2068585Y1568120D02*
G01X2072663D01*
X2068615Y1567220D02*
G01X2072663D01*
X2068615Y1566320D02*
G01X2072663D01*
X2068615Y1565420D02*
G01X2072663D01*
X2068615Y1564520D02*
G01X2072663D01*
X2068615Y1563620D02*
G01X2072663D01*
X2068615Y1562720D02*
G01X2072663D01*
X2068615Y1561820D02*
G01X2072663D01*
X2068615Y1560920D02*
G01X2072663D01*
X2068615Y1560020D02*
G01X2072663D01*
X2068615Y1559120D02*
G01X2072663D01*
X2066305Y1611320D02*
G01X2072648D01*
X2068615Y1558220D02*
G01X2072021D01*
X2066508Y1612220D02*
G01X2071742D01*
X2068615Y1557320D02*
G01X2071121D01*
X2068615Y1556420D02*
G01X2070221D01*
X2054509Y1579820D02*
G01X2063101D01*
X2054873Y1608620D02*
G01X2062963D01*
X2054761Y1607720D02*
G01X2062963D01*
X2054478Y1606820D02*
G01X2062963D01*
X2054478Y1605920D02*
G01X2062963D01*
X2054478Y1605020D02*
G01X2062963D01*
X2054478Y1604120D02*
G01X2062963D01*
X2054478Y1603220D02*
G01X2062963D01*
X2054578Y1602320D02*
G01X2062963D01*
X2056971Y1601420D02*
G01X2062963D01*
X2057531Y1600520D02*
G01X2062963D01*
X2057661Y1599620D02*
G01X2062963D01*
X2057439Y1598720D02*
G01X2062963D01*
X2057263Y1597820D02*
G01X2062963D01*
X2057263Y1596920D02*
G01X2062963D01*
X2057263Y1596020D02*
G01X2062963D01*
X2057263Y1595120D02*
G01X2062963D01*
X2057263Y1594220D02*
G01X2062963D01*
X2057263Y1593320D02*
G01X2062963D01*
X2057263Y1592420D02*
G01X2062963D01*
X2057263Y1591520D02*
G01X2062963D01*
X2057263Y1590620D02*
G01X2062963D01*
X2057263Y1589720D02*
G01X2062963D01*
X2057263Y1588820D02*
G01X2062963D01*
X2057263Y1587920D02*
G01X2062963D01*
X2057263Y1587020D02*
G01X2062963D01*
X2057263Y1586120D02*
G01X2062963D01*
X2057263Y1585220D02*
G01X2062963D01*
X2057263Y1584320D02*
G01X2062963D01*
X2057494Y1583420D02*
G01X2062963D01*
X2057663Y1582520D02*
G01X2062877D01*
X2056835Y1580720D02*
G01X2062643D01*
X2057483Y1581620D02*
G01X2062580D01*
X2056717Y1609520D02*
G01X2062344D01*
X2054478Y1571720D02*
G01X2061160D01*
X2054975Y1570820D02*
G01X2060101D01*
X2055875Y1569920D02*
G01X2059752D01*
X2056775Y1569020D02*
G01X2059618D01*
X1977828Y1623847D02*
G01X1978889Y1622786D01*
X1974689Y1620028D02*
G01X1973629Y1621089D01*
X1974689Y1623847D02*
G01X1973629Y1622786D01*
X1986468Y1661598D02*
G01X1987983Y1663112D01*
X1991688Y1661598D02*
G01X1990174Y1663112D01*
X1986468Y1668089D02*
G01X1987983Y1666575D01*
X1991688Y1668089D02*
G01X1990174Y1666575D01*
X1953214Y1661598D02*
G01X1954729Y1663112D01*
X1953214Y1668089D02*
G01X1954729Y1666575D01*
X1958434Y1668089D02*
G01X1956920Y1666575D01*
X1943871Y1620028D02*
G01X1944932Y1621089D01*
X1952689Y1620028D02*
G01X1951629Y1621089D01*
X1952689Y1623847D02*
G01X1951629Y1622786D01*
X1965871Y1645028D02*
G01X1966932Y1646089D01*
X1974689Y1645028D02*
G01X1973629Y1646089D01*
X1974689Y1648847D02*
G01X1973629Y1647786D01*
X1977828Y1648847D02*
G01X1978889Y1647786D01*
X1977828Y1645028D02*
G01X1978889Y1646089D01*
X2008646Y1650028D02*
G01X2007586Y1651089D01*
X2008646Y1653847D02*
G01X2007586Y1652786D01*
X1986646Y1594312D02*
G01X1985586Y1595373D01*
X1986646Y1598131D02*
G01X1985586Y1597070D01*
X1974690Y1598130D02*
G01X1973629Y1597070D01*
X1980671Y1606867D02*
G01X1982186Y1608381D01*
X1980671Y1613358D02*
G01X1982186Y1611844D01*
X2008646Y1598131D02*
G01X2007586Y1597070D01*
X1999828Y1623847D02*
G01X2000889Y1622786D01*
X1999828Y1620028D02*
G01X2000889Y1621089D01*
X2008646Y1620028D02*
G01X2007586Y1621089D01*
X2008646Y1623847D02*
G01X2007586Y1622786D01*
X1894685Y1529133D02*
G01X2077755D01*
Y1529133D02*
G03X2110236Y1561614J32481D01*
Y1561614D02*
G01Y1665944D01*
Y1665944D02*
G03X2105314Y1670866I-4922J0D01*
Y1670866D02*
G01X1922244D01*
Y1670866D02*
G03X1889763Y1638385I0J-32481D01*
Y1638385D02*
G01Y1534055D01*
Y1534055D02*
G03X1894685Y1529133I4922D01*
M02*
