G04 CAM350 V9.5 (Build 208) Date:  Fri Nov 28 16:59:12 2008 *
G04 Database: (Untitled) *
G04 Layer 1: art001.pho *
%FSLAX35Y35*%
%MOIN*%
%SFA1.000B1.000*%

%MIA0B0*%
%IPPOS*%
%ADD10O,0.01181X0.03937*%
%ADD11O,0.03937X0.01181*%
%ADD12R,0.17323X0.17323*%
%ADD13R,0.09843X0.07874*%
%ADD14R,0.03898X0.02717*%
%ADD15R,0.06000X0.06000*%
%ADD16O,0.03898X0.02717*%
%ADD18C,0.06000*%
%ADD21R,0.05000X0.05000*%
%ADD26C,0.05000*%
%ADD29C,0.01500*%
%ADD31C,0.02000*%
%ADD33C,0.01000*%
%ADD135C,0.01969*%
%ADD152C,0.01800*%
%ADD189R,0.04370X0.03098*%
%ADD190R,0.03098X0.04370*%
%ADD404R,0.12992X0.01968*%
%ADD405O,0.12992X0.01968*%
%ADD406R,0.12992X0.07874*%
%ADD410R,0.07480X0.05906*%
%ADD411O,0.06000X0.04500*%
%ADD412O,0.10000X0.04000*%
%ADD413C,0.05906*%
%LNart001.pho*%
%LPD*%
G54D15*
X1921417Y1539212D03*
X1932952Y1579999D03*
X2070866Y1649370D03*
X2096141Y1570568D03*
Y1557068D03*
X2069094Y1570568D03*
Y1557068D03*
G54D18*
X1921417Y1549212D03*
X1931417Y1539212D03*
Y1549212D03*
X1941417Y1539212D03*
Y1549212D03*
X1951417Y1539212D03*
Y1549212D03*
X1961417Y1539212D03*
Y1549212D03*
X1922952Y1579999D03*
X1932952Y1589999D03*
X1922952D03*
X1932952Y1599999D03*
X1922952D03*
X1932952Y1609999D03*
X1922952D03*
X1932952Y1619999D03*
X1922952D03*
X2070866Y1629370D03*
G54D21*
X2082363Y1545933D03*
X2085964Y1648484D03*
Y1640492D03*
X2095452Y1644488D03*
X2086719Y1633229D03*
Y1625237D03*
X2096207Y1629233D03*
X1989374Y1620660D03*
Y1629660D03*
X2004114Y1654625D03*
Y1662618D03*
X1994625Y1658622D03*
G54D26*
X2082363Y1538059D03*
X2074489Y1545933D03*
Y1538059D03*
X2066615Y1545933D03*
Y1538059D03*
X2058741Y1545933D03*
Y1538059D03*
X2050867Y1545933D03*
Y1538059D03*
X2042993Y1545933D03*
Y1538059D03*
X2035119Y1545933D03*
Y1538059D03*
X2027245Y1545933D03*
Y1538059D03*
X2019371Y1545933D03*
Y1538059D03*
X2011497Y1545933D03*
Y1538059D03*
G54D33*
X2042154Y1607651D03*
X2040637Y1607933D03*
X2055646Y1611251D03*
Y1611251D03*
Y1611816D03*
X2004516Y1565608D03*
X2017465Y1652833D03*
G54D135*
X2093740Y1591338D03*
Y1608661D03*
G54D152*
X1895535Y1535311D03*
X1912706Y1533403D03*
X1926364Y1532223D03*
X1972143Y1532214D03*
X1968921Y1534604D03*
X1977632Y1534320D03*
X1983292Y1533949D03*
X1989224Y1534605D03*
X1995326Y1532250D03*
X2071163Y1532621D03*
X2078946Y1533697D03*
X1946115Y1543194D03*
X1972135Y1539336D03*
X1969726Y1541584D03*
X1989224D03*
X1998659Y1546222D03*
X2001480Y1545944D03*
X2004215Y1539338D03*
X1894342Y1548508D03*
X1900480Y1553867D03*
X1914932Y1555504D03*
X1941537Y1555597D03*
X1956344Y1554168D03*
X1961084Y1556137D03*
X1974146Y1556251D03*
X1975736Y1547821D03*
X1986214Y1548825D03*
X1980155Y1553651D03*
X1988438Y1553730D03*
X1997106Y1555625D03*
X1989338Y1548858D03*
X1994946Y1553369D03*
X1992746Y1551074D03*
X2019336Y1556730D03*
X2027240Y1554523D03*
X2035066Y1552314D03*
X2040611Y1553885D03*
X2043209Y1549947D03*
X2088369Y1550821D03*
X1894651Y1558609D03*
X1904530Y1558921D03*
X1901142Y1566867D03*
X1912294Y1563042D03*
X1964916Y1566796D03*
X2015606Y1562295D03*
X2009550Y1562924D03*
X2012708Y1565608D03*
X2019274Y1564441D03*
X2027156Y1566393D03*
X2024211Y1566664D03*
X2038719Y1566426D03*
X2042852Y1557589D03*
X2050848Y1561801D03*
X2058803Y1564172D03*
X2105879Y1564505D03*
X2105027Y1558354D03*
X1897314Y1572411D03*
X1907451Y1573558D03*
X1913889Y1569840D03*
X1955920Y1571134D03*
X1956704Y1568074D03*
X1974699Y1573952D03*
X1988031Y1576402D03*
X2014330Y1569174D03*
X2021662Y1569535D03*
X2029584Y1576414D03*
X2034552Y1571811D03*
X2032119Y1573991D03*
X2050255Y1569529D03*
X2062118Y1569519D03*
X2087063Y1575433D03*
X2091334Y1567242D03*
X2096763Y1575433D03*
X2105269Y1571310D03*
X1896107Y1582215D03*
X1902079Y1577997D03*
X1901325Y1584019D03*
X1910081Y1585059D03*
X1942488Y1584856D03*
X1956587Y1583646D03*
X1957160Y1586303D03*
X1964863Y1577795D03*
X1988322Y1579904D03*
X1988195Y1583935D03*
X2009421Y1579187D03*
X2027174Y1579233D03*
X2021681Y1583150D03*
X2019296Y1585248D03*
X2024211Y1581014D03*
X2049863Y1586133D03*
X2055263Y1582533D03*
X2064963Y1581333D03*
X2070779Y1582790D03*
X2095553Y1583252D03*
X1897196Y1592033D03*
X1904946Y1591990D03*
X1942820Y1593941D03*
X1964639Y1595635D03*
X1964409Y1592869D03*
X1988174Y1594516D03*
X2017035Y1588989D03*
X2010557Y1595695D03*
X2014312Y1589366D03*
X2012007Y1587430D03*
X2037270Y1593532D03*
X2041063Y1594262D03*
X2071264Y1592392D03*
X2096819Y1596645D03*
X2102727Y1595526D03*
X1897078Y1605036D03*
X1906714Y1605405D03*
X1901325Y1598434D03*
X1909844Y1598298D03*
X1940878Y1599685D03*
X1952855Y1602713D03*
X1956069Y1600821D03*
X1967247Y1603483D03*
X1964571Y1606127D03*
X1964299Y1602939D03*
X1990524Y1600866D03*
X1995894Y1605508D03*
X1992841Y1603472D03*
X2017263Y1604133D03*
X2026263D03*
X2021763D03*
X2033531Y1597546D03*
X2038512Y1605369D03*
X2041063Y1602733D03*
X2050443Y1597382D03*
X2057036Y1606866D03*
X2055263Y1599733D03*
X2061669Y1598362D03*
X2097858Y1603805D03*
X2101040Y1601899D03*
X2105965Y1599236D03*
X2103332Y1606302D03*
X1901507Y1612301D03*
X1917465Y1613164D03*
X1909726Y1612838D03*
X1941103Y1607416D03*
X1951744Y1611546D03*
X1960307Y1615808D03*
X1972756Y1614461D03*
X1970017Y1612484D03*
X1969926Y1609110D03*
X1976966Y1611421D03*
X1983283Y1614461D03*
X1998540Y1607610D03*
X1993861Y1612174D03*
X2001495Y1609258D03*
X2004700Y1616573D03*
X2017263Y1613133D03*
Y1608633D03*
X2021763Y1613133D03*
X2026263D03*
Y1608633D03*
X2021819Y1608627D03*
X2047663Y1608633D03*
X2042437Y1607933D03*
X2048633Y1614215D03*
X2052478Y1608460D03*
X2055363Y1611533D03*
X2071284Y1608067D03*
X2083717Y1610661D03*
X1896605Y1618394D03*
X1905050Y1619548D03*
X1901325Y1625439D03*
X1909608Y1625132D03*
X1942173Y1623398D03*
X1976961Y1617494D03*
X2012544Y1625807D03*
X2017054Y1625881D03*
X2022460Y1625867D03*
X2034218Y1621025D03*
X2030024Y1625982D03*
X2054247Y1619170D03*
X2062841Y1625990D03*
X2071308Y1621680D03*
X1896487Y1632342D03*
X1905986Y1631091D03*
X1920595Y1630621D03*
X1939171Y1634874D03*
X1976401Y1634880D03*
X1997823Y1635576D03*
X1994095Y1636683D03*
X2038722Y1633493D03*
X2045663Y1629779D03*
X2054247D03*
X2079277Y1629617D03*
X2097532Y1634747D03*
X1901507Y1638394D03*
X1909253Y1638016D03*
X1921944Y1645632D03*
X1922395Y1638592D03*
X1930273Y1638719D03*
X1937898Y1638871D03*
X1942220Y1642229D03*
X1976785Y1642224D03*
X1994968Y1641353D03*
X2022677Y1645849D03*
X2038315Y1638614D03*
X2048615Y1643599D03*
X2057998Y1641648D03*
X2078148Y1638147D03*
X1940477Y1648265D03*
X1954948Y1651948D03*
X1976335Y1649533D03*
X1992602Y1648175D03*
X1991941Y1653117D03*
X2011014Y1652036D03*
X2027142Y1652699D03*
X1918587Y1663474D03*
X1928596Y1663812D03*
X1939546D03*
X1950167Y1664598D03*
X1965096Y1659298D03*
X1976903D03*
X1970271Y1665007D03*
X1982123Y1665008D03*
X1985859Y1664869D03*
X2008738Y1661580D03*
X2008429Y1664528D03*
X2015183Y1658444D03*
X2042437Y1661579D03*
X2051982Y1664528D03*
X2062837Y1658439D03*
X2061388Y1664296D03*
X2072761Y1664538D03*
X2075907Y1659214D03*
X2083409Y1664538D03*
X2103974Y1665462D03*
X1974750Y1667944D03*
X2005557Y1667771D03*
X2015189D03*
X2029465Y1667680D03*
X2039589Y1667861D03*
G54D189*
X1959551Y1655238D03*
Y1661234D03*
X1979223Y1565767D03*
Y1559771D03*
X1995037Y1565608D03*
Y1559612D03*
X2051763Y1573235D03*
Y1579231D03*
X2059637Y1573235D03*
Y1579231D03*
X2004960Y1622750D03*
Y1628746D03*
X2038463Y1583135D03*
Y1589131D03*
X1951623Y1559655D03*
Y1565651D03*
X1977847Y1628746D03*
Y1622750D03*
X1961183Y1565651D03*
Y1559655D03*
X1941628Y1565651D03*
Y1559655D03*
X1970231Y1565651D03*
Y1559655D03*
X1931396D03*
Y1565651D03*
X1997755Y1628746D03*
Y1622750D03*
X2103346Y1646816D03*
Y1640820D03*
X2103425Y1628064D03*
Y1634061D03*
X2002755Y1641332D03*
Y1647328D03*
X1987063Y1655238D03*
Y1661234D03*
G54D190*
X2064848Y1611456D03*
X2058852D03*
X2064848Y1602952D03*
X2058852D03*
X2064848Y1594251D03*
X2058852D03*
Y1619960D03*
X2064848D03*
Y1586102D03*
X2058852D03*
X1945134Y1580534D03*
X1951130D03*
X2085872Y1556574D03*
X2079875D03*
X2030565Y1652833D03*
X2036561D03*
X2023461D03*
X2017465D03*
X2045584Y1648661D03*
X2051580D03*
Y1634842D03*
X2045584D03*
X1951130Y1615801D03*
X1945134D03*
X1951130Y1589412D03*
X1945134D03*
Y1598259D03*
X1951130D03*
X1945134Y1607030D03*
X1951130D03*
G54D10*
X2013110Y1597283D03*
X2015078D03*
X2017047D03*
X2019015D03*
X2020984D03*
X2022952D03*
X2024921D03*
X2026889D03*
X2028858D03*
Y1620118D03*
X2026889D03*
X2024921D03*
X2022952D03*
X2020984D03*
X2019015D03*
X2017047D03*
X2015078D03*
X2013110D03*
G54D11*
X2032401Y1600826D03*
Y1602795D03*
Y1604763D03*
Y1606732D03*
Y1608700D03*
Y1610669D03*
Y1612637D03*
Y1614606D03*
Y1616574D03*
X2009566D03*
Y1614606D03*
Y1612637D03*
Y1610669D03*
Y1608700D03*
Y1606732D03*
Y1604763D03*
Y1602795D03*
Y1600826D03*
G54D12*
X2020984Y1608700D03*
G54D404*
X2083505Y1593702D03*
G54D405*
Y1596852D03*
Y1600001D03*
Y1603151D03*
Y1606301D03*
G54D406*
Y1582480D03*
Y1617519D03*
G54D13*
X2105157D03*
Y1582480D03*
G54D14*
X2087224Y1563582D03*
G54D16*
Y1567322D03*
Y1571062D03*
X2077421D03*
Y1563582D03*
G54D410*
X2013582Y1634212D03*
X2030905D03*
Y1644055D03*
X2013582D03*
G54D411*
X2070866Y1639370D03*
G54D412*
X1930968Y1647920D03*
X1966768Y1648220D03*
Y1630520D03*
X1930868Y1630720D03*
G54D413*
X1905511Y1542913D03*
X2094487D03*
Y1657086D03*
X1905511D03*
G54D29*
X1937013Y1575939D02*
G01X1935074Y1577878D01*
X1928892Y1575939D02*
G01X1930831Y1577878D01*
X1925477Y1543273D02*
G01X1923538Y1541333D01*
X1925477Y1535151D02*
G01X1923538Y1537091D01*
X1917356Y1535151D02*
G01X1919296Y1537091D01*
X1917356Y1543273D02*
G01X1919296Y1541333D01*
X2074267Y1642021D02*
G01X2073207Y1640961D01*
X2067464Y1642021D02*
G01X2068525Y1640961D01*
X2078803Y1542373D02*
G01X2080596Y1544166D01*
X2078803Y1549494D02*
G01X2080596Y1547701D01*
X2085924Y1549494D02*
G01X2084131Y1547701D01*
X2085924Y1542373D02*
G01X2084131Y1544166D01*
G54D31*
X1921417Y1553912D02*
G75*
G03X1922791Y1550665I4523D01*
X1920043D02*
G03X1921417Y1553912I-3148J3247D01*
Y1553912D02*
G01Y1551212D01*
X1951623Y1567267D02*
G03X1952487Y1566201I1090J1D01*
X1950759D02*
G03X1951623Y1567267I-225J1066D01*
X1921417Y1549212D02*
G01Y1566134D01*
X1925688Y1570405*
Y1570405D02*
G01X1950019D01*
Y1570405D02*
G01X1951623Y1568801D01*
Y1568801D02*
G01Y1565651D01*
X1992786Y1559612D02*
G03X1993853Y1560106J1398D01*
X1993852Y1559118D02*
G03X1992786Y1559612I-1065J-902D01*
X1988438Y1553730D02*
G01X1989805D01*
Y1553730D02*
G01X1991019Y1554944D01*
Y1558215*
X1992416Y1559612*
Y1559612D02*
G01X1995037D01*
X2069094Y1557068D02*
G01Y1561669D01*
Y1561669D02*
G01X2071007Y1563582D01*
Y1563582D02*
G01X2077421D01*
X2070547Y1558442D02*
G03X2073794Y1557068I3247J3149D01*
Y1557068D02*
G03X2070548Y1555693J-4521D01*
X2073794Y1557068D02*
G01X2071094D01*
X2078260Y1556574D02*
G03X2079326Y1557438I-1J1090D01*
Y1555710D02*
G03X2078260Y1556574I-1065J-225D01*
X2069094Y1557068D02*
G01X2074962D01*
Y1557068D02*
G01X2075456Y1556574D01*
Y1556574D02*
G01X2079875D01*
X1951623Y1565651D02*
G01X1952259D01*
Y1565651D02*
G01X1956344Y1561566D01*
Y1561566D02*
G01Y1554168D01*
X1971416Y1560150D02*
G03X1972483Y1559655I1067J903D01*
Y1559655D02*
G03X1971416Y1559161I-1J-1397D01*
X1976972Y1559771D02*
G03X1978039Y1560265J1398D01*
X1978038Y1559277D02*
G03X1976972Y1559771I-1065J-902D01*
X1970231Y1559655D02*
G01X1974669D01*
Y1559655D02*
G01X1974785Y1559771D01*
Y1559771D02*
G01X1979223D01*
Y1559771D02*
G01Y1559506D01*
Y1559506D02*
G01X1979548Y1559181D01*
Y1559181D02*
G01Y1556386D01*
Y1556386D02*
G01X1979920D01*
Y1556386D02*
G01X1980155Y1556151D01*
Y1556151D02*
G01Y1553651D01*
X1996222Y1560107D02*
G03X1997289Y1559612I1067J903D01*
Y1559612D02*
G03X1996222Y1559118I-1J-1397D01*
X1995037Y1559612D02*
G01X1998919D01*
Y1559612D02*
G01X1998938Y1559631D01*
Y1559631D02*
G01X2008497D01*
Y1559631D02*
G01X2008500Y1559634D01*
Y1559634D02*
G01X2017815D01*
Y1559634D02*
G01X2017819Y1559630D01*
Y1559630D02*
G01X2029882D01*
Y1559630D02*
G01X2031923Y1557589D01*
Y1557589D02*
G01X2042852D01*
X2064394Y1557068D02*
G03X2067641Y1558442J4523D01*
Y1555694D02*
G03X2064394Y1557068I-3246J-3147D01*
Y1557068D02*
G01X2067094D01*
X2042852Y1557589D02*
G01X2055119D01*
Y1557589D02*
G01X2055640Y1557068D01*
Y1557068D02*
G01X2069094D01*
X2082263Y1564982D02*
G01Y1569651D01*
Y1569651D02*
G01X2083674Y1571062D01*
Y1571062D02*
G01X2087224D01*
X2082263Y1564982D02*
G01X2083663Y1563582D01*
Y1563582D02*
G01X2087224D01*
Y1563582D02*
G01X2094514D01*
Y1563582D02*
G01X2096141Y1561955D01*
Y1561955D02*
G01Y1557068D01*
X2087063Y1575433D02*
G01Y1571223D01*
Y1571223D02*
G01X2087224Y1571062D01*
X1964639Y1595635D02*
G01X1975847D01*
Y1595635D02*
G01X1976966Y1594516D01*
Y1594516D02*
G01X1988174D01*
X1951679Y1616665D02*
G03X1952746Y1615801I1067J227D01*
Y1615801D02*
G03X1951679Y1614937I-1J-1090D01*
X1951130Y1615801D02*
G01X1955505D01*
Y1615801D02*
G01X1955512Y1615808D01*
Y1615808D02*
G01X1960307D01*
Y1615808D02*
G01X1966545D01*
Y1615808D02*
G01X1968231Y1617494D01*
Y1617494D02*
G01X1976961D01*
X1976966Y1611421D02*
G01X1987335D01*
Y1611421D02*
G01X1988088Y1612174D01*
Y1612174D02*
G01X1993861D01*
X1976961Y1617494D02*
G01Y1621864D01*
Y1621864D02*
G01X1977847Y1622750D01*
X1997755Y1621134D02*
G03X1996892Y1622200I-1089J0D01*
X1998619D02*
G03X1997755Y1621134I226J-1066D01*
Y1622750D02*
G01Y1619599D01*
Y1619599D02*
G01X1998652Y1618702D01*
Y1618702D02*
G01X2002571D01*
Y1618702D02*
G01X2004700Y1616573D01*
X2030024Y1625982D02*
G01X2046429D01*
Y1625982D02*
G01X2046437Y1625990D01*
Y1625990D02*
G01X2062841D01*
X2064354Y1621145D02*
G03X2064849Y1622212I-903J1067D01*
X2064848D02*
G03X2065342Y1621145I1398D01*
X2062841Y1625990D02*
G01X2064848Y1623984D01*
Y1619960*
X2066464D02*
G03X2065397Y1619096I-1J-1090D01*
Y1620824D02*
G03X2066464Y1619960I1067J226D01*
X2064848D02*
G01X2069588D01*
Y1619960D02*
G01X2071308Y1621680D01*
X2097532Y1634747D02*
G01X2097973Y1634307D01*
X2103178*
Y1634307D02*
G01X2103425Y1634061D01*
Y1635676D02*
G03X2104289Y1634610I1090J0D01*
X2102561D02*
G03X2103425Y1635676I-226J1066D01*
X2103346Y1640820D02*
G01X2103425Y1640742D01*
Y1634061*
X1959551Y1662850D02*
G03X1960415Y1661784I1090J1D01*
X1958687D02*
G03X1959551Y1662850I-225J1066D01*
Y1661234D02*
G01Y1664384D01*
Y1664384D02*
G01X1960174Y1665007D01*
Y1665007D02*
G01X1970271D01*
Y1665007D02*
G01X1976202D01*
Y1665007D02*
G01X1976203Y1665008D01*
Y1665008D02*
G01X1982123D01*
X1985878Y1660740D02*
G03X1984812Y1661234I-1065J-902D01*
Y1661234D02*
G03X1985879Y1661728J1398D01*
X1982123Y1665008D02*
G01Y1662127D01*
Y1662127D02*
G01X1983016Y1661234D01*
Y1661234D02*
G01X1987063D01*
X1982123Y1665008D02*
G01Y1667508D01*
Y1667508D02*
G01X1982386Y1667771D01*
Y1667771D02*
G01X2005557D01*
X2000589Y1662618D02*
G03X2003024Y1663648J3392D01*
Y1661587D02*
G03X2000589Y1662618I-2435J-2360D01*
Y1662618D02*
G01X2002614D01*
X1985859Y1664869D02*
G01X1996842D01*
Y1664869D02*
G01X1999094Y1662618D01*
Y1662618D02*
G01X2004114D01*
X2015183Y1658444D02*
G01X2039703D01*
Y1658444D02*
G01X2039708Y1658439D01*
Y1658439D02*
G01X2062837D01*
X2005557Y1667771D02*
G01X2015189D01*
G54D33*
X2040637Y1607933D02*
G01X2042154Y1607651D01*
Y1607651D02*
G01X2041037Y1607933D01*
Y1607933D02*
G01X2042154Y1608216D01*
Y1608216D02*
G01X2040637Y1607933D01*
X2041637Y1607747D02*
G01Y1607781D01*
Y1608085D02*
G01Y1608120D01*
X2057163Y1611533D02*
G01X2055646Y1611816D01*
Y1611816D02*
G01X2056763Y1611533D01*
Y1611533D02*
G01X2055646Y1611251D01*
Y1611251D02*
G01X2057163Y1611533D01*
X2056646Y1611437D02*
G01Y1611504D01*
Y1611563D02*
G01Y1611630D01*
X1926655Y1532498D02*
G03X1927304Y1532224I649J630D01*
Y1532223D02*
G03X1926656Y1531948J-903D01*
X1971203Y1532214D02*
G03X1971853Y1532489J905D01*
Y1531940D02*
G03X1971203Y1532215I-649J-629D01*
X1926364Y1532223D02*
G01X1949249D01*
Y1532223D02*
G01X1949258Y1532214D01*
Y1532214D02*
G01X1972143D01*
X1989515Y1534880D02*
G03X1990164Y1534606I649J630D01*
Y1534605D02*
G03X1989516Y1534330J-903D01*
X2063292Y1534736D02*
G03X2064616Y1538003I-3197J3198D01*
X2066559Y1536060D02*
G03X2063292Y1534736I-69J-4522D01*
Y1534736D02*
G03X2064847Y1537125I-4868J4869D01*
X2063292Y1534736D02*
G01X2065201Y1536645D01*
X2065681Y1536291D02*
G03X2063292Y1534736I2480J-6423D01*
X1989224Y1534605D02*
G01X2000296D01*
Y1534605D02*
G01X2003276Y1531625D01*
Y1531625D02*
G01X2060181D01*
Y1531625D02*
G01X2066615Y1538059D01*
X1972426Y1539611D02*
G03X1973075Y1539337I649J630D01*
Y1539336D02*
G03X1972427Y1539061J-903D01*
X2003275Y1539338D02*
G03X2003925Y1539613J905D01*
Y1539064D02*
G03X2003275Y1539339I-649J-629D01*
X1972135Y1539336D02*
G01X1988174D01*
Y1539336D02*
G01X1988176Y1539338D01*
Y1539338D02*
G01X2004215D01*
X1970017Y1541859D02*
G03X1970666Y1541585I649J630D01*
Y1541584D02*
G03X1970018Y1541309J-903D01*
X1988284Y1541584D02*
G03X1988934Y1541859J905D01*
Y1541310D02*
G03X1988284Y1541585I-649J-629D01*
X1969726Y1541584D02*
G01X1989224D01*
X2001771Y1546219D02*
G03X2002420Y1545945I649J630D01*
Y1545944D02*
G03X2001772Y1545669J-903D01*
X2006797Y1545933D02*
G03X2010044Y1547307J4523D01*
Y1544559D02*
G03X2006797Y1545933I-3246J-3148D01*
Y1545933D02*
G03X2009586Y1546523J6886D01*
X2006797Y1545933D02*
G01X2009497D01*
X2009586Y1545343D02*
G03X2006797Y1545933I-2788J-6294D01*
X2001480Y1545944D02*
G01X2005683D01*
Y1545944D02*
G01X2005694Y1545933D01*
Y1545933D02*
G01X2011497D01*
X1941537Y1556537D02*
G03X1941812Y1555888I905D01*
X1941262D02*
G03X1941537Y1556537I-628J649D01*
Y1555597D02*
G01Y1559564D01*
Y1559564D02*
G01X1941628Y1559655D01*
X2055418Y1541383D02*
G03X2058685Y1540059I3198J3198D01*
X2056742Y1538115D02*
G03X2055418Y1541383I-4521J70D01*
Y1541383D02*
G03X2057807Y1539828I4869J4868D01*
X2055418Y1541383D02*
G01X2057327Y1539474D01*
X2056973Y1538993D02*
G03X2055418Y1541383I-6423J-2478D01*
X1947116Y1553010D02*
G01Y1547431D01*
Y1547431D02*
G01X1950335Y1544212D01*
Y1544212D02*
G01X1995001D01*
Y1544212D02*
G01X1997217Y1541996D01*
Y1541996D02*
G01X2054804D01*
Y1541996D02*
G01X2058741Y1538059D01*
X1952852Y1558606D02*
G03X1951623Y1557090I321J-1516D01*
Y1557090D02*
G03X1950395Y1558606I-1549J0D01*
X1952033D02*
G03X1951623Y1557090I2602J-1517D01*
Y1557090D02*
G03X1951214Y1558606I-3012D01*
X1947116Y1553010D02*
G01X1949110Y1555004D01*
Y1555004D02*
G01X1950688D01*
Y1555004D02*
G01X1951623Y1555939D01*
Y1555939D02*
G01Y1559655D01*
X1956635Y1554443D02*
G03X1957284Y1554169I649J630D01*
Y1554168D02*
G03X1956636Y1553893J-903D01*
X1979215Y1553651D02*
G03X1979865Y1553926J905D01*
Y1553377D02*
G03X1979215Y1553652I-649J-629D01*
X1956344Y1554168D02*
G01X1959393D01*
Y1554168D02*
G01X1959910Y1553651D01*
Y1553651D02*
G01X1980155D01*
X1961084Y1557077D02*
G03X1961359Y1556428I905D01*
X1960809D02*
G03X1961084Y1557077I-628J649D01*
Y1556137D02*
G01Y1559556D01*
Y1559556D02*
G01X1961183Y1559655D01*
X1986214Y1549765D02*
G03X1986489Y1549116I905D01*
X1985939D02*
G03X1986214Y1549765I-628J649D01*
X1991836Y1565608D02*
G03X1993352Y1566553I-1J1690D01*
Y1564664D02*
G03X1991836Y1565608I-1516J-745D01*
Y1565608D02*
G01X1993352D01*
X1986214Y1548825D02*
G01Y1561335D01*
Y1561335D02*
G01X1990487Y1565608D01*
Y1565608D02*
G01X1995037D01*
X1997117Y1556025D02*
G03X1997771Y1556290I14J905D01*
Y1556290D02*
G03X1997507Y1555637I640J-639D01*
X2018396Y1556730D02*
G03X2019046Y1557005J905D01*
Y1556456D02*
G03X2018396Y1556731I-649J-629D01*
X1997106Y1555625D02*
G01X1998211Y1556730D01*
Y1556730D02*
G01X2019336D01*
X1989629Y1549133D02*
G03X1990278Y1548859I649J630D01*
Y1548858D02*
G03X1989630Y1548583J-903D01*
X2042269Y1549947D02*
G03X2042919Y1550222J905D01*
Y1549673D02*
G03X2042269Y1549948I-649J-629D01*
X1989338Y1548858D02*
G01X1999660D01*
Y1548858D02*
G01X2000749Y1549947D01*
Y1549947D02*
G01X2043209D01*
X1995237Y1553644D02*
G03X1995886Y1553370I649J630D01*
Y1553369D02*
G03X1995238Y1553094J-903D01*
X2026300Y1554523D02*
G03X2026950Y1554798J905D01*
Y1554249D02*
G03X2026300Y1554524I-649J-629D01*
X1994946Y1553369D02*
G01X1998413D01*
Y1553369D02*
G01Y1553390D01*
Y1553390D02*
G01X1999546Y1554523D01*
Y1554523D02*
G01X2027240D01*
X1993037Y1551349D02*
G03X1993686Y1551075I649J630D01*
Y1551074D02*
G03X1993038Y1550799J-903D01*
X2034126Y1552314D02*
G03X2034776Y1552589J905D01*
Y1552040D02*
G03X2034126Y1552315I-649J-629D01*
X1992746Y1551074D02*
G01X1998853D01*
Y1551074D02*
G01X2000093Y1552314D01*
Y1552314D02*
G01X2035066D01*
X2040902Y1554160D02*
G03X2041551Y1553886I649J630D01*
Y1553885D02*
G03X2040903Y1553610J-903D01*
X2071166Y1549257D02*
G03X2074433Y1547933I3198J3198D01*
X2072490Y1545989D02*
G03X2071166Y1549257I-4521J70D01*
Y1549257D02*
G03X2073555Y1547702I4869J4868D01*
X2071166Y1549257D02*
G01X2073075Y1547348D01*
X2072721Y1546867D02*
G03X2071166Y1549257I-6423J-2478D01*
X2040611Y1553885D02*
G01X2064238D01*
Y1553885D02*
G01X2066890Y1551233D01*
Y1551233D02*
G01X2068837D01*
Y1551233D02*
G01X2068894Y1551176D01*
Y1551176D02*
G01X2069246D01*
Y1551176D02*
G01X2074489Y1545933D01*
X1934597Y1565651D02*
G03X1933081Y1564707I0J-1689D01*
Y1566595D02*
G03X1934597Y1565651I1516J746D01*
Y1565651D02*
G01X1933081D01*
X2047544Y1534736D02*
G03X2048868Y1538003I-3197J3198D01*
X2050811Y1536060D02*
G03X2047544Y1534736I-69J-4522D01*
Y1534736D02*
G03X2049099Y1537125I-4868J4869D01*
X2047544Y1534736D02*
G01X2049453Y1536645D01*
X2049933Y1536291D02*
G03X2047544Y1534736I2480J-6423D01*
X1931396Y1565651D02*
G01X1935365D01*
Y1565651D02*
G01X1936329Y1564686D01*
Y1564686D02*
G01Y1534970D01*
Y1534970D02*
G01X1937276Y1534023D01*
Y1534023D02*
G01X1963642D01*
Y1534023D02*
G01X1966769Y1537150D01*
Y1537150D02*
G01X1971195D01*
Y1537150D02*
G01X1971209Y1537136D01*
Y1537136D02*
G01X2001189D01*
Y1537136D02*
G01X2004067Y1534258D01*
Y1534258D02*
G01X2047066D01*
Y1534258D02*
G01X2050867Y1538059D01*
X1932624Y1558606D02*
G03X1931396Y1557089I322J-1516D01*
Y1557089D02*
G03X1930167Y1558606I-1550J0D01*
X1931805D02*
G03X1931396Y1557089I2604J-1516D01*
Y1557089D02*
G03X1930986Y1558606I-3012D01*
X1931417Y1555087D02*
G03X1933134Y1551029I5653D01*
X1929699D02*
G03X1931417Y1555087I-3935J4058D01*
Y1555087D02*
G03X1932316Y1551545I7425D01*
X1931417Y1555087D02*
G03X1931704Y1551696I20178D01*
X1931130D02*
G03X1931417Y1555087I-19890J3391D01*
X1930517Y1551545D02*
G03X1931416Y1555087I-6524J3542D01*
X1931396Y1559655D02*
G01Y1555169D01*
X1931417Y1555148*
Y1549212*
X1943313Y1566596D02*
G03X1944830Y1565651I1517J745D01*
Y1565651D02*
G03X1943313Y1564707I-1J-1690D01*
X1944830Y1565651D02*
G01X1943313D01*
X1949938Y1558711D02*
G03X1948422Y1559655I-1516J-745D01*
Y1559655D02*
G03X1949938Y1560600I-1J1690D01*
X1948422Y1559655D02*
G01X1949938D01*
X1941628Y1565651D02*
G01X1945454D01*
Y1565651D02*
G01X1946179Y1564926D01*
Y1564926D02*
G01Y1561090D01*
Y1561090D02*
G01X1947614Y1559655D01*
Y1559655D02*
G01X1951623D01*
X1962868Y1566596D02*
G03X1964385Y1565651I1517J745D01*
Y1565651D02*
G03X1962868Y1564707I-1J-1690D01*
X1964385Y1565651D02*
G01X1962868D01*
X1961183D02*
G01X1964469D01*
Y1565651D02*
G01X1964916Y1566098D01*
Y1566098D02*
G01Y1566796D01*
X1971916Y1566596D02*
G03X1973433Y1565651I1517J745D01*
Y1565651D02*
G03X1971916Y1564707I-1J-1690D01*
X1973433Y1565651D02*
G01X1971916D01*
X1997719Y1546222D02*
G03X1998369Y1546497J905D01*
Y1545948D02*
G03X1997719Y1546223I-649J-629D01*
X1970231Y1565651D02*
G01X1973661D01*
Y1565651D02*
G01X1976543Y1562769D01*
Y1562769D02*
G01X1982655D01*
Y1562769D02*
G01X1983514Y1561910D01*
Y1561910D02*
G01Y1547410D01*
Y1547410D02*
G01X1984702Y1546222D01*
Y1546222D02*
G01X1998659D01*
X1980908Y1566712D02*
G03X1982425Y1565767I1517J745D01*
Y1565767D02*
G03X1980908Y1564823I-1J-1690D01*
X1982425Y1565767D02*
G01X1980908D01*
X2013390Y1569174D02*
G03X2014040Y1569449J905D01*
Y1568900D02*
G03X2013390Y1569175I-649J-629D01*
X1979223Y1565767D02*
G01X1988065D01*
Y1565767D02*
G01X1991472Y1569174D01*
Y1569174D02*
G01X2014330D01*
X1996722Y1566553D02*
G03X1998239Y1565608I1517J745D01*
Y1565608D02*
G03X1996722Y1564664I-1J-1690D01*
X1998239Y1565608D02*
G01X1996722D01*
X2011768D02*
G03X2012418Y1565883J905D01*
Y1565334D02*
G03X2011768Y1565609I-649J-629D01*
X1995037Y1565608D02*
G01X2004516D01*
Y1565608D02*
G01X2012708D01*
X2015606Y1562295D02*
G01X2015660Y1562241D01*
Y1562241D02*
G01X2050504D01*
Y1562241D02*
G01X2050848Y1561897D01*
Y1561897D02*
G01Y1561801D01*
X2012999Y1565883D02*
G03X2013648Y1565609I649J630D01*
Y1565608D02*
G03X2013000Y1565333J-903D01*
X2023271Y1566664D02*
G03X2023921Y1566939J905D01*
Y1566390D02*
G03X2023271Y1566665I-649J-629D01*
X2012708Y1565608D02*
G01X2016160D01*
Y1565608D02*
G01X2017216Y1566664D01*
Y1566664D02*
G01X2024211D01*
X2057863Y1564172D02*
G03X2058513Y1564447J905D01*
Y1563898D02*
G03X2057863Y1564173I-649J-629D01*
X2019274Y1564441D02*
G01X2019943D01*
Y1564441D02*
G01X2020212Y1564172D01*
Y1564172D02*
G01X2058803D01*
X2027447Y1566668D02*
G03X2028096Y1566394I649J630D01*
Y1566393D02*
G03X2027448Y1566118J-903D01*
X2037779Y1566420D02*
G03X2038427Y1566699I-5J905D01*
X2038430Y1566150D02*
G03X2037779Y1566420I-644J-634D01*
X2027156Y1566393D02*
G01X2033842D01*
Y1566393D02*
G01X2038719Y1566426D01*
X1955931Y1571534D02*
G03X1956585Y1571799I14J905D01*
Y1571799D02*
G03X1956321Y1571146I640J-639D01*
X1955920Y1571134D02*
G01X1956622Y1571836D01*
X1972519*
X1978587Y1565767*
Y1565767D02*
G01X1979223D01*
X1956715Y1568474D02*
G03X1957369Y1568739I14J905D01*
Y1568739D02*
G03X1957105Y1568086I640J-639D01*
X1956704Y1568074D02*
G01X1958119Y1569489D01*
Y1569489D02*
G01X1968739D01*
Y1569489D02*
G01X1970231Y1567997D01*
Y1567997D02*
G01Y1565651D01*
X1988322Y1576677D02*
G03X1988971Y1576403I649J630D01*
Y1576402D02*
G03X1988323Y1576127J-903D01*
X2028644Y1576414D02*
G03X2029293Y1576689J904D01*
X2029294Y1576139D02*
G03X2028644Y1576413I-648J-629D01*
X1988031Y1576402D02*
G01X2008950D01*
Y1576402D02*
G01X2029584Y1576414D01*
X2031179Y1573991D02*
G03X2031829Y1574266J905D01*
Y1573717D02*
G03X2031179Y1573992I-649J-629D01*
X1979412Y1574752D02*
G01X1980172Y1573991D01*
Y1573991D02*
G01X2032119D01*
X1987382Y1579904D02*
G03X1988032Y1580179J905D01*
Y1579630D02*
G03X1987382Y1579905I-649J-629D01*
X1979412Y1574752D02*
G01Y1578374D01*
X1980942Y1579904*
Y1579904D02*
G01X1988322D01*
X2021953Y1569810D02*
G03X2022602Y1569536I649J630D01*
Y1569535D02*
G03X2021954Y1569260J-903D01*
X2049315Y1569529D02*
G03X2049964Y1569804J905D01*
Y1569255D02*
G03X2049315Y1569529I-648J-629D01*
X2021662Y1569535D02*
G01X2035955D01*
Y1569535D02*
G01X2035961Y1569529D01*
Y1569529D02*
G01X2050255D01*
X2050546Y1569804D02*
G03X2051195Y1569530I649J630D01*
Y1569529D02*
G03X2050547Y1569254J-903D01*
X2061178Y1569519D02*
G03X2061828Y1569794J905D01*
Y1569245D02*
G03X2061178Y1569520I-649J-629D01*
X2050255Y1569529D02*
G01X2056182D01*
Y1569529D02*
G01X2056192Y1569519D01*
Y1569519D02*
G01X2062118D01*
X1957451Y1586578D02*
G03X1958100Y1586304I649J630D01*
Y1586303D02*
G03X1957452Y1586028J-903D01*
X2018356Y1585248D02*
G03X2019006Y1585523J905D01*
Y1584974D02*
G03X2018356Y1585249I-649J-629D01*
X1957160Y1586303D02*
G01X1962489D01*
Y1586303D02*
G01X1964798Y1588612D01*
Y1588612D02*
G01X2006912D01*
Y1588612D02*
G01X2010294Y1585230D01*
Y1585230D02*
G01X2015056D01*
Y1585230D02*
G01X2015074Y1585248D01*
Y1585248D02*
G01X2019296D01*
X1953696Y1580534D02*
G03X1952179Y1579305I0J-1550D01*
Y1581762D02*
G03X1953696Y1580534I1517J322D01*
Y1580534D02*
G03X1952179Y1580124J-3013D01*
Y1580943D02*
G03X1953696Y1580533I1517J2604D01*
X2009421Y1580127D02*
G03X2009696Y1579478I905D01*
X2009146D02*
G03X2009421Y1580127I-628J649D01*
X1951130Y1580534D02*
G01X1959266D01*
X1965544Y1586812*
Y1586812D02*
G01X2005365D01*
Y1586812D02*
G01X2009421Y1582756D01*
Y1582756D02*
G01Y1579187D01*
X1987255Y1583935D02*
G03X1987905Y1584210J905D01*
Y1583661D02*
G03X1987255Y1583936I-649J-629D01*
X1976911Y1577558D02*
G01Y1580941D01*
Y1580941D02*
G01X1979905Y1583935D01*
Y1583935D02*
G01X1988195D01*
X1976911Y1577558D02*
G01Y1574423D01*
Y1574423D02*
G01X1979543Y1571791D01*
Y1571791D02*
G01X2034532D01*
Y1571791D02*
G01X2034552Y1571811D01*
X2050154Y1586408D02*
G03X2050803Y1586134I649J630D01*
Y1586133D02*
G03X2050155Y1585858J-903D01*
X2049863Y1586133D02*
G01X2058332D01*
Y1586133D02*
G01X2058363Y1586102D01*
Y1586102D02*
G01X2058852D01*
X2051763Y1579231D02*
G01X2052399D01*
Y1579231D02*
G01X2055263Y1582096D01*
Y1582096D02*
G01Y1582533D01*
X2061763Y1586102D02*
G01Y1590704D01*
X2059637Y1579231D02*
G01X2061763Y1581357D01*
Y1581357D02*
G01Y1586102D01*
X2064848D02*
G01Y1581449D01*
X2064963Y1581333*
X1925451Y1589929D02*
G03X1927107Y1585845I5653J-85D01*
Y1585845D02*
G03X1923022Y1587500I-3997J-3997D01*
X1925238Y1588986D02*
G03X1927107Y1585845I7119J2110D01*
X1924911Y1588446D02*
G03X1927107Y1585845I16464J11668D01*
Y1585845D02*
G03X1924505Y1588041I-14267J-14267D01*
X1927107Y1585845D02*
G03X1923966Y1587714I-5250J-5249D01*
X1922952Y1589999D02*
G01X1927664Y1585287D01*
Y1585287D02*
G01X1936034D01*
Y1585287D02*
G01X1937586Y1583735D01*
Y1583735D02*
G01Y1579162D01*
Y1579162D02*
G01X1939750Y1576998D01*
Y1576998D02*
G01X1963672D01*
Y1576998D02*
G01X1964469Y1577795D01*
Y1577795D02*
G01X1964863D01*
X1943111Y1594216D02*
G03X1943760Y1593942I649J630D01*
Y1593941D02*
G03X1943112Y1593666J-903D01*
X1963469Y1592869D02*
G03X1964119Y1593144J905D01*
Y1592595D02*
G03X1963469Y1592870I-649J-629D01*
X1942820Y1593941D02*
G01X1956755D01*
Y1593941D02*
G01X1957827Y1592869D01*
Y1592869D02*
G01X1964409D01*
X1952179Y1590640D02*
G03X1953696Y1589412I1517J322D01*
Y1589412D02*
G03X1952179Y1588183I0J-1550D01*
Y1589821D02*
G03X1953696Y1589411I1517J2604D01*
Y1589412D02*
G03X1952179Y1589002J-3013D01*
X2012007Y1588370D02*
G03X2012282Y1587721I905D01*
X2011732D02*
G03X2012007Y1588370I-628J649D01*
X1951130Y1589412D02*
G01X1963051D01*
Y1589412D02*
G01X1964052Y1590412D01*
Y1590412D02*
G01X2010444D01*
Y1590412D02*
G01X2012007Y1588849D01*
Y1588849D02*
G01Y1587430D01*
X2037670Y1593521D02*
G03X2037935Y1592868I905J-13D01*
Y1592868D02*
G03X2037281Y1593133I-639J-639D01*
X2038463Y1591697D02*
G03X2039692Y1590181I1550J1D01*
X2037235D02*
G03X2038463Y1591697I-321J1516D01*
Y1591697D02*
G03X2038872Y1590181I3013D01*
X2038054D02*
G03X2038463Y1591697I-2603J1516D01*
X2037270Y1593532D02*
G01X2038463Y1592339D01*
Y1592339D02*
G01Y1589131D01*
X2056286Y1594251D02*
G03X2057803Y1595480I0J1551D01*
Y1593023D02*
G03X2056286Y1594251I-1516J-321D01*
Y1594251D02*
G03X2057803Y1594661J3014D01*
Y1593842D02*
G03X2056286Y1594251I-1516J-2603D01*
X2041063Y1594262D02*
G01X2041234D01*
Y1594262D02*
G01X2041245Y1594251D01*
Y1594251D02*
G01X2058852D01*
Y1594251D02*
G01Y1593616D01*
X2061763Y1590704*
X2077953Y1596418D02*
G03X2072112Y1596852I-5840J-39071D01*
Y1596852D02*
G03X2077953Y1597286J39507D01*
X2064848Y1594251D02*
G01Y1594887D01*
Y1594887D02*
G01X2066813Y1596852D01*
Y1596852D02*
G01X2083505D01*
X2095879Y1596645D02*
G03X2096529Y1596920J905D01*
Y1596371D02*
G03X2095879Y1596646I-649J-629D01*
X2083505Y1593702D02*
G01X2091269D01*
Y1593702D02*
G01X2094212Y1596645D01*
Y1596645D02*
G01X2096819D01*
X1925451Y1599929D02*
G03X1927107Y1595845I5653J-85D01*
Y1595845D02*
G03X1923022Y1597500I-3997J-3997D01*
X1925238Y1598986D02*
G03X1927107Y1595845I7119J2110D01*
X1924911Y1598446D02*
G03X1927107Y1595845I16464J11668D01*
Y1595845D02*
G03X1924505Y1598041I-14267J-14267D01*
X1927107Y1595845D02*
G03X1923966Y1597714I-5250J-5249D01*
X1944085Y1579305D02*
G03X1942568Y1580534I-1516J-321D01*
Y1580534D02*
G03X1944085Y1581762I0J1550D01*
Y1580124D02*
G03X1942568Y1580533I-1516J-2603D01*
Y1580534D02*
G03X1944085Y1580944J3013D01*
X1922952Y1599999D02*
G01X1927951Y1595000D01*
Y1595000D02*
G01X1934033D01*
Y1595000D02*
G01X1939992Y1589041D01*
Y1589041D02*
G01Y1582164D01*
Y1582164D02*
G01X1941271Y1580885D01*
Y1580885D02*
G01Y1580861D01*
Y1580861D02*
G01X1941599Y1580534D01*
Y1580534D02*
G01X1945134D01*
X1942568Y1589412D02*
G03X1944085Y1590640I0J1550D01*
Y1588183D02*
G03X1942568Y1589412I-1516J-321D01*
Y1589412D02*
G03X1944085Y1589822J3013D01*
Y1589002D02*
G03X1942568Y1589411I-1516J-2603D01*
X1932952Y1599999D02*
G01X1937572Y1600000D01*
Y1600000D02*
G01X1939168Y1598403D01*
Y1598403D02*
G01Y1592728D01*
Y1592728D02*
G01X1942484Y1589412D01*
Y1589412D02*
G01X1945134D01*
X1956360Y1601096D02*
G03X1957009Y1600822I649J630D01*
Y1600821D02*
G03X1956361Y1600546J-903D01*
X1989584Y1600866D02*
G03X1990234Y1601141J905D01*
Y1600592D02*
G03X1989584Y1600867I-649J-629D01*
X1956069Y1600821D02*
G01X1960687D01*
Y1600821D02*
G01X1960769Y1600739D01*
Y1600739D02*
G01X1976804D01*
Y1600739D02*
G01X1976931Y1600866D01*
Y1600866D02*
G01X1990524D01*
X1953696Y1598259D02*
G03X1952179Y1597031I-1J-1550D01*
Y1599488D02*
G03X1953696Y1598259I1517J322D01*
Y1598259D02*
G03X1952179Y1597849J-3012D01*
Y1598669D02*
G03X1953696Y1598259I1517J2603D01*
X2010557Y1596635D02*
G03X2010832Y1595986I905D01*
X2010282D02*
G03X2010557Y1596635I-628J649D01*
X1951130Y1598259D02*
G01X2009993D01*
Y1598259D02*
G01X2010557Y1597695D01*
Y1597695D02*
G01Y1595695D01*
X1950186Y1599944D02*
G03X1951130Y1601461I-746J1516D01*
Y1601461D02*
G03X1952074Y1599944I1690J0D01*
X1951130Y1601461D02*
G01Y1599944D01*
Y1598259D02*
G01Y1601545D01*
Y1601545D02*
G01X1952298Y1602713D01*
Y1602713D02*
G01X1952855D01*
X1967538Y1603758D02*
G03X1968187Y1603484I649J630D01*
Y1603483D02*
G03X1967539Y1603208J-903D01*
X1991901Y1603472D02*
G03X1992551Y1603747J905D01*
Y1603198D02*
G03X1991901Y1603473I-649J-629D01*
X1967247Y1603483D02*
G01X1980039D01*
Y1603483D02*
G01X1980050Y1603472D01*
Y1603472D02*
G01X1992841D01*
X1964862Y1606402D02*
G03X1965511Y1606128I649J630D01*
Y1606127D02*
G03X1964863Y1605852J-903D01*
X1964571Y1606127D02*
G01X1995275D01*
Y1606127D02*
G01X1995894Y1605508D01*
X1990815Y1601141D02*
G03X1991464Y1600867I649J630D01*
Y1600866D02*
G03X1990816Y1600591J-903D01*
X1990524Y1600866D02*
G01X1999490D01*
Y1600866D02*
G01X1999530Y1600826D01*
Y1600826D02*
G01X2009566D01*
X1996294Y1605497D02*
G03X1996559Y1604844I905J-13D01*
Y1604844D02*
G03X1995905Y1605109I-639J-639D01*
X1995894Y1605508D02*
G01X1996632Y1604770D01*
Y1604770D02*
G01X1997060D01*
Y1604770D02*
G01X1997067Y1604763D01*
Y1604763D02*
G01X2009566D01*
X1993241Y1603492D02*
G03X1993555Y1602861I903J56D01*
Y1602861D02*
G03X1992883Y1603075I-588J-686D01*
X1992841Y1603472D02*
G01X1993633Y1602795D01*
X2009566*
X2019296Y1586188D02*
G03X2019571Y1585539I905D01*
X2019021D02*
G03X2019296Y1586188I-628J649D01*
X2017047Y1597283D02*
G01Y1596911D01*
Y1596911D02*
G01X2017100Y1596858D01*
Y1596858D02*
G01Y1592236D01*
Y1592236D02*
G01X2019296Y1590040D01*
Y1590040D02*
G01Y1585248D01*
X2015078Y1597283D02*
G01Y1591712D01*
Y1591712D02*
G01X2017035Y1589755D01*
Y1589755D02*
G01Y1588989D01*
X2013648Y1590031D02*
G03X2014301Y1589767I639J640D01*
X2013912Y1589378D02*
G03X2013648Y1590031I-904J15D01*
X2013110Y1597283D02*
G01Y1590569D01*
X2014312Y1589366*
X2034552Y1572751D02*
G03X2034827Y1572102I905D01*
X2034277D02*
G03X2034552Y1572751I-628J649D01*
X2028858Y1597283D02*
G01Y1595905D01*
Y1595905D02*
G01X2034552Y1590211D01*
Y1590211D02*
G01Y1571811D01*
X2032119Y1574931D02*
G03X2032394Y1574282I905D01*
X2031844D02*
G03X2032119Y1574931I-628J649D01*
X2026889Y1597283D02*
G01Y1595177D01*
Y1595177D02*
G01X2032119Y1589947D01*
Y1589947D02*
G01Y1573991D01*
X2029584Y1577354D02*
G03X2029859Y1576705I905D01*
X2029309D02*
G03X2029584Y1577354I-628J649D01*
X2024921Y1597283D02*
G01Y1594600D01*
X2029584Y1589936*
Y1589936D02*
G01Y1576414D01*
X2027174Y1580173D02*
G03X2027449Y1579524I905D01*
X2026899D02*
G03X2027174Y1580173I-628J649D01*
X2022952Y1597283D02*
G01Y1594022D01*
Y1594022D02*
G01X2027174Y1589800D01*
Y1589800D02*
G01Y1579233D01*
X2024211Y1581954D02*
G03X2024486Y1581305I905D01*
X2023936D02*
G03X2024211Y1581954I-628J649D01*
X2020984Y1597283D02*
G01Y1593445D01*
X2024211Y1590217*
Y1590217D02*
G01Y1581014D01*
X2021681Y1584090D02*
G03X2021956Y1583441I905D01*
X2021406D02*
G03X2021681Y1584090I-628J649D01*
X2019015Y1597283D02*
G01Y1592867D01*
Y1592867D02*
G01X2021681Y1590201D01*
Y1590201D02*
G01Y1583150D01*
X2032401Y1606732D02*
G01X2035862D01*
X2037063Y1607933*
Y1607933D02*
G01X2042437D01*
X2032401Y1604763D02*
G01X2037906D01*
Y1604763D02*
G01X2038512Y1605369D01*
X2032401Y1602795D02*
G01X2036763D01*
Y1602795D02*
G01Y1602633D01*
Y1602633D02*
G01X2040963D01*
Y1602633D02*
G01X2041063Y1602733D01*
X2054323Y1599733D02*
G03X2054973Y1600008J905D01*
Y1599459D02*
G03X2054323Y1599734I-649J-629D01*
X2032401Y1600826D02*
G01X2037670D01*
Y1600826D02*
G01X2038763Y1599733D01*
Y1599733D02*
G01X2055263D01*
X2055274Y1600133D02*
G03X2055928Y1600398I14J905D01*
Y1600398D02*
G03X2055664Y1599745I640J-639D01*
X2055263Y1599733D02*
G01X2058463Y1602933D01*
Y1602933D02*
G01Y1602952D01*
Y1602952D02*
G01X2058852D01*
X2077953Y1599567D02*
G03X2072112Y1600001I-5840J-39071D01*
Y1600001D02*
G03X2077953Y1600435J39507D01*
X2064848Y1602952D02*
G01Y1602633D01*
Y1602633D02*
G01X2067480Y1600001D01*
Y1600001D02*
G01X2083505D01*
X1925451Y1609929D02*
G03X1927107Y1605845I5653J-85D01*
Y1605845D02*
G03X1923022Y1607500I-3997J-3997D01*
X1925238Y1608986D02*
G03X1927107Y1605845I7119J2110D01*
X1924911Y1608446D02*
G03X1927107Y1605845I16464J11668D01*
Y1605845D02*
G03X1924505Y1608041I-14267J-14267D01*
X1927107Y1605845D02*
G03X1923966Y1607714I-5250J-5249D01*
X1944190Y1599944D02*
G03X1945134Y1601461I-746J1516D01*
Y1601461D02*
G03X1946078Y1599944I1690J0D01*
X1945134Y1601461D02*
G01Y1599944D01*
X1922952Y1609999D02*
G01X1927952Y1605000D01*
Y1605000D02*
G01X1939696D01*
Y1605000D02*
G01X1941770Y1602926D01*
Y1602926D02*
G01X1943753D01*
Y1602926D02*
G01X1945134Y1601545D01*
Y1601545D02*
G01Y1598259D01*
X1973047Y1614736D02*
G03X1973696Y1614462I649J630D01*
Y1614461D02*
G03X1973048Y1614186J-903D01*
X1982343Y1614461D02*
G03X1982993Y1614736J905D01*
Y1614187D02*
G03X1982343Y1614462I-649J-629D01*
X1972756Y1614461D02*
G01X1983283D01*
X1970217Y1609385D02*
G03X1970866Y1609111I649J630D01*
Y1609110D02*
G03X1970218Y1608835J-903D01*
X1969926Y1609110D02*
G01X1996612D01*
Y1609110D02*
G01X1997849Y1610347D01*
Y1610347D02*
G01X2000356D01*
Y1610347D02*
G01X2000856Y1609847D01*
Y1609847D02*
G01X2001495Y1609258D01*
X1983009Y1614752D02*
G03X1983285Y1615401I-629J650D01*
X1983284D02*
G03X1983558Y1614752I906D01*
X1983292Y1627382D02*
G01X1983283Y1614461D01*
Y1614461D02*
G01X1983296Y1614474D01*
Y1614474D02*
G01X1997841D01*
Y1614474D02*
G01X1997881Y1614434D01*
Y1614434D02*
G01X2000033D01*
Y1614434D02*
G01X2003799Y1610669D01*
X2009566*
X1998940Y1607599D02*
G03X1999205Y1606946I905J-13D01*
Y1606946D02*
G03X1998551Y1607211I-639J-639D01*
X1998540Y1607610D02*
G01X1999419Y1606732D01*
X2009566*
X2001495Y1609258D02*
G01X2001533Y1608700D01*
Y1608700D02*
G01X2009566D01*
X2004991Y1616848D02*
G03X2005640Y1616574I649J630D01*
Y1616573D02*
G03X2004992Y1616298J-903D01*
X2004700Y1616573D02*
G01X2009565D01*
Y1616573D02*
G01X2009566Y1616574D01*
Y1614606D02*
G01Y1616574D01*
X2053307Y1619170D02*
G03X2053957Y1619445J905D01*
Y1618896D02*
G03X2053307Y1619171I-649J-629D01*
X2032401Y1616574D02*
G01X2043907D01*
Y1616574D02*
G01X2046503Y1619170D01*
Y1619170D02*
G01X2054247D01*
X2032401Y1614606D02*
G01X2048460D01*
X2048633Y1614215*
X2051814Y1609125D02*
G03X2052467Y1608861I639J640D01*
X2052078Y1608472D02*
G03X2051814Y1609125I-904J15D01*
X2032401Y1612637D02*
G01X2047039D01*
Y1612637D02*
G01X2048616Y1611061D01*
X2049878*
X2052478Y1608460*
X2046999Y1609298D02*
G03X2047652Y1609034I639J640D01*
X2047263Y1608645D02*
G03X2046999Y1609298I-904J15D01*
X2032401Y1610669D02*
G01X2045628D01*
X2047663Y1608633*
X2055363Y1611533D02*
G01X2058775D01*
Y1611533D02*
G01X2058852Y1611456D01*
Y1614658D02*
G03X2059796Y1613141I1690J0D01*
X2057908D02*
G03X2058852Y1614658I-746J1516D01*
Y1614658D02*
G01Y1613141D01*
Y1616759D02*
G03X2057908Y1618275I-1689J0D01*
X2059796D02*
G03X2058852Y1616759I745J-1516D01*
Y1616759D02*
G01Y1618275D01*
Y1611456D02*
G01Y1619960D01*
X2065792Y1609771D02*
G03X2064848Y1608255I745J-1516D01*
Y1608255D02*
G03X2063904Y1609771I-1689J0D01*
X2064848Y1608255D02*
G01Y1609771D01*
Y1611456D02*
G01Y1602952D01*
X1925451Y1619929D02*
G03X1927107Y1615845I5653J-85D01*
Y1615845D02*
G03X1923022Y1617500I-3997J-3997D01*
X1925238Y1618986D02*
G03X1927107Y1615845I7119J2110D01*
X1924911Y1618446D02*
G03X1927107Y1615845I16464J11668D01*
Y1615845D02*
G03X1924505Y1618041I-14267J-14267D01*
X1927107Y1615845D02*
G03X1923966Y1617714I-5250J-5249D01*
X1922952Y1619999D02*
G01X1927952Y1615000D01*
Y1615000D02*
G01X1939943D01*
Y1615000D02*
G01X1945102Y1609841D01*
Y1607698*
X1945134Y1607666*
Y1607666D02*
G01Y1607030D01*
X1934769Y1621717D02*
G03X1938827Y1620000I4058J3936D01*
Y1619999D02*
G03X1934769Y1618282J-5652D01*
X1935285Y1620899D02*
G03X1938827Y1620000I3542J6526D01*
X1935436Y1620286D02*
G03X1938827Y1619999I3391J19896D01*
Y1619999D02*
G03X1935436Y1619712I1J-20177D01*
X1938827Y1619999D02*
G03X1935285Y1619100J-7424D01*
X1932952Y1619999D02*
G01X1941572Y1620000D01*
X1945134Y1616437*
Y1616437D02*
G01Y1615801D01*
X1942464Y1623673D02*
G03X1943113Y1623399I649J630D01*
Y1623398D02*
G03X1942465Y1623123J-903D01*
X1942173Y1623398D02*
G01X1946821D01*
Y1623398D02*
G01X1948132Y1622087D01*
Y1622087D02*
G01Y1610663D01*
Y1610663D02*
G01X1951130Y1607666D01*
Y1607666D02*
G01Y1607030D01*
X1991373Y1620604D02*
G03X1992698Y1617337I4523J-68D01*
Y1617337D02*
G03X1989430Y1618661I-3197J-3197D01*
X1991143Y1619726D02*
G03X1992698Y1617337I6423J2480D01*
Y1617337D02*
G01X1990788Y1619246D01*
X1992698Y1617337D02*
G03X1990308Y1618892I-4868J-4868D01*
X1989374Y1620660D02*
G01X1993632Y1616402D01*
Y1616402D02*
G01X1998459D01*
Y1616402D02*
G01X1998627Y1616234D01*
Y1616234D02*
G01X2001129D01*
Y1616234D02*
G01X2004726Y1612637D01*
Y1612637D02*
G01X2009566D01*
X2008162Y1622750D02*
G03X2006645Y1621805I0J-1689D01*
Y1623694D02*
G03X2008162Y1622750I1516J746D01*
Y1622750D02*
G01X2006645D01*
X2004960D02*
G01X2011856D01*
X2013110Y1621496*
Y1620118*
X2015078D02*
G01X2017047D01*
X2017051Y1624941D02*
G03X2016779Y1625592I-904J5D01*
X2017328Y1625590D02*
G03X2017051Y1624941I627J-651D01*
X2017047Y1620118D02*
G01Y1623404D01*
X2017054Y1625881*
X2022735Y1625577D02*
G03X2022461Y1624927I630J-649D01*
X2022460D02*
G03X2022184Y1625576I-903D01*
X2022460Y1625867D02*
G01Y1623743D01*
Y1623743D02*
G01X2022952Y1623251D01*
Y1623251D02*
G01Y1620118D01*
X2030299Y1625692D02*
G03X2030025Y1625042I630J-649D01*
X2030024D02*
G03X2029748Y1625691I-903D01*
X2028858Y1620118D02*
G01Y1623186D01*
Y1623186D02*
G01X2029006Y1623334D01*
Y1623334D02*
G01X2029876D01*
Y1623334D02*
G01X2030024Y1623482D01*
Y1623482D02*
G01Y1625982D01*
X1939418Y1630720D02*
G03X1934274Y1629420J-10831D01*
Y1632019D02*
G03X1939418Y1630720I5144J9532D01*
Y1630720D02*
G03X1934274Y1630287J-30760D01*
Y1631153D02*
G03X1939418Y1630720I5144J30328D01*
X1963363Y1629220D02*
G03X1958218Y1630520I-5144J-9531D01*
Y1630520D02*
G03X1963363Y1631820J10831D01*
Y1630086D02*
G03X1958218Y1630519I-5144J-30326D01*
Y1630520D02*
G03X1963363Y1630953J30761D01*
X1930868Y1630720D02*
G01X1948719D01*
Y1630720D02*
G01X1948919Y1630520D01*
Y1630520D02*
G01X1966768D01*
X1939462Y1635149D02*
G03X1940111Y1634875I649J630D01*
Y1634874D02*
G03X1939463Y1634599J-903D01*
X1975461Y1634880D02*
G03X1976111Y1635155J905D01*
Y1634605D02*
G03X1975461Y1634880I-649J-629D01*
X1939171Y1634874D02*
G01X1959344D01*
Y1634874D02*
G01X1976401Y1634880D01*
X1974646Y1628746D02*
G03X1976162Y1629690I0J1689D01*
Y1627801D02*
G03X1974646Y1628746I-1516J-743D01*
Y1628746D02*
G01X1976162D01*
X1966768Y1630520D02*
G01X1972869D01*
Y1630520D02*
G01X1973715Y1629674D01*
Y1629674D02*
G01Y1629592D01*
Y1629592D02*
G01X1974561Y1628746D01*
Y1628746D02*
G01X1977847D01*
X1979532Y1629690D02*
G03X1981049Y1628746I1516J746D01*
Y1628746D02*
G03X1979532Y1627801I0J-1689D01*
X1981049Y1628746D02*
G01X1979532D01*
X1977847D02*
G01X1981929D01*
Y1628746D02*
G01X1983292Y1627382D01*
X2013582Y1634212D02*
G01X2018873D01*
Y1634212D02*
G01X2024921Y1628164D01*
Y1620118*
X2045663Y1629779D02*
G01X2045886Y1629556D01*
Y1629556D02*
G01X2054024D01*
Y1629556D02*
G01X2054247Y1629779D01*
X2045663Y1630719D02*
G03X2045938Y1630070I905D01*
X2045388D02*
G03X2045663Y1630719I-628J649D01*
X2045584Y1634842D02*
G01X2045663Y1634763D01*
Y1634763D02*
G01Y1629779D01*
X2052629Y1636070D02*
G03X2054146Y1634842I1517J322D01*
Y1634842D02*
G03X2052629Y1633614I-1J-1550D01*
Y1635251D02*
G03X2054146Y1634841I1517J2604D01*
Y1634842D02*
G03X2052629Y1634432J-3012D01*
X2082019Y1633229D02*
G03X2085266Y1634603J4523D01*
Y1631855D02*
G03X2082019Y1633229I-3246J-3147D01*
Y1633229D02*
G03X2084808Y1633819J6886D01*
X2082019Y1633229D02*
G01X2084719D01*
X2084808Y1632639D02*
G03X2082019Y1633229I-2788J-6294D01*
X2051580Y1634842D02*
G01X2076353D01*
Y1634842D02*
G01X2077965Y1633229D01*
Y1633229D02*
G01X2086719D01*
X2082019Y1625237D02*
G03X2085266Y1626611J4523D01*
Y1623863D02*
G03X2082019Y1625237I-3246J-3148D01*
Y1625237D02*
G03X2084808Y1625827J6886D01*
X2082019Y1625237D02*
G01X2084719D01*
X2084808Y1624647D02*
G03X2082019Y1625237I-2788J-6294D01*
X2070866Y1629370D02*
G01X2075002Y1625233D01*
Y1625233D02*
G01X2081959D01*
Y1625233D02*
G01X2081963Y1625237D01*
Y1625237D02*
G01X2086719D01*
X2101740Y1627120D02*
G03X2100223Y1628064I-1515J-744D01*
Y1628064D02*
G03X2101740Y1629009I0J1690D01*
X2100223Y1628064D02*
G01X2101740D01*
X2096207Y1629233D02*
G01X2096763D01*
Y1629233D02*
G01X2097932Y1628064D01*
Y1628064D02*
G01X2103425D01*
X1942511Y1642504D02*
G03X1943160Y1642230I649J630D01*
Y1642229D02*
G03X1942512Y1641954J-903D01*
X1975845Y1642224D02*
G03X1976495Y1642499J905D01*
Y1641950D02*
G03X1975845Y1642225I-649J-629D01*
X1942220Y1642229D02*
G01X1959500D01*
Y1642229D02*
G01X1959505Y1642224D01*
Y1642224D02*
G01X1976785D01*
X1995259Y1641628D02*
G03X1995908Y1641354I649J630D01*
Y1641353D02*
G03X1995260Y1641078J-903D01*
X1994968Y1641353D02*
G01X2002734D01*
Y1641353D02*
G01X2002755Y1641332D01*
X2023763Y1641733D02*
G01Y1641755D01*
Y1641755D02*
G01X2026063Y1644055D01*
Y1644055D02*
G01X2030905D01*
X2023763Y1641733D02*
G01Y1632733D01*
Y1632733D02*
G01X2026889Y1629607D01*
Y1629607D02*
G01Y1620118D01*
X2036561Y1649632D02*
G03X2035617Y1651148I-1689J0D01*
X2037506D02*
G03X2036561Y1649632I744J-1516D01*
Y1649632D02*
G01Y1651148D01*
X2030905Y1644055D02*
G01X2034963D01*
Y1644055D02*
G01X2036561Y1645653D01*
Y1645653D02*
G01Y1652833D01*
X2095452Y1644488D02*
G01X2100735D01*
X2103063Y1646816*
Y1646816D02*
G01X2103346D01*
X1960780Y1654189D02*
G03X1959551Y1652673I321J-1516D01*
Y1652673D02*
G03X1958323Y1654189I-1549J0D01*
X1959961D02*
G03X1959551Y1652673I2602J-1517D01*
Y1652673D02*
G03X1959142Y1654189I-3012D01*
X1954948Y1651948D02*
G01X1955060Y1652060D01*
Y1652060D02*
G01X1959023D01*
Y1652060D02*
G01X1959551Y1652588D01*
Y1652588D02*
G01Y1655238D01*
X1987063D02*
G01X1987699D01*
Y1655238D02*
G01X1990525Y1658065D01*
Y1658065D02*
G01Y1658122D01*
Y1658122D02*
G01X1991025Y1658622D01*
Y1658622D02*
G01X1994625D01*
X1992232Y1653392D02*
G03X1992881Y1653118I649J630D01*
Y1653117D02*
G03X1992233Y1652842J-903D01*
X1991941Y1653117D02*
G01X1993391D01*
Y1653117D02*
G01X1994550Y1654276D01*
Y1654276D02*
G01Y1658546D01*
X1994625Y1658622*
X2002755Y1649894D02*
G03X2003984Y1648377I1551J0D01*
X2001527D02*
G03X2002755Y1649894I-322J1516D01*
Y1649894D02*
G03X2003165Y1648377I3014D01*
X2002346D02*
G03X2002756Y1649894I-2603J1517D01*
X2002755Y1647328D02*
G01Y1653267D01*
Y1653267D02*
G01X2004114Y1654625D01*
X2017465Y1652833D02*
G01Y1649125D01*
Y1649125D02*
G01X2018873Y1647718D01*
Y1647718D02*
G01Y1634212D01*
X2027433Y1652974D02*
G03X2028082Y1652700I649J630D01*
Y1652699D02*
G03X2027434Y1652424J-903D01*
X2027142Y1652699D02*
G01X2030431D01*
Y1652699D02*
G01X2030565Y1652833D01*
X2045584Y1645459D02*
G03X2044640Y1646976I-1690J1D01*
X2046528D02*
G03X2045584Y1645459I746J-1516D01*
Y1645459D02*
G01Y1646976D01*
X2047675Y1643599D02*
G03X2048325Y1643874J905D01*
Y1643325D02*
G03X2047675Y1643600I-649J-629D01*
X2045584Y1648661D02*
G01Y1644538D01*
Y1644538D02*
G01X2046523Y1643599D01*
Y1643599D02*
G01X2048615D01*
X2050636Y1650346D02*
G03X2051580Y1651862I-745J1516D01*
Y1651862D02*
G03X2052525Y1650346I1690J1D01*
X2051580Y1651862D02*
G01Y1650346D01*
Y1648661D02*
G01Y1652650D01*
Y1652650D02*
G01X2052663Y1653733D01*
Y1653733D02*
G01X2084364D01*
Y1653733D02*
G01X2085964Y1652133D01*
Y1652133D02*
G01Y1648484D01*
X2081264Y1640492D02*
G03X2084511Y1641866J4522D01*
Y1639118D02*
G03X2081264Y1640492I-3246J-3148D01*
Y1640492D02*
G03X2084053Y1641082J6885D01*
X2081264Y1640492D02*
G01X2083964D01*
X2084053Y1639901D02*
G03X2081264Y1640492I-2791J-6293D01*
X2070866Y1649370D02*
G01X2076027D01*
Y1649370D02*
G01X2079163Y1646233D01*
Y1646233D02*
G01Y1642333D01*
Y1642333D02*
G01X2081005Y1640492D01*
Y1640492D02*
G01X2085964D01*
X1965387Y1659573D02*
G03X1966036Y1659299I649J630D01*
Y1659298D02*
G03X1965388Y1659023J-903D01*
X1975963Y1659298D02*
G03X1976613Y1659573J905D01*
Y1659024D02*
G03X1975963Y1659299I-649J-629D01*
X1965096Y1659298D02*
G01X1976903D01*
X2009029Y1661855D02*
G03X2009678Y1661581I649J630D01*
Y1661580D02*
G03X2009030Y1661305J-903D01*
X2041497Y1661579D02*
G03X2042147Y1661854J905D01*
Y1661305D02*
G03X2041497Y1661580I-649J-629D01*
X2008738D02*
G01X2025587D01*
Y1661580D02*
G01X2025588Y1661579D01*
Y1661579D02*
G01X2042437D01*
X2008720Y1664803D02*
G03X2009369Y1664529I649J630D01*
Y1664528D02*
G03X2008721Y1664253J-903D01*
X2051042Y1664528D02*
G03X2051692Y1664803J905D01*
Y1664254D02*
G03X2051042Y1664529I-649J-629D01*
X2008429Y1664528D02*
G01X2051982D01*
X1913222Y1542913D02*
G03X1913222Y1542913I-7710D01*
X2092611Y1534541D02*
G03X2092499Y1535463I-240J439D01*
X2086818Y1542115D02*
G03X2092499Y1535463I7669J798D01*
X2086818Y1542115D02*
G03X2085956Y1542406I-497J-51D01*
X2085182Y1541968D02*
G03X2085956Y1542406I-318J1465D01*
X2085182Y1541968D02*
G03X2084963Y1541099I106J-489D01*
X2078864Y1536122D02*
G03X2084963Y1541099I3499J1937D01*
X2078864Y1536122D02*
G03X2077989Y1536122I-438J-241D01*
X2070990D02*
G03X2077989Y1536122I3499J1937D01*
X2070990D02*
G03X2070115Y1536122I-438J-241D01*
X2066523Y1534060D02*
G03X2070115Y1536122I92J3999D01*
X2066523Y1534060D02*
G03X2066516Y1534060I-11J-498D01*
Y1534060D02*
G03X2064706Y1533322I-27J-2522D01*
Y1533322D02*
G01X2062971Y1531587D01*
Y1531587D02*
G03X2063325Y1530733I354J-354D01*
Y1530733D02*
G01X2077755D01*
Y1530733D02*
G03X2092611Y1534541J30881D01*
X2108636Y1623456D02*
G01Y1665944D01*
Y1665944D02*
G03X2105314Y1669266I-3322J0D01*
Y1669266D02*
G01X2018020D01*
Y1669266D02*
G03X2017548Y1668600I-1J-500D01*
X2017611Y1667152D02*
G03X2017547Y1668600I-2421J619D01*
X2017611Y1667152D02*
G03X2018096Y1666528I485J-123D01*
Y1666528D02*
G01X2050513D01*
Y1666528D02*
G03X2050766Y1666597J500D01*
Y1662459D02*
G03X2050766Y1666597I1216J2069D01*
Y1662459D02*
G03X2050513Y1662527I-252J-430D01*
Y1662528D02*
G01X2045302D01*
Y1662528D02*
G03X2044808Y1661951I0J-500D01*
X2044835Y1661464D02*
G03X2044809Y1661951I-2397J115D01*
X2044835Y1661464D02*
G03X2045334Y1660939I500J-25D01*
Y1660939D02*
G01X2062837D01*
X2064532Y1656601D02*
G03X2062837Y1660939I-1694J1838D01*
X2064532Y1656601D02*
G03X2064870Y1655733I338J-368D01*
Y1655733D02*
G01X2084364D01*
X2085778Y1655148D02*
G03X2084364Y1655733I-1413J-1414D01*
X2085778Y1655148D02*
G01X2086162Y1654764D01*
Y1654764D02*
G03X2087001Y1655237I354J353D01*
X2095759Y1649481D02*
G03X2087001Y1655237I-1272J7606D01*
X2095759Y1649481D02*
G03X2095842Y1648488I83J-493D01*
Y1648488D02*
G01X2097952D01*
X2098867Y1648177D02*
G03X2097952Y1648488I-914J-1188D01*
X2098867Y1648177D02*
G03X2099669Y1648521I305J396D01*
X2101161Y1649866D02*
G03X2099669Y1648521I-1J-1499D01*
X2101161Y1649866D02*
G01X2105531D01*
X2107031Y1648366D02*
G03X2105531Y1649866I-1500J0D01*
X2107031Y1648366D02*
G01Y1645267D01*
X2106565Y1644181D02*
G03X2107031Y1645267I-1033J1086D01*
X2106565Y1644181D02*
G03X2106565Y1643456I345J-363D01*
X2107031Y1642370D02*
G03X2106565Y1643456I-1499D01*
X2107031Y1642370D02*
G01Y1639271D01*
X2106201Y1637929D02*
G03X2107031Y1639271I-669J1342D01*
X2106201Y1637929D02*
G03X2105925Y1637482I224J-447D01*
Y1637482D02*
G01Y1637436D01*
Y1637436D02*
G03X2106221Y1636980I500J0D01*
X2107110Y1635610D02*
G03X2106221Y1636980I-1499J1D01*
X2107110Y1635610D02*
G01Y1632511D01*
X2106644Y1631425D02*
G03X2107110Y1632511I-1033J1086D01*
X2106644Y1631425D02*
G03X2106644Y1630700I345J-363D01*
X2107110Y1629614D02*
G03X2106644Y1630700I-1499D01*
X2107110Y1629614D02*
G01Y1626515D01*
X2105610Y1625015D02*
G03X2107110Y1626515J1500D01*
X2105610Y1625015D02*
G01X2101240D01*
X2100191Y1625443D02*
G03X2101240Y1625015I1049J1072D01*
X2100191Y1625443D02*
G03X2099558Y1625498I-350J-356D01*
X2098707Y1625233D02*
G03X2099558Y1625498J1500D01*
X2098707Y1625233D02*
G01X2093707D01*
X2092207Y1626733D02*
G03X2093707Y1625233I1500D01*
X2092207Y1626733D02*
G01Y1631733D01*
X2093707Y1633233D02*
G03X2092207Y1631733I0J-1500D01*
X2093707Y1633233D02*
G01X2094709D01*
Y1633233D02*
G03X2095179Y1633902I0J500D01*
X2098836Y1636880D02*
G03X2095179Y1633902I-1304J-2133D01*
X2098836Y1636880D02*
G03X2099097Y1636807I261J427D01*
Y1636807D02*
G01X2100182D01*
Y1636807D02*
G03X2100446Y1636883J500D01*
X2100607Y1636970D02*
G03X2100446Y1636883I633J-1359D01*
X2100607Y1636970D02*
G03X2100587Y1637885I-210J453D01*
X2099661Y1639271D02*
G03X2100587Y1637885I1500J0D01*
X2099661Y1639271D02*
G01Y1640394D01*
Y1640394D02*
G03X2098859Y1640793I-500J0D01*
X2097952Y1640488D02*
G03X2098859Y1640793J1500D01*
X2097952Y1640488D02*
G01X2092952D01*
X2091452Y1641988D02*
G03X2092952Y1640488I1500D01*
X2091452Y1641988D02*
G01Y1646988D01*
X2092952Y1648488D02*
G03X2091452Y1646988I0J-1500D01*
X2092952Y1648488D02*
G01X2093133D01*
Y1648488D02*
G03X2093215Y1649481I0J500D01*
X2090709Y1650364D02*
G03X2093215Y1649481I3778J6722D01*
X2090709Y1650364D02*
G03X2089964Y1649928I-245J-436D01*
Y1649928D02*
G01Y1645984D01*
X2089460Y1644862D02*
G03X2089965Y1645984I-995J1122D01*
X2089460Y1644862D02*
G03X2089460Y1644114I331J-374D01*
X2089964Y1642992D02*
G03X2089460Y1644114I-1499D01*
X2089964Y1642992D02*
G01Y1637992D01*
X2089890Y1637525D02*
G03X2089965Y1637992I-1425J467D01*
X2089890Y1637525D02*
G03X2090078Y1636959I475J-156D01*
X2090719Y1635729D02*
G03X2090078Y1636958I-1499D01*
X2090719Y1635729D02*
G01Y1630729D01*
X2090215Y1629607D02*
G03X2090720Y1630729I-995J1122D01*
X2090215Y1629607D02*
G03X2090215Y1628859I332J-374D01*
X2090719Y1627737D02*
G03X2090215Y1628859I-1499D01*
X2090719Y1627737D02*
G01Y1623042D01*
Y1623042D02*
G03X2090915Y1622645I500D01*
X2091501Y1621456D02*
G03X2090914Y1622645I-1499D01*
X2091501Y1621456D02*
G01Y1613582D01*
X2090001Y1612082D02*
G03X2091501Y1613582J1500D01*
X2090001Y1612082D02*
G01X2077008D01*
X2075508Y1613582D02*
G03X2077008Y1612082I1500D01*
X2075508Y1613582D02*
G01Y1621456D01*
X2075854Y1622414D02*
G03X2075509Y1621456I1154J-957D01*
X2075854Y1622414D02*
G03X2075469Y1623233I-384J319D01*
Y1623233D02*
G01X2075002D01*
X2074230Y1623388D02*
G03X2075002Y1623233I772J1845D01*
X2074230Y1623388D02*
G03X2073582Y1622719I-193J-461D01*
X2073076Y1619913D02*
G03X2073582Y1622719I-1767J1767D01*
X2073076Y1619913D02*
G01X2071356Y1618192D01*
X2069588Y1617460D02*
G03X2071356Y1618192J2500D01*
X2069588Y1617460D02*
G01X2068224D01*
Y1617460D02*
G03X2067767Y1617164I-1J-500D01*
X2066397Y1616275D02*
G03X2067767Y1617164I0J1500D01*
X2066397Y1616275D02*
G01X2063299D01*
X2062212Y1616741D02*
G03X2063299Y1616275I1087J1034D01*
X2062212Y1616741D02*
G03X2061488Y1616741I-362J-344D01*
X2061114Y1616455D02*
G03X2061488Y1616741I-712J1320D01*
X2061114Y1616455D02*
G03X2060852Y1616016I237J-439D01*
Y1616016D02*
G01Y1615401D01*
Y1615401D02*
G03X2061114Y1614961I500J0D01*
X2061488Y1614675D02*
G03X2061114Y1614961I-1086J-1033D01*
X2061488Y1614675D02*
G03X2062212Y1614675I362J345D01*
X2063299Y1615141D02*
G03X2062212Y1614675J-1499D01*
X2063299Y1615141D02*
G01X2066397D01*
X2067897Y1613641D02*
G03X2066397Y1615141I-1500J0D01*
X2067897Y1613641D02*
G01Y1609271D01*
X2067110Y1607951D02*
G03X2067897Y1609271I-712J1319D01*
X2067110Y1607951D02*
G03X2066848Y1607512I237J-439D01*
Y1607512D02*
G01Y1606897D01*
Y1606897D02*
G03X2067110Y1606457I500J0D01*
X2067897Y1605137D02*
G03X2067110Y1606457I-1499J1D01*
X2067897Y1605137D02*
G01Y1602620D01*
Y1602620D02*
G03X2068044Y1602266I500D01*
Y1602266D02*
G01X2068162Y1602148D01*
Y1602148D02*
G03X2068515Y1602002I353J353D01*
Y1602001D02*
G01X2072112D01*
Y1602001D02*
G03X2075096Y1602120J37507D01*
Y1602120D02*
G03X2075548Y1602708I-40J498D01*
X2075883Y1604463D02*
G03X2075549Y1602708I2109J-1311D01*
X2075883Y1604463D02*
G03X2075883Y1604990I-424J263D01*
X2077992Y1608785D02*
G03X2075883Y1604990I0J-2483D01*
X2077992Y1608785D02*
G01X2089017D01*
X2090130Y1608522D02*
G03X2089017Y1608785I-1112J-2220D01*
X2090130Y1608522D02*
G03X2090852Y1608924I224J447D01*
X2092215Y1606194D02*
G03X2090852Y1608924I1525J2467D01*
X2092215Y1606194D02*
G03X2091461Y1605858I-262J-426D01*
X2091126Y1604990D02*
G03X2091461Y1605858I-2108J1311D01*
X2091126Y1604990D02*
G03X2091126Y1604463I425J-264D01*
Y1601840D02*
G03X2091126Y1604463I-2108J1311D01*
Y1601840D02*
G03X2091126Y1601313I425J-264D01*
X2091127Y1598691D02*
G03X2091126Y1601313I-2109J1310D01*
X2091127Y1598691D02*
G03X2091127Y1598163I424J-264D01*
X2091369Y1597650D02*
G03X2091127Y1598163I-2351J-797D01*
X2091369Y1597650D02*
G03X2092196Y1597458I473J161D01*
Y1597458D02*
G01X2092798Y1598060D01*
X2094212Y1598645D02*
G03X2092798Y1598060J-1999D01*
X2094212Y1598645D02*
G01X2095350D01*
Y1598645D02*
G03X2095603Y1598714J500D01*
X2096161Y1594337D02*
G03X2095603Y1598714I658J2308D01*
X2096161Y1594337D02*
G03X2095688Y1593486I-137J-481D01*
X2090882Y1590842D02*
G03X2095688Y1593486I2858J496D01*
X2090882Y1590842D02*
G03X2090292Y1591247I-491J-84D01*
X2090001Y1591218D02*
G03X2090292Y1591247J1500D01*
X2090001Y1591218D02*
G01X2077008D01*
X2075508Y1592718D02*
G03X2077008Y1591218I1500D01*
X2075508Y1592718D02*
G01Y1594239D01*
Y1594239D02*
G03X2075048Y1594737I-499J0D01*
Y1594737D02*
G03X2072112Y1594852I-2935J-37390D01*
Y1594852D02*
G01X2068397D01*
Y1594852D02*
G03X2067897Y1594352I0J-500D01*
Y1594352D02*
G01Y1592066D01*
X2066888Y1590649D02*
G03X2067897Y1592066I-490J1417D01*
X2066888Y1590649D02*
G03X2066888Y1589704I164J-472D01*
X2067897Y1588287D02*
G03X2066888Y1589704I-1499J0D01*
X2067897Y1588287D02*
G01Y1583917D01*
X2067352Y1582760D02*
G03X2067898Y1583917I-954J1157D01*
X2067352Y1582760D02*
G03X2067203Y1582195I318J-386D01*
X2064019Y1579127D02*
G03X2067203Y1582195I944J2206D01*
X2064019Y1579127D02*
G03X2063322Y1578667I-197J-460D01*
Y1578667D02*
G01Y1577682D01*
X2062856Y1576596D02*
G03X2063322Y1577682I-1033J1086D01*
X2062856Y1576596D02*
G03X2062856Y1575871I345J-363D01*
X2063322Y1574785D02*
G03X2062856Y1575871I-1499D01*
X2063322Y1574785D02*
G01Y1571866D01*
Y1571866D02*
G03X2063529Y1571461I500D01*
X2063753Y1571276D02*
G03X2063529Y1571461I-1634J-1756D01*
X2063753Y1571276D02*
G03X2064594Y1571642I341J366D01*
Y1571642D02*
G01Y1573568D01*
X2066094Y1575068D02*
G03X2064594Y1573568I0J-1500D01*
X2066094Y1575068D02*
G01X2072094D01*
X2073594Y1573568D02*
G03X2072094Y1575068I-1500J0D01*
X2073594Y1573568D02*
G01Y1573010D01*
Y1573010D02*
G03X2074501Y1572720I500J0D01*
X2076830Y1573921D02*
G03X2074501Y1572720J-2858D01*
X2076830Y1573921D02*
G01X2078011D01*
X2080544Y1572387D02*
G03X2078011Y1573921I-2533J-1324D01*
X2080544Y1572387D02*
G03X2081341Y1572265I443J231D01*
Y1572265D02*
G01X2081906Y1572830D01*
X2083674Y1573563D02*
G03X2081907Y1572830I1J-2499D01*
X2083674Y1573563D02*
G01X2084063D01*
Y1573563D02*
G03X2084563Y1574063J500D01*
Y1574063D02*
G01Y1575433D01*
X2084740Y1576358D02*
G03X2084563Y1575433I2323J-924D01*
X2084740Y1576358D02*
G03X2084276Y1577043I-463J186D01*
Y1577043D02*
G01X2077008D01*
X2075508Y1578543D02*
G03X2077008Y1577043I1500D01*
X2075508Y1578543D02*
G01Y1586417D01*
X2077008Y1587917D02*
G03X2075508Y1586417I0J-1500D01*
X2077008Y1587917D02*
G01X2090001D01*
X2091501Y1586417D02*
G03X2090001Y1587917I-1500J0D01*
X2091501Y1586417D02*
G01Y1578543D01*
X2090001Y1577043D02*
G03X2091501Y1578543J1500D01*
X2090001Y1577043D02*
G01X2089851D01*
Y1577043D02*
G03X2089386Y1576358I-1J-500D01*
X2089563Y1575433D02*
G03X2089386Y1576358I-2499D01*
X2089563Y1575433D02*
G01Y1573557D01*
Y1573557D02*
G03X2089728Y1573185I500D01*
X2090646Y1571453D02*
G03X2089728Y1573186I-2831J-390D01*
X2090646Y1571453D02*
G03X2090943Y1571062I496J68D01*
Y1571062D02*
G03X2090647Y1570672I198J-458D01*
X2090189Y1569471D02*
G03X2090646Y1570672I-2374J1591D01*
X2090189Y1569471D02*
G03X2090189Y1568914I415J-279D01*
X2090646Y1567713D02*
G03X2090189Y1568914I-2831J-390D01*
X2090646Y1567713D02*
G03X2090742Y1567480I495J69D01*
Y1567480D02*
G03X2090672Y1567238I429J-256D01*
X2090602Y1566692D02*
G03X2090671Y1567238I-2787J630D01*
X2090602Y1566692D02*
G03X2091090Y1566082I488J-109D01*
Y1566082D02*
G01X2091401D01*
Y1566082D02*
G03X2091836Y1566829I0J500D01*
X2091664Y1567309D02*
G03X2091836Y1566829I1477J259D01*
X2091664Y1567309D02*
G03X2091571Y1567525I-492J-85D01*
X2091570Y1567524D02*
G03X2091642Y1567782I-428J258D01*
X2091641D02*
G01Y1570603D01*
Y1570603D02*
G03X2091339Y1571062I-499J0D01*
Y1571062D02*
G03X2091641Y1571522I-198J459D01*
Y1571522D02*
G01Y1573568D01*
X2093141Y1575068D02*
G03X2091641Y1573568I0J-1500D01*
X2093141Y1575068D02*
G01X2099141D01*
X2100641Y1573568D02*
G03X2099141Y1575068I-1500J0D01*
X2100641Y1573568D02*
G01Y1567568D01*
X2099141Y1566068D02*
G03X2100641Y1567568J1500D01*
X2099141Y1566068D02*
G01X2096771D01*
Y1566068D02*
G03X2096417Y1565215I0J-500D01*
Y1565215D02*
G01X2097909Y1563723D01*
X2098639Y1562050D02*
G03X2097909Y1563723I-2497J-94D01*
X2098639Y1562050D02*
G03X2099139Y1561568I500J18D01*
Y1561568D02*
G01X2099141D01*
X2100641Y1560068D02*
G03X2099141Y1561568I-1500J0D01*
X2100641Y1560068D02*
G01Y1554068D01*
X2099141Y1552568D02*
G03X2100641Y1554068J1500D01*
X2099141Y1552568D02*
G01X2093141D01*
X2091641Y1554068D02*
G03X2093141Y1552568I1500D01*
X2091641Y1554068D02*
G01Y1560068D01*
X2091692Y1560454D02*
G03X2091642Y1560068I1449J-385D01*
X2091692Y1560454D02*
G03X2091208Y1561082I-483J128D01*
Y1561082D02*
G01X2090315D01*
Y1561082D02*
G03X2090030Y1560992J-499D01*
X2089173Y1560724D02*
G03X2090029Y1560992J1500D01*
X2089173Y1560724D02*
G01X2088783D01*
Y1560724D02*
G03X2088442Y1559858I0J-500D01*
X2088921Y1558759D02*
G03X2088442Y1559858I-1499D01*
X2088921Y1558759D02*
G01Y1554389D01*
X2087421Y1552889D02*
G03X2088921Y1554389J1500D01*
X2087421Y1552889D02*
G01X2084322D01*
X2083236Y1553355D02*
G03X2084322Y1552889I1086J1034D01*
X2083236Y1553355D02*
G03X2082511Y1553355I-362J-344D01*
X2081425Y1552889D02*
G03X2082511Y1553355J1500D01*
X2081425Y1552889D02*
G01X2078326D01*
X2076956Y1553778D02*
G03X2078326Y1552889I1370J611D01*
X2076956Y1553778D02*
G03X2076500Y1554074I-456J-203D01*
Y1554074D02*
G01X2075456D01*
X2074315Y1554350D02*
G03X2075456Y1554074I1141J2224D01*
X2074315Y1554350D02*
G03X2073589Y1553946I-228J-445D01*
X2072094Y1552568D02*
G03X2073589Y1553946I0J1500D01*
X2072094Y1552568D02*
G01X2071890D01*
Y1552568D02*
G03X2071536Y1551715I0J-500D01*
Y1551715D02*
G01X2072580Y1550671D01*
Y1550671D02*
G03X2074390Y1549932I1784J1784D01*
Y1549932D02*
G03X2074397Y1549932I-4J500D01*
X2077529Y1548533D02*
G03X2074397Y1549932I-3039J-2599D01*
X2077529Y1548533D02*
G03X2078398Y1548752I380J325D01*
X2079863Y1549933D02*
G03X2078398Y1548752I0J-1499D01*
X2079863Y1549933D02*
G01X2084863D01*
X2086363Y1548433D02*
G03X2084863Y1549933I-1500J0D01*
X2086363Y1548433D02*
G01Y1545963D01*
Y1545963D02*
G03X2087328Y1545777I500J0D01*
X2102112Y1544064D02*
G03X2087328Y1545777I-7624J-1150D01*
X2102112Y1544064D02*
G03X2103016Y1543851I495J74D01*
Y1543851D02*
G03X2108636Y1561614I-25260J17763D01*
Y1561614D02*
G01Y1576543D01*
Y1576543D02*
G03X2108136Y1577043I-500J0D01*
Y1577043D02*
G01X2100236D01*
X2098736Y1578543D02*
G03X2100236Y1577043I1500D01*
X2098736Y1578543D02*
G01Y1586417D01*
X2100236Y1587917D02*
G03X2098736Y1586417I0J-1500D01*
X2100236Y1587917D02*
G01X2108136D01*
Y1587917D02*
G03X2108636Y1588417J500D01*
Y1588417D02*
G01Y1611582D01*
Y1611582D02*
G03X2108136Y1612082I-500J0D01*
Y1612082D02*
G01X2100236D01*
X2098736Y1613582D02*
G03X2100236Y1612082I1500D01*
X2098736Y1613582D02*
G01Y1621456D01*
X2100236Y1622956D02*
G03X2098736Y1621456I0J-1500D01*
X2100236Y1622956D02*
G01X2108136D01*
Y1622956D02*
G03X2108636Y1623456J500D01*
X2001741Y1625385D02*
G03X2001741Y1626110I-344J362D01*
X2001712Y1626138D02*
G03X2001741Y1626110I1063J1058D01*
X2001712Y1626138D02*
G03X2001003Y1626138I-354J-352D01*
X2000975Y1626110D02*
G03X2001003Y1626138I-1034J1086D01*
X2000975Y1626110D02*
G03X2000975Y1625385I344J-362D01*
X2001003Y1625357D02*
G03X2000975Y1625385I-1062J-1057D01*
X2001003Y1625357D02*
G03X2001712Y1625357I354J353D01*
X2001741Y1625385D02*
G03X2001712Y1625357I1034J-1085D01*
X1994536Y1625385D02*
G03X1994536Y1626110I-343J362D01*
X1994190Y1626609D02*
G03X1994536Y1626110I1380J587D01*
X1994190Y1626609D02*
G03X1993266Y1626600I-460J-194D01*
X1991881Y1625660D02*
G03X1993266Y1626600I-6J1500D01*
X1991881Y1625660D02*
G03X1991881Y1624660I2J-500D01*
X1993146Y1623955D02*
G03X1991881Y1624660I-1271J-794D01*
X1993146Y1623955D02*
G03X1994070Y1624220I424J265D01*
Y1624220D02*
G01Y1624299D01*
X1994536Y1625385D02*
G03X1994070Y1624299I1033J-1086D01*
X2014773Y1648507D02*
G03X2015058Y1649418I0J500D01*
X2014416Y1650648D02*
G03X2015058Y1649418I1500D01*
X2014416Y1650648D02*
G01Y1655018D01*
X2014499Y1655512D02*
G03X2014416Y1655018I1417J-493D01*
X2014499Y1655512D02*
G03X2014220Y1656137I-471J164D01*
X2012740Y1658974D02*
G03X2014220Y1656137I2443J-530D01*
X2012740Y1658974D02*
G03X2012251Y1659580I-488J106D01*
Y1659580D02*
G01X2010208D01*
Y1659580D02*
G03X2009955Y1659511J-499D01*
X2008193Y1659243D02*
G03X2009955Y1659512I545J2337D01*
X2008193Y1659243D02*
G03X2007713Y1659097I-114J-486D01*
X2007609Y1658996D02*
G03X2007713Y1659097I-994J1122D01*
X2007609Y1658996D02*
G03X2007609Y1658248I332J-374D01*
X2008114Y1657125D02*
G03X2007609Y1658247I-1499D01*
X2008114Y1657125D02*
G01Y1652125D01*
X2006614Y1650625D02*
G03X2008114Y1652125J1500D01*
X2006614Y1650625D02*
G01X2006503D01*
Y1650625D02*
G03X2006113Y1649813I0J-500D01*
X2006440Y1648877D02*
G03X2006112Y1649812I-1499D01*
X2006440Y1648877D02*
G01Y1645779D01*
X2005975Y1644692D02*
G03X2006440Y1645779I-1035J1086D01*
X2005975Y1644692D02*
G03X2005975Y1643968I344J-362D01*
X2006440Y1642881D02*
G03X2005975Y1643968I-1500J1D01*
X2006440Y1642881D02*
G01Y1639783D01*
X2004940Y1638283D02*
G03X2006440Y1639783J1500D01*
X2004940Y1638283D02*
G01X2000570D01*
X1999242Y1639086D02*
G03X2000570Y1638283I1328J697D01*
X1999242Y1639086D02*
G03X1998800Y1639353I-442J-232D01*
Y1639353D02*
G01X1996438D01*
Y1639353D02*
G03X1996185Y1639284J-499D01*
Y1643422D02*
G03X1996185Y1639284I-1216J-2069D01*
Y1643422D02*
G03X1996438Y1643353I253J431D01*
Y1643353D02*
G01X1998822D01*
Y1643353D02*
G03X1999259Y1643610I0J500D01*
X1999536Y1643968D02*
G03X1999259Y1643610I1034J-1086D01*
X1999536Y1643968D02*
G03X1999536Y1644692I-343J362D01*
X1999070Y1645779D02*
G03X1999536Y1644692I1500D01*
X1999070Y1645779D02*
G01Y1648877D01*
X2000216Y1650335D02*
G03X1999070Y1648877I354J-1457D01*
X2000216Y1650335D02*
G03X2000477Y1651147I-117J486D01*
X2000114Y1652125D02*
G03X2000477Y1651147I1500D01*
X2000114Y1652125D02*
G01Y1657125D01*
X2000618Y1658248D02*
G03X2000114Y1657125I996J-1122D01*
X2000618Y1658248D02*
G03X2000618Y1658996I-331J374D01*
X2000114Y1660118D02*
G03X2000618Y1658996I1500D01*
X2000114Y1660118D02*
G01Y1664771D01*
Y1664771D02*
G03X1999614Y1665271I-500J0D01*
Y1665271D02*
G01X1989470D01*
Y1665271D02*
G03X1989414Y1664274I0J-500D01*
X1990745Y1662883D02*
G03X1989414Y1664274I-1495J-99D01*
X1990745Y1662883D02*
G03X1991464Y1662468I499J34D01*
X1992125Y1662622D02*
G03X1991464Y1662468J-1499D01*
X1992125Y1662622D02*
G01X1997125D01*
X1998626Y1661122D02*
G03X1997125Y1662622I-1500D01*
X1998626Y1661122D02*
G01Y1656122D01*
X1997125Y1654622D02*
G03X1998626Y1656122I1J1500D01*
X1997125Y1654622D02*
G01X1997045D01*
Y1654622D02*
G03X1996546Y1654152I0J-499D01*
X1995964Y1652862D02*
G03X1996546Y1654152I-1413J1414D01*
X1995964Y1652862D02*
G01X1994805Y1651703D01*
X1993407Y1651117D02*
G03X1994805Y1651703I-16J1999D01*
X1993407Y1651117D02*
G03X1993158Y1651048I4J-499D01*
X1989849Y1651941D02*
G03X1993158Y1651048I2092J1176D01*
X1989849Y1651941D02*
G03X1989372Y1652194I-435J-244D01*
X1989248Y1652189D02*
G03X1989372Y1652194J1500D01*
X1989248Y1652189D02*
G01X1984878D01*
X1983378Y1653689D02*
G03X1984878Y1652189I1500D01*
X1983378Y1653689D02*
G01Y1656788D01*
X1983843Y1657873D02*
G03X1983378Y1656788I1034J-1085D01*
X1983843Y1657873D02*
G03X1983497Y1658734I-345J361D01*
Y1658734D02*
G01X1983016D01*
X1981248Y1659467D02*
G03X1983016Y1658734I1768J1767D01*
X1981248Y1659467D02*
G01X1980355Y1660360D01*
X1979625Y1662028D02*
G03X1980356Y1660360I2497J100D01*
X1979625Y1662028D02*
G03X1979126Y1662508I-498J-19D01*
Y1662508D02*
G01X1977936D01*
Y1662508D02*
G03X1977758Y1661541I0J-500D01*
X1975687Y1657229D02*
G03X1977758Y1661541I1216J2069D01*
X1975687Y1657229D02*
G03X1975434Y1657297I-252J-430D01*
Y1657298D02*
G01X1966566D01*
Y1657298D02*
G03X1966313Y1657229J-499D01*
X1963971Y1657179D02*
G03X1966313Y1657229I1126J2119D01*
X1963971Y1657179D02*
G03X1963236Y1656737I-235J-442D01*
Y1656737D02*
G01Y1653689D01*
X1962692Y1652533D02*
G03X1963236Y1653689I-955J1156D01*
X1962692Y1652533D02*
G03X1963105Y1651656I318J-386D01*
X1963768Y1651720D02*
G03X1963105Y1651657J-3499D01*
X1963768Y1651720D02*
G01X1969768D01*
X1971470Y1645161D02*
G03X1969768Y1651720I-1701J3059D01*
X1971470Y1645161D02*
G03X1971714Y1644224I244J-437D01*
Y1644224D02*
G01X1975316D01*
Y1644224D02*
G03X1975569Y1644293J500D01*
Y1640155D02*
G03X1975569Y1644293I1216J2069D01*
Y1640155D02*
G03X1975316Y1640223I-252J-430D01*
Y1640224D02*
G01X1959505D01*
X1959379Y1640228D02*
G03X1959505Y1640224I126J1996D01*
X1959379Y1640228D02*
G03X1959347Y1640229I-31J-498D01*
Y1640229D02*
G01X1943690D01*
Y1640229D02*
G03X1943437Y1640160J-499D01*
Y1644298D02*
G03X1943437Y1640160I-1216J-2069D01*
Y1644298D02*
G03X1943690Y1644229I253J431D01*
Y1644229D02*
G01X1959500D01*
X1959627Y1644225D02*
G03X1959500Y1644229I-126J-1995D01*
X1959627Y1644225D02*
G03X1959658Y1644224I31J499D01*
Y1644224D02*
G01X1961823D01*
Y1644224D02*
G03X1962066Y1645161J500D01*
X1960554Y1649604D02*
G03X1962066Y1645161I3215J-1385D01*
X1960554Y1649604D02*
G03X1959880Y1650253I-459J197D01*
X1959023Y1650060D02*
G03X1959880Y1650253J2000D01*
X1959023Y1650060D02*
G01X1956594D01*
Y1650060D02*
G03X1956310Y1649972J-499D01*
X1955294Y1654323D02*
G03X1956310Y1649972I-345J-2375D01*
X1955294Y1654323D02*
G03X1955866Y1654818I72J495D01*
Y1654818D02*
G01Y1656788D01*
X1956332Y1657874D02*
G03X1955866Y1656788I1033J-1086D01*
X1956332Y1657874D02*
G03X1956332Y1658599I-344J362D01*
X1955866Y1659685D02*
G03X1956332Y1658599I1500D01*
X1955866Y1659685D02*
G01Y1662784D01*
X1956762Y1664156D02*
G03X1955866Y1662784I603J-1372D01*
X1956762Y1664156D02*
G03X1957059Y1664576I-201J457D01*
X1957784Y1666152D02*
G03X1957059Y1664576I1767J-1767D01*
X1957783Y1666152D02*
G01X1958407Y1666775D01*
X1960174Y1667507D02*
G03X1958407Y1666775J-2499D01*
X1960174Y1667507D02*
G01X1970271D01*
Y1667507D02*
G01X1976126D01*
Y1667507D02*
G03X1976139Y1667507J500D01*
X1976203Y1667508D02*
G03X1976139Y1667507J-2499D01*
X1976203Y1667508D02*
G01X1979165D01*
Y1667508D02*
G03X1979658Y1667925I0J500D01*
X1979853Y1668556D02*
G03X1979658Y1667925I2270J-1047D01*
X1979853Y1668556D02*
G03X1979399Y1669266I-453J210D01*
Y1669266D02*
G01X1922244D01*
Y1669266D02*
G03X1907389Y1665458J-30880D01*
Y1665458D02*
G03X1907500Y1664537I240J-438D01*
X1897887Y1655935D02*
G03X1907500Y1664537I7625J1152D01*
X1897887Y1655935D02*
G03X1896983Y1656148I-494J-74D01*
Y1656148D02*
G03X1891363Y1638385I25261J-17762D01*
Y1638385D02*
G01Y1534055D01*
Y1534055D02*
G03X1894685Y1530733I3322D01*
Y1530733D02*
G01X1923638D01*
Y1530733D02*
G03X1924108Y1531404I0J500D01*
X1924617Y1533869D02*
G03X1924108Y1531404I1747J-1646D01*
X1924617Y1533869D02*
G03X1924254Y1534712I-362J344D01*
Y1534712D02*
G01X1918417D01*
X1916917Y1536212D02*
G03X1918417Y1534712I1500D01*
X1916917Y1536212D02*
G01Y1542212D01*
X1918417Y1543712D02*
G03X1916917Y1542212I0J-1500D01*
X1918417Y1543712D02*
G01X1921396D01*
Y1543712D02*
G03X1921417Y1543712J500D01*
Y1543713D02*
G03X1921437Y1543713I20J499D01*
Y1543712D02*
G01X1924417D01*
X1925917Y1542212D02*
G03X1924417Y1543712I-1500J0D01*
X1925917Y1542212D02*
G01Y1539233D01*
Y1539233D02*
G03X1925917Y1539212I500D01*
Y1539212D02*
G03X1925917Y1539192I500J-19D01*
Y1539192D02*
G01Y1536212D01*
X1925669Y1535386D02*
G03X1925917Y1536212I-1251J826D01*
X1925669Y1535386D02*
G03X1926134Y1534612I418J-276D01*
X1927581Y1534292D02*
G03X1926134Y1534612I-1216J-2068D01*
X1927581Y1534292D02*
G03X1927834Y1534223I253J431D01*
Y1534223D02*
G01X1929214D01*
Y1534223D02*
G03X1929434Y1535172J500D01*
X1926917Y1539194D02*
G03X1929434Y1535172I4500J18D01*
X1926917Y1539194D02*
G03X1926917Y1539212I-499J-1D01*
X1926916D02*
G03X1926916Y1539231I-498J21D01*
X1931404Y1543712D02*
G03X1926917Y1539231I12J-4500D01*
X1931404Y1543712D02*
G03X1931417Y1543712I-1J500D01*
Y1543712D02*
G03X1931430Y1543712I14J500D01*
X1933588Y1543154D02*
G03X1931430Y1543712I-2170J-3941D01*
X1933588Y1543154D02*
G03X1934329Y1543592I241J438D01*
Y1543592D02*
G01Y1544833D01*
Y1544833D02*
G03X1933588Y1545271I-500J0D01*
X1931430Y1544712D02*
G03X1933588Y1545271I-14J4499D01*
X1931430Y1544712D02*
G03X1931417Y1544712I1J-499D01*
Y1544712D02*
G03X1931404Y1544712I-14J-499D01*
X1926917Y1549199D02*
G03X1931404Y1544712I4500J13D01*
X1926917Y1549199D02*
G03X1926917Y1549212I-499D01*
Y1549212D02*
G03X1926917Y1549225I-499J15D01*
X1928312Y1552469D02*
G03X1926918Y1549225I3105J-3256D01*
X1928312Y1552469D02*
G03X1928316Y1552473I-344J362D01*
Y1552473D02*
G03X1929410Y1554864I-2552J2614D01*
Y1554864D02*
G03X1929408Y1554949I-498J30D01*
X1929396Y1555169D02*
G03X1929408Y1554949I2000D01*
X1929396Y1555169D02*
G01Y1556131D01*
Y1556131D02*
G03X1928975Y1556624I-499J0D01*
X1927711Y1558106D02*
G03X1928975Y1556625I1500J0D01*
X1927711Y1558106D02*
G01Y1561204D01*
X1928177Y1562291D02*
G03X1927711Y1561204I1034J-1086D01*
X1928177Y1562291D02*
G03X1928177Y1563015I-344J362D01*
X1927711Y1564102D02*
G03X1928177Y1563015I1500D01*
X1927711Y1564102D02*
G01Y1567200D01*
X1927719Y1567354D02*
G03X1927711Y1567200I1492J-153D01*
X1927719Y1567354D02*
G03X1927221Y1567905I-497J51D01*
Y1567905D02*
G01X1926931D01*
Y1567905D02*
G03X1926578Y1567758J-499D01*
X1926577Y1567759D02*
G01X1924063Y1565245D01*
Y1565245D02*
G03X1923917Y1564891I354J-353D01*
Y1564891D02*
G01Y1553912D01*
Y1553912D02*
G03X1924522Y1552470I2023D01*
Y1552470D02*
G03X1924527Y1552465I350J356D01*
X1925917Y1549225D02*
G03X1924527Y1552465I-4499J-12D01*
X1925917Y1549225D02*
G03X1925917Y1549212I500J2D01*
Y1549212D02*
G03X1925917Y1549199I500J-13D01*
X1921435Y1544712D02*
G03X1925917Y1549199I-18J4499D01*
X1921435Y1544712D02*
G03X1921417Y1544712I2J-499D01*
Y1544712D02*
G03X1921398Y1544712I-20J-499D01*
X1918307Y1552465D02*
G03X1921398Y1544712I3110J-3253D01*
X1918307Y1552465D02*
G03X1918312Y1552470I-344J361D01*
Y1552470D02*
G03X1918917Y1553912I-1417J1442D01*
Y1553912D02*
G01Y1566134D01*
X1919649Y1567902D02*
G03X1918917Y1566134I1768J-1767D01*
X1919649Y1567902D02*
G01X1923920Y1572173D01*
X1925688Y1572905D02*
G03X1923921Y1572173J-2499D01*
X1925688Y1572905D02*
G01X1950019D01*
X1951787Y1572173D02*
G03X1950019Y1572905I-1767J-1767D01*
X1951787Y1572173D02*
G01X1952706Y1571255D01*
Y1571255D02*
G03X1953552Y1571526I353J353D01*
X1955426Y1573483D02*
G03X1953553Y1571526I494J-2348D01*
X1955426Y1573483D02*
G03X1955583Y1573545I-102J489D01*
X1956622Y1573836D02*
G03X1955583Y1573545J-1999D01*
X1956622Y1573836D02*
G01X1972519D01*
X1973933Y1573250D02*
G03X1972519Y1573835I-1413J-1413D01*
X1973933Y1573250D02*
G01X1974436Y1572747D01*
Y1572747D02*
G03X1975214Y1573365I354J353D01*
X1974911Y1574423D02*
G03X1975214Y1573365I2000D01*
X1974911Y1574423D02*
G01Y1577558D01*
Y1577558D02*
G01Y1580941D01*
X1975497Y1582356D02*
G03X1974911Y1580941I1414J-1414D01*
X1975497Y1582356D02*
G01X1977100Y1583959D01*
Y1583959D02*
G03X1976747Y1584812I-352J354D01*
Y1584812D02*
G01X1966580D01*
Y1584812D02*
G03X1966227Y1584665J-499D01*
X1966226Y1584666D02*
G01X1961412Y1579852D01*
Y1579852D02*
G03X1961766Y1578998I354J-354D01*
Y1578998D02*
G01X1962516D01*
Y1578998D02*
G03X1962921Y1579205J500D01*
X1965003Y1575399D02*
G03X1962921Y1579205I-139J2396D01*
X1965003Y1575399D02*
G03X1964760Y1575319I29J-498D01*
X1963672Y1574998D02*
G03X1964760Y1575320J2000D01*
X1963672Y1574998D02*
G01X1939750D01*
X1938336Y1575584D02*
G03X1939750Y1574998I1414J1414D01*
X1938336Y1575584D02*
G01X1937845Y1576075D01*
Y1576075D02*
G03X1937106Y1576041I-354J-352D01*
X1935952Y1575499D02*
G03X1937106Y1576041J1500D01*
X1935952Y1575499D02*
G01X1929952D01*
X1928452Y1576999D02*
G03X1929952Y1575499I1500D01*
X1928452Y1576999D02*
G01Y1579979D01*
Y1579979D02*
G03X1928452Y1579999I-499D01*
Y1579999D02*
G03X1928452Y1580020I-499J21D01*
Y1580020D02*
G01Y1582787D01*
Y1582787D02*
G03X1927952Y1583287I-500J0D01*
Y1583287D02*
G01X1927664D01*
X1927173Y1583349D02*
G03X1927664Y1583288I491J1938D01*
X1927173Y1583349D02*
G03X1926641Y1582577I-123J-485D01*
X1927452Y1580018D02*
G03X1926641Y1582577I-4499J-18D01*
X1927452Y1580018D02*
G03X1927452Y1579999I500J2D01*
X1927453D02*
G03X1927453Y1579981I499J-19D01*
X1922939Y1584499D02*
G03X1927452Y1579981I14J-4500D01*
X1922939Y1584499D02*
G03X1922952Y1584499J500D01*
Y1584500D02*
G03X1922965Y1584500I15J499D01*
X1923666Y1584442D02*
G03X1922965Y1584499I-713J-4442D01*
X1923666Y1584442D02*
G03X1923847Y1585426I80J494D01*
Y1585426D02*
G03X1923066Y1585501I-737J-3578D01*
Y1585501D02*
G03X1923060Y1585501I6J-499D01*
X1922965Y1585499D02*
G03X1923060Y1585500I-12J4500D01*
X1922965Y1585499D02*
G03X1922952Y1585499I2J-499D01*
Y1585499D02*
G03X1922939Y1585499I-13J-499D01*
Y1594499D02*
G03X1922939Y1585499I13J-4500D01*
Y1594499D02*
G03X1922952Y1594499J500D01*
Y1594500D02*
G03X1922965Y1594500I15J499D01*
X1923666Y1594442D02*
G03X1922965Y1594499I-713J-4442D01*
X1923666Y1594442D02*
G03X1923847Y1595426I80J494D01*
Y1595426D02*
G03X1923066Y1595501I-737J-3578D01*
Y1595501D02*
G03X1923060Y1595501I6J-499D01*
X1922965Y1595499D02*
G03X1923060Y1595500I-12J4500D01*
X1922965Y1595499D02*
G03X1922952Y1595499I2J-499D01*
Y1595499D02*
G03X1922939Y1595499I-13J-499D01*
Y1604499D02*
G03X1922939Y1595499I13J-4500D01*
Y1604499D02*
G03X1922952Y1604499J500D01*
Y1604500D02*
G03X1922965Y1604500I15J499D01*
X1923666Y1604442D02*
G03X1922965Y1604499I-713J-4442D01*
X1923666Y1604442D02*
G03X1923847Y1605426I80J494D01*
Y1605426D02*
G03X1923066Y1605501I-737J-3578D01*
Y1605501D02*
G03X1923060Y1605501I6J-499D01*
X1922965Y1605499D02*
G03X1923060Y1605500I-12J4500D01*
X1922965Y1605499D02*
G03X1922952Y1605499I2J-499D01*
Y1605499D02*
G03X1922939Y1605499I-13J-499D01*
Y1614499D02*
G03X1922939Y1605499I13J-4500D01*
Y1614499D02*
G03X1922952Y1614499J500D01*
Y1614500D02*
G03X1922965Y1614500I15J499D01*
X1923666Y1614442D02*
G03X1922965Y1614499I-713J-4442D01*
X1923666Y1614442D02*
G03X1923847Y1615426I80J494D01*
Y1615426D02*
G03X1923066Y1615501I-737J-3578D01*
Y1615501D02*
G03X1923060Y1615501I6J-499D01*
X1922965Y1615499D02*
G03X1923060Y1615500I-12J4500D01*
X1922965Y1615499D02*
G03X1922952Y1615499I2J-499D01*
Y1615499D02*
G03X1922939Y1615499I-13J-499D01*
X1927452Y1620012D02*
G03X1922939Y1615499I-4500J-13D01*
X1927452Y1620012D02*
G03X1927452Y1619999I500J2D01*
Y1619999D02*
G03X1927452Y1619986I500J-13D01*
X1927451Y1619892D02*
G03X1927452Y1619986I-4498J107D01*
X1927451Y1619892D02*
G03X1927451Y1619886I500J-11D01*
Y1619886D02*
G03X1927526Y1619106I3653J-42D01*
Y1619106D02*
G03X1928509Y1619286I489J101D01*
X1928452Y1619986D02*
G03X1928509Y1619286I4500J13D01*
X1928452Y1619986D02*
G03X1928452Y1619999I-499D01*
Y1619999D02*
G03X1928452Y1620012I-499J15D01*
X1936209Y1623105D02*
G03X1928452Y1620012I-3257J-3105D01*
X1936209Y1623105D02*
G03X1936213Y1623100I362J345D01*
Y1623100D02*
G03X1938827Y1621999I2614J2553D01*
Y1621999D02*
G01X1939416D01*
Y1621999D02*
G03X1939891Y1622654I0J500D01*
X1943390Y1625467D02*
G03X1939891Y1622654I-1217J-2069D01*
X1943390Y1625467D02*
G03X1943643Y1625398I253J431D01*
Y1625398D02*
G01X1946821D01*
X1948236Y1624813D02*
G03X1946821Y1625399I-1414J-1414D01*
X1948236Y1624813D02*
G01X1949547Y1623502D01*
X1950132Y1622087D02*
G03X1949547Y1623502I-2000J2D01*
X1950132Y1622087D02*
G01Y1619986D01*
Y1619986D02*
G03X1950632Y1619486I500D01*
Y1619486D02*
G01X1952679D01*
X1954049Y1618598D02*
G03X1952679Y1619486I-1369J-611D01*
X1954049Y1618598D02*
G03X1954506Y1618301I457J203D01*
Y1618301D02*
G01X1955307D01*
Y1618301D02*
G03X1955341Y1618302J500D01*
X1955512Y1618308D02*
G03X1955341Y1618302J-2499D01*
X1955512Y1618308D02*
G01X1960307D01*
Y1618308D02*
G01X1965303D01*
Y1618308D02*
G03X1965657Y1618454J500D01*
X1965656Y1618455D02*
G01X1966463Y1619262D01*
X1968231Y1619994D02*
G03X1966464Y1619262J-2499D01*
X1968231Y1619994D02*
G01X1973791D01*
Y1619994D02*
G03X1974259Y1620671I0J500D01*
X1974162Y1621200D02*
G03X1974258Y1620671I1500D01*
X1974162Y1621200D02*
G01Y1624299D01*
X1974628Y1625385D02*
G03X1974162Y1624299I1033J-1086D01*
X1974628Y1625385D02*
G03X1974628Y1626110I-344J362D01*
X1974304Y1626561D02*
G03X1974628Y1626110I1358J635D01*
X1974304Y1626561D02*
G03X1973993Y1626828I-452J-211D01*
X1973147Y1627331D02*
G03X1973993Y1626828I1414J1415D01*
X1973147Y1627331D02*
G01X1972680Y1627798D01*
Y1627798D02*
G03X1972007Y1627829I-353J-352D01*
X1969768Y1627020D02*
G03X1972007Y1627829J3500D01*
X1969768Y1627020D02*
G01X1963768D01*
X1961493Y1627860D02*
G03X1963768Y1627020I2275J2660D01*
X1961493Y1627860D02*
G03X1961345Y1627947I-324J-379D01*
Y1627947D02*
G03X1958218Y1628520I-3129J-8257D01*
Y1628520D02*
G01X1948919D01*
X1948135Y1628680D02*
G03X1948919Y1628520I784J1840D01*
X1948135Y1628680D02*
G03X1947939Y1628720I-195J-459D01*
Y1628720D02*
G01X1939418D01*
Y1628720D02*
G03X1936291Y1628148J-8831D01*
Y1628147D02*
G03X1936144Y1628059I177J-466D01*
X1933868Y1627220D02*
G03X1936143Y1628060J3500D01*
X1933868Y1627220D02*
G01X1927868D01*
Y1634220D02*
G03X1927868Y1627220J-3500D01*
Y1634220D02*
G01X1933868D01*
X1936143Y1633379D02*
G03X1933868Y1634220I-2275J-2658D01*
X1936143Y1633379D02*
G03X1936291Y1633291I325J380D01*
Y1633292D02*
G03X1936324Y1633280I3127J8259D01*
Y1633280D02*
G03X1936960Y1633942I175J468D01*
X1940388Y1636943D02*
G03X1936960Y1633942I-1217J-2069D01*
X1940388Y1636943D02*
G03X1940641Y1636874I253J431D01*
Y1636874D02*
G01X1959343D01*
Y1636874D02*
G01X1959344D01*
Y1636874D02*
G01X1974931Y1636880D01*
Y1636880D02*
G03X1975184Y1636949J500D01*
X1977488Y1632741D02*
G03X1975184Y1636949I-1086J2140D01*
X1977488Y1632741D02*
G03X1977715Y1631795I227J-446D01*
Y1631795D02*
G01X1980032D01*
X1981352Y1631008D02*
G03X1980032Y1631795I-1319J-712D01*
X1981352Y1631008D02*
G03X1981792Y1630746I440J238D01*
Y1630746D02*
G01X1981929D01*
X1983343Y1630160D02*
G03X1981929Y1630745I-1413J-1413D01*
X1983343Y1630160D02*
G01X1984521Y1628982D01*
Y1628982D02*
G03X1985374Y1629336I353J354D01*
Y1629336D02*
G01Y1632160D01*
X1986874Y1633660D02*
G03X1985374Y1632160I0J-1500D01*
X1986874Y1633660D02*
G01X1991874D01*
X1993374Y1632160D02*
G03X1991874Y1633660I-1500J0D01*
X1993374Y1632160D02*
G01Y1631355D01*
Y1631355D02*
G03X1994298Y1631090I500D01*
X1995570Y1631795D02*
G03X1994298Y1631090J-1499D01*
X1995570Y1631795D02*
G01X1999940D01*
X2001003Y1631353D02*
G03X1999940Y1631794I-1062J-1057D01*
X2001003Y1631353D02*
G03X2001712Y1631353I354J353D01*
X2002775Y1631795D02*
G03X2001712Y1631353J-1499D01*
X2002775Y1631795D02*
G01X2007145D01*
X2007668Y1631701D02*
G03X2007145Y1631795I-522J-1405D01*
X2007668Y1631701D02*
G03X2008342Y1632169I174J468D01*
Y1632169D02*
G01Y1637165D01*
X2009577Y1638641D02*
G03X2008342Y1637165I264J-1476D01*
X2009577Y1638641D02*
G03X2009577Y1639625I-88J492D01*
X2008342Y1641102D02*
G03X2009577Y1639625I1500J0D01*
X2008342Y1641102D02*
G01Y1647007D01*
X2009842Y1648507D02*
G03X2008342Y1647007I0J-1500D01*
X2009842Y1648507D02*
G01X2014773D01*
X1974491Y1611770D02*
G03X1973782Y1612292I-495J70D01*
X1973196Y1612102D02*
G03X1973782Y1612292I-439J2359D01*
X1973196Y1612102D02*
G03X1973287Y1611110I91J-492D01*
Y1611110D02*
G01X1973972D01*
Y1611110D02*
G03X1974471Y1611579I0J500D01*
X1974491Y1611770D02*
G03X1974472Y1611579I2475J-348D01*
X1972225Y1611110D02*
G03X1972317Y1612102I0J500D01*
X1970356Y1614489D02*
G03X1972317Y1612102I2400J-27D01*
X1970356Y1614489D02*
G03X1969856Y1614994I-499J5D01*
Y1614994D02*
G01X1969474D01*
Y1614994D02*
G03X1969121Y1614847J-499D01*
X1969120Y1614848D02*
G01X1968313Y1614041D01*
X1966545Y1613308D02*
G03X1968313Y1614041J2500D01*
X1966545Y1613308D02*
G01X1960307D01*
Y1613308D02*
G01X1955710D01*
Y1613308D02*
G03X1955676Y1613307J-499D01*
X1955505Y1613301D02*
G03X1955676Y1613307J2500D01*
X1955505Y1613301D02*
G01X1954506D01*
Y1613301D02*
G03X1954049Y1613005I-1J-500D01*
X1952679Y1612116D02*
G03X1954049Y1613005I0J1500D01*
X1952679Y1612116D02*
G01X1950715D01*
Y1612116D02*
G03X1950361Y1611263I0J-500D01*
Y1611263D02*
G01X1950763Y1610861D01*
Y1610861D02*
G03X1951116Y1610715I353J354D01*
Y1610715D02*
G01X1952679D01*
X1954179Y1609215D02*
G03X1952679Y1610715I-1500J0D01*
X1954179Y1609215D02*
G01Y1604968D01*
Y1604968D02*
G03X1954365Y1604579I500D01*
X1955118Y1603514D02*
G03X1954365Y1604579I-2262J-800D01*
X1955118Y1603514D02*
G03X1955672Y1603188I471J167D01*
X1957286Y1602890D02*
G03X1955672Y1603188I-1216J-2068D01*
X1957286Y1602890D02*
G03X1957539Y1602821I253J431D01*
Y1602821D02*
G01X1960687D01*
X1961195Y1602756D02*
G03X1960687Y1602821I-507J-1934D01*
X1961195Y1602756D02*
G03X1961322Y1602740I127J483D01*
Y1602739D02*
G01X1964307D01*
Y1602739D02*
G03X1964353Y1603737J500D01*
X1965788Y1608196D02*
G03X1964353Y1603737I-1216J-2069D01*
X1965788Y1608196D02*
G03X1966041Y1608127I253J431D01*
Y1608127D02*
G01X1967067D01*
Y1608127D02*
G03X1967560Y1608711I0J500D01*
X1971143Y1611179D02*
G03X1967560Y1608711I-1217J-2068D01*
X1971143Y1611179D02*
G03X1971396Y1611110I253J431D01*
Y1611110D02*
G01X1972225D01*
X1942085Y1599044D02*
G01Y1600433D01*
Y1600433D02*
G03X1941622Y1600931I-499J0D01*
X1940356Y1601512D02*
G03X1941622Y1600932I1414J1414D01*
X1940356Y1601512D02*
G01X1939014Y1602853D01*
Y1602853D02*
G03X1938661Y1602999I-352J-353D01*
Y1602999D02*
G01X1937587D01*
Y1602999D02*
G03X1937584Y1601999J-500D01*
X1938986Y1601414D02*
G03X1937584Y1601999I-1413J-1414D01*
X1938986Y1601414D02*
G01X1940583Y1599818D01*
X1941101Y1598916D02*
G03X1940583Y1599818I-1933J-510D01*
X1941101Y1598916D02*
G03X1942085Y1599044I484J128D01*
X1942139Y1609616D02*
G03X1942011Y1610103I-480J134D01*
Y1610103D02*
G01X1939261Y1612853D01*
Y1612853D02*
G03X1938908Y1612999I-352J-353D01*
Y1612999D02*
G01X1937282D01*
Y1612999D02*
G03X1936849Y1612249I0J-500D01*
X1936850Y1607750D02*
G03X1936849Y1612249I-3897J2249D01*
X1936850Y1607750D02*
G03X1937283Y1607000I433J-250D01*
Y1607000D02*
G01X1939696D01*
X1941111Y1606414D02*
G03X1939696Y1607000I-1414J-1414D01*
X1941111Y1606414D02*
G01X1941231Y1606293D01*
Y1606293D02*
G03X1942085Y1606647I354J354D01*
Y1606647D02*
G01Y1609215D01*
X1942139Y1609616D02*
G03X1942085Y1609215I1446J-400D01*
X1986867Y1624660D02*
G03X1986867Y1625660I-1J500D01*
X1986062Y1625899D02*
G03X1986867Y1625660I812J1261D01*
X1986062Y1625899D02*
G03X1985291Y1625479I-271J-420D01*
Y1625479D02*
G01Y1624842D01*
Y1624841*
Y1624841D02*
G03X1986061Y1624421I500J0D01*
X1986867Y1624660D02*
G03X1986061Y1624421I7J-1499D01*
X2033869Y1648507D02*
G03X2034155Y1649418I0J500D01*
X2033925Y1649614D02*
G03X2034155Y1649418I1083J1038D01*
X2033925Y1649614D02*
G03X2033201Y1649614I-362J-343D01*
X2032972Y1649418D02*
G03X2033201Y1649614I-857J1230D01*
X2032972Y1649418D02*
G03X2033258Y1648507I286J-411D01*
Y1648507D02*
G01X2033869D01*
X2026900Y1638641D02*
G03X2026900Y1639625I-88J492D01*
X2026489Y1639763D02*
G03X2026900Y1639626I676J1339D01*
X2026489Y1639763D02*
G03X2025763Y1639317I-226J-446D01*
Y1639317D02*
G01Y1638950D01*
Y1638950D02*
G03X2026489Y1638504I500D01*
X2026900Y1638641D02*
G03X2026489Y1638504I265J-1475D01*
X2000133Y1530733D02*
G03X2000486Y1531587I0J500D01*
Y1531587D02*
G01X1999614Y1532459D01*
Y1532459D02*
G03X1999261Y1532605I-352J-353D01*
Y1532605D02*
G01X1990694D01*
Y1532605D02*
G03X1990441Y1532536J-499D01*
X1986824Y1534631D02*
G03X1990441Y1532536I2401J-25D01*
X1986824Y1534631D02*
G03X1986324Y1535136I-499J5D01*
Y1535136D02*
G01X1973738D01*
Y1535136D02*
G03X1973463Y1534219I0J-500D01*
X1974402Y1531403D02*
G03X1973463Y1534219I-2258J812D01*
X1974402Y1531403D02*
G03X1974872Y1530733I471J-170D01*
Y1530733D02*
G01X2000133D01*
X2013231Y1562637D02*
G03X2012731Y1563208I-494J71D01*
X2011492Y1563539D02*
G03X2012731Y1563208I1216J2069D01*
X2011492Y1563539D02*
G03X2011239Y1563607I-252J-430D01*
Y1563608D02*
G01X2004516D01*
X2004506D02*
G03X2004516Y1563608I10J2000D01*
X2004506D02*
G01X2004504D01*
Y1563608D02*
G01X1998982D01*
Y1563608D02*
G03X1998542Y1563346I-1J-499D01*
X1998258Y1562974D02*
G03X1998542Y1563346I-1035J1085D01*
X1998258Y1562974D02*
G03X1998659Y1562116I346J-361D01*
X1998938Y1562131D02*
G03X1998659Y1562115J-2499D01*
X1998938Y1562131D02*
G01X2008366D01*
Y1562131D02*
G03X2008389Y1562132J500D01*
X2008500Y1562134D02*
G03X2008389Y1562132J-2499D01*
X2008500Y1562134D02*
G01X2012726D01*
Y1562134D02*
G03X2013223Y1562576I0J500D01*
X2013231Y1562637D02*
G03X2013223Y1562576I2375J-341D01*
X1981114Y1546212D02*
G03X1981594Y1546852J500D01*
X1981514Y1547410D02*
G03X1981593Y1546852I2000D01*
X1981514Y1547410D02*
G01Y1550777D01*
Y1550777D02*
G03X1980871Y1551256I-500J0D01*
X1978773Y1551568D02*
G03X1980871Y1551256I1382J2083D01*
X1978773Y1551568D02*
G03X1978497Y1551651I-275J-416D01*
Y1551651D02*
G01X1966025D01*
Y1551651D02*
G03X1965565Y1550957I0J-499D01*
X1965314Y1546962D02*
G03X1965565Y1550957I-3896J2250D01*
X1965314Y1546962D02*
G03X1965747Y1546212I433J-250D01*
Y1546212D02*
G01X1981114D01*
X1976557Y1555651D02*
G03X1977056Y1556191I0J500D01*
X1977050Y1556300D02*
G03X1977056Y1556191I2498J86D01*
X1977050Y1556300D02*
G03X1976672Y1556767I-498J-17D01*
X1976006Y1557134D02*
G03X1976672Y1556768I1032J1088D01*
X1976006Y1557134D02*
G03X1975662Y1557271I-343J-362D01*
Y1557271D02*
G01X1975495D01*
Y1557271D02*
G03X1975358Y1557252J-499D01*
X1974669Y1557155D02*
G03X1975358Y1557252J2500D01*
X1974669Y1557155D02*
G01X1973793D01*
Y1557155D02*
G03X1973449Y1557018J-499D01*
X1972734Y1556640D02*
G03X1973449Y1557018I-317J1466D01*
X1972734Y1556640D02*
G03X1972840Y1555651I106J-489D01*
Y1555651D02*
G01X1976557D01*
X1948412Y1542562D02*
G03X1948432Y1543288I-333J372D01*
Y1543288D02*
G01X1945702Y1546017D01*
X1945544Y1546196D02*
G03X1945702Y1546017I1572J1235D01*
X1945544Y1546196D02*
G03X1944777Y1546219I-393J-308D01*
X1941430Y1544712D02*
G03X1944777Y1546219I-13J4499D01*
X1941430Y1544712D02*
G03X1941417Y1544712I1J-499D01*
Y1544712D02*
G03X1941404Y1544712I-14J-499D01*
X1939088Y1545362D02*
G03X1941404Y1544712I2329J3850D01*
X1939088Y1545362D02*
G03X1938329Y1544934I-259J-428D01*
Y1544934D02*
G01Y1543491D01*
Y1543491D02*
G03X1939088Y1543063I500J0D01*
X1941404Y1543712D02*
G03X1939088Y1543062I13J-4499D01*
X1941404Y1543712D02*
G03X1941417Y1543712I-1J500D01*
Y1543712D02*
G03X1941430Y1543712I14J500D01*
X1945917Y1539225D02*
G03X1941430Y1543712I-4499J-12D01*
X1945917Y1539225D02*
G03X1945917Y1539212I500J2D01*
Y1539212D02*
G03X1945917Y1539199I500J-13D01*
X1945211Y1536792D02*
G03X1945917Y1539199I-3793J2420D01*
X1945211Y1536792D02*
G03X1945632Y1536023I422J-269D01*
Y1536023D02*
G01X1947201D01*
Y1536023D02*
G03X1947623Y1536792I0J500D01*
X1946917Y1539199D02*
G03X1947623Y1536792I4500J13D01*
X1946917Y1539199D02*
G03X1946917Y1539212I-499D01*
Y1539212D02*
G03X1946917Y1539225I-499J15D01*
X1948412Y1542562D02*
G03X1946917Y1539225I3005J-3349D01*
X1959353Y1583450D02*
G03X1959000Y1584303I-352J354D01*
Y1584303D02*
G01X1958630D01*
Y1584303D02*
G03X1958377Y1584234J-499D01*
X1954772Y1586069D02*
G03X1958377Y1584234I2388J234D01*
X1954772Y1586069D02*
G03X1953875Y1586321I-497J-48D01*
X1952679Y1585727D02*
G03X1953875Y1586321J1500D01*
X1952679Y1585727D02*
G01X1949581D01*
X1948494Y1586192D02*
G03X1949581Y1585726I1087J1035D01*
X1948494Y1586192D02*
G03X1947770Y1586192I-362J-343D01*
X1946683Y1585727D02*
G03X1947769Y1586193J1500D01*
X1946683Y1585727D02*
G01X1943585D01*
X1942765Y1585970D02*
G03X1943585Y1585726I820J1257D01*
X1942765Y1585970D02*
G03X1941992Y1585551I-273J-419D01*
Y1585551D02*
G01Y1584394D01*
Y1584394D02*
G03X1942765Y1583975I500J0D01*
X1943585Y1584219D02*
G03X1942765Y1583975J-1499D01*
X1943585Y1584219D02*
G01X1946683D01*
X1947770Y1583753D02*
G03X1946683Y1584219I-1086J-1033D01*
X1947770Y1583753D02*
G03X1948494Y1583753I362J344D01*
X1949581Y1584219D02*
G03X1948494Y1583753J-1499D01*
X1949581Y1584219D02*
G01X1952679D01*
X1954161Y1582955D02*
G03X1952679Y1584219I-1481J-235D01*
X1954161Y1582955D02*
G03X1954654Y1582534I493J79D01*
Y1582534D02*
G01X1958230D01*
Y1582534D02*
G03X1958584Y1582680J500D01*
Y1582680D02*
G01X1959353Y1583450D01*
X2009742Y1592412D02*
G03X2009882Y1593392J500D01*
X2008158Y1595748D02*
G03X2009882Y1593392I2400J-53D01*
X2008158Y1595748D02*
G03X2007658Y1596259I-499J11D01*
Y1596259D02*
G01X1964651D01*
Y1596259D02*
G03X1964409Y1596197J-499D01*
Y1596197D02*
G03X1964168Y1596259I-240J-437D01*
Y1596259D02*
G01X1958471D01*
Y1596259D02*
G03X1958128Y1595396I0J-500D01*
X1958170Y1595356D02*
G03X1958128Y1595396I-1414J-1414D01*
X1958170Y1595356D02*
G01X1958509Y1595016D01*
Y1595016D02*
G03X1958863Y1594869I354J353D01*
Y1594869D02*
G01X1962940D01*
Y1594869D02*
G03X1963193Y1594938J500D01*
X1964210Y1595261D02*
G03X1963193Y1594938I199J-2391D01*
X1964210Y1595261D02*
G03X1964409Y1595321I-41J498D01*
Y1595321D02*
G03X1964609Y1595260I242J438D01*
X1966809Y1592905D02*
G03X1964609Y1595261I-2399J-35D01*
X1966809Y1592905D02*
G03X1967309Y1592412I500J7D01*
Y1592412D02*
G01X2009742D01*
X2021346Y1627993D02*
G03X2021467Y1628789I-232J442D01*
Y1628789D02*
G01X2019489Y1630768D01*
Y1630768D02*
G03X2018682Y1630625I-354J-353D01*
X2017322Y1629759D02*
G03X2018682Y1630625I0J1500D01*
X2017322Y1629759D02*
G01X2009842D01*
X2009319Y1629853D02*
G03X2009842Y1629759I523J1406D01*
X2009319Y1629853D02*
G03X2008645Y1629385I-174J-468D01*
Y1629385D02*
G01Y1627196D01*
X2008179Y1626110D02*
G03X2008645Y1627196I-1033J1086D01*
X2008179Y1626110D02*
G03X2008179Y1625385I345J-362D01*
X2008465Y1625012D02*
G03X2008180Y1625386I-1319J-712D01*
X2008465Y1625012D02*
G03X2008905Y1624750I440J238D01*
Y1624750D02*
G01X2011856D01*
X2013270Y1624164D02*
G03X2011856Y1624750I-1414J-1413D01*
X2013270Y1624164D02*
G01X2013852Y1623581D01*
Y1623581D02*
G03X2014374Y1623464I353J354D01*
X2014651Y1623542D02*
G03X2014374Y1623464I427J-2045D01*
X2014651Y1623542D02*
G03X2015049Y1624030I-101J489D01*
Y1624030D02*
G01X2015050Y1624418D01*
Y1624419*
Y1624419D02*
G03X2014982Y1624671I-499D01*
X2019293Y1626745D02*
G03X2014982Y1624671I-2239J-863D01*
X2019294Y1626745D02*
G03X2020226Y1626743I466J180D01*
X2021346Y1627993D02*
G03X2020226Y1626743I1114J-2125D01*
X2027873Y1648507D02*
G03X2028158Y1649418I0J500D01*
X2027516Y1650648D02*
G03X2028158Y1649418I1500D01*
X2027516Y1650648D02*
G01Y1655018D01*
X2027550Y1655338D02*
G03X2027516Y1655018I1466J-319D01*
X2027550Y1655338D02*
G03X2027062Y1655944I-488J107D01*
Y1655944D02*
G01X2026965D01*
Y1655944D02*
G03X2026476Y1655338I-1J-500D01*
X2026511Y1655018D02*
G03X2026476Y1655338I-1499D01*
X2026511Y1655018D02*
G01Y1650648D01*
X2025011Y1649148D02*
G03X2026511Y1650648J1500D01*
X2025011Y1649148D02*
G01X2021912D01*
X2021319Y1649271D02*
G03X2021912Y1649149I593J1377D01*
X2021319Y1649271D02*
G03X2020671Y1648593I-198J-459D01*
X2020873Y1647718D02*
G03X2020671Y1648593I-1999D01*
X2020873Y1647718D02*
G01Y1642486D01*
Y1642486D02*
G03X2021851Y1642340I500J0D01*
X2022349Y1643169D02*
G03X2021851Y1642340I1414J-1413D01*
X2022349Y1643169D02*
G01X2024649Y1645469D01*
X2025345Y1645921D02*
G03X2024649Y1645469I718J-1865D01*
X2025345Y1645921D02*
G03X2025665Y1646388I-180J466D01*
Y1646388D02*
G01Y1647007D01*
X2027165Y1648507D02*
G03X2025665Y1647007I0J-1500D01*
X2027165Y1648507D02*
G01X2027873D01*
X2055943Y1622779D02*
G03X2055490Y1623490I-452J212D01*
Y1623490D02*
G01X2046648D01*
Y1623490D02*
G03X2046612Y1623489J-499D01*
X2046429Y1623482D02*
G03X2046612Y1623489J2500D01*
X2046429Y1623482D02*
G01X2032474D01*
Y1623482D02*
G03X2031984Y1623082I-1J-499D01*
X2031439Y1622068D02*
G03X2031984Y1623082I-1414J1414D01*
X2031439Y1622068D02*
G01X2031291Y1621920D01*
X2031134Y1621779D02*
G03X2031291Y1621920I-1257J1555D01*
X2031134Y1621779D02*
G03X2030949Y1621390I314J-388D01*
X2030948D02*
G01Y1619165D01*
Y1619165D02*
G03X2031448Y1618665I500D01*
Y1618665D02*
G01X2033779D01*
X2034327Y1618592D02*
G03X2033779Y1618665I-547J-2017D01*
X2034327Y1618592D02*
G03X2034458Y1618575I131J482D01*
Y1618574D02*
G01X2042872D01*
Y1618574D02*
G03X2043226Y1618720J500D01*
X2043225Y1618721D02*
G01X2045089Y1620585D01*
X2046503Y1621170D02*
G03X2045089Y1620585J-1999D01*
X2046503Y1621170D02*
G01X2052778D01*
Y1621170D02*
G03X2053031Y1621239J500D01*
X2055121Y1621406D02*
G03X2053031Y1621239I-873J-2235D01*
X2055121Y1621406D02*
G03X2055803Y1621872I182J466D01*
Y1621872D02*
G01Y1622145D01*
X2055943Y1622779D02*
G03X2055803Y1622145I1360J-633D01*
X2058346Y1566528D02*
G03X2058251Y1567519I-94J491D01*
Y1567519D02*
G01X2056192D01*
X2056014Y1567527D02*
G03X2056192Y1567519I178J1992D01*
X2056014Y1567527D02*
G03X2055969Y1567529I-44J-497D01*
Y1567529D02*
G01X2051725D01*
Y1567529D02*
G03X2051471Y1567460J-499D01*
X2050667Y1567165D02*
G03X2051471Y1567460I-411J2364D01*
X2050667Y1567165D02*
G03X2050255Y1566719I86J-492D01*
Y1566719D02*
G03X2049843Y1567165I-497J-46D01*
X2049039Y1567460D02*
G03X2049843Y1567165I1216J2069D01*
X2049039Y1567460D02*
G03X2048785Y1567529I-253J-430D01*
Y1567529D02*
G01X2041556D01*
Y1567529D02*
G03X2041067Y1566925I0J-500D01*
X2041111Y1566630D02*
G03X2041067Y1566925I-2391J-203D01*
X2041111Y1566630D02*
G03X2041609Y1566172I498J42D01*
Y1566172D02*
G01X2049757D01*
Y1566172D02*
G03X2050255Y1566625I0J500D01*
Y1566625D02*
G03X2050753Y1566172I498J47D01*
Y1566172D02*
G01X2057334D01*
Y1566172D02*
G03X2057587Y1566241J500D01*
X2058346Y1566528D02*
G03X2057587Y1566241I457J-2355D01*
X2065515Y1598374D02*
G03X2065545Y1599108I-323J381D01*
Y1599108D02*
G01X2065532Y1599121D01*
Y1599121D02*
G03X2065179Y1599267I-352J-353D01*
Y1599267D02*
G01X2063299D01*
X2062212Y1599733D02*
G03X2063299Y1599267I1087J1034D01*
X2062212Y1599733D02*
G03X2061488Y1599733I-362J-344D01*
X2060401Y1599267D02*
G03X2061488Y1599733J1500D01*
X2060401Y1599267D02*
G01X2057998D01*
Y1599267D02*
G03X2057526Y1598934I-1J-500D01*
X2057410Y1598660D02*
G03X2057526Y1598934I-2146J1073D01*
X2057410Y1598660D02*
G03X2057857Y1597937I448J-223D01*
Y1597937D02*
G01X2060401D01*
X2061488Y1597471D02*
G03X2060401Y1597937I-1086J-1033D01*
X2061488Y1597471D02*
G03X2062212Y1597471I362J344D01*
X2063299Y1597937D02*
G03X2062212Y1597471J-1499D01*
X2063299Y1597937D02*
G01X2064862D01*
Y1597937D02*
G03X2065215Y1598083J500D01*
Y1598083D02*
G01X2065399Y1598267D01*
X2065515Y1598374D02*
G03X2065399Y1598267I1298J-1521D01*
X2056418Y1575871D02*
G03X2056418Y1576596I-344J362D01*
X2056138Y1576959D02*
G03X2056418Y1576596I1314J723D01*
X2056138Y1576959D02*
G03X2055262Y1576959I-438J-241D01*
X2054982Y1576596D02*
G03X2055262Y1576959I-1033J1086D01*
X2054982Y1576596D02*
G03X2054982Y1575871I345J-363D01*
X2055262Y1575508D02*
G03X2054982Y1575871I-1313J-722D01*
X2055262Y1575508D02*
G03X2056138Y1575508I438J241D01*
X2056418Y1575871D02*
G03X2056138Y1575508I1034J-1085D01*
X2056811Y1589704D02*
G03X2056811Y1590649I-162J472D01*
X2055821Y1591830D02*
G03X2056811Y1590649I1482J237D01*
X2055821Y1591830D02*
G03X2055328Y1592251I-492J-78D01*
Y1592251D02*
G01X2042514D01*
Y1592251D02*
G03X2042264Y1592184J-499D01*
X2042154Y1592125D02*
G03X2042264Y1592185I-1090J2137D01*
X2042154Y1592125D02*
G03X2041948Y1591430I227J-445D01*
X2042148Y1590681D02*
G03X2041948Y1591429I-1499D01*
X2042148Y1590681D02*
G01Y1587582D01*
X2041682Y1586496D02*
G03X2042148Y1587582I-1033J1086D01*
X2041682Y1586496D02*
G03X2041682Y1585771I345J-363D01*
X2042148Y1584685D02*
G03X2041682Y1585771I-1499D01*
X2042148Y1584685D02*
G01Y1581586D01*
X2040648Y1580086D02*
G03X2042148Y1581586J1500D01*
X2040648Y1580086D02*
G01X2037052D01*
Y1580086D02*
G03X2036552Y1579586I0J-500D01*
Y1579586D02*
G01Y1573281D01*
Y1573281D02*
G03X2036621Y1573028I500D01*
X2036946Y1571992D02*
G03X2036622Y1573028I-2393J-180D01*
X2036946Y1571992D02*
G03X2037444Y1571529I498J37D01*
Y1571529D02*
G01X2047578D01*
Y1571529D02*
G03X2048078Y1572029J500D01*
Y1572029D02*
G01Y1574785D01*
X2048544Y1575871D02*
G03X2048078Y1574785I1033J-1086D01*
X2048544Y1575871D02*
G03X2048544Y1576596I-344J362D01*
X2048078Y1577682D02*
G03X2048544Y1576596I1500D01*
X2048078Y1577682D02*
G01Y1580781D01*
X2049578Y1582281D02*
G03X2048078Y1580781I0J-1500D01*
X2049578Y1582281D02*
G01X2052374D01*
Y1582281D02*
G03X2052872Y1582738I0J500D01*
X2053043Y1583444D02*
G03X2052872Y1582738I2220J-910D01*
X2053043Y1583444D02*
G03X2052580Y1584133I-462J189D01*
Y1584133D02*
G01X2051333D01*
Y1584133D02*
G03X2051079Y1584064J-499D01*
Y1588202D02*
G03X2051079Y1584064I-1215J-2069D01*
Y1588202D02*
G03X2051333Y1588133I254J431D01*
Y1588133D02*
G01X2055333D01*
Y1588133D02*
G03X2055825Y1588547I0J500D01*
X2056811Y1589704D02*
G03X2055825Y1588547I491J-1417D01*
X2055833Y1596735D02*
G03X2055329Y1597334I-490J100D01*
X2054047Y1597664D02*
G03X2055329Y1597334I1216J2069D01*
X2054047Y1597664D02*
G03X2053794Y1597732I-252J-430D01*
Y1597733D02*
G01X2038763D01*
X2037349Y1598319D02*
G03X2038763Y1597733I1414J1414D01*
X2037349Y1598319D02*
G01X2036988Y1598680D01*
Y1598680D02*
G03X2036635Y1598826I-352J-353D01*
Y1598826D02*
G01X2034458D01*
Y1598826D02*
G03X2034327Y1598809J-499D01*
X2033779Y1598736D02*
G03X2034327Y1598809J2090D01*
X2033779Y1598736D02*
G01X2031448D01*
Y1598736D02*
G03X2030948Y1598236I0J-500D01*
Y1598236D02*
G01Y1596850D01*
Y1596850D02*
G03X2031095Y1596496I500D01*
Y1596496D02*
G01X2034041Y1593551D01*
Y1593551D02*
G03X2034890Y1593840I353J353D01*
X2038501Y1595593D02*
G03X2034890Y1593840I-1231J-2060D01*
X2038501Y1595593D02*
G03X2039155Y1595718I257J429D01*
X2042295Y1596322D02*
G03X2039155Y1595718I-1232J-2059D01*
X2042295Y1596322D02*
G03X2042551Y1596251I256J429D01*
Y1596251D02*
G01X2055328D01*
Y1596251D02*
G03X2055821Y1596673I-1J500D01*
X2055833Y1596735D02*
G03X2055822Y1596673I1470J-297D01*
X2062848Y1606897D02*
G01Y1607512D01*
Y1607512D02*
G03X2062586Y1607951I-499J0D01*
X2062212Y1608237D02*
G03X2062586Y1607951I1087J1034D01*
X2062212Y1608237D02*
G03X2061488Y1608237I-362J-344D01*
X2060401Y1607771D02*
G03X2061488Y1608237J1500D01*
X2060401Y1607771D02*
G01X2057303D01*
X2055881Y1608793D02*
G03X2057303Y1607771I1422J478D01*
X2055881Y1608793D02*
G03X2055399Y1609134I-473J-158D01*
X2055371Y1609133D02*
G03X2055399Y1609133I-7J2400D01*
X2055371D02*
G03X2054874Y1608604I2J-499D01*
X2050438Y1607197D02*
G03X2054874Y1608604I2040J1263D01*
X2050438Y1607197D02*
G03X2049608Y1607226I-425J-263D01*
X2045634Y1607353D02*
G03X2049608Y1607227I2030J1280D01*
X2045634Y1607353D02*
G03X2044733Y1607232I-423J-266D01*
X2042737Y1605552D02*
G03X2044733Y1607232I-299J2381D01*
X2042737Y1605552D02*
G03X2042500Y1604656I63J-496D01*
X2043427Y1602320D02*
G03X2042500Y1604656I-2363J414D01*
X2043427Y1602320D02*
G03X2043920Y1601733I493J-86D01*
Y1601733D02*
G01X2053794D01*
Y1601733D02*
G03X2054047Y1601802J500D01*
X2054660Y1602056D02*
G03X2054047Y1601802I603J-2322D01*
X2054660Y1602056D02*
G03X2054888Y1602187I-126J483D01*
Y1602187D02*
G01X2055656Y1602955D01*
Y1602955D02*
G03X2055803Y1603308I-352J353D01*
Y1603308D02*
G01Y1605137D01*
X2057303Y1606637D02*
G03X2055803Y1605137I0J-1500D01*
X2057303Y1606637D02*
G01X2060401D01*
X2061488Y1606171D02*
G03X2060401Y1606637I-1086J-1033D01*
X2061488Y1606171D02*
G03X2062212Y1606171I362J345D01*
X2062586Y1606457D02*
G03X2062212Y1606171I713J-1319D01*
X2062586Y1606457D02*
G03X2062848Y1606897I-237J439D01*
X2069104Y1565215D02*
G03X2068750Y1566068I-353J353D01*
Y1566068D02*
G01X2066094D01*
X2064599Y1567444D02*
G03X2066094Y1566068I1495J124D01*
X2064599Y1567444D02*
G03X2063759Y1567768I-498J-40D01*
X2060902Y1567450D02*
G03X2063759Y1567768I1216J2069D01*
X2060902Y1567450D02*
G03X2060649Y1567518I-252J-430D01*
Y1567519D02*
G01X2059355D01*
Y1567519D02*
G03X2059260Y1566528I0J-500D01*
X2057587Y1562103D02*
G03X2059260Y1566528I1216J2069D01*
X2057587Y1562103D02*
G03X2057334Y1562171I-252J-430D01*
Y1562172D02*
G01X2053745D01*
Y1562172D02*
G03X2053246Y1561695I0J-499D01*
X2053029Y1560798D02*
G03X2053246Y1561695I-2180J1003D01*
X2053029Y1560798D02*
G03X2053483Y1560089I455J-209D01*
Y1560089D02*
G01X2055119D01*
X2056527Y1559655D02*
G03X2055119Y1560089I-1407J-2065D01*
X2056527Y1559655D02*
G03X2056809Y1559568I282J413D01*
Y1559568D02*
G01X2064094D01*
Y1559568D02*
G03X2064594Y1560068J500D01*
X2066094Y1561568D02*
G03X2064594Y1560068I0J-1500D01*
X2066094Y1561568D02*
G01X2066121D01*
Y1561568D02*
G03X2066616Y1562002I0J500D01*
X2067326Y1563437D02*
G03X2066617Y1562002I1768J-1767D01*
X2067326Y1563437D02*
G01X2069104Y1565215D01*
X2079763Y1541099D02*
G03X2079544Y1541968I-324J380D01*
X2078398Y1543115D02*
G03X2079544Y1541968I1465J318D01*
X2078398Y1543115D02*
G03X2077529Y1543333I-488J-106D01*
X2076427Y1542434D02*
G03X2077529Y1543333I-1937J3499D01*
X2076427Y1542434D02*
G03X2076427Y1541559I242J-438D01*
X2077989Y1539997D02*
G03X2076427Y1541559I-3499J-1937D01*
X2077989Y1539997D02*
G03X2078864Y1539997I437J242D01*
X2079763Y1541099D02*
G03X2078864Y1539997I2600J-3039D01*
X2083712Y1560129D02*
G03X2083534Y1561085I-203J457D01*
X2081896Y1561814D02*
G03X2083534Y1561086I1767J1768D01*
X2081895Y1561814D02*
G01X2081337Y1562373D01*
Y1562373D02*
G03X2080541Y1562252I-354J-353D01*
X2079560Y1561180D02*
G03X2080541Y1562252I-1548J2402D01*
X2079560Y1561180D02*
G03X2079831Y1560259I271J-421D01*
Y1560259D02*
G01X2081425D01*
X2082511Y1559793D02*
G03X2081425Y1560258I-1085J-1033D01*
X2082511Y1559793D02*
G03X2083236Y1559793I362J345D01*
X2083712Y1560129D02*
G03X2083236Y1559793I610J-1369D01*
X2079763Y1566698D02*
G01Y1567946D01*
Y1567946D02*
G03X2079077Y1568410I-500J0D01*
X2078011Y1568204D02*
G03X2079077Y1568410J2858D01*
X2078011Y1568204D02*
G01X2076830D01*
X2074501Y1569405D02*
G03X2076830Y1568204I2329J1657D01*
X2074501Y1569405D02*
G03X2073594Y1569115I-407J-289D01*
Y1569115D02*
G01Y1567568D01*
X2073399Y1566829D02*
G03X2073594Y1567568I-1304J739D01*
X2073399Y1566829D02*
G03X2073834Y1566082I435J-247D01*
Y1566082D02*
G01X2075321D01*
Y1566082D02*
G03X2075546Y1566136J500D01*
X2076830Y1566440D02*
G03X2075546Y1566135J-2857D01*
X2076830Y1566440D02*
G01X2078011D01*
X2079077Y1566234D02*
G03X2078011Y1566440I-1065J-2651D01*
X2079077Y1566234D02*
G03X2079763Y1566698I186J464D01*
X2083224Y1628859D02*
G03X2083224Y1629607I-331J374D01*
X2082719Y1630722D02*
G03X2083224Y1629607I1500J7D01*
X2082719Y1630722D02*
G03X2082269Y1631217I-499J-2D01*
Y1631217D02*
G03X2082019Y1631229I-249J-2509D01*
Y1631229D02*
G01X2077965D01*
X2076551Y1631815D02*
G03X2077965Y1631229I1414J1414D01*
X2076551Y1631815D02*
G01X2075671Y1632696D01*
Y1632696D02*
G03X2075317Y1632842I-353J-353D01*
Y1632842D02*
G01X2074886D01*
Y1632842D02*
G03X2074484Y1632045I0J-500D01*
X2075212Y1628205D02*
G03X2074484Y1632045I-4345J1165D01*
X2075212Y1628205D02*
G03X2075342Y1627722I483J-129D01*
Y1627722D02*
G01X2075684Y1627380D01*
Y1627380D02*
G03X2076037Y1627234I353J353D01*
Y1627233D02*
G01X2081823D01*
Y1627233D02*
G03X2081851Y1627234J500D01*
X2081963Y1627237D02*
G03X2081851Y1627234J-1999D01*
X2081963Y1627237D02*
G01X2082019D01*
Y1627237D02*
G03X2082269Y1627249J2523D01*
Y1627250D02*
G03X2082719Y1627745I-49J497D01*
X2083224Y1628859D02*
G03X2082719Y1627745I994J-1122D01*
X2082794Y1636196D02*
G03X2082605Y1636762I-474J156D01*
X2081964Y1637984D02*
G03X2082605Y1636762I1500J8D01*
X2081964Y1637984D02*
G03X2081514Y1638479I-499J-1D01*
Y1638479D02*
G03X2081264Y1638491I-249J-2509D01*
Y1638492D02*
G01X2081005D01*
X2079591Y1639077D02*
G03X2081005Y1638492I1414J1415D01*
X2079591Y1639077D02*
G01X2077749Y1640919D01*
X2077163Y1642333D02*
G03X2077749Y1640919I2000D01*
X2077163Y1642333D02*
G01Y1645198D01*
Y1645198D02*
G03X2077017Y1645551I-499D01*
Y1645551D02*
G01X2076189Y1646379D01*
Y1646379D02*
G03X2075343Y1646111I-353J-353D01*
X2073866Y1644870D02*
G03X2075343Y1646111I0J1500D01*
X2073866Y1644870D02*
G01X2067866D01*
X2066366Y1646370D02*
G03X2067866Y1644870I1500D01*
X2066366Y1646370D02*
G01Y1651233D01*
Y1651233D02*
G03X2065866Y1651733I-500J0D01*
Y1651733D02*
G01X2055092D01*
Y1651733D02*
G03X2054601Y1651136I-1J-500D01*
X2054629Y1650846D02*
G03X2054601Y1651136I-1499D01*
X2054629Y1650846D02*
G01Y1646476D01*
X2053129Y1644976D02*
G03X2054629Y1646476J1500D01*
X2053129Y1644976D02*
G01X2051380D01*
Y1644976D02*
G03X2050903Y1644325I-1J-500D01*
X2047399Y1641530D02*
G03X2050903Y1644325I1216J2069D01*
X2047399Y1641530D02*
G03X2047146Y1641598I-252J-430D01*
Y1641599D02*
G01X2046523D01*
X2045109Y1642185D02*
G03X2046523Y1641599I1414J1414D01*
X2045109Y1642185D02*
G01X2044170Y1643124D01*
X2043584Y1644538D02*
G03X2044170Y1643124I2000D01*
X2043584Y1644538D02*
G01Y1644716D01*
Y1644716D02*
G03X2043322Y1645156I-499J1D01*
X2042535Y1646476D02*
G03X2043322Y1645156I1500J0D01*
X2042535Y1646476D02*
G01Y1650846D01*
X2044035Y1652346D02*
G03X2042535Y1650846I0J-1500D01*
X2044035Y1652346D02*
G01X2047133D01*
X2048220Y1651880D02*
G03X2047133Y1652346I-1086J-1033D01*
X2048220Y1651880D02*
G03X2048944Y1651880I362J345D01*
X2049318Y1652166D02*
G03X2048944Y1651880I713J-1319D01*
X2049318Y1652166D02*
G03X2049580Y1652606I-237J439D01*
Y1652606D02*
G01Y1652650D01*
X2050166Y1654065D02*
G03X2049580Y1652650I1414J-1414D01*
X2050166Y1654065D02*
G01X2051187Y1655086D01*
Y1655086D02*
G03X2050834Y1655939I-352J354D01*
Y1655939D02*
G01X2040066D01*
Y1655939D02*
G03X2039577Y1655334I-1J-500D01*
X2039611Y1655018D02*
G03X2039577Y1655334I-1499D01*
X2039611Y1655018D02*
G01Y1650648D01*
X2038824Y1649329D02*
G03X2039611Y1650648I-712J1319D01*
X2038824Y1649329D02*
G03X2038561Y1648889I236J-440D01*
Y1648889D02*
G01Y1645653D01*
X2037976Y1644238D02*
G03X2038561Y1645653I-1415J1413D01*
X2037976Y1644238D02*
G01X2036378Y1642640D01*
X2036309Y1642575D02*
G03X2036378Y1642640I-1345J1480D01*
X2036309Y1642575D02*
G03X2036146Y1642205I336J-369D01*
X2036145D02*
G01Y1641102D01*
X2034910Y1639625D02*
G03X2036145Y1641102I-265J1476D01*
X2034910Y1639625D02*
G03X2034910Y1638641I89J-492D01*
X2036145Y1637165D02*
G03X2034910Y1638641I-1499J0D01*
X2036145Y1637165D02*
G01Y1631259D01*
X2034645Y1629759D02*
G03X2036145Y1631259J1500D01*
X2034645Y1629759D02*
G01X2029389D01*
Y1629759D02*
G03X2028889Y1629259I0J-500D01*
Y1629259D02*
G01Y1628914D01*
Y1628914D02*
G03X2029495Y1628426I500J0D01*
X2030024Y1628482D02*
G03X2029495Y1628425J-2499D01*
X2030024Y1628482D02*
G01X2042875D01*
Y1628482D02*
G03X2043356Y1629120I0J500D01*
X2043464Y1630741D02*
G03X2043356Y1629120I2199J-961D01*
X2043464Y1630741D02*
G03X2043264Y1631371I-457J202D01*
X2042535Y1632657D02*
G03X2043264Y1631370I1500D01*
X2042535Y1632657D02*
G01Y1637027D01*
X2044035Y1638527D02*
G03X2042535Y1637027I0J-1500D01*
X2044035Y1638527D02*
G01X2047133D01*
X2048220Y1638061D02*
G03X2047133Y1638527I-1086J-1033D01*
X2048220Y1638061D02*
G03X2048944Y1638061I362J345D01*
X2050031Y1638527D02*
G03X2048944Y1638061J-1499D01*
X2050031Y1638527D02*
G01X2053129D01*
X2054611Y1637263D02*
G03X2053129Y1638527I-1481J-235D01*
X2054611Y1637263D02*
G03X2055104Y1636842I493J79D01*
Y1636842D02*
G01X2066380D01*
Y1636842D02*
G03X2066820Y1637581I0J500D01*
X2070116Y1643120D02*
G03X2066820Y1637581I-1J-3750D01*
X2070116Y1643120D02*
G01X2071616D01*
X2074911Y1637581D02*
G03X2071616Y1643120I-3294J1790D01*
X2074911Y1637581D02*
G03X2075351Y1636842I440J-238D01*
Y1636842D02*
G01X2076353D01*
X2077767Y1636256D02*
G03X2076353Y1636841I-1413J-1413D01*
X2077767Y1636256D02*
G01X2078647Y1635376D01*
Y1635376D02*
G03X2079001Y1635229I354J353D01*
Y1635229D02*
G01X2082019D01*
Y1635229D02*
G03X2082269Y1635241J2523D01*
Y1635242D02*
G03X2082719Y1635737I-49J497D01*
X2082794Y1636196D02*
G03X2082720Y1635737I1425J-466D01*
X1933968Y1644420D02*
G03X1933968Y1651420J3500D01*
Y1644420D02*
G01X1927968D01*
Y1651420D02*
G03X1927968Y1644420J-3500D01*
Y1651420D02*
G01X1933968D01*
X1913222Y1542913D02*
G03X1913222Y1542913I-7710D01*
X2085193Y1535232D02*
G01X2092802D01*
X2083815Y1534332D02*
G01X2092223D01*
X2085868Y1536132D02*
G01X2090816D01*
X2064824Y1533432D02*
G01X2090380D01*
X2086229Y1537032D02*
G01X2089500D01*
X2086361Y1537932D02*
G01X2088601D01*
X2063916Y1532532D02*
G01X2088141D01*
X2086288Y1538832D02*
G01X2087945D01*
X2085997Y1539732D02*
G01X2087463D01*
X2085426Y1540632D02*
G01X2087121D01*
X2084791Y1541532D02*
G01X2086901D01*
X2085983Y1542432D02*
G01X2086658D01*
X2063016Y1531632D02*
G01X2085151D01*
X2075941Y1534332D02*
G01X2080912D01*
X2077319Y1535232D02*
G01X2079534D01*
X2077995Y1536132D02*
G01X2078858D01*
X2068067Y1534332D02*
G01X2073038D01*
X2069445Y1535232D02*
G01X2071660D01*
X2070121Y1536132D02*
G01X2070984D01*
X2054304Y1665137D02*
G01X2108636D01*
X2097373Y1664237D02*
G01X2108636D01*
X2099003Y1663337D02*
G01X2108636D01*
X2100040Y1662437D02*
G01X2108636D01*
X2100784Y1661537D02*
G01X2108636D01*
X2101332Y1660637D02*
G01X2108636D01*
X2101728Y1659737D02*
G01X2108636D01*
X2101997Y1658837D02*
G01X2108636D01*
X2102151Y1657937D02*
G01X2108636D01*
X2102198Y1657037D02*
G01X2108636D01*
X2102140Y1656137D02*
G01X2108636D01*
X2101973Y1655237D02*
G01X2108636D01*
X2101692Y1654337D02*
G01X2108636D01*
X2101280Y1653437D02*
G01X2108636D01*
X2100713Y1652537D02*
G01X2108636D01*
X2099943Y1651637D02*
G01X2108636D01*
X2098863Y1650737D02*
G01X2108636D01*
X2105822Y1649837D02*
G01X2108636D01*
X2106918Y1648937D02*
G01X2108636D01*
X2107031Y1648037D02*
G01X2108636D01*
X2107031Y1647137D02*
G01X2108636D01*
X2107031Y1646237D02*
G01X2108636D01*
X2107031Y1645337D02*
G01X2108636D01*
X2106780Y1644437D02*
G01X2108636D01*
X2106496Y1643537D02*
G01X2108636D01*
X2107007Y1642637D02*
G01X2108636D01*
X2107031Y1641737D02*
G01X2108636D01*
X2107031Y1640837D02*
G01X2108636D01*
X2107031Y1639937D02*
G01X2108636D01*
X2107013Y1639037D02*
G01X2108636D01*
X2106513Y1638137D02*
G01X2108636D01*
X2105966Y1637237D02*
G01X2108636D01*
X2106922Y1636337D02*
G01X2108636D01*
X2107110Y1635437D02*
G01X2108636D01*
X2107110Y1634537D02*
G01X2108636D01*
X2107110Y1633637D02*
G01X2108636D01*
X2107110Y1632737D02*
G01X2108636D01*
X2106950Y1631837D02*
G01X2108636D01*
X2106504Y1630937D02*
G01X2108636D01*
X2107049Y1630037D02*
G01X2108636D01*
X2107110Y1629137D02*
G01X2108636D01*
X2107110Y1628237D02*
G01X2108636D01*
X2107110Y1627337D02*
G01X2108636D01*
X2107108Y1626437D02*
G01X2108636D01*
X2106747Y1625537D02*
G01X2108636D01*
X2090719Y1624637D02*
G01X2108636D01*
X2090719Y1623737D02*
G01X2108636D01*
X2095249Y1611137D02*
G01X2108636D01*
X2096174Y1610237D02*
G01X2108636D01*
X2096560Y1609337D02*
G01X2108636D01*
X2096631Y1608437D02*
G01X2108636D01*
X2096413Y1607537D02*
G01X2108636D01*
X2095817Y1606637D02*
G01X2108636D01*
X2091436Y1605737D02*
G01X2108636D01*
X2091064Y1604837D02*
G01X2108636D01*
X2091373Y1603937D02*
G01X2108636D01*
X2091498Y1603037D02*
G01X2108636D01*
X2091284Y1602137D02*
G01X2108636D01*
X2091171Y1601237D02*
G01X2108636D01*
X2091478Y1600337D02*
G01X2108636D01*
X2091436Y1599437D02*
G01X2108636D01*
X2098296Y1598537D02*
G01X2108636D01*
X2099005Y1597637D02*
G01X2108636D01*
X2099218Y1596737D02*
G01X2108636D01*
X2099079Y1595837D02*
G01X2108636D01*
X2098505Y1594937D02*
G01X2108636D01*
X2095558Y1594037D02*
G01X2108636D01*
X2096014Y1593137D02*
G01X2108636D01*
X2096497Y1592237D02*
G01X2108636D01*
X2096640Y1591337D02*
G01X2108636D01*
X2096496Y1590437D02*
G01X2108636D01*
X2096013Y1589537D02*
G01X2108636D01*
X2094795Y1588637D02*
G01X2108636D01*
X2089489Y1576037D02*
G01X2108636D01*
X2089563Y1575137D02*
G01X2108636D01*
X2100484Y1574237D02*
G01X2108636D01*
X2100641Y1573337D02*
G01X2108636D01*
X2100641Y1572437D02*
G01X2108636D01*
X2100641Y1571537D02*
G01X2108636D01*
X2100641Y1570637D02*
G01X2108636D01*
X2100641Y1569737D02*
G01X2108636D01*
X2100641Y1568837D02*
G01X2108636D01*
X2100641Y1567937D02*
G01X2108636D01*
X2100544Y1567037D02*
G01X2108636D01*
X2099590Y1566137D02*
G01X2108636D01*
X2096396Y1565237D02*
G01X2108636D01*
X2097295Y1564337D02*
G01X2108636D01*
X2098155Y1563437D02*
G01X2108636D01*
X2098573Y1562537D02*
G01X2108636D01*
X2098886Y1561637D02*
G01X2108636D01*
X2053849Y1666037D02*
G01X2108634D01*
X2100484Y1560737D02*
G01X2108623D01*
X2100641Y1559837D02*
G01X2108585D01*
X2100641Y1558937D02*
G01X2108519D01*
X2017604Y1666937D02*
G01X2108484D01*
X2089543Y1576937D02*
G01X2108443D01*
X2100641Y1558037D02*
G01X2108428D01*
X2067897Y1612037D02*
G01X2108343D01*
X2100641Y1557137D02*
G01X2108310D01*
X2100641Y1556237D02*
G01X2108164D01*
X2017688Y1667837D02*
G01X2108044D01*
X2100641Y1555337D02*
G01X2107991D01*
X2100641Y1554437D02*
G01X2107790D01*
X2100544Y1553537D02*
G01X2107561D01*
X2099590Y1552637D02*
G01X2107302D01*
X2017521Y1668737D02*
G01X2107112D01*
X2071515Y1551737D02*
G01X2107014D01*
X2072414Y1550837D02*
G01X2106694D01*
X2097670Y1549937D02*
G01X2106343D01*
X2099174Y1549037D02*
G01X2105959D01*
X2100160Y1548137D02*
G01X2105540D01*
X2100872Y1547237D02*
G01X2105085D01*
X2101397Y1546337D02*
G01X2104592D01*
X2101774Y1545437D02*
G01X2104060D01*
X2102026Y1544537D02*
G01X2103484D01*
X2097116Y1649837D02*
G01X2100870D01*
X2097759Y1637237D02*
G01X2100860D01*
X2089964Y1638137D02*
G01X2100179D01*
X2099626Y1625537D02*
G01X2100056D01*
X2095344Y1648937D02*
G01X2099774D01*
X2089964Y1639037D02*
G01X2099679D01*
X2089964Y1639937D02*
G01X2099661D01*
X2090763Y1622837D02*
G01X2099650D01*
X2090713Y1587737D02*
G01X2099524D01*
X2098929Y1640837D02*
G01X2099393D01*
X2091324Y1577837D02*
G01X2098912D01*
X2091355Y1612937D02*
G01X2098881D01*
X2091421Y1621937D02*
G01X2098815D01*
X2091441Y1586837D02*
G01X2098796D01*
X2091501Y1621037D02*
G01X2098736D01*
X2091501Y1620137D02*
G01X2098736D01*
X2091501Y1619237D02*
G01X2098736D01*
X2091501Y1618337D02*
G01X2098736D01*
X2091501Y1617437D02*
G01X2098736D01*
X2091501Y1616537D02*
G01X2098736D01*
X2091501Y1615637D02*
G01X2098736D01*
X2091501Y1614737D02*
G01X2098736D01*
X2091501Y1613837D02*
G01X2098736D01*
X2091501Y1585937D02*
G01X2098736D01*
X2091501Y1585037D02*
G01X2098736D01*
X2091501Y1584137D02*
G01X2098736D01*
X2091501Y1583237D02*
G01X2098736D01*
X2091501Y1582337D02*
G01X2098736D01*
X2091501Y1581437D02*
G01X2098736D01*
X2091501Y1580537D02*
G01X2098736D01*
X2091501Y1579637D02*
G01X2098736D01*
X2091501Y1578737D02*
G01X2098736D01*
X2089882Y1637237D02*
G01X2097306D01*
X2090591Y1636337D02*
G01X2095603D01*
X2090719Y1633637D02*
G01X2095199D01*
X2090719Y1635437D02*
G01X2095129D01*
X2090719Y1634537D02*
G01X2095041D01*
X2089964Y1648937D02*
G01X2093630D01*
X2091064Y1598537D02*
G01X2093563D01*
X2090719Y1625537D02*
G01X2092802D01*
X2072543Y1552637D02*
G01X2092692D01*
X2067856Y1588637D02*
G01X2092684D01*
X2090719Y1632737D02*
G01X2092593D01*
X2091374Y1597637D02*
G01X2092376D01*
X2090719Y1626437D02*
G01X2092237D01*
X2067897Y1611137D02*
G01X2092230D01*
X2090719Y1631837D02*
G01X2092211D01*
X2090719Y1630937D02*
G01X2092207D01*
X2090550Y1630037D02*
G01X2092207D01*
X2090056Y1629137D02*
G01X2092207D01*
X2090633Y1628237D02*
G01X2092207D01*
X2090719Y1627337D02*
G01X2092207D01*
X2089964Y1640837D02*
G01X2091990D01*
X2089964Y1648037D02*
G01X2091880D01*
X2089964Y1649837D02*
G01X2091859D01*
X2089563Y1574237D02*
G01X2091799D01*
X2088655Y1553537D02*
G01X2091738D01*
X2090658Y1567037D02*
G01X2091738D01*
X2089371Y1560737D02*
G01X2091684D01*
X2089614Y1573337D02*
G01X2091641D01*
X2090321Y1572437D02*
G01X2091641D01*
X2090633Y1571537D02*
G01X2091641D01*
X2090347Y1569737D02*
G01X2091641D01*
X2090238Y1568837D02*
G01X2091641D01*
X2090606Y1567937D02*
G01X2091641D01*
X2088464Y1559837D02*
G01X2091641D01*
X2088910Y1558937D02*
G01X2091641D01*
X2088921Y1558037D02*
G01X2091641D01*
X2088921Y1557137D02*
G01X2091641D01*
X2088921Y1556237D02*
G01X2091641D01*
X2088921Y1555337D02*
G01X2091641D01*
X2088921Y1554437D02*
G01X2091641D01*
X2090641Y1570637D02*
G01X2091640D01*
X2090862Y1566137D02*
G01X2091629D01*
X2054365Y1664237D02*
G01X2091601D01*
X2089964Y1641737D02*
G01X2091473D01*
X2067226Y1589537D02*
G01X2091467D01*
X2089964Y1647137D02*
G01X2091460D01*
X2089964Y1646237D02*
G01X2091452D01*
X2089818Y1645337D02*
G01X2091452D01*
X2089294Y1644437D02*
G01X2091452D01*
X2089861Y1643537D02*
G01X2091452D01*
X2089964Y1642637D02*
G01X2091452D01*
X2067897Y1610237D02*
G01X2091305D01*
X2074205Y1549937D02*
G01X2091305D01*
X2066625Y1590437D02*
G01X2090983D01*
X2067897Y1609337D02*
G01X2090920D01*
X2054066Y1663337D02*
G01X2089972D01*
X2086236Y1549037D02*
G01X2089801D01*
X2053160Y1662437D02*
G01X2088935D01*
X2086363Y1548137D02*
G01X2088815D01*
X2044837Y1661537D02*
G01X2088190D01*
X2086363Y1547237D02*
G01X2088102D01*
X2064029Y1660637D02*
G01X2087642D01*
X2086363Y1546337D02*
G01X2087578D01*
X2064974Y1659737D02*
G01X2087246D01*
X2085683Y1655237D02*
G01X2087001D01*
X2065305Y1658837D02*
G01X2086978D01*
X2064380Y1656137D02*
G01X2086835D01*
X2065286Y1657937D02*
G01X2086823D01*
X2064907Y1657037D02*
G01X2086776D01*
X2062741Y1576037D02*
G01X2084637D01*
X2063124Y1576937D02*
G01X2084583D01*
X2063280Y1575137D02*
G01X2084563D01*
X2073437Y1574237D02*
G01X2084563D01*
X2079742Y1573337D02*
G01X2082637D01*
X2080517Y1572437D02*
G01X2081513D01*
X2077013Y1549037D02*
G01X2078490D01*
X2073497Y1553537D02*
G01X2077092D01*
X2067644Y1608437D02*
G01X2076724D01*
X2067708Y1591337D02*
G01X2076424D01*
X2067897Y1587737D02*
G01X2076296D01*
X2073545Y1622837D02*
G01X2075958D01*
X2067897Y1604837D02*
G01X2075946D01*
X2066849Y1607537D02*
G01X2075838D01*
X2063322Y1577837D02*
G01X2075685D01*
X2067897Y1612937D02*
G01X2075654D01*
X2067897Y1603937D02*
G01X2075636D01*
X2067897Y1592237D02*
G01X2075588D01*
X2073795Y1621937D02*
G01X2075588D01*
X2067772Y1605737D02*
G01X2075573D01*
X2067897Y1586837D02*
G01X2075569D01*
X2066921Y1606637D02*
G01X2075531D01*
X2067897Y1603037D02*
G01X2075511D01*
X2073724Y1621037D02*
G01X2075508D01*
X2073275Y1620137D02*
G01X2075508D01*
X2072401Y1619237D02*
G01X2075508D01*
X2071501Y1618337D02*
G01X2075508D01*
X2068074Y1617437D02*
G01X2075508D01*
X2067244Y1616537D02*
G01X2075508D01*
X2060852Y1615637D02*
G01X2075508D01*
X2067421Y1614737D02*
G01X2075508D01*
X2067884Y1613837D02*
G01X2075508D01*
X2067897Y1594037D02*
G01X2075508D01*
X2067897Y1593137D02*
G01X2075508D01*
X2067897Y1585937D02*
G01X2075508D01*
X2067897Y1585037D02*
G01X2075508D01*
X2067897Y1584137D02*
G01X2075508D01*
X2067734Y1583237D02*
G01X2075508D01*
X2067171Y1582337D02*
G01X2075508D01*
X2067361Y1581437D02*
G01X2075508D01*
X2067227Y1580537D02*
G01X2075508D01*
X2066661Y1579637D02*
G01X2075508D01*
X2063327Y1578737D02*
G01X2075508D01*
X2068173Y1602137D02*
G01X2075190D01*
X2073594Y1573337D02*
G01X2075099D01*
X2063322Y1574237D02*
G01X2064751D01*
X2063322Y1573337D02*
G01X2064594D01*
X2063322Y1572437D02*
G01X2064594D01*
X2063446Y1571537D02*
G01X2064583D01*
X2061248Y1616537D02*
G01X2062452D01*
X2061425Y1614737D02*
G01X2062274D01*
X2045014Y1662437D02*
G01X2050805D01*
X2000973Y1626109D02*
G01X2001742D01*
X1991535Y1625519D02*
G01X1994636D01*
X1993178Y1626419D02*
G01X1994288D01*
X1992224Y1624619D02*
G01X1994105D01*
X2006440Y1648632D02*
G01X2015103D01*
X2006290Y1649532D02*
G01X2014914D01*
X2008114Y1655832D02*
G01X2014502D01*
X2006108Y1650432D02*
G01X2014432D01*
X2008114Y1654932D02*
G01X2014416D01*
X2008114Y1654032D02*
G01X2014416D01*
X2008114Y1653132D02*
G01X2014416D01*
X2008114Y1652232D02*
G01X2014416D01*
X2007887Y1651332D02*
G01X2014416D01*
X2008114Y1656732D02*
G01X2013362D01*
X2008026Y1657632D02*
G01X2012819D01*
X2007449Y1658532D02*
G01X2012685D01*
X2009808Y1659432D02*
G01X2012607D01*
X2006011Y1638732D02*
G01X2009787D01*
X2006433Y1639632D02*
G01X2009542D01*
X2006440Y1647732D02*
G01X2008529D01*
X1891363Y1637832D02*
G01X2008499D01*
X2006440Y1640532D02*
G01X2008454D01*
X2006440Y1646832D02*
G01X2008342D01*
X2006440Y1645932D02*
G01X2008342D01*
X2006241Y1645032D02*
G01X2008342D01*
X2005860Y1644132D02*
G01X2008342D01*
X2006399Y1643232D02*
G01X2008342D01*
X2006440Y1642332D02*
G01X2008342D01*
X2006440Y1641432D02*
G01X2008342D01*
X1977647Y1636932D02*
G01X2008342D01*
X1978507Y1636032D02*
G01X2008342D01*
X1978788Y1635132D02*
G01X2008342D01*
X1978712Y1634232D02*
G01X2008342D01*
X1992811Y1633332D02*
G01X2008342D01*
X1993349Y1632432D02*
G01X2008342D01*
X2000788Y1631532D02*
G01X2001927D01*
X1998626Y1658532D02*
G01X2000778D01*
X1972480Y1650432D02*
G01X2000412D01*
X1994292Y1651332D02*
G01X2000341D01*
X1998626Y1659432D02*
G01X2000279D01*
X1998626Y1657632D02*
G01X2000202D01*
X1990213Y1663932D02*
G01X2000114D01*
X1990728Y1663032D02*
G01X2000114D01*
X1998234Y1662132D02*
G01X2000114D01*
X1998621Y1661232D02*
G01X2000114D01*
X1998626Y1660332D02*
G01X2000114D01*
X1998626Y1656732D02*
G01X2000114D01*
X1998597Y1655832D02*
G01X2000114D01*
X1998039Y1654932D02*
G01X2000114D01*
X1996535Y1654032D02*
G01X2000114D01*
X1996190Y1653132D02*
G01X2000114D01*
X1995334Y1652232D02*
G01X2000114D01*
X1988973Y1664832D02*
G01X2000110D01*
X1978242Y1644132D02*
G01X1999651D01*
X1891365Y1638732D02*
G01X1999500D01*
X1971319Y1645032D02*
G01X1999270D01*
X1973013Y1649532D02*
G01X1999221D01*
X1973244Y1648632D02*
G01X1999070D01*
X1973234Y1647732D02*
G01X1999070D01*
X1972982Y1646832D02*
G01X1999070D01*
X1972417Y1645932D02*
G01X1999070D01*
X1993374Y1631532D02*
G01X1994722D01*
X1978963Y1643232D02*
G01X1993475D01*
X1891388Y1639632D02*
G01X1993296D01*
X1979183Y1642332D02*
G01X1992777D01*
X1978487Y1640532D02*
G01X1992713D01*
X1979051Y1641432D02*
G01X1992570D01*
X1971369Y1651332D02*
G01X1990337D01*
X1978235Y1633332D02*
G01X1985938D01*
X1977234Y1632432D02*
G01X1985399D01*
X1980880Y1631532D02*
G01X1985374D01*
X1982593Y1630632D02*
G01X1985374D01*
X1983771Y1629732D02*
G01X1985374D01*
X1962517Y1652232D02*
G01X1984522D01*
X1979178Y1658532D02*
G01X1983899D01*
X1978631Y1657632D02*
G01X1983639D01*
X1963129Y1653132D02*
G01X1983485D01*
X1963236Y1656732D02*
G01X1983378D01*
X1963236Y1655832D02*
G01X1983378D01*
X1963236Y1654932D02*
G01X1983378D01*
X1963236Y1654032D02*
G01X1983378D01*
X1979300Y1659432D02*
G01X1981284D01*
X1979069Y1660332D02*
G01X1980383D01*
X1915117Y1668432D02*
G01X1979800D01*
X1978325Y1661232D02*
G01X1979789D01*
X1977451Y1662132D02*
G01X1979610D01*
X1912043Y1667532D02*
G01X1979317D01*
X1966308Y1584732D02*
G01X1977018D01*
X1965392Y1583832D02*
G01X1976974D01*
X1964492Y1582932D02*
G01X1976074D01*
X1974151Y1573032D02*
G01X1975285D01*
X1963592Y1582032D02*
G01X1975235D01*
X1940408Y1636932D02*
G01X1975153D01*
X1891363Y1573932D02*
G01X1974973D01*
X1962692Y1581132D02*
G01X1974920D01*
X1961792Y1580232D02*
G01X1974911D01*
X1966707Y1579332D02*
G01X1974911D01*
X1967177Y1578432D02*
G01X1974911D01*
X1967249Y1577532D02*
G01X1974911D01*
X1966963Y1576632D02*
G01X1974911D01*
X1966089Y1575732D02*
G01X1974911D01*
X1891363Y1574832D02*
G01X1974911D01*
X1891363Y1626132D02*
G01X1974605D01*
X1947620Y1625232D02*
G01X1974488D01*
X1950132Y1620732D02*
G01X1974237D01*
X1948716Y1624332D02*
G01X1974163D01*
X1949613Y1623432D02*
G01X1974162D01*
X1950082Y1622532D02*
G01X1974162D01*
X1950132Y1621632D02*
G01X1974162D01*
X1970064Y1627032D02*
G01X1973530D01*
X1972215Y1627932D02*
G01X1972438D01*
X1950157Y1619832D02*
G01X1967345D01*
X1953844Y1618932D02*
G01X1966133D01*
X1891363Y1627032D02*
G01X1963473D01*
X1961294Y1579332D02*
G01X1963020D01*
X1935946Y1645032D02*
G01X1962217D01*
X1935985Y1627932D02*
G01X1961382D01*
X1936849Y1645932D02*
G01X1961119D01*
X1937295Y1646832D02*
G01X1960555D01*
X1937075Y1649532D02*
G01X1960524D01*
X1937463Y1647732D02*
G01X1960302D01*
X1937395Y1648632D02*
G01X1960293D01*
X1909765Y1666632D02*
G01X1958263D01*
X1907900Y1665732D02*
G01X1957446D01*
X1907166Y1664832D02*
G01X1957092D01*
X1909061Y1663932D02*
G01X1956401D01*
X1913086Y1658532D02*
G01X1956391D01*
X1913203Y1657632D02*
G01X1956127D01*
X1912857Y1659432D02*
G01X1955888D01*
X1910421Y1663032D02*
G01X1955887D01*
X1911342Y1662132D02*
G01X1955866D01*
X1912013Y1661232D02*
G01X1955866D01*
X1912506Y1660332D02*
G01X1955866D01*
X1913214Y1656732D02*
G01X1955866D01*
X1913120Y1655832D02*
G01X1955866D01*
X1912915Y1654932D02*
G01X1955866D01*
X1891363Y1573032D02*
G01X1954451D01*
X1912592Y1654032D02*
G01X1953757D01*
X1951828Y1572132D02*
G01X1953737D01*
X1952730Y1571232D02*
G01X1953389D01*
X1936405Y1650432D02*
G01X1953088D01*
X1912131Y1653132D02*
G01X1952860D01*
X1934746Y1651332D02*
G01X1952629D01*
X1911503Y1652232D02*
G01X1952565D01*
X1891903Y1644132D02*
G01X1940757D01*
X1891363Y1625232D02*
G01X1940625D01*
X1891438Y1640532D02*
G01X1940523D01*
X1891746Y1643232D02*
G01X1940040D01*
X1934168Y1624332D02*
G01X1939962D01*
X1891514Y1641432D02*
G01X1939957D01*
X1936928Y1622532D02*
G01X1939915D01*
X1891617Y1642332D02*
G01X1939822D01*
X1935862Y1623432D02*
G01X1939773D01*
X1936755Y1575732D02*
G01X1938188D01*
X1891363Y1636932D02*
G01X1937936D01*
X1891363Y1636032D02*
G01X1937069D01*
X1891363Y1634232D02*
G01X1936859D01*
X1891363Y1635132D02*
G01X1936785D01*
X1936209Y1633332D02*
G01X1936777D01*
X1913109Y1544232D02*
G01X1934329D01*
X1933227Y1543332D02*
G01X1934257D01*
X1933315Y1545132D02*
G01X1934230D01*
X1924168Y1624332D02*
G01X1931737D01*
X1925862Y1623432D02*
G01X1930043D01*
X1925415Y1543332D02*
G01X1929607D01*
X1927510Y1534332D02*
G01X1929525D01*
X1923315Y1545132D02*
G01X1929519D01*
X1923917Y1555032D02*
G01X1929400D01*
X1923917Y1555932D02*
G01X1929396D01*
X1925601Y1535232D02*
G01X1929317D01*
X1923917Y1554132D02*
G01X1929290D01*
X1926672Y1622532D02*
G01X1929233D01*
X1924381Y1575732D02*
G01X1929150D01*
X1924035Y1553232D02*
G01X1928911D01*
X1927146Y1621632D02*
G01X1928759D01*
X1927392Y1620732D02*
G01X1928512D01*
X1925938Y1576632D02*
G01X1928498D01*
X1927451Y1619832D02*
G01X1928455D01*
X1926967Y1582032D02*
G01X1928452D01*
X1927307Y1581132D02*
G01X1928452D01*
X1927446Y1580232D02*
G01X1928452D01*
X1927403Y1579332D02*
G01X1928452D01*
X1927171Y1578432D02*
G01X1928452D01*
X1926716Y1577532D02*
G01X1928452D01*
X1927598Y1618932D02*
G01X1928433D01*
X1926555Y1582932D02*
G01X1928431D01*
X1923917Y1556832D02*
G01X1928419D01*
X1925901Y1542432D02*
G01X1928273D01*
X1924601Y1546032D02*
G01X1928233D01*
X1924660Y1552332D02*
G01X1928174D01*
X1925915Y1536132D02*
G01X1928136D01*
X1923917Y1562232D02*
G01X1928118D01*
X1923917Y1563132D02*
G01X1928066D01*
X1923917Y1557732D02*
G01X1927758D01*
X1923917Y1561332D02*
G01X1927716D01*
X1923917Y1564032D02*
G01X1927712D01*
X1925551Y1566732D02*
G01X1927711D01*
X1924651Y1565832D02*
G01X1927711D01*
X1923919Y1564932D02*
G01X1927711D01*
X1923917Y1560432D02*
G01X1927711D01*
X1923917Y1559532D02*
G01X1927711D01*
X1923917Y1558632D02*
G01X1927711D01*
X1926451Y1567632D02*
G01X1927667D01*
X1925917Y1541532D02*
G01X1927561D01*
X1925296Y1546932D02*
G01X1927537D01*
X1925331Y1551432D02*
G01X1927503D01*
X1925917Y1537032D02*
G01X1927480D01*
X1910644Y1651332D02*
G01X1927191D01*
X1925917Y1540632D02*
G01X1927147D01*
X1925700Y1547832D02*
G01X1927134D01*
X1925719Y1550532D02*
G01X1927115D01*
X1925917Y1537932D02*
G01X1927103D01*
X1925917Y1539732D02*
G01X1926947D01*
X1925891Y1548732D02*
G01X1926942D01*
X1925897Y1549632D02*
G01X1926936D01*
X1925917Y1538832D02*
G01X1926933D01*
X1892087Y1645032D02*
G01X1925990D01*
X1891363Y1627932D02*
G01X1925752D01*
X1891363Y1633332D02*
G01X1925539D01*
X1909408Y1650432D02*
G01X1925532D01*
X1892300Y1645932D02*
G01X1925087D01*
X1891363Y1628832D02*
G01X1924921D01*
X1907059Y1649532D02*
G01X1924862D01*
X1891363Y1632432D02*
G01X1924816D01*
X1891363Y1534332D02*
G01X1924739D01*
X1892541Y1646832D02*
G01X1924642D01*
X1893113Y1648632D02*
G01X1924542D01*
X1891363Y1629732D02*
G01X1924511D01*
X1892812Y1647732D02*
G01X1924473D01*
X1891363Y1631532D02*
G01X1924464D01*
X1891363Y1630632D02*
G01X1924369D01*
X1891422Y1533432D02*
G01X1924291D01*
X1891363Y1584732D02*
G01X1924202D01*
X1891363Y1594632D02*
G01X1924143D01*
X1891363Y1615332D02*
G01X1924051D01*
X1891363Y1604532D02*
G01X1924040D01*
X1892413Y1531632D02*
G01X1924038D01*
X1891733Y1532532D02*
G01X1923984D01*
X1891363Y1572132D02*
G01X1923879D01*
X1891363Y1605432D02*
G01X1923815D01*
X1891363Y1571232D02*
G01X1922979D01*
X1891363Y1595532D02*
G01X1922411D01*
X1891363Y1614432D02*
G01X1922177D01*
X1891363Y1570332D02*
G01X1922079D01*
X1891363Y1585632D02*
G01X1921867D01*
X1891363Y1624332D02*
G01X1921737D01*
X1891363Y1575732D02*
G01X1921524D01*
X1891363Y1569432D02*
G01X1921179D01*
X1891363Y1583832D02*
G01X1920594D01*
X1891363Y1616232D02*
G01X1920491D01*
X1891363Y1593732D02*
G01X1920439D01*
X1891363Y1606332D02*
G01X1920344D01*
X1891363Y1603632D02*
G01X1920296D01*
X1891363Y1568532D02*
G01X1920279D01*
X1891363Y1596432D02*
G01X1920209D01*
X1891363Y1613532D02*
G01X1920165D01*
X1891363Y1586532D02*
G01X1920084D01*
X1891363Y1623432D02*
G01X1920043D01*
X1891363Y1576632D02*
G01X1919967D01*
X1891363Y1582932D02*
G01X1919539D01*
X1912896Y1545132D02*
G01X1919519D01*
X1891363Y1617132D02*
G01X1919484D01*
X1891363Y1592832D02*
G01X1919456D01*
X1891363Y1567632D02*
G01X1919415D01*
X1891363Y1607232D02*
G01X1919404D01*
X1891363Y1602732D02*
G01X1919377D01*
X1891363Y1597332D02*
G01X1919328D01*
X1891363Y1612632D02*
G01X1919303D01*
X1891363Y1587432D02*
G01X1919256D01*
X1891363Y1622532D02*
G01X1919233D01*
X1891363Y1577532D02*
G01X1919189D01*
X1891363Y1566732D02*
G01X1918989D01*
X1891363Y1582032D02*
G01X1918938D01*
X1891363Y1565832D02*
G01X1918917D01*
X1891363Y1564932D02*
G01X1918917D01*
X1891363Y1564032D02*
G01X1918917D01*
X1891363Y1563132D02*
G01X1918917D01*
X1891363Y1562232D02*
G01X1918917D01*
X1891363Y1561332D02*
G01X1918917D01*
X1891363Y1560432D02*
G01X1918917D01*
X1891363Y1559532D02*
G01X1918917D01*
X1891363Y1558632D02*
G01X1918917D01*
X1891363Y1557732D02*
G01X1918917D01*
X1891363Y1556832D02*
G01X1918917D01*
X1891363Y1555932D02*
G01X1918917D01*
X1891363Y1555032D02*
G01X1918917D01*
X1891363Y1554132D02*
G01X1918917D01*
X1891363Y1618032D02*
G01X1918905D01*
X1891363Y1591932D02*
G01X1918888D01*
X1891363Y1608132D02*
G01X1918858D01*
X1891363Y1601832D02*
G01X1918842D01*
X1891363Y1598232D02*
G01X1918814D01*
X1891363Y1611732D02*
G01X1918799D01*
X1891363Y1553232D02*
G01X1918799D01*
X1891363Y1588332D02*
G01X1918773D01*
X1891363Y1621632D02*
G01X1918759D01*
X1891363Y1578432D02*
G01X1918734D01*
X1891363Y1581132D02*
G01X1918597D01*
X1891363Y1618932D02*
G01X1918581D01*
X1891363Y1591032D02*
G01X1918572D01*
X1891363Y1609032D02*
G01X1918557D01*
X1891363Y1600932D02*
G01X1918550D01*
X1891363Y1599132D02*
G01X1918537D01*
X1891363Y1610832D02*
G01X1918530D01*
X1891363Y1589232D02*
G01X1918518D01*
X1891363Y1620732D02*
G01X1918512D01*
X1891363Y1579332D02*
G01X1918502D01*
X1891363Y1580232D02*
G01X1918458D01*
X1891363Y1619832D02*
G01X1918455D01*
X1891363Y1590132D02*
G01X1918454D01*
X1891363Y1609932D02*
G01X1918453D01*
X1891363Y1600032D02*
G01X1918452D01*
X1912564Y1546032D02*
G01X1918233D01*
X1891363Y1552332D02*
G01X1918174D01*
X1912092Y1546932D02*
G01X1917537D01*
X1891363Y1551432D02*
G01X1917503D01*
X1913211Y1543332D02*
G01X1917419D01*
X1906189Y1535232D02*
G01X1917281D01*
X1911450Y1547832D02*
G01X1917134D01*
X1906702Y1550532D02*
G01X1917115D01*
X1910571Y1548732D02*
G01X1916942D01*
X1909296Y1549632D02*
G01X1916936D01*
X1913207Y1542432D02*
G01X1916933D01*
X1909182Y1536132D02*
G01X1916919D01*
X1913098Y1541532D02*
G01X1916917D01*
X1912877Y1540632D02*
G01X1916917D01*
X1912536Y1539732D02*
G01X1916917D01*
X1912054Y1538832D02*
G01X1916917D01*
X1911398Y1537932D02*
G01X1916917D01*
X1910498Y1537032D02*
G01X1916917D01*
X1891363Y1535232D02*
G01X1904834D01*
X1891363Y1550532D02*
G01X1904321D01*
X1893445Y1649532D02*
G01X1903964D01*
X1891363Y1536132D02*
G01X1901840D01*
X1891363Y1549632D02*
G01X1901727D01*
X1893810Y1650432D02*
G01X1901615D01*
X1891363Y1537032D02*
G01X1900524D01*
X1891363Y1548732D02*
G01X1900451D01*
X1894208Y1651332D02*
G01X1900378D01*
X1891363Y1537932D02*
G01X1899625D01*
X1891363Y1547832D02*
G01X1899573D01*
X1894642Y1652232D02*
G01X1899520D01*
X1891363Y1538832D02*
G01X1898969D01*
X1891363Y1546932D02*
G01X1898930D01*
X1895112Y1653132D02*
G01X1898891D01*
X1891363Y1539732D02*
G01X1898487D01*
X1891363Y1546032D02*
G01X1898459D01*
X1895621Y1654032D02*
G01X1898431D01*
X1891363Y1540632D02*
G01X1898145D01*
X1891363Y1545132D02*
G01X1898126D01*
X1896171Y1654932D02*
G01X1898107D01*
X1891363Y1541532D02*
G01X1897925D01*
X1891363Y1544232D02*
G01X1897914D01*
X1896764Y1655832D02*
G01X1897903D01*
X1891363Y1542432D02*
G01X1897815D01*
X1891363Y1543332D02*
G01X1897812D01*
X1972986Y1612009D02*
G01X1974466D01*
X1950230Y1611738D02*
G01X1972709D01*
X1953816Y1612638D02*
G01X1971196D01*
X1967592Y1613538D02*
G01X1970541D01*
X1968711Y1614438D02*
G01X1970356D01*
X1950788Y1610838D02*
G01X1968260D01*
X1953993Y1609938D02*
G01X1967674D01*
X1954179Y1609038D02*
G01X1967527D01*
X1965938Y1608138D02*
G01X1967170D01*
X1955070Y1603638D02*
G01X1964609D01*
X1954179Y1608138D02*
G01X1963261D01*
X1954414Y1604538D02*
G01X1962773D01*
X1954179Y1607238D02*
G01X1962444D01*
X1954179Y1605438D02*
G01X1962272D01*
X1954179Y1606338D02*
G01X1962181D01*
X1940057Y1600343D02*
G01X1942085D01*
X1940877Y1599443D02*
G01X1942085D01*
X1939157Y1601243D02*
G01X1940690D01*
X1937236Y1602143D02*
G01X1939725D01*
X1937445Y1609745D02*
G01X1942158D01*
X1937302Y1608845D02*
G01X1942085D01*
X1936956Y1607945D02*
G01X1942085D01*
X1937073Y1607045D02*
G01X1942085D01*
X1937406Y1610645D02*
G01X1941469D01*
X1937178Y1611545D02*
G01X1940569D01*
X1936785Y1612445D02*
G01X1939669D01*
X1985291Y1625240D02*
G01X1987359D01*
X2032956Y1649406D02*
G01X2034170D01*
X2025764Y1639349D02*
G01X2027262D01*
X1974472Y1531632D02*
G01X2000441D01*
X1990433Y1532532D02*
G01X1999521D01*
X1974522D02*
G01X1988015D01*
X1974211Y1533432D02*
G01X1987131D01*
X1973342Y1534332D02*
G01X1986840D01*
X1998296Y1563011D02*
G01X2013134D01*
X1965396Y1547111D02*
G01X1981537D01*
X1965660Y1550711D02*
G01X1981514D01*
X1965877Y1549811D02*
G01X1981514D01*
X1965907Y1548911D02*
G01X1981514D01*
X1965754Y1548011D02*
G01X1981514D01*
X1965829Y1551611D02*
G01X1978694D01*
X1972538Y1556550D02*
G01X1976972D01*
X1943459Y1543222D02*
G01X1948487D01*
X1944669Y1542322D02*
G01X1948164D01*
X1938329Y1544122D02*
G01X1947597D01*
X1945291Y1536922D02*
G01X1947543D01*
X1945337Y1541422D02*
G01X1947497D01*
X1945697Y1537822D02*
G01X1947137D01*
X1945722Y1540522D02*
G01X1947112D01*
X1945890Y1538722D02*
G01X1946944D01*
X1945898Y1539622D02*
G01X1946936D01*
X1943058Y1545022D02*
G01X1946697D01*
X1944487Y1545922D02*
G01X1945797D01*
X1938337Y1545022D02*
G01X1939776D01*
X1938407Y1543222D02*
G01X1939375D01*
X1953999Y1583432D02*
G01X1959336D01*
X1941996Y1584332D02*
G01X1955791D01*
X1941992Y1585232D02*
G01X1955012D01*
X1953705Y1586132D02*
G01X1954761D01*
X1947709D02*
G01X1948555D01*
X1966768Y1593311D02*
G01X2010043D01*
X1966399Y1594211D02*
G01X2008671D01*
X1965267Y1595111D02*
G01X2008229D01*
X1958039Y1596011D02*
G01X2008090D01*
X1958414Y1595111D02*
G01X1963552D01*
X2008645Y1628834D02*
G01X2021423D01*
X2018299Y1627934D02*
G01X2021239D01*
X2008787Y1629734D02*
G01X2020523D01*
X2019160Y1627034D02*
G01X2020363D01*
X2018686Y1630634D02*
G01X2019623D01*
X2008645Y1627934D02*
G01X2015810D01*
X2013077Y1624334D02*
G01X2015050D01*
X2008636Y1627034D02*
G01X2014949D01*
X2008318Y1625234D02*
G01X2014743D01*
X2008204Y1626134D02*
G01X2014668D01*
X2025338Y1649184D02*
G01X2028340D01*
X2026401Y1650084D02*
G01X2027626D01*
X2026466Y1655484D02*
G01X2027560D01*
X2026511Y1654584D02*
G01X2027516D01*
X2026511Y1653684D02*
G01X2027516D01*
X2026511Y1652784D02*
G01X2027516D01*
X2026511Y1651884D02*
G01X2027516D01*
X2026511Y1650984D02*
G01X2027516D01*
X2020791Y1648284D02*
G01X2026378D01*
X2020873Y1647384D02*
G01X2025713D01*
X2020873Y1646484D02*
G01X2025665D01*
X2020873Y1645584D02*
G01X2024775D01*
X2020873Y1644684D02*
G01X2023865D01*
X2020873Y1643784D02*
G01X2022965D01*
X2020873Y1642884D02*
G01X2022113D01*
X2020788Y1649184D02*
G01X2021585D01*
X2031982Y1623073D02*
G01X2055983D01*
X2031536Y1622173D02*
G01X2055803D01*
X2030948Y1621273D02*
G01X2053090D01*
X2030948Y1620373D02*
G01X2044877D01*
X2030948Y1619473D02*
G01X2043977D01*
X2050451Y1567071D02*
G01X2058748D01*
X2041058D02*
G01X2050059D01*
X2057637Y1599114D02*
G01X2065539D01*
X2057409Y1598214D02*
G01X2065346D01*
X2054834Y1576148D02*
G01X2056566D01*
X2055325Y1577048D02*
G01X2056075D01*
X2042148Y1590428D02*
G01X2057080D01*
X2042148Y1589528D02*
G01X2056460D01*
X2042001Y1591328D02*
G01X2055997D01*
X2042148Y1588628D02*
G01X2055842D01*
X2042363Y1592228D02*
G01X2055479D01*
X2042148Y1583228D02*
G01X2052966D01*
X2051260Y1584128D02*
G01X2052652D01*
X2042148Y1582328D02*
G01X2052586D01*
X2036552Y1576028D02*
G01X2048655D01*
X2042148Y1584128D02*
G01X2048544D01*
X2036552Y1576928D02*
G01X2048282D01*
X2042140Y1581428D02*
G01X2048225D01*
X2036552Y1575128D02*
G01X2048118D01*
X2041712Y1580528D02*
G01X2048078D01*
X2036554Y1579628D02*
G01X2048078D01*
X2036552Y1578728D02*
G01X2048078D01*
X2036552Y1577828D02*
G01X2048078D01*
X2036552Y1574228D02*
G01X2048078D01*
X2036552Y1573328D02*
G01X2048078D01*
X2036872Y1572428D02*
G01X2048078D01*
X2042148Y1587728D02*
G01X2048069D01*
X2042108Y1585028D02*
G01X2047733D01*
X2041945Y1586828D02*
G01X2047566D01*
X2041571Y1585928D02*
G01X2047472D01*
X2030948Y1597003D02*
G01X2055813D01*
X2031488Y1596103D02*
G01X2039523D01*
X2030948Y1597903D02*
G01X2037957D01*
X2034305Y1598803D02*
G01X2036786D01*
X2032388Y1595203D02*
G01X2035547D01*
X2033288Y1594303D02*
G01X2034997D01*
X2054477Y1607132D02*
G01X2062848D01*
X2061246Y1608032D02*
G01X2062453D01*
X2061427Y1606232D02*
G01X2062273D01*
X2054840Y1608032D02*
G01X2056457D01*
X2053370Y1606232D02*
G01X2056277D01*
X2042383Y1605332D02*
G01X2055815D01*
X2054972Y1608932D02*
G01X2055808D01*
X2042759Y1604432D02*
G01X2055803D01*
X2043327Y1603532D02*
G01X2055803D01*
X2043461Y1602632D02*
G01X2055334D01*
X2044130Y1606232D02*
G01X2051587D01*
X2049536Y1607132D02*
G01X2050479D01*
X2044700D02*
G01X2045791D01*
X2060503Y1565867D02*
G01X2069151D01*
X2061068Y1564967D02*
G01X2068856D01*
X2061201Y1564067D02*
G01X2067956D01*
X2060983Y1563167D02*
G01X2067092D01*
X2060263Y1562267D02*
G01X2066666D01*
X2053209Y1561367D02*
G01X2065343D01*
X2058924Y1566767D02*
G01X2064826D01*
X2052998Y1560467D02*
G01X2064648D01*
X2063644Y1567667D02*
G01X2064525D01*
X2076465Y1541538D02*
G01X2079935D01*
X2077548Y1540638D02*
G01X2079305D01*
X2076433Y1542438D02*
G01X2078742D01*
X2077533Y1543338D02*
G01X2078285D01*
X2079383Y1560537D02*
G01X2084006D01*
X2079900Y1561437D02*
G01X2082380D01*
X2080598Y1562337D02*
G01X2081373D01*
X2073594Y1567881D02*
G01X2079763D01*
X2073474Y1566981D02*
G01X2079763D01*
X2073594Y1568781D02*
G01X2075109D01*
X2075353Y1629032D02*
G01X2083350D01*
X2075330Y1629932D02*
G01X2082949D01*
X2075199Y1628132D02*
G01X2082772D01*
X2075121Y1630832D02*
G01X2082706D01*
X2074696Y1631732D02*
G01X2076639D01*
X2074479Y1632632D02*
G01X2075734D01*
X2077452Y1636513D02*
G01X2082792D01*
X2078410Y1635613D02*
G01X2082703D01*
X2074856Y1637413D02*
G01X2082080D01*
X2075214Y1638313D02*
G01X2081838D01*
X2075362Y1639213D02*
G01X2079455D01*
X2075291Y1640113D02*
G01X2078555D01*
X2074986Y1641013D02*
G01X2077661D01*
X2074371Y1641913D02*
G01X2077208D01*
X2050899Y1644613D02*
G01X2077163D01*
X2051013Y1643713D02*
G01X2077163D01*
X2073101Y1642813D02*
G01X2077163D01*
X2075097Y1645513D02*
G01X2077051D01*
X2075520Y1646413D02*
G01X2076151D01*
X2050883Y1642813D02*
G01X2068631D01*
X2050323Y1641913D02*
G01X2067360D01*
X2054579Y1637413D02*
G01X2066875D01*
X2036143Y1641013D02*
G01X2066745D01*
X2054280Y1645513D02*
G01X2066634D01*
X2053902Y1638313D02*
G01X2066518D01*
X2035773Y1640113D02*
G01X2066440D01*
X2034505Y1639213D02*
G01X2066369D01*
X2054628Y1650913D02*
G01X2066366D01*
X2054629Y1650013D02*
G01X2066366D01*
X2054629Y1649113D02*
G01X2066366D01*
X2054629Y1648213D02*
G01X2066366D01*
X2054629Y1647313D02*
G01X2066366D01*
X2054628Y1646413D02*
G01X2066366D01*
X2039566Y1655413D02*
G01X2051333D01*
X2039611Y1654513D02*
G01X2050615D01*
X2039611Y1653613D02*
G01X2049827D01*
X2039611Y1652713D02*
G01X2049581D01*
X2047905Y1638313D02*
G01X2049259D01*
X2048298Y1651813D02*
G01X2048866D01*
X2036145Y1641913D02*
G01X2045448D01*
X2036550Y1642813D02*
G01X2044481D01*
X2037450Y1643713D02*
G01X2043762D01*
X2038270Y1644613D02*
G01X2043584D01*
X2036138Y1631113D02*
G01X2043476D01*
X2028892Y1629313D02*
G01X2043309D01*
X2035720Y1630213D02*
G01X2043303D01*
X2035610Y1638313D02*
G01X2043263D01*
X2039611Y1651813D02*
G01X2042888D01*
X2038556Y1645513D02*
G01X2042885D01*
X2036145Y1632013D02*
G01X2042680D01*
X2036125Y1637413D02*
G01X2042585D01*
X2039611Y1650913D02*
G01X2042536D01*
X2038561Y1646413D02*
G01X2042536D01*
X2039469Y1650013D02*
G01X2042535D01*
X2038614Y1649113D02*
G01X2042535D01*
X2038561Y1648213D02*
G01X2042535D01*
X2038561Y1647313D02*
G01X2042535D01*
X2036145Y1636513D02*
G01X2042535D01*
X2036145Y1635613D02*
G01X2042535D01*
X2036145Y1634713D02*
G01X2042535D01*
X2036145Y1633813D02*
G01X2042535D01*
X2036145Y1632913D02*
G01X2042535D01*
X2075948Y1612522D02*
G01X2078162Y1614735D01*
X2075948Y1622517D02*
G01X2078162Y1620303D01*
X2091061Y1622517D02*
G01X2088847Y1620303D01*
X2091061Y1612522D02*
G01X2088847Y1614735D01*
X2076236Y1604545D02*
G01X2077297Y1605606D01*
X2076236Y1608058D02*
G01X2077297Y1606997D01*
X2090773Y1604545D02*
G01X2089712Y1605606D01*
X2099175Y1612522D02*
G01X2101389Y1614735D01*
X2099175Y1622517D02*
G01X2101389Y1620303D01*
X2075948Y1577482D02*
G01X2078162Y1579696D01*
X2075948Y1587477D02*
G01X2078162Y1585264D01*
X2091061Y1587477D02*
G01X2088847Y1585264D01*
X2091061Y1577482D02*
G01X2088847Y1579696D01*
X2099175Y1577482D02*
G01X2101389Y1579696D01*
X2099175Y1587477D02*
G01X2101389Y1585264D01*
X1925494Y1645445D02*
G01X1926554Y1646505D01*
X1925494Y1650394D02*
G01X1926554Y1649334D01*
X1936443Y1650394D02*
G01X1935383Y1649334D01*
X1936443Y1645445D02*
G01X1935383Y1646505D01*
X1961294Y1645745D02*
G01X1962354Y1646805D01*
X1972243Y1650694D02*
G01X1971183Y1649634D01*
X1972243Y1645745D02*
G01X1971183Y1646805D01*
X1985814Y1633221D02*
G01X1987607Y1631428D01*
X1992935Y1633221D02*
G01X1991142Y1631428D01*
X1992935Y1626100D02*
G01X1991142Y1627893D01*
X1985814Y1626100D02*
G01X1987607Y1627893D01*
X2008781Y1640041D02*
G01X2010707Y1641967D01*
X2008781Y1648068D02*
G01X2010707Y1646143D01*
X2001714Y1626136D02*
G01X2003229Y1627650D01*
X2001714Y1631355D02*
G01X2003229Y1629841D01*
X2008206Y1631355D02*
G01X2006691Y1629841D01*
X2008206Y1626136D02*
G01X2006691Y1627650D01*
X2001001Y1631355D02*
G01X1999487Y1629841D01*
X1994510Y1631355D02*
G01X1996024Y1629841D01*
X2001001Y1626136D02*
G01X1999487Y1627650D01*
X1994510Y1626136D02*
G01X1996024Y1627650D01*
X2089836Y1569343D02*
G01X2088775Y1568283D01*
X2033175Y1649588D02*
G01X2031661Y1651102D01*
X2027955Y1649588D02*
G01X2029470Y1651102D01*
X2026071Y1649588D02*
G01X2024557Y1651102D01*
X2020851Y1649588D02*
G01X2022366Y1651102D01*
X2035706Y1638226D02*
G01X2033780Y1636300D01*
X2035706Y1630199D02*
G01X2033780Y1632124D01*
X2026104Y1638226D02*
G01X2028030Y1636300D01*
X2076236Y1604908D02*
G01X2077297Y1603847D01*
X2090773Y1604908D02*
G01X2089712Y1603847D01*
X2090773Y1601395D02*
G01X2089712Y1602456D01*
X2048518Y1575845D02*
G01X2050032Y1574331D01*
X2055009Y1575845D02*
G01X2053495Y1574331D01*
X2056392Y1575845D02*
G01X2057906Y1574331D01*
X2062883Y1575845D02*
G01X2061369Y1574331D01*
X2073155Y1566508D02*
G01X2071215Y1568447D01*
X2065033Y1566508D02*
G01X2066973Y1568447D01*
X2065033Y1574629D02*
G01X2066973Y1572690D01*
X2073155Y1574629D02*
G01X2071215Y1572690D01*
X2088481Y1553329D02*
G01X2086967Y1554843D01*
X2083262Y1553329D02*
G01X2084776Y1554843D01*
X2088481Y1559820D02*
G01X2086967Y1558306D01*
X2083262Y1559820D02*
G01X2084776Y1558306D01*
X2041709Y1585745D02*
G01X2040195Y1584231D01*
X2041709Y1580525D02*
G01X2040195Y1582040D01*
X2100202Y1566508D02*
G01X2098263Y1568447D01*
X2092081Y1566508D02*
G01X2094020Y1568447D01*
X2092081Y1574629D02*
G01X2094020Y1572690D01*
X2100202Y1574629D02*
G01X2098263Y1572690D01*
X1894685Y1529133D02*
G01X2077755D01*
Y1529133D02*
G03X2110236Y1561614J32481D01*
Y1561614D02*
G01Y1665944D01*
Y1665944D02*
G03X2105314Y1670866I-4922J0D01*
Y1670866D02*
G01X1922244D01*
Y1670866D02*
G03X1889763Y1638385I0J-32481D01*
Y1638385D02*
G01Y1534055D01*
Y1534055D02*
G03X1894685Y1529133I4922D01*
M02*
