G04 CAM350 V9.5 (Build 208) Date:  Fri Nov 28 16:59:12 2008 *
G04 Database: (Untitled) *
G04 Layer 7: dd001024.pho *
%FSLAX35Y35*%
%MOIN*%
%SFA1.000B1.000*%

%MIA0B0*%
%IPPOS*%
%ADD33C,0.01000*%
%LNdd001024.pho*%
%LPD*%
G54D33*
X2089740Y1591338D02*
G01X2097740D01*
X2093740Y1587338D02*
G01Y1595338D01*
X2095740Y1596619D02*
G01Y1593338D01*
Y1596619D02*
G01X2096763D01*
X2097104Y1596463*
X2097217Y1596306*
Y1596306D02*
G01X2097331Y1595994D01*
Y1595681*
Y1595681D02*
G01X2097217Y1595369D01*
Y1595369D02*
G01X2097104Y1595213D01*
X2096763Y1595056*
X2095740D02*
G01X2096763D01*
Y1595056D02*
G01X2097104Y1594900D01*
Y1594900D02*
G01X2097217Y1594744D01*
Y1594744D02*
G01X2097331Y1594431D01*
Y1594431D02*
G01Y1593963D01*
X2097217Y1593650*
Y1593650D02*
G01X2097104Y1593494D01*
X2096763Y1593338*
X2095740*
X2089740Y1608661D02*
G01X2097740D01*
X2093740Y1604661D02*
G01Y1612661D01*
X2095740Y1613942D02*
G01Y1610661D01*
Y1613942D02*
G01X2096763D01*
X2097104Y1613786*
X2097217Y1613629*
Y1613629D02*
G01X2097331Y1613317D01*
Y1613004*
Y1613004D02*
G01X2097217Y1612692D01*
Y1612692D02*
G01X2097104Y1612536D01*
X2096763Y1612379*
X2095740D02*
G01X2096763D01*
Y1612379D02*
G01X2097104Y1612223D01*
Y1612223D02*
G01X2097217Y1612067D01*
Y1612067D02*
G01X2097331Y1611754D01*
Y1611754D02*
G01Y1611286D01*
X2097217Y1610973*
Y1610973D02*
G01X2097104Y1610817D01*
X2096763Y1610661*
X2095740*
X1921417Y1535212D02*
G01X1925417Y1539212D01*
Y1539212D02*
G01X1921417Y1543212D01*
Y1543212D02*
G01X1917417Y1539212D01*
Y1539212D02*
G01X1921417Y1535212D01*
Y1539212D02*
G01Y1543212D01*
Y1545212D02*
G01X1925417Y1549212D01*
Y1549212D02*
G01X1921417Y1553212D01*
Y1553212D02*
G01X1917417Y1549212D01*
Y1549212D02*
G01X1921417Y1545212D01*
Y1549212D02*
G01Y1553212D01*
X1931417Y1535212D02*
G01X1935417Y1539212D01*
Y1539212D02*
G01X1931417Y1543212D01*
Y1543212D02*
G01X1927417Y1539212D01*
Y1539212D02*
G01X1931417Y1535212D01*
Y1539212D02*
G01Y1543212D01*
Y1545212D02*
G01X1935417Y1549212D01*
Y1549212D02*
G01X1931417Y1553212D01*
Y1553212D02*
G01X1927417Y1549212D01*
Y1549212D02*
G01X1931417Y1545212D01*
Y1549212D02*
G01Y1553212D01*
X1941417Y1535212D02*
G01X1945417Y1539212D01*
Y1539212D02*
G01X1941417Y1543212D01*
Y1543212D02*
G01X1937417Y1539212D01*
Y1539212D02*
G01X1941417Y1535212D01*
Y1539212D02*
G01Y1543212D01*
Y1545212D02*
G01X1945417Y1549212D01*
Y1549212D02*
G01X1941417Y1553212D01*
Y1553212D02*
G01X1937417Y1549212D01*
Y1549212D02*
G01X1941417Y1545212D01*
Y1549212D02*
G01Y1553212D01*
X1951417Y1535212D02*
G01X1955417Y1539212D01*
Y1539212D02*
G01X1951417Y1543212D01*
Y1543212D02*
G01X1947417Y1539212D01*
Y1539212D02*
G01X1951417Y1535212D01*
Y1539212D02*
G01Y1543212D01*
Y1545212D02*
G01X1955417Y1549212D01*
Y1549212D02*
G01X1951417Y1553212D01*
Y1553212D02*
G01X1947417Y1549212D01*
Y1549212D02*
G01X1951417Y1545212D01*
Y1549212D02*
G01Y1553212D01*
X1961417Y1535212D02*
G01X1965417Y1539212D01*
Y1539212D02*
G01X1961417Y1543212D01*
Y1543212D02*
G01X1957417Y1539212D01*
Y1539212D02*
G01X1961417Y1535212D01*
Y1539212D02*
G01Y1543212D01*
Y1545212D02*
G01X1965417Y1549212D01*
Y1549212D02*
G01X1961417Y1553212D01*
Y1553212D02*
G01X1957417Y1549212D01*
Y1549212D02*
G01X1961417Y1545212D01*
Y1549212D02*
G01Y1553212D01*
X1932953Y1575999D02*
G01X1936953Y1579999D01*
Y1579999D02*
G01X1932953Y1583999D01*
Y1583999D02*
G01X1928953Y1579999D01*
Y1579999D02*
G01X1932953Y1575999D01*
Y1579999D02*
G01Y1583999D01*
X1922953Y1575999D02*
G01X1926953Y1579999D01*
Y1579999D02*
G01X1922953Y1583999D01*
Y1583999D02*
G01X1918953Y1579999D01*
Y1579999D02*
G01X1922953Y1575999D01*
Y1579999D02*
G01Y1583999D01*
X1932953Y1585999D02*
G01X1936953Y1589999D01*
Y1589999D02*
G01X1932953Y1593999D01*
Y1593999D02*
G01X1928953Y1589999D01*
Y1589999D02*
G01X1932953Y1585999D01*
Y1589999D02*
G01Y1593999D01*
X1922953Y1585999D02*
G01X1926953Y1589999D01*
Y1589999D02*
G01X1922953Y1593999D01*
Y1593999D02*
G01X1918953Y1589999D01*
Y1589999D02*
G01X1922953Y1585999D01*
Y1589999D02*
G01Y1593999D01*
X1932953Y1595999D02*
G01X1936953Y1599999D01*
Y1599999D02*
G01X1932953Y1603999D01*
Y1603999D02*
G01X1928953Y1599999D01*
Y1599999D02*
G01X1932953Y1595999D01*
Y1599999D02*
G01Y1603999D01*
X1922953Y1595999D02*
G01X1926953Y1599999D01*
Y1599999D02*
G01X1922953Y1603999D01*
Y1603999D02*
G01X1918953Y1599999D01*
Y1599999D02*
G01X1922953Y1595999D01*
Y1599999D02*
G01Y1603999D01*
X1932953Y1605999D02*
G01X1936953Y1609999D01*
Y1609999D02*
G01X1932953Y1613999D01*
Y1613999D02*
G01X1928953Y1609999D01*
Y1609999D02*
G01X1932953Y1605999D01*
Y1609999D02*
G01Y1613999D01*
X1922953Y1605999D02*
G01X1926953Y1609999D01*
Y1609999D02*
G01X1922953Y1613999D01*
Y1613999D02*
G01X1918953Y1609999D01*
Y1609999D02*
G01X1922953Y1605999D01*
Y1609999D02*
G01Y1613999D01*
X1932953Y1615999D02*
G01X1936953Y1619999D01*
Y1619999D02*
G01X1932953Y1623999D01*
Y1623999D02*
G01X1928953Y1619999D01*
Y1619999D02*
G01X1932953Y1615999D01*
Y1619999D02*
G01Y1623999D01*
X1922953Y1615999D02*
G01X1926953Y1619999D01*
Y1619999D02*
G01X1922953Y1623999D01*
Y1623999D02*
G01X1918953Y1619999D01*
Y1619999D02*
G01X1922953Y1615999D01*
Y1619999D02*
G01Y1623999D01*
X2078364Y1545933D02*
G01X2086364D01*
X2082364Y1541933D02*
G01Y1549933D01*
X2086068Y1550433D02*
G01X2085954Y1550746D01*
Y1550746D02*
G01X2085727Y1551058D01*
Y1551058D02*
G01X2085500Y1551214D01*
Y1551214D02*
G01X2085045D01*
Y1551214D02*
G01X2084818Y1551058D01*
Y1551058D02*
G01X2084591Y1550746D01*
X2084477Y1550433*
Y1550433D02*
G01X2084364Y1549964D01*
Y1549964D02*
G01Y1549183D01*
Y1549183D02*
G01X2084477Y1548714D01*
Y1548714D02*
G01X2084591Y1548402D01*
X2084818Y1548089*
Y1548089D02*
G01X2085045Y1547933D01*
Y1547933D02*
G01X2085500D01*
Y1547933D02*
G01X2085727Y1548089D01*
Y1548089D02*
G01X2085954Y1548402D01*
Y1548402D02*
G01X2086068Y1548714D01*
X2078364Y1538059D02*
G01X2086364D01*
X2082364Y1534059D02*
G01Y1542059D01*
X2086068Y1542559D02*
G01X2085954Y1542871D01*
Y1542871D02*
G01X2085727Y1543184D01*
Y1543184D02*
G01X2085500Y1543340D01*
Y1543340D02*
G01X2085045D01*
Y1543340D02*
G01X2084818Y1543184D01*
Y1543184D02*
G01X2084591Y1542871D01*
Y1542871D02*
G01X2084477Y1542559D01*
Y1542559D02*
G01X2084364Y1542090D01*
Y1542090D02*
G01Y1541309D01*
X2084477Y1540840*
Y1540840D02*
G01X2084591Y1540528D01*
X2084818Y1540215*
Y1540215D02*
G01X2085045Y1540059D01*
Y1540059D02*
G01X2085500D01*
X2085727Y1540215*
Y1540215D02*
G01X2085954Y1540528D01*
Y1540528D02*
G01X2086068Y1540840D01*
X2070489Y1545933D02*
G01X2078489D01*
X2074489Y1541933D02*
G01Y1549933D01*
X2078194Y1550433D02*
G01X2078080Y1550746D01*
Y1550746D02*
G01X2077853Y1551058D01*
Y1551058D02*
G01X2077626Y1551214D01*
Y1551214D02*
G01X2077171D01*
Y1551214D02*
G01X2076944Y1551058D01*
Y1551058D02*
G01X2076717Y1550746D01*
X2076603Y1550433*
Y1550433D02*
G01X2076489Y1549964D01*
Y1549964D02*
G01Y1549183D01*
Y1549183D02*
G01X2076603Y1548714D01*
Y1548714D02*
G01X2076717Y1548402D01*
X2076944Y1548089*
Y1548089D02*
G01X2077171Y1547933D01*
Y1547933D02*
G01X2077626D01*
Y1547933D02*
G01X2077853Y1548089D01*
Y1548089D02*
G01X2078080Y1548402D01*
Y1548402D02*
G01X2078194Y1548714D01*
X2070489Y1538059D02*
G01X2078489D01*
X2074489Y1534059D02*
G01Y1542059D01*
X2078194Y1542559D02*
G01X2078080Y1542871D01*
Y1542871D02*
G01X2077853Y1543184D01*
Y1543184D02*
G01X2077626Y1543340D01*
Y1543340D02*
G01X2077171D01*
Y1543340D02*
G01X2076944Y1543184D01*
Y1543184D02*
G01X2076717Y1542871D01*
Y1542871D02*
G01X2076603Y1542559D01*
Y1542559D02*
G01X2076489Y1542090D01*
Y1542090D02*
G01Y1541309D01*
Y1541309D02*
G01X2076603Y1540840D01*
Y1540840D02*
G01X2076717Y1540528D01*
X2076944Y1540215*
Y1540215D02*
G01X2077171Y1540059D01*
Y1540059D02*
G01X2077626D01*
X2077853Y1540215*
Y1540215D02*
G01X2078080Y1540528D01*
Y1540528D02*
G01X2078194Y1540840D01*
X2062615Y1545933D02*
G01X2070615D01*
X2066615Y1541933D02*
G01Y1549933D01*
X2070320Y1550433D02*
G01X2070206Y1550746D01*
Y1550746D02*
G01X2069979Y1551058D01*
Y1551058D02*
G01X2069752Y1551214D01*
Y1551214D02*
G01X2069297D01*
Y1551214D02*
G01X2069070Y1551058D01*
Y1551058D02*
G01X2068843Y1550746D01*
X2068729Y1550433*
Y1550433D02*
G01X2068615Y1549964D01*
Y1549964D02*
G01Y1549183D01*
Y1549183D02*
G01X2068729Y1548714D01*
Y1548714D02*
G01X2068843Y1548402D01*
X2069070Y1548089*
Y1548089D02*
G01X2069297Y1547933D01*
Y1547933D02*
G01X2069752D01*
Y1547933D02*
G01X2069979Y1548089D01*
Y1548089D02*
G01X2070206Y1548402D01*
Y1548402D02*
G01X2070320Y1548714D01*
X2062615Y1538059D02*
G01X2070615D01*
X2066615Y1534059D02*
G01Y1542059D01*
X2070320Y1542559D02*
G01X2070206Y1542871D01*
Y1542871D02*
G01X2069979Y1543184D01*
Y1543184D02*
G01X2069752Y1543340D01*
Y1543340D02*
G01X2069297D01*
Y1543340D02*
G01X2069070Y1543184D01*
Y1543184D02*
G01X2068843Y1542871D01*
Y1542871D02*
G01X2068729Y1542559D01*
Y1542559D02*
G01X2068615Y1542090D01*
Y1542090D02*
G01Y1541309D01*
Y1541309D02*
G01X2068729Y1540840D01*
Y1540840D02*
G01X2068843Y1540528D01*
X2069070Y1540215*
Y1540215D02*
G01X2069297Y1540059D01*
Y1540059D02*
G01X2069752D01*
X2069979Y1540215*
Y1540215D02*
G01X2070206Y1540528D01*
Y1540528D02*
G01X2070320Y1540840D01*
X2054741Y1545933D02*
G01X2062741D01*
X2058741Y1541933D02*
G01Y1549933D01*
X2062446Y1550433D02*
G01X2062332Y1550746D01*
Y1550746D02*
G01X2062105Y1551058D01*
Y1551058D02*
G01X2061878Y1551214D01*
Y1551214D02*
G01X2061423D01*
Y1551214D02*
G01X2061196Y1551058D01*
Y1551058D02*
G01X2060969Y1550746D01*
X2060855Y1550433*
Y1550433D02*
G01X2060741Y1549964D01*
Y1549964D02*
G01Y1549183D01*
Y1549183D02*
G01X2060855Y1548714D01*
Y1548714D02*
G01X2060969Y1548402D01*
X2061196Y1548089*
Y1548089D02*
G01X2061423Y1547933D01*
Y1547933D02*
G01X2061878D01*
Y1547933D02*
G01X2062105Y1548089D01*
Y1548089D02*
G01X2062332Y1548402D01*
Y1548402D02*
G01X2062446Y1548714D01*
X2054741Y1538059D02*
G01X2062741D01*
X2058741Y1534059D02*
G01Y1542059D01*
X2062446Y1542559D02*
G01X2062332Y1542871D01*
Y1542871D02*
G01X2062105Y1543184D01*
Y1543184D02*
G01X2061878Y1543340D01*
Y1543340D02*
G01X2061423D01*
Y1543340D02*
G01X2061196Y1543184D01*
X2060969Y1542871*
Y1542871D02*
G01X2060855Y1542559D01*
Y1542559D02*
G01X2060741Y1542090D01*
Y1542090D02*
G01Y1541309D01*
Y1541309D02*
G01X2060855Y1540840D01*
Y1540840D02*
G01X2060969Y1540528D01*
X2061196Y1540215*
Y1540215D02*
G01X2061423Y1540059D01*
Y1540059D02*
G01X2061878D01*
X2062105Y1540215*
Y1540215D02*
G01X2062332Y1540528D01*
Y1540528D02*
G01X2062446Y1540840D01*
X2046867Y1545933D02*
G01X2054867D01*
X2050867Y1541933D02*
G01Y1549933D01*
X2054572Y1550433D02*
G01X2054458Y1550746D01*
Y1550746D02*
G01X2054231Y1551058D01*
Y1551058D02*
G01X2054004Y1551214D01*
Y1551214D02*
G01X2053549D01*
Y1551214D02*
G01X2053322Y1551058D01*
Y1551058D02*
G01X2053095Y1550746D01*
X2052981Y1550433*
Y1550433D02*
G01X2052867Y1549964D01*
Y1549964D02*
G01Y1549183D01*
Y1549183D02*
G01X2052981Y1548714D01*
Y1548714D02*
G01X2053095Y1548402D01*
X2053322Y1548089*
Y1548089D02*
G01X2053549Y1547933D01*
Y1547933D02*
G01X2054004D01*
Y1547933D02*
G01X2054231Y1548089D01*
Y1548089D02*
G01X2054458Y1548402D01*
Y1548402D02*
G01X2054572Y1548714D01*
X2046867Y1538059D02*
G01X2054867D01*
X2050867Y1534059D02*
G01Y1542059D01*
X2054572Y1542559D02*
G01X2054458Y1542871D01*
Y1542871D02*
G01X2054231Y1543184D01*
Y1543184D02*
G01X2054004Y1543340D01*
Y1543340D02*
G01X2053549D01*
Y1543340D02*
G01X2053322Y1543184D01*
X2053095Y1542871*
Y1542871D02*
G01X2052981Y1542559D01*
Y1542559D02*
G01X2052867Y1542090D01*
Y1542090D02*
G01Y1541309D01*
Y1541309D02*
G01X2052981Y1540840D01*
Y1540840D02*
G01X2053095Y1540528D01*
X2053322Y1540215*
Y1540215D02*
G01X2053549Y1540059D01*
Y1540059D02*
G01X2054004D01*
X2054231Y1540215*
Y1540215D02*
G01X2054458Y1540528D01*
Y1540528D02*
G01X2054572Y1540840D01*
X2038993Y1545933D02*
G01X2046993D01*
X2042993Y1541933D02*
G01Y1549933D01*
X2046698Y1550433D02*
G01X2046584Y1550746D01*
Y1550746D02*
G01X2046357Y1551058D01*
Y1551058D02*
G01X2046130Y1551214D01*
Y1551214D02*
G01X2045675D01*
Y1551214D02*
G01X2045448Y1551058D01*
Y1551058D02*
G01X2045221Y1550746D01*
X2045107Y1550433*
Y1550433D02*
G01X2044993Y1549964D01*
Y1549964D02*
G01Y1549183D01*
Y1549183D02*
G01X2045107Y1548714D01*
Y1548714D02*
G01X2045221Y1548402D01*
X2045448Y1548089*
Y1548089D02*
G01X2045675Y1547933D01*
Y1547933D02*
G01X2046130D01*
Y1547933D02*
G01X2046357Y1548089D01*
Y1548089D02*
G01X2046584Y1548402D01*
Y1548402D02*
G01X2046698Y1548714D01*
X2038993Y1538059D02*
G01X2046993D01*
X2042993Y1534059D02*
G01Y1542059D01*
X2046698Y1542559D02*
G01X2046584Y1542871D01*
Y1542871D02*
G01X2046357Y1543184D01*
Y1543184D02*
G01X2046130Y1543340D01*
Y1543340D02*
G01X2045675D01*
Y1543340D02*
G01X2045448Y1543184D01*
X2045221Y1542871*
Y1542871D02*
G01X2045107Y1542559D01*
Y1542559D02*
G01X2044993Y1542090D01*
Y1542090D02*
G01Y1541309D01*
Y1541309D02*
G01X2045107Y1540840D01*
Y1540840D02*
G01X2045221Y1540528D01*
X2045448Y1540215*
Y1540215D02*
G01X2045675Y1540059D01*
Y1540059D02*
G01X2046130D01*
X2046357Y1540215*
Y1540215D02*
G01X2046584Y1540528D01*
Y1540528D02*
G01X2046698Y1540840D01*
X2031119Y1545933D02*
G01X2039119D01*
X2035119Y1541933D02*
G01Y1549933D01*
X2038824Y1550433D02*
G01X2038710Y1550746D01*
Y1550746D02*
G01X2038483Y1551058D01*
Y1551058D02*
G01X2038256Y1551214D01*
Y1551214D02*
G01X2037801D01*
Y1551214D02*
G01X2037574Y1551058D01*
Y1551058D02*
G01X2037347Y1550746D01*
X2037233Y1550433*
Y1550433D02*
G01X2037119Y1549964D01*
Y1549964D02*
G01Y1549183D01*
Y1549183D02*
G01X2037233Y1548714D01*
Y1548714D02*
G01X2037347Y1548402D01*
X2037574Y1548089*
Y1548089D02*
G01X2037801Y1547933D01*
Y1547933D02*
G01X2038256D01*
Y1547933D02*
G01X2038483Y1548089D01*
Y1548089D02*
G01X2038710Y1548402D01*
Y1548402D02*
G01X2038824Y1548714D01*
X2031119Y1538059D02*
G01X2039119D01*
X2035119Y1534059D02*
G01Y1542059D01*
X2038824Y1542559D02*
G01X2038710Y1542871D01*
Y1542871D02*
G01X2038483Y1543184D01*
Y1543184D02*
G01X2038256Y1543340D01*
Y1543340D02*
G01X2037801D01*
Y1543340D02*
G01X2037574Y1543184D01*
X2037347Y1542871*
Y1542871D02*
G01X2037233Y1542559D01*
Y1542559D02*
G01X2037119Y1542090D01*
Y1542090D02*
G01Y1541309D01*
Y1541309D02*
G01X2037233Y1540840D01*
Y1540840D02*
G01X2037347Y1540528D01*
X2037574Y1540215*
Y1540215D02*
G01X2037801Y1540059D01*
Y1540059D02*
G01X2038256D01*
X2038483Y1540215*
Y1540215D02*
G01X2038710Y1540528D01*
Y1540528D02*
G01X2038824Y1540840D01*
X2023245Y1545933D02*
G01X2031245D01*
X2027245Y1541933D02*
G01Y1549933D01*
X2030950Y1550433D02*
G01X2030836Y1550746D01*
Y1550746D02*
G01X2030609Y1551058D01*
Y1551058D02*
G01X2030382Y1551214D01*
Y1551214D02*
G01X2029927D01*
Y1551214D02*
G01X2029700Y1551058D01*
Y1551058D02*
G01X2029473Y1550746D01*
X2029359Y1550433*
Y1550433D02*
G01X2029245Y1549964D01*
Y1549964D02*
G01Y1549183D01*
Y1549183D02*
G01X2029359Y1548714D01*
Y1548714D02*
G01X2029473Y1548402D01*
X2029700Y1548089*
Y1548089D02*
G01X2029927Y1547933D01*
Y1547933D02*
G01X2030382D01*
Y1547933D02*
G01X2030609Y1548089D01*
Y1548089D02*
G01X2030836Y1548402D01*
Y1548402D02*
G01X2030950Y1548714D01*
X2023245Y1538059D02*
G01X2031245D01*
X2027245Y1534059D02*
G01Y1542059D01*
X2030950Y1542559D02*
G01X2030836Y1542871D01*
Y1542871D02*
G01X2030609Y1543184D01*
Y1543184D02*
G01X2030382Y1543340D01*
Y1543340D02*
G01X2029927D01*
Y1543340D02*
G01X2029700Y1543184D01*
X2029473Y1542871*
Y1542871D02*
G01X2029359Y1542559D01*
Y1542559D02*
G01X2029245Y1542090D01*
Y1542090D02*
G01Y1541309D01*
Y1541309D02*
G01X2029359Y1540840D01*
Y1540840D02*
G01X2029473Y1540528D01*
X2029700Y1540215*
Y1540215D02*
G01X2029927Y1540059D01*
Y1540059D02*
G01X2030382D01*
X2030609Y1540215*
Y1540215D02*
G01X2030836Y1540528D01*
Y1540528D02*
G01X2030950Y1540840D01*
X2015371Y1545933D02*
G01X2023371D01*
X2019371Y1541933D02*
G01Y1549933D01*
X2023076Y1550433D02*
G01X2022962Y1550746D01*
Y1550746D02*
G01X2022735Y1551058D01*
Y1551058D02*
G01X2022508Y1551214D01*
Y1551214D02*
G01X2022053D01*
Y1551214D02*
G01X2021826Y1551058D01*
Y1551058D02*
G01X2021599Y1550746D01*
X2021485Y1550433*
Y1550433D02*
G01X2021371Y1549964D01*
Y1549964D02*
G01Y1549183D01*
Y1549183D02*
G01X2021485Y1548714D01*
Y1548714D02*
G01X2021599Y1548402D01*
X2021826Y1548089*
Y1548089D02*
G01X2022053Y1547933D01*
Y1547933D02*
G01X2022508D01*
Y1547933D02*
G01X2022735Y1548089D01*
Y1548089D02*
G01X2022962Y1548402D01*
Y1548402D02*
G01X2023076Y1548714D01*
X2015371Y1538059D02*
G01X2023371D01*
X2019371Y1534059D02*
G01Y1542059D01*
X2023076Y1542559D02*
G01X2022962Y1542871D01*
Y1542871D02*
G01X2022735Y1543184D01*
Y1543184D02*
G01X2022508Y1543340D01*
Y1543340D02*
G01X2022053D01*
Y1543340D02*
G01X2021826Y1543184D01*
X2021599Y1542871*
Y1542871D02*
G01X2021485Y1542559D01*
Y1542559D02*
G01X2021371Y1542090D01*
Y1542090D02*
G01Y1541309D01*
Y1541309D02*
G01X2021485Y1540840D01*
Y1540840D02*
G01X2021599Y1540528D01*
X2021826Y1540215*
Y1540215D02*
G01X2022053Y1540059D01*
Y1540059D02*
G01X2022508D01*
X2022735Y1540215*
Y1540215D02*
G01X2022962Y1540528D01*
Y1540528D02*
G01X2023076Y1540840D01*
X2007497Y1545933D02*
G01X2015497D01*
X2011497Y1541933D02*
G01Y1549933D01*
X2015202Y1550433D02*
G01X2015088Y1550746D01*
Y1550746D02*
G01X2014861Y1551058D01*
Y1551058D02*
G01X2014634Y1551214D01*
Y1551214D02*
G01X2014179D01*
Y1551214D02*
G01X2013952Y1551058D01*
Y1551058D02*
G01X2013725Y1550746D01*
X2013611Y1550433*
Y1550433D02*
G01X2013497Y1549964D01*
Y1549964D02*
G01Y1549183D01*
Y1549183D02*
G01X2013611Y1548714D01*
Y1548714D02*
G01X2013725Y1548402D01*
X2013952Y1548089*
Y1548089D02*
G01X2014179Y1547933D01*
Y1547933D02*
G01X2014634D01*
Y1547933D02*
G01X2014861Y1548089D01*
Y1548089D02*
G01X2015088Y1548402D01*
Y1548402D02*
G01X2015202Y1548714D01*
X2007497Y1538059D02*
G01X2015497D01*
X2011497Y1534059D02*
G01Y1542059D01*
X2015202Y1542559D02*
G01X2015088Y1542871D01*
Y1542871D02*
G01X2014861Y1543184D01*
X2014634Y1543340*
Y1543340D02*
G01X2014179D01*
Y1543340D02*
G01X2013952Y1543184D01*
X2013725Y1542871*
Y1542871D02*
G01X2013611Y1542559D01*
X2013497Y1542090*
Y1542090D02*
G01Y1541309D01*
Y1541309D02*
G01X2013611Y1540840D01*
Y1540840D02*
G01X2013725Y1540528D01*
X2013952Y1540215*
Y1540215D02*
G01X2014179Y1540059D01*
Y1540059D02*
G01X2014634D01*
X2014861Y1540215*
Y1540215D02*
G01X2015088Y1540528D01*
Y1540528D02*
G01X2015202Y1540840D01*
X2070866Y1645369D02*
G01X2074866Y1649369D01*
Y1649369D02*
G01X2070866Y1653369D01*
Y1653369D02*
G01X2066866Y1649369D01*
Y1649369D02*
G01X2070866Y1645369D01*
Y1649369D02*
G01Y1653369D01*
Y1635369D02*
G01X2074866Y1639369D01*
Y1639369D02*
G01X2070866Y1643369D01*
Y1643369D02*
G01X2066866Y1639369D01*
Y1639369D02*
G01X2070866Y1635369D01*
Y1639369D02*
G01Y1643369D01*
Y1625369D02*
G01X2074866Y1629369D01*
Y1629369D02*
G01X2070866Y1633369D01*
Y1633369D02*
G01X2066866Y1629369D01*
Y1629369D02*
G01X2070866Y1625369D01*
Y1629369D02*
G01Y1633369D01*
X1901512Y1542913D02*
G01X1909512D01*
X1905512Y1538913D02*
G01Y1546913D01*
X1907512Y1548194D02*
G01Y1544913D01*
Y1548194D02*
G01X1908307D01*
Y1548194D02*
G01X1908648Y1548038D01*
Y1548038D02*
G01X1908875Y1547726D01*
Y1547726D02*
G01X1908989Y1547413D01*
Y1547413D02*
G01X1909102Y1546944D01*
Y1546944D02*
G01Y1546163D01*
Y1546163D02*
G01X1908989Y1545694D01*
Y1545694D02*
G01X1908875Y1545382D01*
Y1545382D02*
G01X1908648Y1545069D01*
Y1545069D02*
G01X1908307Y1544913D01*
Y1544913D02*
G01X1907512D01*
X2090488Y1542913D02*
G01X2098488D01*
X2094488Y1538913D02*
G01Y1546913D01*
X2096488Y1548194D02*
G01Y1544913D01*
Y1548194D02*
G01X2097283D01*
Y1548194D02*
G01X2097624Y1548038D01*
Y1548038D02*
G01X2097851Y1547726D01*
Y1547726D02*
G01X2097965Y1547413D01*
Y1547413D02*
G01X2098078Y1546944D01*
Y1546944D02*
G01Y1546163D01*
Y1546163D02*
G01X2097965Y1545694D01*
Y1545694D02*
G01X2097851Y1545382D01*
Y1545382D02*
G01X2097624Y1545069D01*
Y1545069D02*
G01X2097283Y1544913D01*
Y1544913D02*
G01X2096488D01*
X2090488Y1657086D02*
G01X2098488D01*
X2094488Y1653086D02*
G01Y1661086D01*
X2096488Y1662367D02*
G01Y1659086D01*
Y1662367D02*
G01X2097283D01*
Y1662367D02*
G01X2097624Y1662211D01*
Y1662211D02*
G01X2097851Y1661899D01*
Y1661899D02*
G01X2097965Y1661586D01*
Y1661586D02*
G01X2098078Y1661117D01*
Y1661117D02*
G01Y1660336D01*
Y1660336D02*
G01X2097965Y1659867D01*
Y1659867D02*
G01X2097851Y1659555D01*
Y1659555D02*
G01X2097624Y1659242D01*
Y1659242D02*
G01X2097283Y1659086D01*
Y1659086D02*
G01X2096488D01*
X1901512Y1657086D02*
G01X1909512D01*
X1905512Y1653086D02*
G01Y1661086D01*
X1907512Y1662367D02*
G01Y1659086D01*
Y1662367D02*
G01X1908307D01*
Y1662367D02*
G01X1908648Y1662211D01*
Y1662211D02*
G01X1908875Y1661899D01*
Y1661899D02*
G01X1908989Y1661586D01*
Y1661586D02*
G01X1909102Y1661117D01*
Y1661117D02*
G01Y1660336D01*
Y1660336D02*
G01X1908989Y1659867D01*
Y1659867D02*
G01X1908875Y1659555D01*
Y1659555D02*
G01X1908648Y1659242D01*
Y1659242D02*
G01X1908307Y1659086D01*
Y1659086D02*
G01X1907512D01*
X1891536Y1535311D02*
G01X1899536D01*
X1895536Y1531311D02*
G01Y1539311D01*
X1897536Y1540592D02*
G01Y1537311D01*
Y1540592D02*
G01X1899013D01*
X1897536Y1539030D02*
G01X1898445D01*
X1897536Y1537311D02*
G01X1899013D01*
X1908707Y1533403D02*
G01X1916707D01*
X1912707Y1529403D02*
G01Y1537403D01*
X1914707Y1538684D02*
G01Y1535403D01*
Y1538684D02*
G01X1916184D01*
X1914707Y1537122D02*
G01X1915616D01*
X1914707Y1535403D02*
G01X1916184D01*
X1922365Y1532223D02*
G01X1930365D01*
X1926365Y1528223D02*
G01Y1536223D01*
X1928365Y1537504D02*
G01Y1534223D01*
Y1537504D02*
G01X1929842D01*
X1928365Y1535942D02*
G01X1929274D01*
X1928365Y1534223D02*
G01X1929842D01*
X1968144Y1532214D02*
G01X1976144D01*
X1972144Y1528214D02*
G01Y1536214D01*
X1974144Y1537495D02*
G01Y1534214D01*
Y1537495D02*
G01X1975621D01*
X1974144Y1535933D02*
G01X1975053D01*
X1974144Y1534214D02*
G01X1975621D01*
X1964922Y1534604D02*
G01X1972922D01*
X1968922Y1530604D02*
G01Y1538604D01*
X1970922Y1539885D02*
G01Y1536604D01*
Y1539885D02*
G01X1972399D01*
X1970922Y1538323D02*
G01X1971831D01*
X1970922Y1536604D02*
G01X1972399D01*
X1973633Y1534320D02*
G01X1981633D01*
X1977633Y1530320D02*
G01Y1538320D01*
X1979633Y1539601D02*
G01Y1536320D01*
Y1539601D02*
G01X1981110D01*
X1979633Y1538039D02*
G01X1980542D01*
X1979633Y1536320D02*
G01X1981110D01*
X1979293Y1533949D02*
G01X1987293D01*
X1983293Y1529949D02*
G01Y1537949D01*
X1985293Y1539230D02*
G01Y1535949D01*
Y1539230D02*
G01X1986770D01*
X1985293Y1537668D02*
G01X1986202D01*
X1985293Y1535949D02*
G01X1986770D01*
X1985225Y1534605D02*
G01X1993225D01*
X1989225Y1530605D02*
G01Y1538605D01*
X1991225Y1539886D02*
G01Y1536605D01*
Y1539886D02*
G01X1992702D01*
X1991225Y1538324D02*
G01X1992134D01*
X1991225Y1536605D02*
G01X1992702D01*
X1991327Y1532250D02*
G01X1999327D01*
X1995327Y1528250D02*
G01Y1536250D01*
X1997327Y1537531D02*
G01Y1534250D01*
Y1537531D02*
G01X1998804D01*
X1997327Y1535969D02*
G01X1998236D01*
X1997327Y1534250D02*
G01X1998804D01*
X2067164Y1532621D02*
G01X2075164D01*
X2071164Y1528621D02*
G01Y1536621D01*
X2073164Y1537902D02*
G01Y1534621D01*
Y1537902D02*
G01X2074641D01*
X2073164Y1536340D02*
G01X2074073D01*
X2073164Y1534621D02*
G01X2074641D01*
X2074947Y1533697D02*
G01X2082947D01*
X2078947Y1529697D02*
G01Y1537697D01*
X2080947Y1538978D02*
G01Y1535697D01*
Y1538978D02*
G01X2082424D01*
X2080947Y1537416D02*
G01X2081856D01*
X2080947Y1535697D02*
G01X2082424D01*
X1942116Y1543194D02*
G01X1950116D01*
X1946116Y1539194D02*
G01Y1547194D01*
X1948116Y1548475D02*
G01Y1545194D01*
Y1548475D02*
G01X1949593D01*
X1948116Y1546913D02*
G01X1949025D01*
X1948116Y1545194D02*
G01X1949593D01*
X1968136Y1539336D02*
G01X1976136D01*
X1972136Y1535336D02*
G01Y1543336D01*
X1974136Y1544617D02*
G01Y1541336D01*
Y1544617D02*
G01X1975613D01*
X1974136Y1543055D02*
G01X1975045D01*
X1974136Y1541336D02*
G01X1975613D01*
X1965727Y1541584D02*
G01X1973727D01*
X1969727Y1537584D02*
G01Y1545584D01*
X1971727Y1546865D02*
G01Y1543584D01*
Y1546865D02*
G01X1973204D01*
X1971727Y1545303D02*
G01X1972636D01*
X1971727Y1543584D02*
G01X1973204D01*
X1985225Y1541584D02*
G01X1993225D01*
X1989225Y1537584D02*
G01Y1545584D01*
X1991225Y1546865D02*
G01Y1543584D01*
Y1546865D02*
G01X1992702D01*
X1991225Y1545303D02*
G01X1992134D01*
X1991225Y1543584D02*
G01X1992702D01*
X1994660Y1546222D02*
G01X2002660D01*
X1998660Y1542222D02*
G01Y1550222D01*
X2000660Y1551503D02*
G01Y1548222D01*
Y1551503D02*
G01X2002137D01*
X2000660Y1549941D02*
G01X2001569D01*
X2000660Y1548222D02*
G01X2002137D01*
X1997481Y1545944D02*
G01X2005481D01*
X2001481Y1541944D02*
G01Y1549944D01*
X2003481Y1551225D02*
G01Y1547944D01*
Y1551225D02*
G01X2004958D01*
X2003481Y1549663D02*
G01X2004390D01*
X2003481Y1547944D02*
G01X2004958D01*
X2000216Y1539338D02*
G01X2008216D01*
X2004216Y1535338D02*
G01Y1543338D01*
X2006216Y1544619D02*
G01Y1541338D01*
Y1544619D02*
G01X2007693D01*
X2006216Y1543057D02*
G01X2007125D01*
X2006216Y1541338D02*
G01X2007693D01*
X1890343Y1548508D02*
G01X1898343D01*
X1894343Y1544508D02*
G01Y1552508D01*
X1896343Y1553789D02*
G01Y1550508D01*
Y1553789D02*
G01X1897820D01*
X1896343Y1552227D02*
G01X1897252D01*
X1896343Y1550508D02*
G01X1897820D01*
X1896481Y1553867D02*
G01X1904481D01*
X1900481Y1549867D02*
G01Y1557867D01*
X1902481Y1559148D02*
G01Y1555867D01*
Y1559148D02*
G01X1903958D01*
X1902481Y1557586D02*
G01X1903390D01*
X1902481Y1555867D02*
G01X1903958D01*
X1910933Y1555504D02*
G01X1918933D01*
X1914933Y1551504D02*
G01Y1559504D01*
X1916933Y1560785D02*
G01Y1557504D01*
Y1560785D02*
G01X1918410D01*
X1916933Y1559223D02*
G01X1917842D01*
X1916933Y1557504D02*
G01X1918410D01*
X1937538Y1555597D02*
G01X1945538D01*
X1941538Y1551597D02*
G01Y1559597D01*
X1943538Y1560878D02*
G01Y1557597D01*
Y1560878D02*
G01X1945015D01*
X1943538Y1559316D02*
G01X1944447D01*
X1943538Y1557597D02*
G01X1945015D01*
X1952345Y1554168D02*
G01X1960345D01*
X1956345Y1550168D02*
G01Y1558168D01*
X1958345Y1559449D02*
G01Y1556168D01*
Y1559449D02*
G01X1959822D01*
X1958345Y1557887D02*
G01X1959254D01*
X1958345Y1556168D02*
G01X1959822D01*
X1957085Y1556137D02*
G01X1965085D01*
X1961085Y1552137D02*
G01Y1560137D01*
X1963085Y1561418D02*
G01Y1558137D01*
Y1561418D02*
G01X1964562D01*
X1963085Y1559856D02*
G01X1963994D01*
X1963085Y1558137D02*
G01X1964562D01*
X1970147Y1556251D02*
G01X1978147D01*
X1974147Y1552251D02*
G01Y1560251D01*
X1976147Y1561532D02*
G01Y1558251D01*
Y1561532D02*
G01X1977624D01*
X1976147Y1559970D02*
G01X1977056D01*
X1976147Y1558251D02*
G01X1977624D01*
X1971737Y1547821D02*
G01X1979737D01*
X1975737Y1543821D02*
G01Y1551821D01*
X1977737Y1553102D02*
G01Y1549821D01*
Y1553102D02*
G01X1979214D01*
X1977737Y1551540D02*
G01X1978646D01*
X1977737Y1549821D02*
G01X1979214D01*
X1982215Y1548825D02*
G01X1990215D01*
X1986215Y1544825D02*
G01Y1552825D01*
X1988215Y1554106D02*
G01Y1550825D01*
Y1554106D02*
G01X1989692D01*
X1988215Y1552544D02*
G01X1989124D01*
X1988215Y1550825D02*
G01X1989692D01*
X1976156Y1553651D02*
G01X1984156D01*
X1980156Y1549651D02*
G01Y1557651D01*
X1982156Y1558932D02*
G01Y1555651D01*
Y1558932D02*
G01X1983633D01*
X1982156Y1557370D02*
G01X1983065D01*
X1982156Y1555651D02*
G01X1983633D01*
X1984439Y1553730D02*
G01X1992439D01*
X1988439Y1549730D02*
G01Y1557730D01*
X1990439Y1559011D02*
G01Y1555730D01*
Y1559011D02*
G01X1991916D01*
X1990439Y1557449D02*
G01X1991348D01*
X1990439Y1555730D02*
G01X1991916D01*
X1993107Y1555625D02*
G01X2001107D01*
X1997107Y1551625D02*
G01Y1559625D01*
X1999107Y1560906D02*
G01Y1557625D01*
Y1560906D02*
G01X2000584D01*
X1999107Y1559344D02*
G01X2000016D01*
X1999107Y1557625D02*
G01X2000584D01*
X1985339Y1548858D02*
G01X1993339D01*
X1989339Y1544858D02*
G01Y1552858D01*
X1991339Y1554139D02*
G01Y1550858D01*
Y1554139D02*
G01X1992816D01*
X1991339Y1552577D02*
G01X1992248D01*
X1991339Y1550858D02*
G01X1992816D01*
X1990947Y1553369D02*
G01X1998947D01*
X1994947Y1549369D02*
G01Y1557369D01*
X1996947Y1558650D02*
G01Y1555369D01*
Y1558650D02*
G01X1998424D01*
X1996947Y1557088D02*
G01X1997856D01*
X1996947Y1555369D02*
G01X1998424D01*
X1988747Y1551074D02*
G01X1996747D01*
X1992747Y1547074D02*
G01Y1555074D01*
X1994747Y1556355D02*
G01Y1553074D01*
Y1556355D02*
G01X1996224D01*
X1994747Y1554793D02*
G01X1995656D01*
X1994747Y1553074D02*
G01X1996224D01*
X2015337Y1556730D02*
G01X2023337D01*
X2019337Y1552730D02*
G01Y1560730D01*
X2021337Y1562011D02*
G01Y1558730D01*
Y1562011D02*
G01X2022814D01*
X2021337Y1560449D02*
G01X2022246D01*
X2021337Y1558730D02*
G01X2022814D01*
X2023241Y1554523D02*
G01X2031241D01*
X2027241Y1550523D02*
G01Y1558523D01*
X2029241Y1559804D02*
G01Y1556523D01*
Y1559804D02*
G01X2030718D01*
X2029241Y1558242D02*
G01X2030150D01*
X2029241Y1556523D02*
G01X2030718D01*
X2031067Y1552314D02*
G01X2039067D01*
X2035067Y1548314D02*
G01Y1556314D01*
X2037067Y1557595D02*
G01Y1554314D01*
Y1557595D02*
G01X2038544D01*
X2037067Y1556033D02*
G01X2037976D01*
X2037067Y1554314D02*
G01X2038544D01*
X2036612Y1553885D02*
G01X2044612D01*
X2040612Y1549885D02*
G01Y1557885D01*
X2042612Y1559166D02*
G01Y1555885D01*
Y1559166D02*
G01X2044089D01*
X2042612Y1557604D02*
G01X2043521D01*
X2042612Y1555885D02*
G01X2044089D01*
X2039210Y1549947D02*
G01X2047210D01*
X2043210Y1545947D02*
G01Y1553947D01*
X2045210Y1555228D02*
G01Y1551947D01*
Y1555228D02*
G01X2046687D01*
X2045210Y1553666D02*
G01X2046119D01*
X2045210Y1551947D02*
G01X2046687D01*
X2084370Y1550821D02*
G01X2092370D01*
X2088370Y1546821D02*
G01Y1554821D01*
X2090370Y1556102D02*
G01Y1552821D01*
Y1556102D02*
G01X2091847D01*
X2090370Y1554540D02*
G01X2091279D01*
X2090370Y1552821D02*
G01X2091847D01*
X1890652Y1558609D02*
G01X1898652D01*
X1894652Y1554609D02*
G01Y1562609D01*
X1896652Y1563890D02*
G01Y1560609D01*
Y1563890D02*
G01X1898129D01*
X1896652Y1562328D02*
G01X1897561D01*
X1896652Y1560609D02*
G01X1898129D01*
X1900531Y1558921D02*
G01X1908531D01*
X1904531Y1554921D02*
G01Y1562921D01*
X1906531Y1564202D02*
G01Y1560921D01*
Y1564202D02*
G01X1908008D01*
X1906531Y1562640D02*
G01X1907440D01*
X1906531Y1560921D02*
G01X1908008D01*
X1897143Y1566867D02*
G01X1905143D01*
X1901143Y1562867D02*
G01Y1570867D01*
X1903143Y1572148D02*
G01Y1568867D01*
Y1572148D02*
G01X1904620D01*
X1903143Y1570586D02*
G01X1904052D01*
X1903143Y1568867D02*
G01X1904620D01*
X1908295Y1563042D02*
G01X1916295D01*
X1912295Y1559042D02*
G01Y1567042D01*
X1914295Y1568323D02*
G01Y1565042D01*
Y1568323D02*
G01X1915772D01*
X1914295Y1566761D02*
G01X1915204D01*
X1914295Y1565042D02*
G01X1915772D01*
X1960917Y1566796D02*
G01X1968917D01*
X1964917Y1562796D02*
G01Y1570796D01*
X1966917Y1572077D02*
G01Y1568796D01*
Y1572077D02*
G01X1968394D01*
X1966917Y1570515D02*
G01X1967826D01*
X1966917Y1568796D02*
G01X1968394D01*
X2011607Y1562295D02*
G01X2019607D01*
X2015607Y1558295D02*
G01Y1566295D01*
X2017607Y1567576D02*
G01Y1564295D01*
Y1567576D02*
G01X2019084D01*
X2017607Y1566014D02*
G01X2018516D01*
X2017607Y1564295D02*
G01X2019084D01*
X2005551Y1562924D02*
G01X2013551D01*
X2009551Y1558924D02*
G01Y1566924D01*
X2011551Y1568205D02*
G01Y1564924D01*
Y1568205D02*
G01X2013028D01*
X2011551Y1566643D02*
G01X2012460D01*
X2011551Y1564924D02*
G01X2013028D01*
X2008709Y1565608D02*
G01X2016709D01*
X2012709Y1561608D02*
G01Y1569608D01*
X2014709Y1570889D02*
G01Y1567608D01*
Y1570889D02*
G01X2016186D01*
X2014709Y1569327D02*
G01X2015618D01*
X2014709Y1567608D02*
G01X2016186D01*
X2015275Y1564441D02*
G01X2023275D01*
X2019275Y1560441D02*
G01Y1568441D01*
X2021275Y1569722D02*
G01Y1566441D01*
Y1569722D02*
G01X2022752D01*
X2021275Y1568160D02*
G01X2022184D01*
X2021275Y1566441D02*
G01X2022752D01*
X2023157Y1566393D02*
G01X2031157D01*
X2027157Y1562393D02*
G01Y1570393D01*
X2029157Y1571674D02*
G01Y1568393D01*
Y1571674D02*
G01X2030634D01*
X2029157Y1570112D02*
G01X2030066D01*
X2029157Y1568393D02*
G01X2030634D01*
X2020212Y1566664D02*
G01X2028212D01*
X2024212Y1562664D02*
G01Y1570664D01*
X2026212Y1571945D02*
G01Y1568664D01*
Y1571945D02*
G01X2027689D01*
X2026212Y1570383D02*
G01X2027121D01*
X2026212Y1568664D02*
G01X2027689D01*
X2034720Y1566426D02*
G01X2042720D01*
X2038720Y1562426D02*
G01Y1570426D01*
X2040720Y1571707D02*
G01Y1568426D01*
Y1571707D02*
G01X2042197D01*
X2040720Y1570145D02*
G01X2041629D01*
X2040720Y1568426D02*
G01X2042197D01*
X2038853Y1557589D02*
G01X2046853D01*
X2042853Y1553589D02*
G01Y1561589D01*
X2044853Y1562870D02*
G01Y1559589D01*
Y1562870D02*
G01X2046330D01*
X2044853Y1561308D02*
G01X2045762D01*
X2044853Y1559589D02*
G01X2046330D01*
X2046849Y1561801D02*
G01X2054849D01*
X2050849Y1557801D02*
G01Y1565801D01*
X2052849Y1567082D02*
G01Y1563801D01*
Y1567082D02*
G01X2054326D01*
X2052849Y1565520D02*
G01X2053758D01*
X2052849Y1563801D02*
G01X2054326D01*
X2054804Y1564172D02*
G01X2062804D01*
X2058804Y1560172D02*
G01Y1568172D01*
X2060804Y1569453D02*
G01Y1566172D01*
Y1569453D02*
G01X2062281D01*
X2060804Y1567891D02*
G01X2061713D01*
X2060804Y1566172D02*
G01X2062281D01*
X2101880Y1564505D02*
G01X2109880D01*
X2105880Y1560505D02*
G01Y1568505D01*
X2107880Y1569786D02*
G01Y1566505D01*
Y1569786D02*
G01X2109357D01*
X2107880Y1568224D02*
G01X2108789D01*
X2107880Y1566505D02*
G01X2109357D01*
X2101028Y1558354D02*
G01X2109028D01*
X2105028Y1554354D02*
G01Y1562354D01*
X2107028Y1563635D02*
G01Y1560354D01*
Y1563635D02*
G01X2108505D01*
X2107028Y1562073D02*
G01X2107937D01*
X2107028Y1560354D02*
G01X2108505D01*
X1893315Y1572411D02*
G01X1901315D01*
X1897315Y1568411D02*
G01Y1576411D01*
X1899315Y1577692D02*
G01Y1574411D01*
Y1577692D02*
G01X1900792D01*
X1899315Y1576130D02*
G01X1900224D01*
X1899315Y1574411D02*
G01X1900792D01*
X1903452Y1573558D02*
G01X1911452D01*
X1907452Y1569558D02*
G01Y1577558D01*
X1909452Y1578839D02*
G01Y1575558D01*
Y1578839D02*
G01X1910929D01*
X1909452Y1577277D02*
G01X1910361D01*
X1909452Y1575558D02*
G01X1910929D01*
X1909890Y1569840D02*
G01X1917890D01*
X1913890Y1565840D02*
G01Y1573840D01*
X1915890Y1575121D02*
G01Y1571840D01*
Y1575121D02*
G01X1917367D01*
X1915890Y1573559D02*
G01X1916799D01*
X1915890Y1571840D02*
G01X1917367D01*
X1951921Y1571134D02*
G01X1959921D01*
X1955921Y1567134D02*
G01Y1575134D01*
X1957921Y1576415D02*
G01Y1573134D01*
Y1576415D02*
G01X1959398D01*
X1957921Y1574853D02*
G01X1958830D01*
X1957921Y1573134D02*
G01X1959398D01*
X1952705Y1568074D02*
G01X1960705D01*
X1956705Y1564074D02*
G01Y1572074D01*
X1958705Y1573355D02*
G01Y1570074D01*
Y1573355D02*
G01X1960182D01*
X1958705Y1571793D02*
G01X1959614D01*
X1958705Y1570074D02*
G01X1960182D01*
X1970700Y1573952D02*
G01X1978700D01*
X1974700Y1569952D02*
G01Y1577952D01*
X1976700Y1579233D02*
G01Y1575952D01*
Y1579233D02*
G01X1978177D01*
X1976700Y1577671D02*
G01X1977609D01*
X1976700Y1575952D02*
G01X1978177D01*
X1984032Y1576402D02*
G01X1992032D01*
X1988032Y1572402D02*
G01Y1580402D01*
X1990032Y1581683D02*
G01Y1578402D01*
Y1581683D02*
G01X1991509D01*
X1990032Y1580121D02*
G01X1990941D01*
X1990032Y1578402D02*
G01X1991509D01*
X2010331Y1569174D02*
G01X2018331D01*
X2014331Y1565174D02*
G01Y1573174D01*
X2016331Y1574455D02*
G01Y1571174D01*
Y1574455D02*
G01X2017808D01*
X2016331Y1572893D02*
G01X2017240D01*
X2016331Y1571174D02*
G01X2017808D01*
X2017663Y1569535D02*
G01X2025663D01*
X2021663Y1565535D02*
G01Y1573535D01*
X2023663Y1574816D02*
G01Y1571535D01*
Y1574816D02*
G01X2025140D01*
X2023663Y1573254D02*
G01X2024572D01*
X2023663Y1571535D02*
G01X2025140D01*
X2025585Y1576414D02*
G01X2033585D01*
X2029585Y1572414D02*
G01Y1580414D01*
X2031585Y1581695D02*
G01Y1578414D01*
Y1581695D02*
G01X2033062D01*
X2031585Y1580133D02*
G01X2032494D01*
X2031585Y1578414D02*
G01X2033062D01*
X2030553Y1571811D02*
G01X2038553D01*
X2034553Y1567811D02*
G01Y1575811D01*
X2036553Y1577092D02*
G01Y1573811D01*
Y1577092D02*
G01X2038030D01*
X2036553Y1575530D02*
G01X2037462D01*
X2036553Y1573811D02*
G01X2038030D01*
X2028120Y1573991D02*
G01X2036120D01*
X2032120Y1569991D02*
G01Y1577991D01*
X2034120Y1579272D02*
G01Y1575991D01*
Y1579272D02*
G01X2035597D01*
X2034120Y1577710D02*
G01X2035029D01*
X2034120Y1575991D02*
G01X2035597D01*
X2046255Y1569529D02*
G01X2054255D01*
X2050255Y1565529D02*
G01Y1573529D01*
X2052255Y1574810D02*
G01Y1571529D01*
Y1574810D02*
G01X2053733D01*
X2052255Y1573248D02*
G01X2053164D01*
X2052255Y1571529D02*
G01X2053733D01*
X2058119Y1569519D02*
G01X2066119D01*
X2062119Y1565519D02*
G01Y1573519D01*
X2064119Y1574800D02*
G01Y1571519D01*
Y1574800D02*
G01X2065596D01*
X2064119Y1573238D02*
G01X2065028D01*
X2064119Y1571519D02*
G01X2065596D01*
X2083064Y1575433D02*
G01X2091064D01*
X2087064Y1571433D02*
G01Y1579433D01*
X2089064Y1580714D02*
G01Y1577433D01*
Y1580714D02*
G01X2090541D01*
X2089064Y1579152D02*
G01X2089973D01*
X2089064Y1577433D02*
G01X2090541D01*
X2087335Y1567242D02*
G01X2095335D01*
X2091335Y1563242D02*
G01Y1571242D01*
X2093335Y1572523D02*
G01Y1569242D01*
Y1572523D02*
G01X2094812D01*
X2093335Y1570961D02*
G01X2094244D01*
X2093335Y1569242D02*
G01X2094812D01*
X2092764Y1575433D02*
G01X2100764D01*
X2096764Y1571433D02*
G01Y1579433D01*
X2098764Y1580714D02*
G01Y1577433D01*
Y1580714D02*
G01X2100241D01*
X2098764Y1579152D02*
G01X2099673D01*
X2098764Y1577433D02*
G01X2100241D01*
X2101270Y1571310D02*
G01X2109270D01*
X2105270Y1567310D02*
G01Y1575310D01*
X2107270Y1576591D02*
G01Y1573310D01*
Y1576591D02*
G01X2108747D01*
X2107270Y1575029D02*
G01X2108179D01*
X2107270Y1573310D02*
G01X2108747D01*
X1892108Y1582215D02*
G01X1900108D01*
X1896108Y1578215D02*
G01Y1586215D01*
X1898108Y1587496D02*
G01Y1584215D01*
Y1587496D02*
G01X1899585D01*
X1898108Y1585934D02*
G01X1899017D01*
X1898108Y1584215D02*
G01X1899585D01*
X1898080Y1577997D02*
G01X1906080D01*
X1902080Y1573997D02*
G01Y1581997D01*
X1904080Y1583278D02*
G01Y1579997D01*
Y1583278D02*
G01X1905557D01*
X1904080Y1581716D02*
G01X1904989D01*
X1904080Y1579997D02*
G01X1905557D01*
X1897326Y1584019D02*
G01X1905326D01*
X1901326Y1580019D02*
G01Y1588019D01*
X1903326Y1589300D02*
G01Y1586019D01*
Y1589300D02*
G01X1904803D01*
X1903326Y1587738D02*
G01X1904235D01*
X1903326Y1586019D02*
G01X1904803D01*
X1906082Y1585059D02*
G01X1914082D01*
X1910082Y1581059D02*
G01Y1589059D01*
X1912082Y1590340D02*
G01Y1587059D01*
Y1590340D02*
G01X1913559D01*
X1912082Y1588778D02*
G01X1912991D01*
X1912082Y1587059D02*
G01X1913559D01*
X1938489Y1584856D02*
G01X1946489D01*
X1942489Y1580856D02*
G01Y1588856D01*
X1944489Y1590137D02*
G01Y1586856D01*
Y1590137D02*
G01X1945966D01*
X1944489Y1588575D02*
G01X1945398D01*
X1944489Y1586856D02*
G01X1945966D01*
X1952588Y1583646D02*
G01X1960588D01*
X1956588Y1579646D02*
G01Y1587646D01*
X1958588Y1588927D02*
G01Y1585646D01*
Y1588927D02*
G01X1960065D01*
X1958588Y1587365D02*
G01X1959497D01*
X1958588Y1585646D02*
G01X1960065D01*
X1953161Y1586303D02*
G01X1961161D01*
X1957161Y1582303D02*
G01Y1590303D01*
X1959161Y1591584D02*
G01Y1588303D01*
Y1591584D02*
G01X1960638D01*
X1959161Y1590022D02*
G01X1960070D01*
X1959161Y1588303D02*
G01X1960638D01*
X1960864Y1577795D02*
G01X1968864D01*
X1964864Y1573795D02*
G01Y1581795D01*
X1966864Y1583076D02*
G01Y1579795D01*
Y1583076D02*
G01X1968341D01*
X1966864Y1581514D02*
G01X1967773D01*
X1966864Y1579795D02*
G01X1968341D01*
X1984323Y1579904D02*
G01X1992323D01*
X1988323Y1575904D02*
G01Y1583904D01*
X1990323Y1585185D02*
G01Y1581904D01*
Y1585185D02*
G01X1991800D01*
X1990323Y1583623D02*
G01X1991232D01*
X1990323Y1581904D02*
G01X1991800D01*
X1984196Y1583935D02*
G01X1992196D01*
X1988196Y1579935D02*
G01Y1587935D01*
X1990196Y1589216D02*
G01Y1585935D01*
Y1589216D02*
G01X1991673D01*
X1990196Y1587654D02*
G01X1991105D01*
X1990196Y1585935D02*
G01X1991673D01*
X2005422Y1579187D02*
G01X2013422D01*
X2009422Y1575187D02*
G01Y1583187D01*
X2011422Y1584468D02*
G01Y1581187D01*
Y1584468D02*
G01X2012899D01*
X2011422Y1582906D02*
G01X2012331D01*
X2011422Y1581187D02*
G01X2012899D01*
X2023175Y1579233D02*
G01X2031175D01*
X2027175Y1575233D02*
G01Y1583233D01*
X2029175Y1584514D02*
G01Y1581233D01*
Y1584514D02*
G01X2030652D01*
X2029175Y1582952D02*
G01X2030084D01*
X2029175Y1581233D02*
G01X2030652D01*
X2017682Y1583150D02*
G01X2025682D01*
X2021682Y1579150D02*
G01Y1587150D01*
X2023682Y1588431D02*
G01Y1585150D01*
Y1588431D02*
G01X2025159D01*
X2023682Y1586869D02*
G01X2024591D01*
X2023682Y1585150D02*
G01X2025159D01*
X2015297Y1585248D02*
G01X2023297D01*
X2019297Y1581248D02*
G01Y1589248D01*
X2021297Y1590529D02*
G01Y1587248D01*
Y1590529D02*
G01X2022774D01*
X2021297Y1588967D02*
G01X2022206D01*
X2021297Y1587248D02*
G01X2022774D01*
X2020212Y1581014D02*
G01X2028212D01*
X2024212Y1577014D02*
G01Y1585014D01*
X2026212Y1586295D02*
G01Y1583014D01*
Y1586295D02*
G01X2027689D01*
X2026212Y1584733D02*
G01X2027121D01*
X2026212Y1583014D02*
G01X2027689D01*
X2045863Y1586133D02*
G01X2053863D01*
X2049863Y1582133D02*
G01Y1590133D01*
X2051863Y1591414D02*
G01Y1588133D01*
Y1591414D02*
G01X2053341D01*
X2051863Y1589852D02*
G01X2052772D01*
X2051863Y1588133D02*
G01X2053341D01*
X2051264Y1582533D02*
G01X2059264D01*
X2055264Y1578533D02*
G01Y1586533D01*
X2057264Y1587814D02*
G01Y1584533D01*
Y1587814D02*
G01X2058741D01*
X2057264Y1586252D02*
G01X2058173D01*
X2057264Y1584533D02*
G01X2058741D01*
X2060964Y1581333D02*
G01X2068964D01*
X2064964Y1577333D02*
G01Y1585333D01*
X2066964Y1586614D02*
G01Y1583333D01*
Y1586614D02*
G01X2068441D01*
X2066964Y1585052D02*
G01X2067873D01*
X2066964Y1583333D02*
G01X2068441D01*
X2066780Y1582790D02*
G01X2074780D01*
X2070780Y1578790D02*
G01Y1586790D01*
X2072780Y1588071D02*
G01Y1584790D01*
Y1588071D02*
G01X2074257D01*
X2072780Y1586509D02*
G01X2073689D01*
X2072780Y1584790D02*
G01X2074257D01*
X2091554Y1583252D02*
G01X2099554D01*
X2095554Y1579252D02*
G01Y1587252D01*
X2097554Y1588533D02*
G01Y1585252D01*
Y1588533D02*
G01X2099031D01*
X2097554Y1586971D02*
G01X2098463D01*
X2097554Y1585252D02*
G01X2099031D01*
X1893197Y1592033D02*
G01X1901197D01*
X1897197Y1588033D02*
G01Y1596033D01*
X1899197Y1597314D02*
G01Y1594033D01*
Y1597314D02*
G01X1900674D01*
X1899197Y1595752D02*
G01X1900106D01*
X1899197Y1594033D02*
G01X1900674D01*
X1900947Y1591990D02*
G01X1908947D01*
X1904947Y1587990D02*
G01Y1595990D01*
X1906947Y1597271D02*
G01Y1593990D01*
Y1597271D02*
G01X1908424D01*
X1906947Y1595709D02*
G01X1907856D01*
X1906947Y1593990D02*
G01X1908424D01*
X1938821Y1593941D02*
G01X1946821D01*
X1942821Y1589941D02*
G01Y1597941D01*
X1944821Y1599222D02*
G01Y1595941D01*
Y1599222D02*
G01X1946298D01*
X1944821Y1597660D02*
G01X1945730D01*
X1944821Y1595941D02*
G01X1946298D01*
X1960640Y1595635D02*
G01X1968640D01*
X1964640Y1591635D02*
G01Y1599635D01*
X1966640Y1600916D02*
G01Y1597635D01*
Y1600916D02*
G01X1968117D01*
X1966640Y1599354D02*
G01X1967549D01*
X1966640Y1597635D02*
G01X1968117D01*
X1960410Y1592869D02*
G01X1968410D01*
X1964410Y1588869D02*
G01Y1596869D01*
X1966410Y1598150D02*
G01Y1594869D01*
Y1598150D02*
G01X1967887D01*
X1966410Y1596588D02*
G01X1967319D01*
X1966410Y1594869D02*
G01X1967887D01*
X1984175Y1594516D02*
G01X1992175D01*
X1988175Y1590516D02*
G01Y1598516D01*
X1990175Y1599797D02*
G01Y1596516D01*
Y1599797D02*
G01X1991652D01*
X1990175Y1598235D02*
G01X1991084D01*
X1990175Y1596516D02*
G01X1991652D01*
X2013036Y1588989D02*
G01X2021036D01*
X2017036Y1584989D02*
G01Y1592989D01*
X2019036Y1594270D02*
G01Y1590989D01*
Y1594270D02*
G01X2020513D01*
X2019036Y1592708D02*
G01X2019945D01*
X2019036Y1590989D02*
G01X2020513D01*
X2006558Y1595695D02*
G01X2014558D01*
X2010558Y1591695D02*
G01Y1599695D01*
X2012558Y1600976D02*
G01Y1597695D01*
Y1600976D02*
G01X2014035D01*
X2012558Y1599414D02*
G01X2013467D01*
X2012558Y1597695D02*
G01X2014035D01*
X2010313Y1589366D02*
G01X2018313D01*
X2014313Y1585366D02*
G01Y1593366D01*
X2016313Y1594647D02*
G01Y1591366D01*
Y1594647D02*
G01X2017790D01*
X2016313Y1593085D02*
G01X2017222D01*
X2016313Y1591366D02*
G01X2017790D01*
X2008008Y1587430D02*
G01X2016008D01*
X2012008Y1583430D02*
G01Y1591430D01*
X2014008Y1592711D02*
G01Y1589430D01*
Y1592711D02*
G01X2015485D01*
X2014008Y1591149D02*
G01X2014917D01*
X2014008Y1589430D02*
G01X2015485D01*
X2033271Y1593532D02*
G01X2041271D01*
X2037271Y1589532D02*
G01Y1597532D01*
X2039271Y1598813D02*
G01Y1595532D01*
Y1598813D02*
G01X2040748D01*
X2039271Y1597251D02*
G01X2040180D01*
X2039271Y1595532D02*
G01X2040748D01*
X2037064Y1594262D02*
G01X2045064D01*
X2041064Y1590262D02*
G01Y1598262D01*
X2043064Y1599543D02*
G01Y1596262D01*
Y1599543D02*
G01X2044541D01*
X2043064Y1597981D02*
G01X2043973D01*
X2043064Y1596262D02*
G01X2044541D01*
X2067265Y1592392D02*
G01X2075265D01*
X2071265Y1588392D02*
G01Y1596392D01*
X2073265Y1597673D02*
G01Y1594392D01*
Y1597673D02*
G01X2074742D01*
X2073265Y1596111D02*
G01X2074174D01*
X2073265Y1594392D02*
G01X2074742D01*
X2092820Y1596645D02*
G01X2100820D01*
X2096820Y1592645D02*
G01Y1600645D01*
X2098820Y1601926D02*
G01Y1598645D01*
Y1601926D02*
G01X2100297D01*
X2098820Y1600364D02*
G01X2099729D01*
X2098820Y1598645D02*
G01X2100297D01*
X2098728Y1595526D02*
G01X2106728D01*
X2102728Y1591526D02*
G01Y1599526D01*
X2104728Y1600807D02*
G01Y1597526D01*
Y1600807D02*
G01X2106205D01*
X2104728Y1599245D02*
G01X2105637D01*
X2104728Y1597526D02*
G01X2106205D01*
X1893079Y1605036D02*
G01X1901079D01*
X1897079Y1601036D02*
G01Y1609036D01*
X1899079Y1610317D02*
G01Y1607036D01*
Y1610317D02*
G01X1900556D01*
X1899079Y1608755D02*
G01X1899988D01*
X1899079Y1607036D02*
G01X1900556D01*
X1902715Y1605405D02*
G01X1910715D01*
X1906715Y1601405D02*
G01Y1609405D01*
X1908715Y1610686D02*
G01Y1607405D01*
Y1610686D02*
G01X1910192D01*
X1908715Y1609124D02*
G01X1909624D01*
X1908715Y1607405D02*
G01X1910192D01*
X1897326Y1598434D02*
G01X1905326D01*
X1901326Y1594434D02*
G01Y1602434D01*
X1903326Y1603715D02*
G01Y1600434D01*
Y1603715D02*
G01X1904803D01*
X1903326Y1602153D02*
G01X1904235D01*
X1903326Y1600434D02*
G01X1904803D01*
X1905845Y1598298D02*
G01X1913845D01*
X1909845Y1594298D02*
G01Y1602298D01*
X1911845Y1603579D02*
G01Y1600298D01*
Y1603579D02*
G01X1913322D01*
X1911845Y1602017D02*
G01X1912754D01*
X1911845Y1600298D02*
G01X1913322D01*
X1936879Y1599685D02*
G01X1944879D01*
X1940879Y1595685D02*
G01Y1603685D01*
X1942879Y1604966D02*
G01Y1601685D01*
Y1604966D02*
G01X1944356D01*
X1942879Y1603404D02*
G01X1943788D01*
X1942879Y1601685D02*
G01X1944356D01*
X1948856Y1602713D02*
G01X1956856D01*
X1952856Y1598713D02*
G01Y1606713D01*
X1954856Y1607994D02*
G01Y1604713D01*
Y1607994D02*
G01X1956333D01*
X1954856Y1606432D02*
G01X1955765D01*
X1954856Y1604713D02*
G01X1956333D01*
X1952070Y1600821D02*
G01X1960070D01*
X1956070Y1596821D02*
G01Y1604821D01*
X1958070Y1606102D02*
G01Y1602821D01*
Y1606102D02*
G01X1959547D01*
X1958070Y1604540D02*
G01X1958979D01*
X1958070Y1602821D02*
G01X1959547D01*
X1963248Y1603483D02*
G01X1971248D01*
X1967248Y1599483D02*
G01Y1607483D01*
X1969248Y1608764D02*
G01Y1605483D01*
Y1608764D02*
G01X1970725D01*
X1969248Y1607202D02*
G01X1970157D01*
X1969248Y1605483D02*
G01X1970725D01*
X1960572Y1606127D02*
G01X1968572D01*
X1964572Y1602127D02*
G01Y1610127D01*
X1966572Y1611408D02*
G01Y1608127D01*
Y1611408D02*
G01X1968049D01*
X1966572Y1609846D02*
G01X1967481D01*
X1966572Y1608127D02*
G01X1968049D01*
X1960300Y1602939D02*
G01X1968300D01*
X1964300Y1598939D02*
G01Y1606939D01*
X1966300Y1608220D02*
G01Y1604939D01*
Y1608220D02*
G01X1967777D01*
X1966300Y1606658D02*
G01X1967209D01*
X1966300Y1604939D02*
G01X1967777D01*
X1986525Y1600866D02*
G01X1994525D01*
X1990525Y1596866D02*
G01Y1604866D01*
X1992525Y1606147D02*
G01Y1602866D01*
Y1606147D02*
G01X1994002D01*
X1992525Y1604585D02*
G01X1993434D01*
X1992525Y1602866D02*
G01X1994002D01*
X1991895Y1605508D02*
G01X1999895D01*
X1995895Y1601508D02*
G01Y1609508D01*
X1997895Y1610789D02*
G01Y1607508D01*
Y1610789D02*
G01X1999372D01*
X1997895Y1609227D02*
G01X1998804D01*
X1997895Y1607508D02*
G01X1999372D01*
X1988842Y1603472D02*
G01X1996842D01*
X1992842Y1599472D02*
G01Y1607472D01*
X1994842Y1608753D02*
G01Y1605472D01*
Y1608753D02*
G01X1996319D01*
X1994842Y1607191D02*
G01X1995751D01*
X1994842Y1605472D02*
G01X1996319D01*
X2013264Y1604133D02*
G01X2021264D01*
X2017264Y1600133D02*
G01Y1608133D01*
X2019264Y1609414D02*
G01Y1606133D01*
Y1609414D02*
G01X2020741D01*
X2019264Y1607852D02*
G01X2020173D01*
X2019264Y1606133D02*
G01X2020741D01*
X2022264Y1604133D02*
G01X2030264D01*
X2026264Y1600133D02*
G01Y1608133D01*
X2028264Y1609414D02*
G01Y1606133D01*
Y1609414D02*
G01X2029741D01*
X2028264Y1607852D02*
G01X2029173D01*
X2028264Y1606133D02*
G01X2029741D01*
X2017764Y1604133D02*
G01X2025764D01*
X2021764Y1600133D02*
G01Y1608133D01*
X2023764Y1609414D02*
G01Y1606133D01*
Y1609414D02*
G01X2025241D01*
X2023764Y1607852D02*
G01X2024673D01*
X2023764Y1606133D02*
G01X2025241D01*
X2029532Y1597546D02*
G01X2037532D01*
X2033532Y1593546D02*
G01Y1601546D01*
X2035532Y1602827D02*
G01Y1599546D01*
Y1602827D02*
G01X2037009D01*
X2035532Y1601265D02*
G01X2036441D01*
X2035532Y1599546D02*
G01X2037009D01*
X2034513Y1605369D02*
G01X2042513D01*
X2038513Y1601369D02*
G01Y1609369D01*
X2040513Y1610650D02*
G01Y1607369D01*
Y1610650D02*
G01X2041990D01*
X2040513Y1609088D02*
G01X2041422D01*
X2040513Y1607369D02*
G01X2041990D01*
X2037064Y1602733D02*
G01X2045064D01*
X2041064Y1598733D02*
G01Y1606733D01*
X2043064Y1608014D02*
G01Y1604733D01*
Y1608014D02*
G01X2044541D01*
X2043064Y1606452D02*
G01X2043973D01*
X2043064Y1604733D02*
G01X2044541D01*
X2046444Y1597382D02*
G01X2054444D01*
X2050444Y1593382D02*
G01Y1601382D01*
X2052444Y1602663D02*
G01Y1599382D01*
Y1602663D02*
G01X2053921D01*
X2052444Y1601101D02*
G01X2053353D01*
X2052444Y1599382D02*
G01X2053921D01*
X2053037Y1606866D02*
G01X2061037D01*
X2057037Y1602866D02*
G01Y1610866D01*
X2059037Y1612147D02*
G01Y1608866D01*
Y1612147D02*
G01X2060514D01*
X2059037Y1610585D02*
G01X2059946D01*
X2059037Y1608866D02*
G01X2060514D01*
X2051264Y1599733D02*
G01X2059264D01*
X2055264Y1595733D02*
G01Y1603733D01*
X2057264Y1605014D02*
G01Y1601733D01*
Y1605014D02*
G01X2058741D01*
X2057264Y1603452D02*
G01X2058173D01*
X2057264Y1601733D02*
G01X2058741D01*
X2057670Y1598362D02*
G01X2065670D01*
X2061670Y1594362D02*
G01Y1602362D01*
X2063670Y1603643D02*
G01Y1600362D01*
Y1603643D02*
G01X2065147D01*
X2063670Y1602081D02*
G01X2064579D01*
X2063670Y1600362D02*
G01X2065147D01*
X2093859Y1603805D02*
G01X2101859D01*
X2097859Y1599805D02*
G01Y1607805D01*
X2099859Y1609086D02*
G01Y1605805D01*
Y1609086D02*
G01X2101336D01*
X2099859Y1607524D02*
G01X2100768D01*
X2099859Y1605805D02*
G01X2101336D01*
X2097041Y1601899D02*
G01X2105041D01*
X2101041Y1597899D02*
G01Y1605899D01*
X2103041Y1607180D02*
G01Y1603899D01*
Y1607180D02*
G01X2104518D01*
X2103041Y1605618D02*
G01X2103950D01*
X2103041Y1603899D02*
G01X2104518D01*
X2101966Y1599236D02*
G01X2109966D01*
X2105966Y1595236D02*
G01Y1603236D01*
X2107966Y1604517D02*
G01Y1601236D01*
Y1604517D02*
G01X2109443D01*
X2107966Y1602955D02*
G01X2108875D01*
X2107966Y1601236D02*
G01X2109443D01*
X2099333Y1606302D02*
G01X2107333D01*
X2103333Y1602302D02*
G01Y1610302D01*
X2105333Y1611583D02*
G01Y1608302D01*
Y1611583D02*
G01X2106810D01*
X2105333Y1610021D02*
G01X2106242D01*
X2105333Y1608302D02*
G01X2106810D01*
X1897508Y1612301D02*
G01X1905508D01*
X1901508Y1608301D02*
G01Y1616301D01*
X1903508Y1617582D02*
G01Y1614301D01*
Y1617582D02*
G01X1904985D01*
X1903508Y1616020D02*
G01X1904417D01*
X1903508Y1614301D02*
G01X1904985D01*
X1913466Y1613164D02*
G01X1921466D01*
X1917466Y1609164D02*
G01Y1617164D01*
X1919466Y1618445D02*
G01Y1615164D01*
Y1618445D02*
G01X1920943D01*
X1919466Y1616883D02*
G01X1920375D01*
X1919466Y1615164D02*
G01X1920943D01*
X1905727Y1612838D02*
G01X1913727D01*
X1909727Y1608838D02*
G01Y1616838D01*
X1911727Y1618119D02*
G01Y1614838D01*
Y1618119D02*
G01X1913204D01*
X1911727Y1616557D02*
G01X1912636D01*
X1911727Y1614838D02*
G01X1913204D01*
X1937104Y1607416D02*
G01X1945104D01*
X1941104Y1603416D02*
G01Y1611416D01*
X1943104Y1612697D02*
G01Y1609416D01*
Y1612697D02*
G01X1944581D01*
X1943104Y1611135D02*
G01X1944013D01*
X1943104Y1609416D02*
G01X1944581D01*
X1947745Y1611546D02*
G01X1955745D01*
X1951745Y1607546D02*
G01Y1615546D01*
X1953745Y1616827D02*
G01Y1613546D01*
Y1616827D02*
G01X1955222D01*
X1953745Y1615265D02*
G01X1954654D01*
X1953745Y1613546D02*
G01X1955222D01*
X1956308Y1615808D02*
G01X1964308D01*
X1960308Y1611808D02*
G01Y1619808D01*
X1962308Y1621089D02*
G01Y1617808D01*
Y1621089D02*
G01X1963785D01*
X1962308Y1619527D02*
G01X1963217D01*
X1962308Y1617808D02*
G01X1963785D01*
X1968757Y1614461D02*
G01X1976757D01*
X1972757Y1610461D02*
G01Y1618461D01*
X1974757Y1619742D02*
G01Y1616461D01*
Y1619742D02*
G01X1976234D01*
X1974757Y1618180D02*
G01X1975666D01*
X1974757Y1616461D02*
G01X1976234D01*
X1966018Y1612484D02*
G01X1974018D01*
X1970018Y1608484D02*
G01Y1616484D01*
X1972018Y1617765D02*
G01Y1614484D01*
Y1617765D02*
G01X1973495D01*
X1972018Y1616203D02*
G01X1972927D01*
X1972018Y1614484D02*
G01X1973495D01*
X1965927Y1609110D02*
G01X1973927D01*
X1969927Y1605110D02*
G01Y1613110D01*
X1971927Y1614391D02*
G01Y1611110D01*
Y1614391D02*
G01X1973404D01*
X1971927Y1612829D02*
G01X1972836D01*
X1971927Y1611110D02*
G01X1973404D01*
X1972967Y1611421D02*
G01X1980967D01*
X1976967Y1607421D02*
G01Y1615421D01*
X1978967Y1616702D02*
G01Y1613421D01*
Y1616702D02*
G01X1980444D01*
X1978967Y1615140D02*
G01X1979876D01*
X1978967Y1613421D02*
G01X1980444D01*
X1979284Y1614461D02*
G01X1987284D01*
X1983284Y1610461D02*
G01Y1618461D01*
X1985284Y1619742D02*
G01Y1616461D01*
Y1619742D02*
G01X1986761D01*
X1985284Y1618180D02*
G01X1986193D01*
X1985284Y1616461D02*
G01X1986761D01*
X1994541Y1607610D02*
G01X2002541D01*
X1998541Y1603610D02*
G01Y1611610D01*
X2000541Y1612891D02*
G01Y1609610D01*
Y1612891D02*
G01X2002018D01*
X2000541Y1611329D02*
G01X2001450D01*
X2000541Y1609610D02*
G01X2002018D01*
X1989862Y1612174D02*
G01X1997862D01*
X1993862Y1608174D02*
G01Y1616174D01*
X1995862Y1617455D02*
G01Y1614174D01*
Y1617455D02*
G01X1997339D01*
X1995862Y1615893D02*
G01X1996771D01*
X1995862Y1614174D02*
G01X1997339D01*
X1997496Y1609258D02*
G01X2005496D01*
X2001496Y1605258D02*
G01Y1613258D01*
X2003496Y1614539D02*
G01Y1611258D01*
Y1614539D02*
G01X2004973D01*
X2003496Y1612977D02*
G01X2004405D01*
X2003496Y1611258D02*
G01X2004973D01*
X2000701Y1616573D02*
G01X2008701D01*
X2004701Y1612573D02*
G01Y1620573D01*
X2006701Y1621854D02*
G01Y1618573D01*
Y1621854D02*
G01X2008178D01*
X2006701Y1620292D02*
G01X2007610D01*
X2006701Y1618573D02*
G01X2008178D01*
X2013264Y1613133D02*
G01X2021264D01*
X2017264Y1609133D02*
G01Y1617133D01*
X2019264Y1618414D02*
G01Y1615133D01*
Y1618414D02*
G01X2020741D01*
X2019264Y1616852D02*
G01X2020173D01*
X2019264Y1615133D02*
G01X2020741D01*
X2013264Y1608633D02*
G01X2021264D01*
X2017264Y1604633D02*
G01Y1612633D01*
X2019264Y1613914D02*
G01Y1610633D01*
Y1613914D02*
G01X2020741D01*
X2019264Y1612352D02*
G01X2020173D01*
X2019264Y1610633D02*
G01X2020741D01*
X2017764Y1613133D02*
G01X2025764D01*
X2021764Y1609133D02*
G01Y1617133D01*
X2023764Y1618414D02*
G01Y1615133D01*
Y1618414D02*
G01X2025241D01*
X2023764Y1616852D02*
G01X2024673D01*
X2023764Y1615133D02*
G01X2025241D01*
X2022264Y1613133D02*
G01X2030264D01*
X2026264Y1609133D02*
G01Y1617133D01*
X2028264Y1618414D02*
G01Y1615133D01*
Y1618414D02*
G01X2029741D01*
X2028264Y1616852D02*
G01X2029173D01*
X2028264Y1615133D02*
G01X2029741D01*
X2022264Y1608633D02*
G01X2030264D01*
X2026264Y1604633D02*
G01Y1612633D01*
X2028264Y1613914D02*
G01Y1610633D01*
Y1613914D02*
G01X2029741D01*
X2028264Y1612352D02*
G01X2029173D01*
X2028264Y1610633D02*
G01X2029741D01*
X2017820Y1608627D02*
G01X2025820D01*
X2021820Y1604627D02*
G01Y1612627D01*
X2023820Y1613908D02*
G01Y1610627D01*
Y1613908D02*
G01X2025297D01*
X2023820Y1612346D02*
G01X2024729D01*
X2023820Y1610627D02*
G01X2025297D01*
X2043664Y1608633D02*
G01X2051664D01*
X2047664Y1604633D02*
G01Y1612633D01*
X2049664Y1613914D02*
G01Y1610633D01*
Y1613914D02*
G01X2051141D01*
X2049664Y1612352D02*
G01X2050573D01*
X2049664Y1610633D02*
G01X2051141D01*
X2038438Y1607933D02*
G01X2046438D01*
X2042438Y1603933D02*
G01Y1611933D01*
X2044438Y1613214D02*
G01Y1609933D01*
Y1613214D02*
G01X2045915D01*
X2044438Y1611652D02*
G01X2045347D01*
X2044438Y1609933D02*
G01X2045915D01*
X2044634Y1614215D02*
G01X2052634D01*
X2048634Y1610215D02*
G01Y1618215D01*
X2050634Y1619496D02*
G01Y1616215D01*
Y1619496D02*
G01X2052111D01*
X2050634Y1617934D02*
G01X2051543D01*
X2050634Y1616215D02*
G01X2052111D01*
X2048479Y1608460D02*
G01X2056479D01*
X2052479Y1604460D02*
G01Y1612460D01*
X2054479Y1613741D02*
G01Y1610460D01*
Y1613741D02*
G01X2055956D01*
X2054479Y1612179D02*
G01X2055388D01*
X2054479Y1610460D02*
G01X2055956D01*
X2051364Y1611533D02*
G01X2059364D01*
X2055364Y1607533D02*
G01Y1615533D01*
X2057364Y1616814D02*
G01Y1613533D01*
Y1616814D02*
G01X2058841D01*
X2057364Y1615252D02*
G01X2058273D01*
X2057364Y1613533D02*
G01X2058841D01*
X2067285Y1608067D02*
G01X2075285D01*
X2071285Y1604067D02*
G01Y1612067D01*
X2073285Y1613348D02*
G01Y1610067D01*
Y1613348D02*
G01X2074762D01*
X2073285Y1611786D02*
G01X2074194D01*
X2073285Y1610067D02*
G01X2074762D01*
X2079718Y1610661D02*
G01X2087718D01*
X2083718Y1606661D02*
G01Y1614661D01*
X2085718Y1615942D02*
G01Y1612661D01*
Y1615942D02*
G01X2087195D01*
X2085718Y1614380D02*
G01X2086627D01*
X2085718Y1612661D02*
G01X2087195D01*
X1892606Y1618394D02*
G01X1900606D01*
X1896606Y1614394D02*
G01Y1622394D01*
X1898606Y1623675D02*
G01Y1620394D01*
Y1623675D02*
G01X1900083D01*
X1898606Y1622113D02*
G01X1899515D01*
X1898606Y1620394D02*
G01X1900083D01*
X1901051Y1619548D02*
G01X1909051D01*
X1905051Y1615548D02*
G01Y1623548D01*
X1907051Y1624829D02*
G01Y1621548D01*
Y1624829D02*
G01X1908528D01*
X1907051Y1623267D02*
G01X1907960D01*
X1907051Y1621548D02*
G01X1908528D01*
X1897326Y1625439D02*
G01X1905326D01*
X1901326Y1621439D02*
G01Y1629439D01*
X1903326Y1630720D02*
G01Y1627439D01*
Y1630720D02*
G01X1904803D01*
X1903326Y1629158D02*
G01X1904235D01*
X1903326Y1627439D02*
G01X1904803D01*
X1905609Y1625132D02*
G01X1913609D01*
X1909609Y1621132D02*
G01Y1629132D01*
X1911609Y1630413D02*
G01Y1627132D01*
Y1630413D02*
G01X1913086D01*
X1911609Y1628851D02*
G01X1912518D01*
X1911609Y1627132D02*
G01X1913086D01*
X1938174Y1623398D02*
G01X1946174D01*
X1942174Y1619398D02*
G01Y1627398D01*
X1944174Y1628679D02*
G01Y1625398D01*
Y1628679D02*
G01X1945651D01*
X1944174Y1627117D02*
G01X1945083D01*
X1944174Y1625398D02*
G01X1945651D01*
X1972962Y1617494D02*
G01X1980962D01*
X1976962Y1613494D02*
G01Y1621494D01*
X1978962Y1622775D02*
G01Y1619494D01*
Y1622775D02*
G01X1980439D01*
X1978962Y1621213D02*
G01X1979871D01*
X1978962Y1619494D02*
G01X1980439D01*
X2008545Y1625807D02*
G01X2016545D01*
X2012545Y1621807D02*
G01Y1629807D01*
X2014545Y1631088D02*
G01Y1627807D01*
Y1631088D02*
G01X2016022D01*
X2014545Y1629526D02*
G01X2015454D01*
X2014545Y1627807D02*
G01X2016022D01*
X2013055Y1625881D02*
G01X2021055D01*
X2017055Y1621881D02*
G01Y1629881D01*
X2019055Y1631162D02*
G01Y1627881D01*
Y1631162D02*
G01X2020532D01*
X2019055Y1629600D02*
G01X2019964D01*
X2019055Y1627881D02*
G01X2020532D01*
X2018461Y1625867D02*
G01X2026461D01*
X2022461Y1621867D02*
G01Y1629867D01*
X2024461Y1631148D02*
G01Y1627867D01*
Y1631148D02*
G01X2025938D01*
X2024461Y1629586D02*
G01X2025370D01*
X2024461Y1627867D02*
G01X2025938D01*
X2030219Y1621025D02*
G01X2038219D01*
X2034219Y1617025D02*
G01Y1625025D01*
X2036219Y1626306D02*
G01Y1623025D01*
Y1626306D02*
G01X2037696D01*
X2036219Y1624744D02*
G01X2037128D01*
X2036219Y1623025D02*
G01X2037696D01*
X2026025Y1625982D02*
G01X2034025D01*
X2030025Y1621982D02*
G01Y1629982D01*
X2032025Y1631263D02*
G01Y1627982D01*
Y1631263D02*
G01X2033502D01*
X2032025Y1629701D02*
G01X2032934D01*
X2032025Y1627982D02*
G01X2033502D01*
X2050248Y1619170D02*
G01X2058248D01*
X2054248Y1615170D02*
G01Y1623170D01*
X2056248Y1624451D02*
G01Y1621170D01*
Y1624451D02*
G01X2057725D01*
X2056248Y1622889D02*
G01X2057157D01*
X2056248Y1621170D02*
G01X2057725D01*
X2058842Y1625990D02*
G01X2066842D01*
X2062842Y1621990D02*
G01Y1629990D01*
X2064842Y1631271D02*
G01Y1627990D01*
Y1631271D02*
G01X2066319D01*
X2064842Y1629709D02*
G01X2065751D01*
X2064842Y1627990D02*
G01X2066319D01*
X2067309Y1621680D02*
G01X2075309D01*
X2071309Y1617680D02*
G01Y1625680D01*
X2073309Y1626961D02*
G01Y1623680D01*
Y1626961D02*
G01X2074786D01*
X2073309Y1625399D02*
G01X2074218D01*
X2073309Y1623680D02*
G01X2074786D01*
X1892488Y1632342D02*
G01X1900488D01*
X1896488Y1628342D02*
G01Y1636342D01*
X1898488Y1637623D02*
G01Y1634342D01*
Y1637623D02*
G01X1899965D01*
X1898488Y1636061D02*
G01X1899397D01*
X1898488Y1634342D02*
G01X1899965D01*
X1901987Y1631091D02*
G01X1909987D01*
X1905987Y1627091D02*
G01Y1635091D01*
X1907987Y1636372D02*
G01Y1633091D01*
Y1636372D02*
G01X1909464D01*
X1907987Y1634810D02*
G01X1908896D01*
X1907987Y1633091D02*
G01X1909464D01*
X1916596Y1630621D02*
G01X1924596D01*
X1920596Y1626621D02*
G01Y1634621D01*
X1922596Y1635902D02*
G01Y1632621D01*
Y1635902D02*
G01X1924073D01*
X1922596Y1634340D02*
G01X1923505D01*
X1922596Y1632621D02*
G01X1924073D01*
X1935172Y1634874D02*
G01X1943172D01*
X1939172Y1630874D02*
G01Y1638874D01*
X1941172Y1640155D02*
G01Y1636874D01*
Y1640155D02*
G01X1942649D01*
X1941172Y1638593D02*
G01X1942081D01*
X1941172Y1636874D02*
G01X1942649D01*
X1972402Y1634880D02*
G01X1980402D01*
X1976402Y1630880D02*
G01Y1638880D01*
X1978402Y1640161D02*
G01Y1636880D01*
Y1640161D02*
G01X1979879D01*
X1978402Y1638599D02*
G01X1979311D01*
X1978402Y1636880D02*
G01X1979879D01*
X1993824Y1635576D02*
G01X2001824D01*
X1997824Y1631576D02*
G01Y1639576D01*
X1999824Y1640857D02*
G01Y1637576D01*
Y1640857D02*
G01X2001301D01*
X1999824Y1639295D02*
G01X2000733D01*
X1999824Y1637576D02*
G01X2001301D01*
X1990096Y1636683D02*
G01X1998096D01*
X1994096Y1632683D02*
G01Y1640683D01*
X1996096Y1641964D02*
G01Y1638683D01*
Y1641964D02*
G01X1997573D01*
X1996096Y1640402D02*
G01X1997005D01*
X1996096Y1638683D02*
G01X1997573D01*
X2034723Y1633493D02*
G01X2042723D01*
X2038723Y1629493D02*
G01Y1637493D01*
X2040723Y1638774D02*
G01Y1635493D01*
Y1638774D02*
G01X2042200D01*
X2040723Y1637212D02*
G01X2041632D01*
X2040723Y1635493D02*
G01X2042200D01*
X2041664Y1629779D02*
G01X2049664D01*
X2045664Y1625779D02*
G01Y1633779D01*
X2047664Y1635060D02*
G01Y1631779D01*
Y1635060D02*
G01X2049141D01*
X2047664Y1633498D02*
G01X2048573D01*
X2047664Y1631779D02*
G01X2049141D01*
X2050248Y1629779D02*
G01X2058248D01*
X2054248Y1625779D02*
G01Y1633779D01*
X2056248Y1635060D02*
G01Y1631779D01*
Y1635060D02*
G01X2057725D01*
X2056248Y1633498D02*
G01X2057157D01*
X2056248Y1631779D02*
G01X2057725D01*
X2075278Y1629617D02*
G01X2083278D01*
X2079278Y1625617D02*
G01Y1633617D01*
X2081278Y1634898D02*
G01Y1631617D01*
Y1634898D02*
G01X2082755D01*
X2081278Y1633336D02*
G01X2082187D01*
X2081278Y1631617D02*
G01X2082755D01*
X2093533Y1634747D02*
G01X2101533D01*
X2097533Y1630747D02*
G01Y1638747D01*
X2099533Y1640028D02*
G01Y1636747D01*
Y1640028D02*
G01X2101010D01*
X2099533Y1638466D02*
G01X2100442D01*
X2099533Y1636747D02*
G01X2101010D01*
X1897508Y1638394D02*
G01X1905508D01*
X1901508Y1634394D02*
G01Y1642394D01*
X1903508Y1643675D02*
G01Y1640394D01*
Y1643675D02*
G01X1904985D01*
X1903508Y1642113D02*
G01X1904417D01*
X1903508Y1640394D02*
G01X1904985D01*
X1905254Y1638016D02*
G01X1913254D01*
X1909254Y1634016D02*
G01Y1642016D01*
X1911254Y1643297D02*
G01Y1640016D01*
Y1643297D02*
G01X1912731D01*
X1911254Y1641735D02*
G01X1912163D01*
X1911254Y1640016D02*
G01X1912731D01*
X1917945Y1645632D02*
G01X1925945D01*
X1921945Y1641632D02*
G01Y1649632D01*
X1923945Y1650913D02*
G01Y1647632D01*
Y1650913D02*
G01X1925422D01*
X1923945Y1649351D02*
G01X1924854D01*
X1923945Y1647632D02*
G01X1925422D01*
X1918396Y1638592D02*
G01X1926396D01*
X1922396Y1634592D02*
G01Y1642592D01*
X1924396Y1643873D02*
G01Y1640592D01*
Y1643873D02*
G01X1925873D01*
X1924396Y1642311D02*
G01X1925305D01*
X1924396Y1640592D02*
G01X1925873D01*
X1926274Y1638719D02*
G01X1934274D01*
X1930274Y1634719D02*
G01Y1642719D01*
X1932274Y1644000D02*
G01Y1640719D01*
Y1644000D02*
G01X1933751D01*
X1932274Y1642438D02*
G01X1933183D01*
X1932274Y1640719D02*
G01X1933751D01*
X1933899Y1638871D02*
G01X1941899D01*
X1937899Y1634871D02*
G01Y1642871D01*
X1939899Y1644152D02*
G01Y1640871D01*
Y1644152D02*
G01X1941376D01*
X1939899Y1642590D02*
G01X1940808D01*
X1939899Y1640871D02*
G01X1941376D01*
X1938221Y1642229D02*
G01X1946221D01*
X1942221Y1638229D02*
G01Y1646229D01*
X1944221Y1647510D02*
G01Y1644229D01*
Y1647510D02*
G01X1945698D01*
X1944221Y1645948D02*
G01X1945130D01*
X1944221Y1644229D02*
G01X1945698D01*
X1972786Y1642224D02*
G01X1980786D01*
X1976786Y1638224D02*
G01Y1646224D01*
X1978786Y1647505D02*
G01Y1644224D01*
Y1647505D02*
G01X1980263D01*
X1978786Y1645943D02*
G01X1979695D01*
X1978786Y1644224D02*
G01X1980263D01*
X1990969Y1641353D02*
G01X1998969D01*
X1994969Y1637353D02*
G01Y1645353D01*
X1996969Y1646634D02*
G01Y1643353D01*
Y1646634D02*
G01X1998446D01*
X1996969Y1645072D02*
G01X1997878D01*
X1996969Y1643353D02*
G01X1998446D01*
X2018678Y1645849D02*
G01X2026678D01*
X2022678Y1641849D02*
G01Y1649849D01*
X2024678Y1651130D02*
G01Y1647849D01*
Y1651130D02*
G01X2026155D01*
X2024678Y1649568D02*
G01X2025587D01*
X2024678Y1647849D02*
G01X2026155D01*
X2034316Y1638614D02*
G01X2042316D01*
X2038316Y1634614D02*
G01Y1642614D01*
X2040316Y1643895D02*
G01Y1640614D01*
Y1643895D02*
G01X2041793D01*
X2040316Y1642333D02*
G01X2041225D01*
X2040316Y1640614D02*
G01X2041793D01*
X2044616Y1643599D02*
G01X2052616D01*
X2048616Y1639599D02*
G01Y1647599D01*
X2050616Y1648880D02*
G01Y1645599D01*
Y1648880D02*
G01X2052093D01*
X2050616Y1647318D02*
G01X2051525D01*
X2050616Y1645599D02*
G01X2052093D01*
X2053999Y1641648D02*
G01X2061999D01*
X2057999Y1637648D02*
G01Y1645648D01*
X2059999Y1646929D02*
G01Y1643648D01*
Y1646929D02*
G01X2061476D01*
X2059999Y1645367D02*
G01X2060908D01*
X2059999Y1643648D02*
G01X2061476D01*
X2074149Y1638147D02*
G01X2082149D01*
X2078149Y1634147D02*
G01Y1642147D01*
X2080149Y1643428D02*
G01Y1640147D01*
Y1643428D02*
G01X2081626D01*
X2080149Y1641866D02*
G01X2081058D01*
X2080149Y1640147D02*
G01X2081626D01*
X1936478Y1648265D02*
G01X1944478D01*
X1940478Y1644265D02*
G01Y1652265D01*
X1942478Y1653546D02*
G01Y1650265D01*
Y1653546D02*
G01X1943955D01*
X1942478Y1651984D02*
G01X1943387D01*
X1942478Y1650265D02*
G01X1943955D01*
X1950949Y1651948D02*
G01X1958949D01*
X1954949Y1647948D02*
G01Y1655948D01*
X1956949Y1657229D02*
G01Y1653948D01*
Y1657229D02*
G01X1958426D01*
X1956949Y1655667D02*
G01X1957858D01*
X1956949Y1653948D02*
G01X1958426D01*
X1972336Y1649533D02*
G01X1980336D01*
X1976336Y1645533D02*
G01Y1653533D01*
X1978336Y1654814D02*
G01Y1651533D01*
Y1654814D02*
G01X1979813D01*
X1978336Y1653252D02*
G01X1979245D01*
X1978336Y1651533D02*
G01X1979813D01*
X1988603Y1648175D02*
G01X1996603D01*
X1992603Y1644175D02*
G01Y1652175D01*
X1994603Y1653456D02*
G01Y1650175D01*
Y1653456D02*
G01X1996080D01*
X1994603Y1651894D02*
G01X1995512D01*
X1994603Y1650175D02*
G01X1996080D01*
X1987942Y1653117D02*
G01X1995942D01*
X1991942Y1649117D02*
G01Y1657117D01*
X1993942Y1658398D02*
G01Y1655117D01*
Y1658398D02*
G01X1995419D01*
X1993942Y1656836D02*
G01X1994851D01*
X1993942Y1655117D02*
G01X1995419D01*
X2007015Y1652036D02*
G01X2015015D01*
X2011015Y1648036D02*
G01Y1656036D01*
X2013015Y1657317D02*
G01Y1654036D01*
Y1657317D02*
G01X2014492D01*
X2013015Y1655755D02*
G01X2013924D01*
X2013015Y1654036D02*
G01X2014492D01*
X2023143Y1652699D02*
G01X2031143D01*
X2027143Y1648699D02*
G01Y1656699D01*
X2029143Y1657980D02*
G01Y1654699D01*
Y1657980D02*
G01X2030620D01*
X2029143Y1656418D02*
G01X2030052D01*
X2029143Y1654699D02*
G01X2030620D01*
X1914588Y1663474D02*
G01X1922588D01*
X1918588Y1659474D02*
G01Y1667474D01*
X1920588Y1668755D02*
G01Y1665474D01*
Y1668755D02*
G01X1922065D01*
X1920588Y1667193D02*
G01X1921497D01*
X1920588Y1665474D02*
G01X1922065D01*
X1924597Y1663812D02*
G01X1932597D01*
X1928597Y1659812D02*
G01Y1667812D01*
X1930597Y1669093D02*
G01Y1665812D01*
Y1669093D02*
G01X1932074D01*
X1930597Y1667531D02*
G01X1931506D01*
X1930597Y1665812D02*
G01X1932074D01*
X1935547Y1663812D02*
G01X1943547D01*
X1939547Y1659812D02*
G01Y1667812D01*
X1941547Y1669093D02*
G01Y1665812D01*
Y1669093D02*
G01X1943024D01*
X1941547Y1667531D02*
G01X1942456D01*
X1941547Y1665812D02*
G01X1943024D01*
X1946168Y1664598D02*
G01X1954168D01*
X1950168Y1660598D02*
G01Y1668598D01*
X1952168Y1669879D02*
G01Y1666598D01*
Y1669879D02*
G01X1953645D01*
X1952168Y1668317D02*
G01X1953077D01*
X1952168Y1666598D02*
G01X1953645D01*
X1961097Y1659298D02*
G01X1969097D01*
X1965097Y1655298D02*
G01Y1663298D01*
X1967097Y1664579D02*
G01Y1661298D01*
Y1664579D02*
G01X1968574D01*
X1967097Y1663017D02*
G01X1968006D01*
X1967097Y1661298D02*
G01X1968574D01*
X1972904Y1659298D02*
G01X1980904D01*
X1976904Y1655298D02*
G01Y1663298D01*
X1978904Y1664579D02*
G01Y1661298D01*
Y1664579D02*
G01X1980381D01*
X1978904Y1663017D02*
G01X1979813D01*
X1978904Y1661298D02*
G01X1980381D01*
X1966272Y1665007D02*
G01X1974272D01*
X1970272Y1661007D02*
G01Y1669007D01*
X1972272Y1670288D02*
G01Y1667007D01*
Y1670288D02*
G01X1973749D01*
X1972272Y1668726D02*
G01X1973181D01*
X1972272Y1667007D02*
G01X1973749D01*
X1978124Y1665008D02*
G01X1986124D01*
X1982124Y1661008D02*
G01Y1669008D01*
X1984124Y1670289D02*
G01Y1667008D01*
Y1670289D02*
G01X1985601D01*
X1984124Y1668727D02*
G01X1985033D01*
X1984124Y1667008D02*
G01X1985601D01*
X1981860Y1664869D02*
G01X1989860D01*
X1985860Y1660869D02*
G01Y1668869D01*
X1987860Y1670150D02*
G01Y1666869D01*
Y1670150D02*
G01X1989337D01*
X1987860Y1668588D02*
G01X1988769D01*
X1987860Y1666869D02*
G01X1989337D01*
X2004739Y1661580D02*
G01X2012739D01*
X2008739Y1657580D02*
G01Y1665580D01*
X2010739Y1666861D02*
G01Y1663580D01*
Y1666861D02*
G01X2012216D01*
X2010739Y1665299D02*
G01X2011648D01*
X2010739Y1663580D02*
G01X2012216D01*
X2004430Y1664528D02*
G01X2012430D01*
X2008430Y1660528D02*
G01Y1668528D01*
X2010430Y1669809D02*
G01Y1666528D01*
Y1669809D02*
G01X2011907D01*
X2010430Y1668247D02*
G01X2011339D01*
X2010430Y1666528D02*
G01X2011907D01*
X2011184Y1658444D02*
G01X2019184D01*
X2015184Y1654444D02*
G01Y1662444D01*
X2017184Y1663725D02*
G01Y1660444D01*
Y1663725D02*
G01X2018661D01*
X2017184Y1662163D02*
G01X2018093D01*
X2017184Y1660444D02*
G01X2018661D01*
X2038438Y1661579D02*
G01X2046438D01*
X2042438Y1657579D02*
G01Y1665579D01*
X2044438Y1666860D02*
G01Y1663579D01*
Y1666860D02*
G01X2045915D01*
X2044438Y1665298D02*
G01X2045347D01*
X2044438Y1663579D02*
G01X2045915D01*
X2047983Y1664528D02*
G01X2055983D01*
X2051983Y1660528D02*
G01Y1668528D01*
X2053983Y1669809D02*
G01Y1666528D01*
Y1669809D02*
G01X2055460D01*
X2053983Y1668247D02*
G01X2054892D01*
X2053983Y1666528D02*
G01X2055460D01*
X2058838Y1658439D02*
G01X2066838D01*
X2062838Y1654439D02*
G01Y1662439D01*
X2064838Y1663720D02*
G01Y1660439D01*
Y1663720D02*
G01X2066315D01*
X2064838Y1662158D02*
G01X2065747D01*
X2064838Y1660439D02*
G01X2066315D01*
X2057389Y1664296D02*
G01X2065389D01*
X2061389Y1660296D02*
G01Y1668296D01*
X2063389Y1669577D02*
G01Y1666296D01*
Y1669577D02*
G01X2064866D01*
X2063389Y1668015D02*
G01X2064298D01*
X2063389Y1666296D02*
G01X2064866D01*
X2068762Y1664538D02*
G01X2076762D01*
X2072762Y1660538D02*
G01Y1668538D01*
X2074762Y1669819D02*
G01Y1666538D01*
Y1669819D02*
G01X2076239D01*
X2074762Y1668257D02*
G01X2075671D01*
X2074762Y1666538D02*
G01X2076239D01*
X2071908Y1659214D02*
G01X2079908D01*
X2075908Y1655214D02*
G01Y1663214D01*
X2077908Y1664495D02*
G01Y1661214D01*
Y1664495D02*
G01X2079385D01*
X2077908Y1662933D02*
G01X2078817D01*
X2077908Y1661214D02*
G01X2079385D01*
X2079410Y1664538D02*
G01X2087410D01*
X2083410Y1660538D02*
G01Y1668538D01*
X2085410Y1669819D02*
G01Y1666538D01*
Y1669819D02*
G01X2086887D01*
X2085410Y1668257D02*
G01X2086319D01*
X2085410Y1666538D02*
G01X2086887D01*
X2099975Y1665462D02*
G01X2107975D01*
X2103975Y1661462D02*
G01Y1669462D01*
X2105975Y1670743D02*
G01Y1667462D01*
Y1670743D02*
G01X2107452D01*
X2105975Y1669181D02*
G01X2106884D01*
X2105975Y1667462D02*
G01X2107452D01*
X1970751Y1667944D02*
G01X1978751D01*
X1974751Y1663944D02*
G01Y1671944D01*
X1976751Y1673225D02*
G01Y1669944D01*
Y1673225D02*
G01X1978228D01*
X1976751Y1671663D02*
G01X1977660D01*
X1976751Y1669944D02*
G01X1978228D01*
X2001558Y1667771D02*
G01X2009558D01*
X2005558Y1663771D02*
G01Y1671771D01*
X2007558Y1673052D02*
G01Y1669771D01*
Y1673052D02*
G01X2009035D01*
X2007558Y1671490D02*
G01X2008467D01*
X2007558Y1669771D02*
G01X2009035D01*
X2011190Y1667771D02*
G01X2019190D01*
X2015190Y1663771D02*
G01Y1671771D01*
X2017190Y1673052D02*
G01Y1669771D01*
Y1673052D02*
G01X2018667D01*
X2017190Y1671490D02*
G01X2018099D01*
X2017190Y1669771D02*
G01X2018667D01*
X2025466Y1667680D02*
G01X2033466D01*
X2029466Y1663680D02*
G01Y1671680D01*
X2031466Y1672961D02*
G01Y1669680D01*
Y1672961D02*
G01X2032943D01*
X2031466Y1671399D02*
G01X2032375D01*
X2031466Y1669680D02*
G01X2032943D01*
X2035590Y1667861D02*
G01X2043590D01*
X2039590Y1663861D02*
G01Y1671861D01*
X2041590Y1673142D02*
G01Y1669861D01*
Y1673142D02*
G01X2043067D01*
X2041590Y1671580D02*
G01X2042499D01*
X2041590Y1669861D02*
G01X2043067D01*
X1894685Y1529133D02*
G01X2077756D01*
Y1529133D02*
G75*
G03X2110236Y1561613J32480D01*
Y1561613D02*
G01Y1665944D01*
Y1665944D02*
G03X2105315Y1670865I-4921J0D01*
Y1670865D02*
G01X1922244D01*
Y1670865D02*
G03X1889764Y1638385I0J-32480D01*
Y1638385D02*
G01Y1534054D01*
Y1534054D02*
G03X1894685Y1529133I4921D01*
X2116908Y1814633D02*
G01X2374908D01*
X2116908Y1790633D02*
G01X2374908D01*
X2116908Y1766633D02*
G01X2374908D01*
X2116908Y1742633D02*
G01X2374908D01*
X2116908Y1718633D02*
G01X2374908D01*
X2116908Y1694633D02*
G01X2374908D01*
X2116908Y1670633D02*
G01X2374908D01*
X2116908Y1814633D02*
G01Y1670633D01*
X2200908Y1814633D02*
G01Y1670633D01*
X2236908Y1814633D02*
G01Y1670633D01*
X2272908Y1814633D02*
G01Y1670633D01*
X2326908Y1814633D02*
G01Y1670633D01*
X2374908Y1814633D02*
G01Y1670633D01*
X2152908Y1803321D02*
G01X2152362Y1804008D01*
Y1804008D02*
G01X2151544Y1804352D01*
X2150453*
X2149635Y1804008*
Y1804008D02*
G01X2149089Y1803321D01*
Y1803321D02*
G01Y1802633D01*
Y1802633D02*
G01X2149362Y1801946D01*
Y1801946D02*
G01X2149635Y1801602D01*
X2150180Y1801258*
Y1801258D02*
G01X2151817Y1800571D01*
X2152362Y1800227*
Y1800227D02*
G01X2152635Y1799883D01*
Y1799883D02*
G01X2152908Y1799196D01*
Y1798164*
Y1798164D02*
G01X2152362Y1797477D01*
Y1797477D02*
G01X2151544Y1797133D01*
Y1797133D02*
G01X2150453D01*
Y1797133D02*
G01X2149635Y1797477D01*
X2149089Y1798164*
X2155362Y1804352D02*
G01Y1797133D01*
X2161635Y1804352D02*
G01X2157817Y1797133D01*
Y1804352D02*
G01X2161635D01*
X2157817Y1797133D02*
G01X2161635D01*
X2164089Y1804352D02*
G01Y1797133D01*
Y1804352D02*
G01X2167635D01*
X2164089Y1800914D02*
G01X2166271D01*
X2164089Y1797133D02*
G01X2167635D01*
X2211271Y1804352D02*
G01X2210726Y1804008D01*
Y1804008D02*
G01X2210180Y1803321D01*
Y1803321D02*
G01X2209908Y1802633D01*
Y1802633D02*
G01X2209635Y1801602D01*
Y1799883*
Y1799883D02*
G01X2209908Y1798852D01*
X2210180Y1798164*
Y1798164D02*
G01X2210726Y1797477D01*
X2211271Y1797133*
Y1797133D02*
G01X2212362D01*
Y1797133D02*
G01X2212908Y1797477D01*
X2213453Y1798164*
Y1798164D02*
G01X2213726Y1798852D01*
X2213998Y1799883*
Y1799883D02*
G01Y1801602D01*
Y1801602D02*
G01X2213726Y1802633D01*
Y1802633D02*
G01X2213453Y1803321D01*
X2212908Y1804008*
Y1804008D02*
G01X2212362Y1804352D01*
Y1804352D02*
G01X2211271D01*
X2212089Y1798508D02*
G01X2213726Y1796446D01*
X2218362Y1804352D02*
G01Y1797133D01*
X2216453Y1804352D02*
G01X2220271D01*
X2222726D02*
G01X2224908Y1800914D01*
Y1800914D02*
G01Y1797133D01*
X2227089Y1804352D02*
G01X2224908Y1800914D01*
X2249453Y1803321D02*
G01X2248908Y1804008D01*
Y1804008D02*
G01X2248089Y1804352D01*
Y1804352D02*
G01X2246998D01*
Y1804352D02*
G01X2246180Y1804008D01*
Y1804008D02*
G01X2245635Y1803321D01*
Y1802633*
Y1802633D02*
G01X2245908Y1801946D01*
X2246180Y1801602*
Y1801602D02*
G01X2246726Y1801258D01*
Y1801258D02*
G01X2248362Y1800571D01*
Y1800571D02*
G01X2248908Y1800227D01*
X2249180Y1799883*
Y1799883D02*
G01X2249453Y1799196D01*
Y1798164*
Y1798164D02*
G01X2248908Y1797477D01*
X2248089Y1797133*
Y1797133D02*
G01X2246998D01*
Y1797133D02*
G01X2246180Y1797477D01*
Y1797477D02*
G01X2245635Y1798164D01*
X2251908Y1804352D02*
G01X2254089Y1800914D01*
Y1800914D02*
G01Y1797133D01*
X2256271Y1804352D02*
G01X2254089Y1800914D01*
X2258726Y1804352D02*
G01Y1797133D01*
Y1804352D02*
G01X2260908Y1797133D01*
X2263089Y1804352D02*
G01X2260908Y1797133D01*
X2263089Y1804352D02*
G01Y1797133D01*
X2284908Y1804352D02*
G01Y1797133D01*
Y1804352D02*
G01X2287362D01*
Y1804352D02*
G01X2288180Y1804008D01*
Y1804008D02*
G01X2288453Y1803664D01*
Y1803664D02*
G01X2288726Y1802977D01*
Y1801946*
X2288453Y1801258*
Y1801258D02*
G01X2288180Y1800914D01*
Y1800914D02*
G01X2287362Y1800571D01*
Y1800571D02*
G01X2284908D01*
X2291180Y1804352D02*
G01Y1797133D01*
Y1797133D02*
G01X2294453D01*
X2299089Y1804352D02*
G01X2296908Y1797133D01*
X2299089Y1804352D02*
G01X2301271Y1797133D01*
X2297726Y1799539D02*
G01X2300453D01*
X2305635Y1804352D02*
G01Y1797133D01*
X2303726Y1804352D02*
G01X2307544D01*
X2309998D02*
G01Y1797133D01*
Y1804352D02*
G01X2313544D01*
X2309998Y1800914D02*
G01X2312180D01*
X2309998Y1797133D02*
G01X2313544D01*
X2315998Y1804352D02*
G01Y1797133D01*
Y1804352D02*
G01X2317908D01*
X2318726Y1804008*
Y1804008D02*
G01X2319271Y1803321D01*
Y1803321D02*
G01X2319544Y1802633D01*
Y1802633D02*
G01X2319817Y1801602D01*
Y1799883*
Y1799883D02*
G01X2319544Y1798852D01*
X2319271Y1798164*
Y1798164D02*
G01X2318726Y1797477D01*
X2317908Y1797133*
Y1797133D02*
G01X2315998D01*
X2344089Y1804352D02*
G01Y1797133D01*
X2342180Y1804352D02*
G01X2345998D01*
X2350089D02*
G01X2349544Y1804008D01*
Y1804008D02*
G01X2348998Y1803321D01*
Y1803321D02*
G01X2348726Y1802633D01*
Y1802633D02*
G01X2348453Y1801602D01*
Y1799883*
Y1799883D02*
G01X2348726Y1798852D01*
X2348998Y1798164*
Y1798164D02*
G01X2349544Y1797477D01*
X2350089Y1797133*
Y1797133D02*
G01X2351180D01*
Y1797133D02*
G01X2351726Y1797477D01*
X2352271Y1798164*
Y1798164D02*
G01X2352544Y1798852D01*
X2352817Y1799883*
Y1799883D02*
G01Y1801602D01*
X2352544Y1802633*
Y1802633D02*
G01X2352271Y1803321D01*
Y1803321D02*
G01X2351726Y1804008D01*
Y1804008D02*
G01X2351180Y1804352D01*
Y1804352D02*
G01X2350089D01*
X2355271D02*
G01Y1797133D01*
Y1797133D02*
G01X2358544D01*
X2123953Y1780352D02*
G01X2126953D01*
X2125317Y1777602*
X2126135*
X2126680Y1777258*
Y1777258D02*
G01X2126953Y1776914D01*
Y1776914D02*
G01X2127226Y1775883D01*
Y1775883D02*
G01Y1775196D01*
X2126953Y1774164*
Y1774164D02*
G01X2126408Y1773477D01*
X2125589Y1773133*
Y1773133D02*
G01X2124771D01*
Y1773133D02*
G01X2123953Y1773477D01*
X2123680Y1773821*
Y1773821D02*
G01X2123408Y1774508D01*
X2132953Y1779321D02*
G01X2132680Y1780008D01*
Y1780008D02*
G01X2131862Y1780352D01*
Y1780352D02*
G01X2131317D01*
X2130498Y1780008*
Y1780008D02*
G01X2129953Y1778977D01*
X2129680Y1777258*
Y1777258D02*
G01Y1775539D01*
Y1775539D02*
G01X2129953Y1774164D01*
Y1774164D02*
G01X2130498Y1773477D01*
Y1773477D02*
G01X2131317Y1773133D01*
Y1773133D02*
G01X2131589D01*
Y1773133D02*
G01X2132408Y1773477D01*
X2132953Y1774164*
Y1774164D02*
G01X2133226Y1775196D01*
Y1775539*
Y1775539D02*
G01X2132953Y1776571D01*
X2132408Y1777258*
Y1777258D02*
G01X2131589Y1777602D01*
Y1777602D02*
G01X2131317D01*
X2130498Y1777258*
Y1777258D02*
G01X2129953Y1776571D01*
X2129680Y1775539*
X2213589Y1778633D02*
G01Y1778977D01*
Y1778977D02*
G01X2213862Y1779664D01*
Y1779664D02*
G01X2214135Y1780008D01*
Y1780008D02*
G01X2214680Y1780352D01*
Y1780352D02*
G01X2215771D01*
Y1780352D02*
G01X2216317Y1780008D01*
Y1780008D02*
G01X2216589Y1779664D01*
Y1779664D02*
G01X2216862Y1778977D01*
Y1778977D02*
G01Y1778289D01*
Y1778289D02*
G01X2216589Y1777602D01*
Y1777602D02*
G01X2216044Y1776571D01*
X2213317Y1773133*
Y1773133D02*
G01X2217135D01*
X2220135Y1780352D02*
G01X2223135D01*
X2221498Y1777602*
Y1777602D02*
G01X2222317D01*
X2222862Y1777258*
Y1777258D02*
G01X2223135Y1776914D01*
Y1776914D02*
G01X2223408Y1775883D01*
Y1775883D02*
G01Y1775196D01*
X2223135Y1774164*
Y1774164D02*
G01X2222589Y1773477D01*
Y1773477D02*
G01X2221771Y1773133D01*
Y1773133D02*
G01X2220953D01*
Y1773133D02*
G01X2220135Y1773477D01*
X2219862Y1773821*
Y1773821D02*
G01X2219589Y1774508D01*
X2254908Y1772633D02*
G01X2260908Y1778633D01*
Y1778633D02*
G01X2254908Y1784633D01*
Y1784633D02*
G01X2248908Y1778633D01*
Y1778633D02*
G01X2254908Y1772633D01*
Y1778633D02*
G01Y1784633D01*
X2282044Y1780352D02*
G01X2284226Y1776914D01*
Y1776914D02*
G01Y1773133D01*
X2286408Y1780352D02*
G01X2284226Y1776914D01*
X2288862Y1780352D02*
G01Y1773133D01*
Y1780352D02*
G01X2292408D01*
X2288862Y1776914D02*
G01X2291044D01*
X2288862Y1773133D02*
G01X2292408D01*
X2298680Y1779321D02*
G01X2298135Y1780008D01*
Y1780008D02*
G01X2297317Y1780352D01*
X2296226*
X2295408Y1780008*
Y1780008D02*
G01X2294862Y1779321D01*
Y1779321D02*
G01Y1778633D01*
Y1778633D02*
G01X2295135Y1777946D01*
X2295408Y1777602*
X2295953Y1777258*
Y1777258D02*
G01X2297589Y1776571D01*
Y1776571D02*
G01X2298135Y1776227D01*
X2298408Y1775883*
Y1775883D02*
G01X2298680Y1775196D01*
Y1775196D02*
G01Y1774164D01*
Y1774164D02*
G01X2298135Y1773477D01*
X2297317Y1773133*
Y1773133D02*
G01X2296226D01*
Y1773133D02*
G01X2295408Y1773477D01*
X2294862Y1774164*
X2335226Y1779321D02*
G01Y1773133D01*
X2332771Y1776227D02*
G01X2337680D01*
X2345044Y1781727D02*
G01X2340135Y1770727D01*
X2347498Y1776227D02*
G01X2352408D01*
X2356498Y1780352D02*
G01X2355680Y1780008D01*
Y1780008D02*
G01X2355135Y1778977D01*
X2354862Y1777258*
Y1777258D02*
G01Y1776227D01*
Y1776227D02*
G01X2355135Y1774508D01*
Y1774508D02*
G01X2355680Y1773477D01*
Y1773477D02*
G01X2356498Y1773133D01*
Y1773133D02*
G01X2357044D01*
Y1773133D02*
G01X2357862Y1773477D01*
Y1773477D02*
G01X2358408Y1774508D01*
Y1774508D02*
G01X2358680Y1776227D01*
Y1776227D02*
G01Y1777258D01*
Y1777258D02*
G01X2358408Y1778977D01*
X2357862Y1780008*
Y1780008D02*
G01X2357044Y1780352D01*
X2356498*
X2361408Y1773821D02*
G01X2361135Y1773477D01*
X2361408Y1773133*
Y1773133D02*
G01X2361680Y1773477D01*
Y1773477D02*
G01X2361408Y1773821D01*
X2365771Y1780352D02*
G01X2364953Y1780008D01*
Y1780008D02*
G01X2364408Y1778977D01*
X2364135Y1777258*
Y1777258D02*
G01Y1776227D01*
X2364408Y1774508*
Y1774508D02*
G01X2364953Y1773477D01*
X2365771Y1773133*
Y1773133D02*
G01X2366317D01*
Y1773133D02*
G01X2367135Y1773477D01*
X2367680Y1774508*
Y1774508D02*
G01X2367953Y1776227D01*
Y1777258*
Y1777258D02*
G01X2367680Y1778977D01*
Y1778977D02*
G01X2367135Y1780008D01*
Y1780008D02*
G01X2366317Y1780352D01*
X2365771*
X2123953Y1756352D02*
G01X2126953D01*
X2125317Y1753602*
X2126135*
X2126680Y1753258*
Y1753258D02*
G01X2126953Y1752914D01*
Y1752914D02*
G01X2127226Y1751883D01*
Y1751883D02*
G01Y1751196D01*
X2126953Y1750164*
Y1750164D02*
G01X2126408Y1749477D01*
X2125589Y1749133*
Y1749133D02*
G01X2124771D01*
Y1749133D02*
G01X2123953Y1749477D01*
X2123680Y1749821*
Y1749821D02*
G01X2123408Y1750508D01*
X2132953Y1755321D02*
G01X2132680Y1756008D01*
Y1756008D02*
G01X2131862Y1756352D01*
Y1756352D02*
G01X2131317D01*
X2130498Y1756008*
Y1756008D02*
G01X2129953Y1754977D01*
X2129680Y1753258*
Y1753258D02*
G01Y1751539D01*
Y1751539D02*
G01X2129953Y1750164D01*
Y1750164D02*
G01X2130498Y1749477D01*
Y1749477D02*
G01X2131317Y1749133D01*
Y1749133D02*
G01X2131589D01*
Y1749133D02*
G01X2132408Y1749477D01*
X2132953Y1750164*
Y1750164D02*
G01X2133226Y1751196D01*
Y1751539*
Y1751539D02*
G01X2132953Y1752571D01*
X2132408Y1753258*
Y1753258D02*
G01X2131589Y1753602D01*
Y1753602D02*
G01X2131317D01*
X2130498Y1753258*
Y1753258D02*
G01X2129953Y1752571D01*
X2129680Y1751539*
X2216726Y1754633D02*
G01Y1754977D01*
X2216998Y1755664*
Y1755664D02*
G01X2217271Y1756008D01*
Y1756008D02*
G01X2217817Y1756352D01*
X2218908*
X2219453Y1756008*
Y1756008D02*
G01X2219726Y1755664D01*
Y1755664D02*
G01X2219998Y1754977D01*
Y1754977D02*
G01Y1754289D01*
Y1754289D02*
G01X2219726Y1753602D01*
X2219180Y1752571*
Y1752571D02*
G01X2216453Y1749133D01*
Y1749133D02*
G01X2220271D01*
X2248908Y1754633D02*
G01X2260908D01*
X2254908Y1748633D02*
G01Y1760633D01*
X2257908Y1763933D02*
G01Y1757633D01*
Y1763933D02*
G01X2259871D01*
Y1763933D02*
G01X2260526Y1763633D01*
Y1763633D02*
G01X2260744Y1763333D01*
Y1763333D02*
G01X2260962Y1762733D01*
Y1762733D02*
G01Y1762133D01*
Y1762133D02*
G01X2260744Y1761533D01*
Y1761533D02*
G01X2260526Y1761233D01*
Y1761233D02*
G01X2259871Y1760933D01*
X2257908D02*
G01X2259871D01*
Y1760933D02*
G01X2260526Y1760633D01*
Y1760633D02*
G01X2260744Y1760333D01*
Y1760333D02*
G01X2260962Y1759733D01*
Y1759733D02*
G01Y1758833D01*
Y1758833D02*
G01X2260744Y1758233D01*
Y1758233D02*
G01X2260526Y1757933D01*
Y1757933D02*
G01X2259871Y1757633D01*
Y1757633D02*
G01X2257908D01*
X2285044Y1756352D02*
G01Y1749133D01*
Y1756352D02*
G01X2288862Y1749133D01*
Y1756352D02*
G01Y1749133D01*
X2292953Y1756352D02*
G01X2292408Y1756008D01*
Y1756008D02*
G01X2291862Y1755321D01*
Y1755321D02*
G01X2291589Y1754633D01*
Y1754633D02*
G01X2291317Y1753602D01*
Y1751883*
Y1751883D02*
G01X2291589Y1750852D01*
Y1750852D02*
G01X2291862Y1750164D01*
Y1750164D02*
G01X2292408Y1749477D01*
X2292953Y1749133*
Y1749133D02*
G01X2294044D01*
Y1749133D02*
G01X2294589Y1749477D01*
Y1749477D02*
G01X2295135Y1750164D01*
Y1750164D02*
G01X2295408Y1750852D01*
X2295680Y1751883*
Y1751883D02*
G01Y1753602D01*
Y1753602D02*
G01X2295408Y1754633D01*
Y1754633D02*
G01X2295135Y1755321D01*
X2294589Y1756008*
Y1756008D02*
G01X2294044Y1756352D01*
X2292953*
X2335226Y1755321D02*
G01Y1749133D01*
X2332771Y1752227D02*
G01X2337680D01*
X2345044Y1757727D02*
G01X2340135Y1746727D01*
X2347498Y1752227D02*
G01X2352408D01*
X2356498Y1756352D02*
G01X2355680Y1756008D01*
Y1756008D02*
G01X2355135Y1754977D01*
X2354862Y1753258*
Y1753258D02*
G01Y1752227D01*
Y1752227D02*
G01X2355135Y1750508D01*
Y1750508D02*
G01X2355680Y1749477D01*
Y1749477D02*
G01X2356498Y1749133D01*
Y1749133D02*
G01X2357044D01*
Y1749133D02*
G01X2357862Y1749477D01*
Y1749477D02*
G01X2358408Y1750508D01*
Y1750508D02*
G01X2358680Y1752227D01*
Y1752227D02*
G01Y1753258D01*
Y1753258D02*
G01X2358408Y1754977D01*
X2357862Y1756008*
Y1756008D02*
G01X2357044Y1756352D01*
X2356498*
X2361408Y1749821D02*
G01X2361135Y1749477D01*
X2361408Y1749133*
Y1749133D02*
G01X2361680Y1749477D01*
Y1749477D02*
G01X2361408Y1749821D01*
X2365771Y1756352D02*
G01X2364953Y1756008D01*
Y1756008D02*
G01X2364408Y1754977D01*
X2364135Y1753258*
Y1753258D02*
G01Y1752227D01*
X2364408Y1750508*
Y1750508D02*
G01X2364953Y1749477D01*
X2365771Y1749133*
Y1749133D02*
G01X2366317D01*
Y1749133D02*
G01X2367135Y1749477D01*
X2367680Y1750508*
Y1750508D02*
G01X2367953Y1752227D01*
Y1753258*
Y1753258D02*
G01X2367680Y1754977D01*
Y1754977D02*
G01X2367135Y1756008D01*
Y1756008D02*
G01X2366317Y1756352D01*
X2365771*
X2123953Y1732352D02*
G01X2126953D01*
X2125317Y1729602*
X2126135*
X2126680Y1729258*
Y1729258D02*
G01X2126953Y1728914D01*
Y1728914D02*
G01X2127226Y1727883D01*
Y1727883D02*
G01Y1727196D01*
X2126953Y1726164*
Y1726164D02*
G01X2126408Y1725477D01*
X2125589Y1725133*
Y1725133D02*
G01X2124771D01*
Y1725133D02*
G01X2123953Y1725477D01*
X2123680Y1725821*
Y1725821D02*
G01X2123408Y1726508D01*
X2131317Y1732352D02*
G01X2130498Y1732008D01*
Y1732008D02*
G01X2129953Y1730977D01*
X2129680Y1729258*
Y1729258D02*
G01Y1728227D01*
Y1728227D02*
G01X2129953Y1726508D01*
Y1726508D02*
G01X2130498Y1725477D01*
Y1725477D02*
G01X2131317Y1725133D01*
Y1725133D02*
G01X2131862D01*
Y1725133D02*
G01X2132680Y1725477D01*
Y1725477D02*
G01X2133226Y1726508D01*
Y1726508D02*
G01X2133498Y1728227D01*
Y1728227D02*
G01Y1729258D01*
Y1729258D02*
G01X2133226Y1730977D01*
X2132680Y1732008*
Y1732008D02*
G01X2131862Y1732352D01*
Y1732352D02*
G01X2131317D01*
X2213589Y1730633D02*
G01Y1730977D01*
Y1730977D02*
G01X2213862Y1731664D01*
Y1731664D02*
G01X2214135Y1732008D01*
Y1732008D02*
G01X2214680Y1732352D01*
Y1732352D02*
G01X2215771D01*
Y1732352D02*
G01X2216317Y1732008D01*
Y1732008D02*
G01X2216589Y1731664D01*
Y1731664D02*
G01X2216862Y1730977D01*
Y1730977D02*
G01Y1730289D01*
Y1730289D02*
G01X2216589Y1729602D01*
Y1729602D02*
G01X2216044Y1728571D01*
X2213317Y1725133*
Y1725133D02*
G01X2217135D01*
X2221226Y1732352D02*
G01X2220408Y1732008D01*
Y1732008D02*
G01X2219862Y1730977D01*
Y1730977D02*
G01X2219589Y1729258D01*
Y1729258D02*
G01Y1728227D01*
Y1728227D02*
G01X2219862Y1726508D01*
Y1726508D02*
G01X2220408Y1725477D01*
X2221226Y1725133*
Y1725133D02*
G01X2221771D01*
Y1725133D02*
G01X2222589Y1725477D01*
Y1725477D02*
G01X2223135Y1726508D01*
Y1726508D02*
G01X2223408Y1728227D01*
Y1729258*
Y1729258D02*
G01X2223135Y1730977D01*
X2222589Y1732008*
Y1732008D02*
G01X2221771Y1732352D01*
Y1732352D02*
G01X2221226D01*
X2248908Y1730633D02*
G01X2260908D01*
X2254908Y1724633D02*
G01Y1736633D01*
X2261180Y1738433D02*
G01X2260962Y1739033D01*
Y1739033D02*
G01X2260526Y1739633D01*
Y1739633D02*
G01X2260089Y1739933D01*
Y1739933D02*
G01X2259217D01*
Y1739933D02*
G01X2258780Y1739633D01*
Y1739633D02*
G01X2258344Y1739033D01*
Y1739033D02*
G01X2258126Y1738433D01*
Y1738433D02*
G01X2257908Y1737533D01*
Y1737533D02*
G01Y1736033D01*
Y1736033D02*
G01X2258126Y1735133D01*
Y1735133D02*
G01X2258344Y1734533D01*
Y1734533D02*
G01X2258780Y1733933D01*
Y1733933D02*
G01X2259217Y1733633D01*
Y1733633D02*
G01X2260089D01*
Y1733633D02*
G01X2260526Y1733933D01*
Y1733933D02*
G01X2260962Y1734533D01*
Y1734533D02*
G01X2261180Y1735133D01*
X2282044Y1732352D02*
G01X2284226Y1728914D01*
Y1728914D02*
G01Y1725133D01*
X2286408Y1732352D02*
G01X2284226Y1728914D01*
X2288862Y1732352D02*
G01Y1725133D01*
Y1732352D02*
G01X2292408D01*
X2288862Y1728914D02*
G01X2291044D01*
X2288862Y1725133D02*
G01X2292408D01*
X2298680Y1731321D02*
G01X2298135Y1732008D01*
Y1732008D02*
G01X2297317Y1732352D01*
X2296226*
X2295408Y1732008*
Y1732008D02*
G01X2294862Y1731321D01*
Y1731321D02*
G01Y1730633D01*
Y1730633D02*
G01X2295135Y1729946D01*
X2295408Y1729602*
X2295953Y1729258*
Y1729258D02*
G01X2297589Y1728571D01*
Y1728571D02*
G01X2298135Y1728227D01*
X2298408Y1727883*
Y1727883D02*
G01X2298680Y1727196D01*
Y1727196D02*
G01Y1726164D01*
Y1726164D02*
G01X2298135Y1725477D01*
X2297317Y1725133*
Y1725133D02*
G01X2296226D01*
Y1725133D02*
G01X2295408Y1725477D01*
X2294862Y1726164*
X2335226Y1731321D02*
G01Y1725133D01*
X2332771Y1728227D02*
G01X2337680D01*
X2345044Y1733727D02*
G01X2340135Y1722727D01*
X2347498Y1728227D02*
G01X2352408D01*
X2356498Y1732352D02*
G01X2355680Y1732008D01*
Y1732008D02*
G01X2355135Y1730977D01*
X2354862Y1729258*
Y1729258D02*
G01Y1728227D01*
Y1728227D02*
G01X2355135Y1726508D01*
Y1726508D02*
G01X2355680Y1725477D01*
Y1725477D02*
G01X2356498Y1725133D01*
Y1725133D02*
G01X2357044D01*
Y1725133D02*
G01X2357862Y1725477D01*
Y1725477D02*
G01X2358408Y1726508D01*
Y1726508D02*
G01X2358680Y1728227D01*
Y1728227D02*
G01Y1729258D01*
Y1729258D02*
G01X2358408Y1730977D01*
X2357862Y1732008*
Y1732008D02*
G01X2357044Y1732352D01*
X2356498*
X2361408Y1725821D02*
G01X2361135Y1725477D01*
X2361408Y1725133*
Y1725133D02*
G01X2361680Y1725477D01*
Y1725477D02*
G01X2361408Y1725821D01*
X2365771Y1732352D02*
G01X2364953Y1732008D01*
Y1732008D02*
G01X2364408Y1730977D01*
X2364135Y1729258*
Y1729258D02*
G01Y1728227D01*
X2364408Y1726508*
Y1726508D02*
G01X2364953Y1725477D01*
X2365771Y1725133*
Y1725133D02*
G01X2366317D01*
Y1725133D02*
G01X2367135Y1725477D01*
X2367680Y1726508*
Y1726508D02*
G01X2367953Y1728227D01*
Y1729258*
Y1729258D02*
G01X2367680Y1730977D01*
Y1730977D02*
G01X2367135Y1732008D01*
Y1732008D02*
G01X2366317Y1732352D01*
X2365771*
X2127226Y1708352D02*
G01X2124498Y1701133D01*
X2123408Y1708352D02*
G01X2127226D01*
X2129953Y1706633D02*
G01Y1706977D01*
X2130226Y1707664*
Y1707664D02*
G01X2130498Y1708008D01*
Y1708008D02*
G01X2131044Y1708352D01*
X2132135*
X2132680Y1708008*
Y1708008D02*
G01X2132953Y1707664D01*
Y1707664D02*
G01X2133226Y1706977D01*
Y1706289*
Y1706289D02*
G01X2132953Y1705602D01*
X2132408Y1704571*
X2129680Y1701133*
Y1701133D02*
G01X2133498D01*
X2136226Y1701821D02*
G01X2135953Y1701477D01*
X2136226Y1701133*
Y1701133D02*
G01X2136498Y1701477D01*
Y1701477D02*
G01X2136226Y1701821D01*
X2140317Y1708352D02*
G01X2139498Y1708008D01*
Y1708008D02*
G01X2139226Y1707321D01*
Y1706633*
Y1706633D02*
G01X2139498Y1705946D01*
Y1705946D02*
G01X2140044Y1705602D01*
X2141135Y1705258*
Y1705258D02*
G01X2141953Y1704914D01*
Y1704914D02*
G01X2142498Y1704227D01*
Y1704227D02*
G01X2142771Y1703539D01*
Y1703539D02*
G01Y1702508D01*
Y1702508D02*
G01X2142498Y1701821D01*
Y1701821D02*
G01X2142226Y1701477D01*
X2141408Y1701133*
Y1701133D02*
G01X2140317D01*
Y1701133D02*
G01X2139498Y1701477D01*
Y1701477D02*
G01X2139226Y1701821D01*
X2138953Y1702508*
Y1702508D02*
G01Y1703539D01*
Y1703539D02*
G01X2139226Y1704227D01*
X2139771Y1704914*
Y1704914D02*
G01X2140589Y1705258D01*
Y1705258D02*
G01X2141680Y1705602D01*
Y1705602D02*
G01X2142226Y1705946D01*
X2142498Y1706633*
Y1706633D02*
G01Y1707321D01*
Y1707321D02*
G01X2142226Y1708008D01*
Y1708008D02*
G01X2141408Y1708352D01*
X2140317*
X2145771D02*
G01X2148771D01*
Y1708352D02*
G01X2147135Y1705602D01*
X2147953*
X2148498Y1705258*
Y1705258D02*
G01X2148771Y1704914D01*
Y1704914D02*
G01X2149044Y1703883D01*
Y1703883D02*
G01Y1703196D01*
X2148771Y1702164*
Y1702164D02*
G01X2148226Y1701477D01*
X2147408Y1701133*
Y1701133D02*
G01X2146589D01*
Y1701133D02*
G01X2145771Y1701477D01*
Y1701477D02*
G01X2145498Y1701821D01*
Y1701821D02*
G01X2145226Y1702508D01*
X2219044Y1708352D02*
G01X2216317Y1703539D01*
Y1703539D02*
G01X2220408D01*
X2219044Y1708352D02*
G01Y1701133D01*
X2248908Y1706633D02*
G01X2260908D01*
X2254908Y1700633D02*
G01Y1712633D01*
X2257908Y1715933D02*
G01Y1709633D01*
Y1715933D02*
G01X2259435D01*
Y1715933D02*
G01X2260089Y1715633D01*
Y1715633D02*
G01X2260526Y1715033D01*
Y1715033D02*
G01X2260744Y1714433D01*
Y1714433D02*
G01X2260962Y1713533D01*
Y1713533D02*
G01Y1712033D01*
Y1712033D02*
G01X2260744Y1711133D01*
Y1711133D02*
G01X2260526Y1710533D01*
Y1710533D02*
G01X2260089Y1709933D01*
Y1709933D02*
G01X2259435Y1709633D01*
Y1709633D02*
G01X2257908D01*
X2285044Y1708352D02*
G01Y1701133D01*
Y1708352D02*
G01X2288862Y1701133D01*
Y1708352D02*
G01Y1701133D01*
X2292953Y1708352D02*
G01X2292408Y1708008D01*
Y1708008D02*
G01X2291862Y1707321D01*
Y1707321D02*
G01X2291589Y1706633D01*
Y1706633D02*
G01X2291317Y1705602D01*
Y1703883*
Y1703883D02*
G01X2291589Y1702852D01*
Y1702852D02*
G01X2291862Y1702164D01*
Y1702164D02*
G01X2292408Y1701477D01*
X2292953Y1701133*
Y1701133D02*
G01X2294044D01*
Y1701133D02*
G01X2294589Y1701477D01*
Y1701477D02*
G01X2295135Y1702164D01*
Y1702164D02*
G01X2295408Y1702852D01*
X2295680Y1703883*
Y1703883D02*
G01Y1705602D01*
Y1705602D02*
G01X2295408Y1706633D01*
Y1706633D02*
G01X2295135Y1707321D01*
X2294589Y1708008*
Y1708008D02*
G01X2294044Y1708352D01*
X2292953*
X2335226Y1707321D02*
G01Y1701133D01*
X2332771Y1704227D02*
G01X2337680D01*
X2345044Y1709727D02*
G01X2340135Y1698727D01*
X2347498Y1704227D02*
G01X2352408D01*
X2356498Y1708352D02*
G01X2355680Y1708008D01*
Y1708008D02*
G01X2355135Y1706977D01*
X2354862Y1705258*
Y1705258D02*
G01Y1704227D01*
Y1704227D02*
G01X2355135Y1702508D01*
Y1702508D02*
G01X2355680Y1701477D01*
Y1701477D02*
G01X2356498Y1701133D01*
Y1701133D02*
G01X2357044D01*
Y1701133D02*
G01X2357862Y1701477D01*
Y1701477D02*
G01X2358408Y1702508D01*
Y1702508D02*
G01X2358680Y1704227D01*
Y1704227D02*
G01Y1705258D01*
Y1705258D02*
G01X2358408Y1706977D01*
X2357862Y1708008*
Y1708008D02*
G01X2357044Y1708352D01*
X2356498*
X2361408Y1701821D02*
G01X2361135Y1701477D01*
X2361408Y1701133*
Y1701133D02*
G01X2361680Y1701477D01*
Y1701477D02*
G01X2361408Y1701821D01*
X2365771Y1708352D02*
G01X2364953Y1708008D01*
Y1708008D02*
G01X2364408Y1706977D01*
X2364135Y1705258*
Y1705258D02*
G01Y1704227D01*
X2364408Y1702508*
Y1702508D02*
G01X2364953Y1701477D01*
X2365771Y1701133*
Y1701133D02*
G01X2366317D01*
Y1701133D02*
G01X2367135Y1701477D01*
X2367680Y1702508*
Y1702508D02*
G01X2367953Y1704227D01*
Y1705258*
Y1705258D02*
G01X2367680Y1706977D01*
Y1706977D02*
G01X2367135Y1708008D01*
Y1708008D02*
G01X2366317Y1708352D01*
X2365771*
X2123408Y1682977D02*
G01X2123953Y1683321D01*
X2124771Y1684352*
Y1684352D02*
G01Y1677133D01*
X2128862Y1684352D02*
G01X2128044Y1684008D01*
Y1684008D02*
G01X2127498Y1682977D01*
Y1682977D02*
G01X2127226Y1681258D01*
Y1681258D02*
G01Y1680227D01*
X2127498Y1678508*
Y1678508D02*
G01X2128044Y1677477D01*
X2128862Y1677133*
Y1677133D02*
G01X2129408D01*
Y1677133D02*
G01X2130226Y1677477D01*
X2130771Y1678508*
Y1678508D02*
G01X2131044Y1680227D01*
Y1681258*
Y1681258D02*
G01X2130771Y1682977D01*
Y1682977D02*
G01X2130226Y1684008D01*
Y1684008D02*
G01X2129408Y1684352D01*
X2128862*
X2210589Y1682633D02*
G01Y1682977D01*
Y1682977D02*
G01X2210862Y1683664D01*
Y1683664D02*
G01X2211135Y1684008D01*
Y1684008D02*
G01X2211680Y1684352D01*
Y1684352D02*
G01X2212771D01*
Y1684352D02*
G01X2213317Y1684008D01*
Y1684008D02*
G01X2213589Y1683664D01*
Y1683664D02*
G01X2213862Y1682977D01*
Y1682977D02*
G01Y1682289D01*
Y1682289D02*
G01X2213589Y1681602D01*
Y1681602D02*
G01X2213044Y1680571D01*
X2210317Y1677133*
Y1677133D02*
G01X2214135D01*
X2217135Y1684352D02*
G01X2220135D01*
X2218498Y1681602*
Y1681602D02*
G01X2219317D01*
X2219862Y1681258*
Y1681258D02*
G01X2220135Y1680914D01*
Y1680914D02*
G01X2220408Y1679883D01*
Y1679883D02*
G01Y1679196D01*
X2220135Y1678164*
Y1678164D02*
G01X2219589Y1677477D01*
Y1677477D02*
G01X2218771Y1677133D01*
Y1677133D02*
G01X2217953D01*
Y1677133D02*
G01X2217135Y1677477D01*
X2216862Y1677821*
Y1677821D02*
G01X2216589Y1678508D01*
X2226135Y1683321D02*
G01X2225862Y1684008D01*
Y1684008D02*
G01X2225044Y1684352D01*
X2224498*
Y1684352D02*
G01X2223680Y1684008D01*
Y1684008D02*
G01X2223135Y1682977D01*
X2222862Y1681258*
Y1681258D02*
G01Y1679539D01*
Y1679539D02*
G01X2223135Y1678164D01*
Y1678164D02*
G01X2223680Y1677477D01*
Y1677477D02*
G01X2224498Y1677133D01*
Y1677133D02*
G01X2224771D01*
Y1677133D02*
G01X2225589Y1677477D01*
Y1677477D02*
G01X2226135Y1678164D01*
Y1678164D02*
G01X2226408Y1679196D01*
Y1679539*
Y1679539D02*
G01X2226135Y1680571D01*
X2225589Y1681258*
Y1681258D02*
G01X2224771Y1681602D01*
Y1681602D02*
G01X2224498D01*
Y1681602D02*
G01X2223680Y1681258D01*
Y1681258D02*
G01X2223135Y1680571D01*
X2222862Y1679539*
X2248908Y1682633D02*
G01X2260908D01*
X2254908Y1676633D02*
G01Y1688633D01*
X2257908Y1691933D02*
G01Y1685633D01*
Y1691933D02*
G01X2260744D01*
X2257908Y1688933D02*
G01X2259653D01*
X2257908Y1685633D02*
G01X2260744D01*
X2282044Y1684352D02*
G01X2284226Y1680914D01*
Y1680914D02*
G01Y1677133D01*
X2286408Y1684352D02*
G01X2284226Y1680914D01*
X2288862Y1684352D02*
G01Y1677133D01*
Y1684352D02*
G01X2292408D01*
X2288862Y1680914D02*
G01X2291044D01*
X2288862Y1677133D02*
G01X2292408D01*
X2298680Y1683321D02*
G01X2298135Y1684008D01*
Y1684008D02*
G01X2297317Y1684352D01*
X2296226*
X2295408Y1684008*
Y1684008D02*
G01X2294862Y1683321D01*
Y1683321D02*
G01Y1682633D01*
Y1682633D02*
G01X2295135Y1681946D01*
X2295408Y1681602*
X2295953Y1681258*
Y1681258D02*
G01X2297589Y1680571D01*
Y1680571D02*
G01X2298135Y1680227D01*
X2298408Y1679883*
Y1679883D02*
G01X2298680Y1679196D01*
Y1679196D02*
G01Y1678164D01*
Y1678164D02*
G01X2298135Y1677477D01*
X2297317Y1677133*
Y1677133D02*
G01X2296226D01*
Y1677133D02*
G01X2295408Y1677477D01*
X2294862Y1678164*
X2335226Y1683321D02*
G01Y1677133D01*
X2332771Y1680227D02*
G01X2337680D01*
X2345044Y1685727D02*
G01X2340135Y1674727D01*
X2347498Y1680227D02*
G01X2352408D01*
X2356498Y1684352D02*
G01X2355680Y1684008D01*
Y1684008D02*
G01X2355135Y1682977D01*
X2354862Y1681258*
Y1681258D02*
G01Y1680227D01*
Y1680227D02*
G01X2355135Y1678508D01*
Y1678508D02*
G01X2355680Y1677477D01*
Y1677477D02*
G01X2356498Y1677133D01*
Y1677133D02*
G01X2357044D01*
Y1677133D02*
G01X2357862Y1677477D01*
Y1677477D02*
G01X2358408Y1678508D01*
Y1678508D02*
G01X2358680Y1680227D01*
Y1680227D02*
G01Y1681258D01*
Y1681258D02*
G01X2358408Y1682977D01*
X2357862Y1684008*
Y1684008D02*
G01X2357044Y1684352D01*
X2356498*
X2361408Y1677821D02*
G01X2361135Y1677477D01*
X2361408Y1677133*
Y1677133D02*
G01X2361680Y1677477D01*
Y1677477D02*
G01X2361408Y1677821D01*
X2365771Y1684352D02*
G01X2364953Y1684008D01*
Y1684008D02*
G01X2364408Y1682977D01*
X2364135Y1681258*
Y1681258D02*
G01Y1680227D01*
X2364408Y1678508*
Y1678508D02*
G01X2364953Y1677477D01*
X2365771Y1677133*
Y1677133D02*
G01X2366317D01*
Y1677133D02*
G01X2367135Y1677477D01*
X2367680Y1678508*
Y1678508D02*
G01X2367953Y1680227D01*
Y1681258*
Y1681258D02*
G01X2367680Y1682977D01*
Y1682977D02*
G01X2367135Y1684008D01*
Y1684008D02*
G01X2366317Y1684352D01*
X2365771*
M02*
