M48
INCH,LZ
VER,1
FMAT,2
T01C0.01F095B1S3H2000
T02C0.03F197B1S55H2000
T03C0.036F197B1S55H2000
T04C0.036F197B1S55H2000
T05C0.07283F081B1S55H2000
DETECT,ON
ATC,ON
%
T01
X01912706Y01533403
X01895535Y01535311
X01894342Y01548508
X0190048Y01553867
X01914932Y01555504
X01894651Y01558609
X0190453Y01558921
X01912294Y01563042
X01901142Y01566867
X01913889Y0156984
X01897314Y01572411
X01907451Y01573558
X01902079Y01577997
X01896107Y01582215
X01901325Y01584019
X01910081Y01585059
X01904946Y0159199
X01897196Y01592033
X01909844Y01598298
X01901325Y01598434
X01897078Y01605036
X01906714Y01605405
X01901507Y01612301
X01909726Y01612838
X01917465Y01613164
X01896605Y01618394
X0190505Y01619548
X01909608Y01625132
X01901325Y01625439
X01905986Y01631091
X01896487Y01632342
X01909253Y01638016
X01901507Y01638394
X01918587Y01663474
X01928596Y01663812
X01939546
X01940477Y01648265
X01921944Y01645632
X0194222Y01642229
X01937898Y01638871
X01930273Y01638719
X01922395Y01638592
X01939171Y01634874
X01920595Y01630621
X01942173Y01623398
X01941103Y01607416
X01940878Y01599685
X0194282Y01593941
X01942488Y01584856
X01941537Y01555597
X01926364Y01532223
X01968921Y01534604
X01946115Y01543194
X01956344Y01554168
X01961084Y01556137
X01964916Y01566796
X01956704Y01568074
X0195592Y01571134
X01964863Y01577795
X01956587Y01583646
X0195716Y01586303
X01964409Y01592869
X01964639Y01595635
X01956069Y01600821
X01952855Y01602713
X01964299Y01602939
X01967247Y01603483
X01964571Y01606127
X01951744Y01611546
X01960307Y01615808
X01954948Y01651948
X01965096Y01659298
X01950167Y01664598
X0197475Y01667944
X01982123Y01665008
X01970271Y01665007
X01985859Y01664869
X01976903Y01659298
X01991941Y01653117
X01976335Y01649533
X01992602Y01648175
X01976785Y01642224
X01994095Y01636683
X01976401Y0163488
X01976961Y01617494
X01972756Y01614461
X01983283
X01970017Y01612484
X01993861Y01612174
X01976966Y01611421
X01969926Y0160911
X01992841Y01603472
X01990524Y01600866
X01988174Y01594516
X01988195Y01583935
X01988322Y01579904
X01988031Y01576402
X01974699Y01573952
X01974146Y01556251
X01988438Y0155373
X01980155Y01553651
X01992746Y01551074
X01989338Y01548858
X01986214Y01548825
X01975736Y01547821
X01989224Y01541584
X01969726
X01972135Y01539336
X01989224Y01534605
X01977632Y0153432
X01983292Y01533949
X01972143Y01532214
X01995326Y0153225
X02004215Y01539338
X0200148Y01545944
X01998659Y01546222
X01994946Y01553369
X01997106Y01555625
X02019336Y0155673
X02015606Y01562295
X0200955Y01562924
X02019274Y01564441
X02012708Y01565608
X0201433Y01569174
X02009421Y01579187
X02019296Y01585248
X02012007Y0158743
X02017035Y01588989
X02014312Y01589366
X02010557Y01595695
X02017263Y01604133
X01995894Y01605508
X0199854Y0160761
X02017263Y01608633
X02001495Y01609258
X02017263Y01613133
X020047Y01616573
X02012544Y01625807
X02017054Y01625881
X01997823Y01635576
X01994968Y01641353
X02011014Y01652036
X02015183Y01658444
X02008738Y0166158
X02008429Y01664528
X02005557Y01667771
X02015189
X02039589Y01667861
X02029465Y0166768
X02042437Y01661579
X02027142Y01652699
X02022677Y01645849
X02038315Y01638614
X02038722Y01633493
X02030024Y01625982
X0202246Y01625867
X02034218Y01621025
X02026263Y01613133
X02021763
X02026263Y01608633
X02021819Y01608627
X02042437Y01607933
X02038512Y01605369
X02026263Y01604133
X02021763
X02041063Y01602733
X02033531Y01597546
X02041063Y01594262
X0203727Y01593532
X02021681Y0158315
X02024211Y01581014
X02027174Y01579233
X02029584Y01576414
X02032119Y01573991
X02034552Y01571811
X02021662Y01569535
X02024211Y01566664
X02038719Y01566426
X02027156Y01566393
X02042852Y01557589
X0202724Y01554523
X02040611Y01553885
X02035066Y01552314
X02043209Y01549947
X02050848Y01561801
X02058803Y01564172
X02062118Y01569519
X02050254Y01569529
X02064963Y01581333
X02055263Y01582533
X02049862Y01586133
X02050443Y01597382
X02061669Y01598362
X02055263Y01599733
X02057036Y01606866
X02052478Y0160846
X02047663Y01608633
X02055363Y01611533
X02048633Y01614215
X02054247Y0161917
X02062841Y0162599
X02045663Y01629779
X02054247
X02057998Y01641648
X02048615Y01643599
X02062837Y01658439
X02061388Y01664296
X02051982Y01664528
X02072761Y01664538
X02083409
X02075907Y01659214
X02078148Y01638147
X02079277Y01629617
X02071308Y0162168
X02083717Y01610661
X02071284Y01608067
X02071264Y01592392
X02070779Y0158279
X02087063Y01575433
X02091334Y01567242
X02088369Y01550821
X02078946Y01533697
X02071163Y01532621
X02105027Y01558354
X02105879Y01564505
X02105269Y0157131
X02096763Y01575433
X02095553Y01583252
X02102727Y01595526
X02096819Y01596645
X02105965Y01599236
X0210104Y01601899
X02097858Y01603805
X02103332Y01606302
X02097532Y01634747
X02103974Y01665462
T02
X02011497Y01538059
Y01545933
X02042992
X02035118
X02027244
X0201937
X02042992Y01538059
X02027244
X02035118
X0201937
X02066614
X0205874
X02050866
X02066614Y01545933
X02050866
X0205874
X02074488
X02082363
X02074488Y01538059
X02082363
T03
X02093739Y01591337
Y0160866
T04
X01921417Y01539212
X01931417
X01941417
X01931417Y01549212
X01921417
X01941417
X01932952Y01579999
X01922952
X01932952Y01589999
X01922952
X01932952Y01599999
X01922952
X01932952Y01609999
X01922952
X01932952Y01619999
X01922952
X01961417Y01549212
X01951417
Y01539212
X01961417
X02070865Y01629369
Y01639369
Y01649369
T05
X01905511Y01542913
Y01657086
X02094487
Y01542913
M30
