G04 CAM350 V9.5 (Build 208) Date:  Fri Nov 28 16:59:12 2008 *
G04 Database: (Untitled) *
G04 Layer 3: sm001021.pho *
%FSLAX35Y35*%
%MOIN*%
%SFA1.000B1.000*%

%MIA0B0*%
%IPPOS*%
%ADD15R,0.06000X0.06000*%
%ADD17R,0.07000X0.07000*%
%ADD18C,0.06000*%
%ADD19C,0.07000*%
%ADD70O,0.02181X0.04937*%
%ADD71O,0.04937X0.02181*%
%ADD20R,0.18323X0.18323*%
%ADD22R,0.10843X0.08874*%
%ADD23R,0.04898X0.03717*%
%ADD24O,0.04898X0.03717*%
%ADD33C,0.01000*%
%ADD417R,0.13992X0.02968*%
%ADD418O,0.13992X0.02968*%
%ADD419R,0.13992X0.08874*%
%ADD421C,0.02969*%
%ADD422R,0.05370X0.04098*%
%ADD423R,0.04098X0.05370*%
%ADD426R,0.08480X0.06906*%
%ADD427O,0.07000X0.05500*%
%ADD428O,0.11000X0.05000*%
%ADD429C,0.06906*%
%LNsm001021.pho*%
%LPD*%
G54D17*
X1921417Y1539212D03*
X1932952Y1579999D03*
X2070866Y1649370D03*
X2096141Y1570568D03*
Y1557068D03*
X2069094Y1570568D03*
Y1557068D03*
G54D19*
X1921417Y1549212D03*
X1931417Y1539212D03*
Y1549212D03*
X1941417Y1539212D03*
Y1549212D03*
X1951417Y1539212D03*
Y1549212D03*
X1961417Y1539212D03*
Y1549212D03*
X1922952Y1579999D03*
X1932952Y1589999D03*
X1922952D03*
X1932952Y1599999D03*
X1922952D03*
X1932952Y1609999D03*
X1922952D03*
X1932952Y1619999D03*
X1922952D03*
X2070866Y1629370D03*
G54D15*
X2082363Y1545933D03*
X2085964Y1648484D03*
Y1640492D03*
X2095452Y1644488D03*
X2086719Y1633229D03*
Y1625237D03*
X2096207Y1629233D03*
X1989374Y1620660D03*
Y1629660D03*
X2004114Y1654625D03*
Y1662618D03*
X1994625Y1658622D03*
G54D18*
X2082363Y1538059D03*
X2074489Y1545933D03*
Y1538059D03*
X2066615Y1545933D03*
Y1538059D03*
X2058741Y1545933D03*
Y1538059D03*
X2050867Y1545933D03*
Y1538059D03*
X2042993Y1545933D03*
Y1538059D03*
X2035119Y1545933D03*
Y1538059D03*
X2027245Y1545933D03*
Y1538059D03*
X2019371Y1545933D03*
Y1538059D03*
X2011497Y1545933D03*
Y1538059D03*
G54D70*
X2013110Y1597283D03*
X2015078D03*
X2017047D03*
X2019015D03*
X2020984D03*
X2022952D03*
X2024921D03*
X2026889D03*
X2028858D03*
Y1620118D03*
X2026889D03*
X2024921D03*
X2022952D03*
X2020984D03*
X2019015D03*
X2017047D03*
X2015078D03*
X2013110D03*
G54D71*
X2032401Y1600826D03*
Y1602795D03*
Y1604763D03*
Y1606732D03*
Y1608700D03*
Y1610669D03*
Y1612637D03*
Y1614606D03*
Y1616574D03*
X2009566D03*
Y1614606D03*
Y1612637D03*
Y1610669D03*
Y1608700D03*
Y1606732D03*
Y1604763D03*
Y1602795D03*
Y1600826D03*
G54D20*
X2020984Y1608700D03*
G54D417*
X2083505Y1593702D03*
G54D418*
Y1596852D03*
Y1600001D03*
Y1603151D03*
Y1606301D03*
G54D419*
Y1582480D03*
Y1617519D03*
G54D22*
X2105157D03*
Y1582480D03*
G54D421*
X2093740Y1591338D03*
Y1608661D03*
G54D422*
X1959551Y1655238D03*
Y1661234D03*
X1979223Y1565767D03*
Y1559771D03*
X1995037Y1565608D03*
Y1559612D03*
X2051763Y1573235D03*
Y1579231D03*
X2059637Y1573235D03*
Y1579231D03*
X2004960Y1622750D03*
Y1628746D03*
X2038463Y1583135D03*
Y1589131D03*
X1951623Y1559655D03*
Y1565651D03*
X1977847Y1628746D03*
Y1622750D03*
X1961183Y1565651D03*
Y1559655D03*
X1941628Y1565651D03*
Y1559655D03*
X1970231Y1565651D03*
Y1559655D03*
X1931396D03*
Y1565651D03*
X1997755Y1628746D03*
Y1622750D03*
X2103346Y1646816D03*
Y1640820D03*
X2103425Y1628064D03*
Y1634061D03*
X2002755Y1641332D03*
Y1647328D03*
X1987063Y1655238D03*
Y1661234D03*
G54D423*
X2064848Y1611456D03*
X2058852D03*
X2064848Y1602952D03*
X2058852D03*
X2064848Y1594251D03*
X2058852D03*
Y1619960D03*
X2064848D03*
Y1586102D03*
X2058852D03*
X1945134Y1580534D03*
X1951130D03*
X2085872Y1556574D03*
X2079875D03*
X2030565Y1652833D03*
X2036561D03*
X2023461D03*
X2017465D03*
X2045584Y1648661D03*
X2051580D03*
Y1634842D03*
X2045584D03*
X1951130Y1615801D03*
X1945134D03*
X1951130Y1589412D03*
X1945134D03*
Y1598259D03*
X1951130D03*
X1945134Y1607030D03*
X1951130D03*
G54D23*
X2087224Y1563582D03*
G54D24*
Y1567322D03*
Y1571062D03*
X2077421D03*
Y1563582D03*
G54D426*
X2013582Y1634212D03*
X2030905D03*
Y1644055D03*
X2013582D03*
G54D427*
X2070866Y1639370D03*
G54D428*
X1930968Y1647920D03*
X1966768Y1648220D03*
Y1630520D03*
X1930868Y1630720D03*
G54D429*
X1905511Y1542913D03*
X2094487D03*
Y1657086D03*
X1905511D03*
G54D33*
X1894685Y1529133D02*
G01X2077755D01*
Y1529133D02*
G75*
G03X2110236Y1561614J32481D01*
Y1561614D02*
G01Y1665944D01*
Y1665944D02*
G03X2105314Y1670866I-4922J0D01*
Y1670866D02*
G01X1922244D01*
Y1670866D02*
G03X1889763Y1638385I0J-32481D01*
Y1638385D02*
G01Y1534055D01*
Y1534055D02*
G03X1894685Y1529133I4922D01*
M02*
