G04 CAM350 V9.5 (Build 208) Date:  Fri Nov 28 16:59:12 2008 *
G04 Database: (Untitled) *
G04 Layer 4: sm002028.pho *
%FSLAX35Y35*%
%MOIN*%
%SFA1.000B1.000*%

%MIA0B0*%
%IPPOS*%
%ADD15R,0.06000X0.06000*%
%ADD17R,0.07000X0.07000*%
%ADD18C,0.06000*%
%ADD19C,0.07000*%
%ADD33C,0.01000*%
%ADD421C,0.02969*%
%ADD422R,0.05370X0.04098*%
%ADD423R,0.04098X0.05370*%
%ADD429C,0.06906*%
%ADD430O,0.08400X0.03400*%
%LNsm002028.pho*%
%LPD*%
G54D17*
X1921417Y1539212D03*
X1932952Y1579999D03*
X2070866Y1649370D03*
G54D19*
X1921417Y1549212D03*
X1931417Y1539212D03*
Y1549212D03*
X1941417Y1539212D03*
Y1549212D03*
X1951417Y1539212D03*
Y1549212D03*
X1961417Y1539212D03*
Y1549212D03*
X1922952Y1579999D03*
X1932952Y1589999D03*
X1922952D03*
X1932952Y1599999D03*
X1922952D03*
X1932952Y1609999D03*
X1922952D03*
X1932952Y1619999D03*
X1922952D03*
X2070866Y1639370D03*
Y1629370D03*
G54D15*
X2082363Y1545933D03*
G54D18*
Y1538059D03*
X2074489Y1545933D03*
Y1538059D03*
X2066615Y1545933D03*
Y1538059D03*
X2058741Y1545933D03*
Y1538059D03*
X2050867Y1545933D03*
Y1538059D03*
X2042993Y1545933D03*
Y1538059D03*
X2035119Y1545933D03*
Y1538059D03*
X2027245Y1545933D03*
Y1538059D03*
X2019371Y1545933D03*
Y1538059D03*
X2011497Y1545933D03*
Y1538059D03*
G54D421*
X2093740Y1591338D03*
Y1608661D03*
G54D422*
X1960197Y1604026D03*
Y1610022D03*
G54D423*
X1989078Y1664843D03*
X1995074D03*
X1983281Y1610112D03*
X1989277D03*
X1955824Y1664843D03*
X1961820D03*
G54D429*
X1905511Y1542913D03*
X2094487D03*
Y1657086D03*
X1905511D03*
G54D430*
X1948280Y1561221D03*
Y1566221D03*
Y1571221D03*
Y1576221D03*
Y1581221D03*
Y1586221D03*
Y1591221D03*
Y1596221D03*
X1970280D03*
Y1591221D03*
Y1586221D03*
Y1581221D03*
Y1576221D03*
Y1571221D03*
Y1566221D03*
Y1561221D03*
X1982237D03*
Y1566221D03*
Y1571221D03*
Y1576221D03*
Y1581221D03*
Y1586221D03*
Y1591221D03*
Y1596221D03*
X2004237D03*
Y1591221D03*
Y1586221D03*
Y1581221D03*
Y1576221D03*
Y1571221D03*
Y1566221D03*
Y1561221D03*
X1970280Y1656937D03*
Y1651937D03*
Y1646937D03*
Y1641937D03*
Y1636937D03*
Y1631937D03*
Y1626937D03*
Y1621937D03*
X1948280D03*
Y1626937D03*
Y1631937D03*
Y1636937D03*
Y1641937D03*
Y1646937D03*
Y1651937D03*
Y1656937D03*
X2004237D03*
Y1651937D03*
Y1646937D03*
Y1641937D03*
Y1636937D03*
Y1631937D03*
Y1626937D03*
Y1621937D03*
X1982237D03*
Y1626937D03*
Y1631937D03*
Y1636937D03*
Y1641937D03*
Y1646937D03*
Y1651937D03*
Y1656937D03*
G54D33*
X1894685Y1529133D02*
G01X2077755D01*
Y1529133D02*
G75*
G03X2110236Y1561614J32481D01*
Y1561614D02*
G01Y1665944D01*
Y1665944D02*
G03X2105314Y1670866I-4922J0D01*
Y1670866D02*
G01X1922244D01*
Y1670866D02*
G03X1889763Y1638385I0J-32481D01*
Y1638385D02*
G01Y1534055D01*
Y1534055D02*
G03X1894685Y1529133I4922D01*
M02*
