G04 CAM350 V9.5 (Build 208) Date:  Fri Nov 28 16:59:12 2008 *
G04 Database: (Untitled) *
G04 Layer 6: ssb002029.pho *
%FSLAX35Y35*%
%MOIN*%
%SFA1.000B1.000*%

%MIA0B0*%
%IPPOS*%
%ADD33C,0.01000*%
%ADD65C,0.00500*%
%ADD433C,0.00591*%
%LNssb002029.pho*%
%LPD*%
G54D33*
X1954280Y1558721D02*
G01X1958655D01*
Y1558721D02*
G01Y1561221D01*
Y1561221D02*
G01X1959905D01*
Y1561221D02*
G01Y1558721D01*
Y1558721D02*
G01X1964280D01*
Y1558721D02*
G01Y1598721D01*
Y1598721D02*
G01X1954280D01*
Y1598721D02*
G01Y1558721D01*
X1988237D02*
G01X1992612D01*
Y1558721D02*
G01Y1561221D01*
Y1561221D02*
G01X1993862D01*
Y1561221D02*
G01Y1558721D01*
Y1558721D02*
G01X1998237D01*
Y1558721D02*
G01Y1598721D01*
Y1598721D02*
G01X1988237D01*
Y1598721D02*
G01Y1558721D01*
X1964280Y1659437D02*
G01X1959905D01*
Y1659437D02*
G01Y1656937D01*
Y1656937D02*
G01X1958655D01*
Y1656937D02*
G01Y1659437D01*
Y1659437D02*
G01X1954280D01*
Y1659437D02*
G01Y1619437D01*
Y1619437D02*
G01X1964280D01*
Y1619437D02*
G01Y1659437D01*
X1998237D02*
G01X1993862D01*
Y1659437D02*
G01Y1656937D01*
Y1656937D02*
G01X1992612D01*
Y1656937D02*
G01Y1659437D01*
Y1659437D02*
G01X1988237D01*
Y1659437D02*
G01Y1619437D01*
Y1619437D02*
G01X1998237D01*
Y1619437D02*
G01Y1659437D01*
X1897040Y1563180D02*
G01X1896478Y1562953D01*
Y1562953D02*
G01X1895915Y1562499D01*
Y1562499D02*
G01X1895634Y1562044D01*
Y1562044D02*
G01Y1561135D01*
Y1561135D02*
G01X1895915Y1560680D01*
Y1560680D02*
G01X1896478Y1560226D01*
X1897040Y1559999*
Y1559999D02*
G01X1897884Y1559771D01*
Y1559771D02*
G01X1899290D01*
Y1559771D02*
G01X1900134Y1559999D01*
Y1559999D02*
G01X1900697Y1560226D01*
X1901259Y1560680*
Y1560680D02*
G01X1901540Y1561135D01*
Y1561135D02*
G01Y1562044D01*
Y1562044D02*
G01X1901259Y1562499D01*
Y1562499D02*
G01X1900697Y1562953D01*
Y1562953D02*
G01X1900134Y1563180D01*
X1897040Y1568635D02*
G01X1896478Y1568408D01*
X1895915Y1567953*
Y1567953D02*
G01X1895634Y1567499D01*
Y1567499D02*
G01Y1566590D01*
Y1566590D02*
G01X1895915Y1566135D01*
Y1566135D02*
G01X1896478Y1565680D01*
Y1565680D02*
G01X1897040Y1565453D01*
Y1565453D02*
G01X1897884Y1565226D01*
Y1565226D02*
G01X1899290D01*
Y1565226D02*
G01X1900134Y1565453D01*
Y1565453D02*
G01X1900697Y1565680D01*
Y1565680D02*
G01X1901259Y1566135D01*
Y1566135D02*
G01X1901540Y1566590D01*
Y1566590D02*
G01Y1567499D01*
Y1567499D02*
G01X1901259Y1567953D01*
Y1567953D02*
G01X1900697Y1568408D01*
X1900134Y1568635*
X1895634Y1575908D02*
G01X1901540D01*
X1895634D02*
G01Y1577499D01*
Y1577499D02*
G01X1895915Y1578180D01*
Y1578180D02*
G01X1896478Y1578635D01*
X1897040Y1578862*
Y1578862D02*
G01X1897884Y1579090D01*
Y1579090D02*
G01X1899290D01*
Y1579090D02*
G01X1900134Y1578862D01*
Y1578862D02*
G01X1900697Y1578635D01*
X1901259Y1578180*
Y1578180D02*
G01X1901540Y1577499D01*
Y1577499D02*
G01Y1575908D01*
X1899290Y1581135D02*
G01Y1583862D01*
Y1583862D02*
G01X1898728D01*
Y1583862D02*
G01X1898165Y1583635D01*
Y1583635D02*
G01X1897884Y1583408D01*
Y1583408D02*
G01X1897603Y1582953D01*
Y1582953D02*
G01Y1582271D01*
Y1582271D02*
G01X1897884Y1581817D01*
Y1581817D02*
G01X1898447Y1581362D01*
Y1581362D02*
G01X1899290Y1581135D01*
Y1581135D02*
G01X1899853D01*
X1900697Y1581362*
Y1581362D02*
G01X1901259Y1581817D01*
Y1581817D02*
G01X1901540Y1582271D01*
Y1582271D02*
G01Y1582953D01*
Y1582953D02*
G01X1901259Y1583408D01*
Y1583408D02*
G01X1900697Y1583862D01*
X1895634Y1585908D02*
G01X1901540D01*
X1898447D02*
G01X1897884Y1586362D01*
Y1586362D02*
G01X1897603Y1586817D01*
Y1587499*
X1897884Y1587953*
Y1587953D02*
G01X1898447Y1588408D01*
X1899290Y1588635*
Y1588635D02*
G01X1899853D01*
X1900697Y1588408*
X1901259Y1587953*
Y1587953D02*
G01X1901540Y1587499D01*
Y1587499D02*
G01Y1586817D01*
Y1586817D02*
G01X1901259Y1586362D01*
Y1586362D02*
G01X1900697Y1585908D01*
X1897603Y1590680D02*
G01X1900415D01*
Y1590680D02*
G01X1901259Y1590908D01*
Y1590908D02*
G01X1901540Y1591362D01*
Y1591362D02*
G01Y1592044D01*
Y1592044D02*
G01X1901259Y1592499D01*
Y1592499D02*
G01X1900415Y1593180D01*
X1897603D02*
G01X1901540D01*
X1897603Y1597953D02*
G01X1902103D01*
Y1597953D02*
G01X1902947Y1597726D01*
X1903228Y1597499*
X1903509Y1597044*
Y1597044D02*
G01Y1596362D01*
Y1596362D02*
G01X1903228Y1595908D01*
X1898447Y1597953D02*
G01X1897884Y1597499D01*
Y1597499D02*
G01X1897603Y1597044D01*
Y1597044D02*
G01Y1596362D01*
Y1596362D02*
G01X1897884Y1595908D01*
Y1595908D02*
G01X1898447Y1595453D01*
Y1595453D02*
G01X1899290Y1595226D01*
Y1595226D02*
G01X1899853D01*
X1900697Y1595453*
Y1595453D02*
G01X1901259Y1595908D01*
Y1595908D02*
G01X1901540Y1596362D01*
Y1596362D02*
G01Y1597044D01*
Y1597044D02*
G01X1901259Y1597499D01*
Y1597499D02*
G01X1900697Y1597953D01*
X1897603Y1602726D02*
G01X1902103D01*
X1902947Y1602499*
X1903228Y1602271*
Y1602271D02*
G01X1903509Y1601817D01*
Y1601817D02*
G01Y1601135D01*
Y1601135D02*
G01X1903228Y1600680D01*
X1898447Y1602726D02*
G01X1897884Y1602271D01*
Y1602271D02*
G01X1897603Y1601817D01*
Y1601135*
X1897884Y1600680*
Y1600680D02*
G01X1898447Y1600226D01*
X1899290Y1599999*
Y1599999D02*
G01X1899853D01*
X1900697Y1600226*
X1901259Y1600680*
Y1600680D02*
G01X1901540Y1601135D01*
Y1601135D02*
G01Y1601817D01*
Y1601817D02*
G01X1901259Y1602271D01*
Y1602271D02*
G01X1900697Y1602726D01*
X1899290Y1604771D02*
G01Y1607499D01*
Y1607499D02*
G01X1898728D01*
X1898165Y1607271*
Y1607271D02*
G01X1897884Y1607044D01*
Y1607044D02*
G01X1897603Y1606590D01*
Y1605908*
X1897884Y1605453*
Y1605453D02*
G01X1898447Y1604999D01*
X1899290Y1604771*
Y1604771D02*
G01X1899853D01*
Y1604771D02*
G01X1900697Y1604999D01*
X1901259Y1605453*
Y1605453D02*
G01X1901540Y1605908D01*
Y1605908D02*
G01Y1606590D01*
Y1606590D02*
G01X1901259Y1607044D01*
Y1607044D02*
G01X1900697Y1607499D01*
X1897603Y1609544D02*
G01X1901540D01*
X1899290D02*
G01X1898447Y1609771D01*
Y1609771D02*
G01X1897884Y1610226D01*
Y1610226D02*
G01X1897603Y1610680D01*
Y1610680D02*
G01Y1611362D01*
X1895634Y1618635D02*
G01X1901540Y1620453D01*
X1895634Y1622271D02*
G01X1901540Y1620453D01*
X1896759Y1624317D02*
G01X1896478Y1624771D01*
Y1624771D02*
G01X1895634Y1625453D01*
Y1625453D02*
G01X1901540D01*
X1900978Y1627726D02*
G01X1901259Y1627499D01*
Y1627499D02*
G01X1901540Y1627726D01*
Y1627726D02*
G01X1901259Y1627953D01*
Y1627953D02*
G01X1900978Y1627726D01*
X1895634Y1631362D02*
G01X1895915Y1630680D01*
Y1630680D02*
G01X1896759Y1630226D01*
Y1630226D02*
G01X1898165Y1629999D01*
Y1629999D02*
G01X1899009D01*
Y1629999D02*
G01X1900415Y1630226D01*
Y1630226D02*
G01X1901259Y1630680D01*
Y1630680D02*
G01X1901540Y1631362D01*
Y1631362D02*
G01Y1631817D01*
Y1631817D02*
G01X1901259Y1632499D01*
Y1632499D02*
G01X1900415Y1632953D01*
Y1632953D02*
G01X1899009Y1633180D01*
Y1633180D02*
G01X1898165D01*
Y1633180D02*
G01X1896759Y1632953D01*
Y1632953D02*
G01X1895915Y1632499D01*
Y1632499D02*
G01X1895634Y1631817D01*
Y1631817D02*
G01Y1631362D01*
Y1636590D02*
G01X1895915Y1635908D01*
Y1635908D02*
G01X1896759Y1635453D01*
Y1635453D02*
G01X1898165Y1635226D01*
Y1635226D02*
G01X1899009D01*
Y1635226D02*
G01X1900415Y1635453D01*
Y1635453D02*
G01X1901259Y1635908D01*
Y1635908D02*
G01X1901540Y1636590D01*
Y1636590D02*
G01Y1637044D01*
Y1637044D02*
G01X1901259Y1637726D01*
Y1637726D02*
G01X1900415Y1638180D01*
Y1638180D02*
G01X1899009Y1638408D01*
Y1638408D02*
G01X1898165D01*
Y1638408D02*
G01X1896759Y1638180D01*
Y1638180D02*
G01X1895915Y1637726D01*
Y1637726D02*
G01X1895634Y1637044D01*
Y1637044D02*
G01Y1636590D01*
X1894685Y1529133D02*
G01X2077755D01*
Y1529133D02*
G75*
G03X2110236Y1561614J32481D01*
Y1561614D02*
G01Y1665944D01*
Y1665944D02*
G03X2105314Y1670866I-4922J0D01*
Y1670866D02*
G01X1922244D01*
Y1670866D02*
G03X1889763Y1638385I0J-32481D01*
Y1638385D02*
G01Y1534055D01*
Y1534055D02*
G03X1894685Y1529133I4922D01*
G54D65*
X1974953Y1557752D02*
G01Y1555643D01*
Y1555643D02*
G01X1974840Y1555221D01*
Y1555221D02*
G01X1974612Y1554940D01*
Y1554940D02*
G01X1974271Y1554799D01*
Y1554799D02*
G01X1974044D01*
Y1554799D02*
G01X1973703Y1554940D01*
Y1554940D02*
G01X1973476Y1555221D01*
Y1555221D02*
G01X1973362Y1555643D01*
Y1555643D02*
G01Y1557752D01*
X1971203D02*
G01X1972340Y1555784D01*
X1970635*
X1971203Y1557752D02*
G01Y1554799D01*
X2010733Y1557946D02*
G01Y1555837D01*
Y1555837D02*
G01X2010620Y1555415D01*
Y1555415D02*
G01X2010392Y1555134D01*
Y1555134D02*
G01X2010051Y1554993D01*
Y1554993D02*
G01X2009824D01*
Y1554993D02*
G01X2009483Y1555134D01*
Y1555134D02*
G01X2009256Y1555415D01*
Y1555415D02*
G01X2009142Y1555837D01*
Y1555837D02*
G01Y1557946D01*
X2006756Y1557525D02*
G01X2006870Y1557806D01*
X2007211Y1557946*
Y1557946D02*
G01X2007438D01*
Y1557946D02*
G01X2007779Y1557806D01*
X2008006Y1557384*
Y1557384D02*
G01X2008120Y1556681D01*
Y1555978*
X2008006Y1555415*
Y1555415D02*
G01X2007779Y1555134D01*
X2007438Y1554993*
Y1554993D02*
G01X2007324D01*
Y1554993D02*
G01X2006983Y1555134D01*
Y1555134D02*
G01X2006756Y1555415D01*
Y1555415D02*
G01X2006642Y1555837D01*
Y1555837D02*
G01Y1555978D01*
Y1555978D02*
G01X2006756Y1556400D01*
Y1556400D02*
G01X2006983Y1556681D01*
Y1556681D02*
G01X2007324Y1556821D01*
Y1556821D02*
G01X2007438D01*
Y1556821D02*
G01X2007779Y1556681D01*
X2008006Y1556400*
Y1556400D02*
G01X2008120Y1555978D01*
X1972633Y1619641D02*
G01Y1617532D01*
Y1617532D02*
G01X1972520Y1617110D01*
Y1617110D02*
G01X1972292Y1616829D01*
Y1616829D02*
G01X1971951Y1616688D01*
Y1616688D02*
G01X1971724D01*
Y1616688D02*
G01X1971383Y1616829D01*
Y1616829D02*
G01X1971156Y1617110D01*
Y1617110D02*
G01X1971042Y1617532D01*
Y1617532D02*
G01Y1619641D01*
X1968542D02*
G01X1969679D01*
Y1619641D02*
G01X1969792Y1618376D01*
Y1618376D02*
G01X1969679Y1618516D01*
Y1618516D02*
G01X1969338Y1618657D01*
Y1618657D02*
G01X1968997D01*
Y1618657D02*
G01X1968656Y1618516D01*
Y1618516D02*
G01X1968429Y1618235D01*
Y1618235D02*
G01X1968315Y1617813D01*
Y1617813D02*
G01X1968429Y1617532D01*
Y1617532D02*
G01X1968542Y1617110D01*
Y1617110D02*
G01X1968770Y1616829D01*
X1969111Y1616688*
Y1616688D02*
G01X1969451D01*
Y1616688D02*
G01X1969792Y1616829D01*
Y1616829D02*
G01X1969906Y1616970D01*
Y1616970D02*
G01X1970020Y1617251D01*
X2010733Y1618868D02*
G01Y1616759D01*
Y1616759D02*
G01X2010620Y1616337D01*
Y1616337D02*
G01X2010392Y1616056D01*
Y1616056D02*
G01X2010051Y1615915D01*
Y1615915D02*
G01X2009824D01*
Y1615915D02*
G01X2009483Y1616056D01*
Y1616056D02*
G01X2009256Y1616337D01*
Y1616337D02*
G01X2009142Y1616759D01*
Y1616759D02*
G01Y1618868D01*
X2006529D02*
G01X2007665Y1615915D01*
X2008120Y1618868D02*
G01X2006529D01*
X2004581Y1665549D02*
G01X2004694Y1665831D01*
Y1665831D02*
G01X2004922Y1666112D01*
X2005149Y1666252*
Y1666252D02*
G01X2005603D01*
Y1666252D02*
G01X2005831Y1666112D01*
X2006058Y1665831*
Y1665831D02*
G01X2006172Y1665549D01*
Y1665549D02*
G01X2006285Y1665127D01*
Y1665127D02*
G01Y1664424D01*
Y1664424D02*
G01X2006172Y1664002D01*
Y1664002D02*
G01X2006058Y1663721D01*
Y1663721D02*
G01X2005831Y1663440D01*
X2005603Y1663299*
Y1663299D02*
G01X2005149D01*
Y1663299D02*
G01X2004922Y1663440D01*
X2004694Y1663721*
Y1663721D02*
G01X2004581Y1664002D01*
X2003558Y1665690D02*
G01X2003331Y1665831D01*
X2002990Y1666252*
Y1666252D02*
G01Y1663299D01*
X2001740Y1666252D02*
G01X2000490D01*
Y1666252D02*
G01X2001172Y1665127D01*
Y1665127D02*
G01X2000831D01*
Y1665127D02*
G01X2000603Y1664987D01*
Y1664987D02*
G01X2000490Y1664846D01*
Y1664846D02*
G01X2000376Y1664424D01*
Y1664424D02*
G01Y1664143D01*
Y1664143D02*
G01X2000490Y1663721D01*
Y1663721D02*
G01X2000717Y1663440D01*
Y1663440D02*
G01X2001058Y1663299D01*
Y1663299D02*
G01X2001399D01*
Y1663299D02*
G01X2001740Y1663440D01*
X2001853Y1663581*
Y1663581D02*
G01X2001967Y1663862D01*
X1996264Y1610816D02*
G01X1996377Y1611098D01*
Y1611098D02*
G01X1996605Y1611379D01*
X1996832Y1611519*
Y1611519D02*
G01X1997286D01*
Y1611519D02*
G01X1997514Y1611379D01*
X1997741Y1611098*
Y1611098D02*
G01X1997855Y1610816D01*
Y1610816D02*
G01X1997968Y1610394D01*
Y1610394D02*
G01Y1609691D01*
Y1609691D02*
G01X1997855Y1609269D01*
Y1609269D02*
G01X1997741Y1608988D01*
Y1608988D02*
G01X1997514Y1608707D01*
X1997286Y1608566*
Y1608566D02*
G01X1996832D01*
Y1608566D02*
G01X1996605Y1608707D01*
X1996377Y1608988*
Y1608988D02*
G01X1996264Y1609269D01*
X1995014Y1611519D02*
G01X1993764D01*
Y1611519D02*
G01X1994446Y1610394D01*
Y1610394D02*
G01X1994105D01*
Y1610394D02*
G01X1993877Y1610254D01*
Y1610254D02*
G01X1993764Y1610113D01*
Y1610113D02*
G01X1993650Y1609691D01*
Y1609691D02*
G01Y1609410D01*
Y1609410D02*
G01X1993764Y1608988D01*
Y1608988D02*
G01X1993991Y1608707D01*
Y1608707D02*
G01X1994332Y1608566D01*
Y1608566D02*
G01X1994673D01*
Y1608566D02*
G01X1995014Y1608707D01*
X1995127Y1608848*
Y1608848D02*
G01X1995241Y1609129D01*
X1959904Y1616811D02*
G01X1960017Y1617093D01*
Y1617093D02*
G01X1960245Y1617374D01*
X1960472Y1617514*
Y1617514D02*
G01X1960926D01*
Y1617514D02*
G01X1961154Y1617374D01*
X1961381Y1617093*
Y1617093D02*
G01X1961495Y1616811D01*
Y1616811D02*
G01X1961608Y1616389D01*
Y1616389D02*
G01Y1615686D01*
Y1615686D02*
G01X1961495Y1615264D01*
Y1615264D02*
G01X1961381Y1614983D01*
Y1614983D02*
G01X1961154Y1614702D01*
X1960926Y1614561*
Y1614561D02*
G01X1960472D01*
Y1614561D02*
G01X1960245Y1614702D01*
X1960017Y1614983*
Y1614983D02*
G01X1959904Y1615264D01*
X1957745Y1617514D02*
G01X1958881Y1615546D01*
Y1615546D02*
G01X1957176D01*
X1957745Y1617514D02*
G01Y1614561D01*
X1969381Y1665742D02*
G01X1969494Y1666024D01*
Y1666024D02*
G01X1969722Y1666305D01*
X1969949Y1666445*
Y1666445D02*
G01X1970403D01*
Y1666445D02*
G01X1970631Y1666305D01*
X1970858Y1666024*
Y1666024D02*
G01X1970972Y1665742D01*
Y1665742D02*
G01X1971085Y1665320D01*
Y1665320D02*
G01Y1664617D01*
Y1664617D02*
G01X1970972Y1664195D01*
Y1664195D02*
G01X1970858Y1663914D01*
Y1663914D02*
G01X1970631Y1663633D01*
X1970403Y1663492*
Y1663492D02*
G01X1969949D01*
Y1663492D02*
G01X1969722Y1663633D01*
X1969494Y1663914*
Y1663914D02*
G01X1969381Y1664195D01*
X1966881Y1666445D02*
G01X1968017D01*
Y1666445D02*
G01X1968131Y1665180D01*
X1968017Y1665320*
Y1665320D02*
G01X1967676Y1665461D01*
Y1665461D02*
G01X1967335D01*
Y1665461D02*
G01X1966994Y1665320D01*
Y1665320D02*
G01X1966767Y1665039D01*
Y1665039D02*
G01X1966653Y1664617D01*
Y1664617D02*
G01X1966767Y1664336D01*
Y1664336D02*
G01X1966881Y1663914D01*
Y1663914D02*
G01X1967108Y1663633D01*
Y1663633D02*
G01X1967449Y1663492D01*
Y1663492D02*
G01X1967790D01*
Y1663492D02*
G01X1968131Y1663633D01*
X1968244Y1663774*
Y1663774D02*
G01X1968358Y1664055D01*
G54D433*
X1994832Y1661300D02*
G01X1989320D01*
Y1668387D02*
G03X1989320Y1661300J-3543D01*
Y1668387D02*
G01X1994832D01*
Y1661300D02*
G03X1994832Y1668387J3544D01*
X1989035Y1606569D02*
G01X1983523D01*
Y1613656D02*
G03X1983523Y1606569J-3543D01*
Y1613656D02*
G01X1989035D01*
Y1606569D02*
G03X1989035Y1613656J3544D01*
X1963741Y1609780D02*
G01Y1604268D01*
X1956654D02*
G03X1963741Y1604268I3544D01*
X1956654D02*
G01Y1609780D01*
X1963741D02*
G03X1956654Y1609780I-3543D01*
X1961578Y1661300D02*
G01X1956066D01*
Y1668387D02*
G03X1956066Y1661300J-3543D01*
Y1668387D02*
G01X1961578D01*
Y1661300D02*
G03X1961578Y1668387J3544D01*
M02*
